<svg width="110" height="67" viewBox="0 0 110 67" fill="none" xmlns="http://www.w3.org/2000/svg">
<path d="M65.3881 17.4678C66.5959 17.3471 67.7982 17.2264 69.006 17.1057C70.6183 16.9333 72.225 16.6919 73.8373 16.6057C74.5299 16.5712 75.228 16.985 75.9205 16.9333C76.5743 16.8815 77.2281 16.3642 77.8819 16.2953C81.1064 15.9504 84.3365 15.709 87.5611 15.3469C88.0708 15.2951 88.575 15.1917 89.0847 15.1572C89.5224 15.1227 89.8382 15.1744 90.1706 16.1573C90.5031 17.1402 90.6194 16.8988 90.7302 15.0192C92.1375 14.8296 93.5559 14.6226 94.9742 14.4502C95.6723 14.364 96.3704 14.3985 97.0685 14.3295C97.4287 14.295 97.8054 14.3295 98.0991 13.4673C98.1655 13.9674 98.232 14.4674 98.3096 15.071C97.6558 16.1056 96.8912 14.864 96.315 16.1401C96.2707 16.9678 96.4425 17.1057 96.5643 17.1402C96.8525 17.2092 97.1406 17.1057 97.4287 17.1402C97.8608 17.2092 98.293 17.3471 98.7251 17.4678C99.0132 17.5368 99.3013 17.6575 99.5894 17.692C100.199 17.7955 100.199 17.7782 100.675 19.5026C101.867 19.4336 103.069 19.3646 104.266 19.3129C104.332 19.3129 104.393 19.3301 104.454 19.3474C104.387 19.3301 104.327 19.3129 104.26 19.2784C105.313 18.7439 106.354 18.7266 107.402 19.6923C107.363 20.5027 107.152 20.313 106.992 20.3475C106.77 20.3992 106.548 20.4682 106.332 20.382C105.507 20.0371 104.731 20.4165 103.944 21.8994C104.271 22.2271 104.548 22.5892 104.836 22.7961C105.152 23.0203 105.479 23.1582 105.8 23.2617C106.598 23.5203 107.413 23.5548 108.199 24.0204C108.698 24.3135 109.302 24.6239 109.457 26.9001C109.324 27.1415 109.208 27.4519 109.08 27.5726C108.903 27.7105 108.681 27.6588 108.676 28.4348C108.665 29.4004 108.942 29.3487 109.141 29.5039C109.319 29.6418 109.501 29.7108 109.74 29.8487C109.823 31.0385 109.906 32.2284 110 33.5734C109.474 35.4184 108.737 36.0909 108.033 36.66C107.435 40.5915 107.374 40.1949 108.133 44.6437C107.928 45.4197 107.662 45.1611 107.418 45.0059C106.87 44.6782 106.432 45.3162 105.983 46.2129C105.656 46.8682 105.579 47.7648 105.534 48.9719C105.291 49.0236 105.047 49.1443 104.797 49.1271C104.099 49.0926 103.401 48.9546 102.709 48.9719C102.421 48.9719 102.121 49.1443 101.85 49.4375C101.717 49.5927 101.634 50.1962 101.468 50.8342C101.783 51.1963 102.011 51.5412 102.254 51.6964C102.498 51.8516 102.748 51.8343 103.002 52.0757C101.783 53.1793 100.498 52.2999 99.2016 53.2828C99.1795 54.4554 99.1628 55.5589 99.1407 56.8695C98.7085 57.7316 98.1766 57.404 97.6891 57.5075C96.9965 57.6627 96.2984 57.5247 95.6003 57.5764C95.3842 57.5764 95.1404 57.6109 94.9521 57.8868C94.0601 59.1973 93.0905 59.2146 92.1486 59.3181C87.5943 59.8181 83.04 60.1975 78.4858 60.6458C78.2309 60.663 77.9761 60.801 77.7267 61.0079C77.6436 61.0769 77.5328 61.508 77.5384 61.7666C77.5494 62.1805 77.6104 62.715 77.7046 62.922C77.8486 63.2151 78.0425 63.3358 78.2198 63.3703C78.5412 63.4393 78.8681 63.3875 79.195 63.8359C78.7406 63.9221 78.2863 64.06 77.832 64.06C77.0563 64.06 76.2917 64.1118 75.5382 64.836C75.433 64.9395 75.3222 65.0084 75.2114 65.0084C74.3747 65.0084 73.5437 65.1291 72.768 66.3362C72.5852 66.6293 72.3359 66.5259 72.1142 66.5431C70.0587 66.6638 68.0032 66.7156 65.9532 66.8707C62.2023 67.1639 58.4625 66.9397 54.7171 66.3879C52.1131 66.0086 49.498 65.9913 46.894 65.7672C44.8385 65.5947 42.7774 65.4913 40.733 64.6981C40.6942 64.6981 40.661 64.6463 40.6222 64.6636C39.7966 65.1636 39.1872 64.198 38.7883 61.8184C36.9322 61.5597 35.1039 61.37 33.2755 61.0597C31.1812 60.6975 29.0924 60.2664 27.0037 59.8009C25.059 59.3698 23.1143 59.1973 21.164 59.5767C21.02 59.6112 20.8704 59.6284 20.7263 59.7319C20.333 59.9906 19.9507 60.4734 19.5573 60.5596C17.6901 60.9562 15.8285 61.9736 13.9503 61.6287C13.147 61.4735 12.3491 61.2148 11.5458 61.4907C11.2964 61.577 11.025 61.4045 10.7867 61.1804C9.03038 59.525 7.27405 57.8179 5.51772 56.1452C4.67003 55.3348 3.82234 54.5761 2.97465 53.7656C2.69762 53.507 2.42614 53.1621 2.12695 52.8172C2.03277 51.0928 2.20452 49.6616 2.48154 48.0752C2.12141 47.7131 1.78344 47.3682 1.37345 46.9371C1.24602 45.1955 1.11305 43.3332 0.968994 41.3502C1.35129 39.4017 1.9552 37.6428 1.77236 34.8321C1.66709 34.7287 1.53966 34.608 1.32913 34.401C1.35683 33.7975 1.32912 33.0388 1.42885 32.5215C1.76682 30.7799 1.58399 28.8141 1.71142 26.9863C1.71696 26.8656 1.5452 26.6414 1.45656 26.4517L1.48426 26.5035C1.65047 25.055 1.6948 23.6066 1.50088 22.1408C1.35129 21.02 1.35129 19.8647 1.58399 18.8646C1.89979 17.5196 1.87209 16.0539 1.77236 14.5882C1.68926 13.3639 1.56182 12.1568 1.42885 10.9842C1.12413 8.22526 1.15183 7.70795 1.83885 5.01795C2.74195 4.69032 3.51761 6.32847 4.35976 6.98372C5.20746 7.63898 6.00529 8.91501 6.85852 9.96687C6.8973 9.51853 6.93609 9.05295 6.99149 8.36321C7.57878 8.94949 8.16607 9.55302 8.75336 10.1221C9.34065 10.7083 9.92794 11.2774 10.5873 11.1912C10.4875 10.967 10.3989 10.6566 10.2881 10.5187C9.73956 9.8634 9.1966 9.15642 8.63147 8.6736C7.99432 8.1218 7.35716 7.60449 6.75325 6.72507C6.46515 6.31122 6.1161 6.32847 5.79475 6.15603C5.43462 5.98359 5.06341 5.93186 4.70881 5.62148C3.96639 4.98347 3.22951 4.24199 2.49262 3.50052C2.36519 3.37981 2.25438 3.08667 2.09925 2.79353C2.36519 1.55199 2.681 1.75891 2.99127 2.0693C4.0772 3.1384 5.16313 4.22475 6.25461 5.29385C6.42636 5.46629 6.6092 5.75943 6.78095 5.7077C6.99703 5.63872 7.1023 4.58686 7.42365 5.08693C7.67851 5.48353 7.99432 5.53526 8.27134 5.8284C8.51512 6.08706 8.73674 6.53539 8.97498 6.79404C11.0028 8.94949 13.0694 10.5014 15.2357 10.2083C16.3715 10.0531 17.5073 9.8634 18.6431 9.67372C19.524 9.51853 20.3994 9.27712 21.2804 9.17366C22.0117 9.10469 22.7431 8.96674 23.4799 9.39783C23.8678 9.62199 24.2833 9.36334 24.6822 9.48404C25.0036 9.58751 25.3582 9.70821 25.6186 10.2083C26.433 11.743 27.3417 12.2603 28.2448 12.4672C31.6134 13.2604 34.9875 13.8812 38.3561 14.5364C40.9214 15.0192 43.4866 15.5021 46.0518 15.8987C48.1406 16.2263 50.2294 16.4677 52.3181 16.6401C52.8555 16.6919 53.3819 17.0367 53.9304 16.8126C54.4678 16.5884 55.0219 16.9333 55.5704 17.0023C56.1189 17.0712 56.6729 17.0885 57.227 17.123C57.8143 17.1747 58.4016 17.2092 58.9888 17.2609C59.5374 17.2954 60.0859 17.3299 60.6399 17.3816C61.194 17.4333 61.7425 17.4851 62.2965 17.5196C62.845 17.554 63.3935 17.5885 63.942 17.5885C64.413 17.5885 64.8895 17.5368 65.3604 17.5368C65.3493 17.8299 65.3382 18.1231 65.3604 17.6748C65.3604 18.0886 65.3604 17.7955 65.3604 17.4851L65.3881 17.4678Z" fill="#F3E5FF"/>
<path d="M100.421 14.5708C100.26 14.4673 100.099 14.088 99.9939 14.9157C99.9551 15.2261 99.7834 15.364 99.6726 15.5709C99.6172 15.1571 99.5618 14.7605 99.5063 14.3466C99.8314 13.6454 100.127 13.7316 100.393 14.6053L100.421 14.5708Z" fill="#F3E5FF"/>
<path d="M101.628 17.7609C101.568 17.7609 101.507 17.7954 101.451 17.7954C101.451 17.7954 101.44 17.5885 101.446 17.5885C101.507 17.554 101.568 17.5367 101.628 17.5023C101.628 17.5885 101.628 17.6747 101.628 17.7609Z" fill="#F3E5FF"/>
<path d="M3.74487 0.120705C3.74487 0.120705 3.77812 0 3.79474 0C3.82244 0 3.85568 0.0344872 3.88338 0.0517308C3.86122 0.120705 3.8446 0.24141 3.8169 0.258654C3.80028 0.258654 3.76703 0.172436 3.74487 0.120705Z" fill="#F3E5FF"/>
<path d="M32.184 10.4841L32.0898 10.4496L32.1175 10.3116L32.184 10.4841Z" fill="#F3E5FF"/>
<path d="M34.4222 10.7944L34.4554 10.9151L34.3723 10.8462L34.4222 10.7944Z" fill="#F3E5FF"/>
<path d="M100.393 14.6054C100.52 14.6571 100.642 14.7088 100.77 14.7606C100.753 14.8813 100.736 15.002 100.725 15.1227C100.626 14.933 100.531 14.7433 100.426 14.5536L100.393 14.6054Z" fill="#F3E5FF"/>
<path d="M99.052 14.3295C99.257 14.7433 99.4675 15.1572 99.6725 15.571C99.4565 15.2261 99.1296 15.3986 99.0686 14.3295H99.052Z" fill="#F3E5FF"/>
<path d="M99.063 14.3294C98.7029 14.4674 98.3815 14.1742 98.1045 13.45C98.4148 13.7432 98.725 14.0363 99.0464 14.3294H99.0685H99.063Z" fill="#F3E5FF"/>
<path d="M1.48438 26.4517C1.48438 26.4517 1.50047 26.4687 1.50584 26.4856L1.48438 26.4517Z" fill="#F3E5FF"/>
<path d="M65.3875 17.4677C65.3875 17.7781 65.3823 18.0885 65.3875 17.6574C65.3666 18.1057 65.3823 17.8126 65.3875 17.5194V17.4677Z" fill="#F3E5FF"/>
</svg>
