<svg width="178" height="98" viewBox="0 0 178 98" fill="none" xmlns="http://www.w3.org/2000/svg">
<path d="M4.94792 60.8589C4.66003 61.184 4.60245 60.5541 4.48729 60.1478C4.1994 63.1751 3.48927 65.4711 2.40487 67.2184C2.83671 71.0179 1.87707 73.2935 0.994198 75.3863C0.975005 76.8085 0.93662 77.9463 0.946216 79.0638C0.975005 82.1725 2.08819 84.8138 3.33572 84.7529C5.17823 84.6716 7.03034 84.6107 8.87285 84.4481C10.5522 84.3059 12.222 84.0824 13.9014 83.7979C17.9223 83.0868 21.9336 82.2335 25.9545 81.6036C28.4687 81.2175 30.9926 81.2988 33.4972 80.9128C35.9827 80.5267 38.5162 81.9084 40.9633 79.7343C42.3068 79.6937 43.6502 79.5921 44.9841 79.6327C48.458 79.7343 51.9224 79.8766 55.3963 80.0594C57.1812 80.161 58.9757 79.9578 60.7607 79.9578C63.9467 79.9578 67.1327 80.4861 70.3187 80.7909C70.6546 80.8315 71 80.8518 71.3167 81.0753C72.9001 82.1928 74.4931 82.4569 76.1149 81.6442C76.5467 81.441 77.0074 81.6036 77.4584 81.6442C78.1781 81.7255 78.9075 81.8271 79.6272 81.949C82.842 82.5585 86.0952 82.3147 89.262 84.2043C89.5883 84.4075 89.9337 84.3872 90.2696 84.3668C91.3828 84.3262 92.496 84.6513 93.6092 84.7529C96.2194 84.9967 98.8296 85.3218 101.44 85.6672C102.831 85.8501 104.232 85.8907 105.566 87.252C105.96 87.6584 106.478 87.9835 106.871 87.699C107.937 86.9472 108.963 87.3536 110.019 87.6177C111.123 87.9022 112.226 88.0444 113.339 88.2476C113.896 88.3492 114.462 88.3898 115.009 88.593C115.278 88.6946 115.662 88.9181 115.758 89.3854C116.285 91.9455 117.264 92.2096 118.176 92.4331C122.072 93.3474 125.978 94.1195 129.884 94.9525C132.667 95.5418 135.459 96.0904 138.242 96.6796C144.326 97.9799 150.401 98.813 156.485 96.7608C157.157 96.5374 157.675 96.3545 157.848 94.3836C157.896 93.835 158.212 93.3881 158.443 93.0223C158.663 92.6566 159.018 92.6363 159.162 92.169C159.508 91.0108 159.978 90.8077 160.487 90.6045C162.147 89.9746 163.797 89.2025 165.457 88.6539C166.139 88.4305 166.734 87.8209 167.348 87.0895C168.317 85.9313 168.989 83.8995 169.814 82.1928C169.536 80.6283 169.555 79.2264 170.246 78.3121C170.975 77.3368 171.561 75.7114 172.434 75.3253C172.674 75.2237 172.991 74.6751 173.087 74.1266C173.403 72.3589 173.691 70.5303 173.883 68.661C174.229 65.2273 174.747 63.0735 176.033 61.9561C176.532 61.5294 177.117 61.2652 177.357 59.4569C177.098 59.5179 176.896 59.5585 176.685 59.6398C175.639 60.0258 174.593 60.4728 173.547 60.7573C173.192 60.8589 172.895 60.3509 173.019 59.1725C173.547 58.3801 174.19 57.8518 174.555 56.7546C174.958 55.5152 175.447 55.1495 175.966 54.6822C176.551 54.1742 177.136 53.7476 177.722 53.2396C177.808 53.1583 177.875 52.8739 178 52.5488C177.818 51.4923 177.626 50.3748 177.424 49.1557C176.781 49.6433 176.253 50.0294 175.716 50.4357C174.92 51.0453 174.142 51.9596 173.259 51.4313C173.106 51.3297 172.923 51.4923 172.76 51.5939C170.572 52.7926 168.384 54.032 166.196 55.2105C165.429 55.6168 164.661 55.9013 163.884 56.0638C163.596 56.1248 163.375 55.5356 163.567 54.3368C164.047 54.1133 164.584 53.8288 165.131 53.585C166.503 52.9958 167.885 52.4066 169.258 51.8174L169.402 51.2281C169.354 51.4313 169.306 51.6345 169.258 51.858C170.246 50.6389 171.244 49.5214 172.242 48.3836C173.48 46.9613 174.872 46.2299 175.937 43.8527C176.09 43.5073 176.34 43.426 176.551 43.2228C176.109 42.979 175.783 42.4101 175.706 41.191C174.449 42.3288 173.192 43.4666 171.935 44.5841C171.734 44.767 171.474 45.0921 171.302 44.9499C170.169 43.934 169.143 45.1734 168.096 45.8439C167.665 46.1283 167.242 46.4737 166.801 46.6363C164.719 47.4693 162.627 48.2414 160.535 49.0338C160.631 49.176 160.736 49.2979 160.803 49.5011C160.832 49.6027 160.774 49.8871 160.765 50.07C160.726 49.9684 160.669 49.8871 160.659 49.7856C160.63 49.5214 160.611 49.237 160.592 48.9728C160.036 49.0947 159.489 49.237 158.942 49.3589C158.222 49.5214 157.473 50.0294 156.782 49.7652C155.708 49.3589 154.662 49.6027 153.606 49.7652C149.47 50.3138 145.334 49.9075 141.198 49.1963C138.636 48.7493 136.083 48.0382 133.521 47.4896C131.294 47.0223 129.058 46.6769 126.832 46.2096C123.32 45.4578 119.817 44.5029 116.305 43.873C113.013 43.2838 109.712 42.9384 106.42 42.6742C103.733 42.4507 101.075 41.191 98.3786 41.6583C97.2846 40.8659 96.1618 41.1707 95.0486 41.0285C94.5976 40.9675 94.1466 40.9269 93.7147 40.7237C93.3117 40.5408 92.995 40.0126 93.0622 38.4684C93.6092 38.4887 94.1562 38.4684 94.7128 38.5497C95.2214 38.6106 95.7204 38.7732 96.2194 38.8138C98.4554 39.0373 100.691 39.2405 102.918 39.464C107.274 39.8907 111.631 40.2767 115.978 41.1707C118.435 41.6787 120.892 41.9225 123.348 42.4304C127.36 43.2838 131.371 44.3606 135.392 45.153C138.731 45.8235 142.081 46.3112 145.43 46.6769C147.829 46.941 150.238 47.0223 152.646 46.8801C154.374 46.7785 156.091 46.1893 157.848 45.8235C157.78 44.9702 157.732 44.32 157.675 43.6089C158.222 42.6742 158.836 42.6133 159.45 42.5117C160.506 42.3085 161.59 42.5117 162.559 41.1098C162.646 40.9878 162.799 40.9066 162.866 41.0285C163.788 42.7962 164.642 41.0894 165.582 41.0285C165.621 39.2608 165.909 37.8386 165.755 36.1115C165.304 36.1725 164.92 36.2537 164.536 36.2741C163.586 36.335 162.636 36.2131 161.696 36.4163C160.304 36.7211 158.922 37.4525 157.531 37.6151C156.063 37.7979 154.556 38.7935 153.107 37.0665C152.781 36.6804 152.33 36.7414 151.946 36.8226C150.842 37.0461 149.719 36.2944 148.645 37.737C148.328 38.1636 147.877 38.0214 147.483 38.0011C146.14 37.8995 144.806 37.737 143.463 37.5744C143.299 37.5541 143.107 37.5135 142.973 37.29C142.023 35.7661 140.958 35.8067 139.902 35.7052C139.451 35.6645 138.962 35.8271 138.568 35.4004C137.388 34.0594 136.16 34.4048 134.931 34.3032C133.981 34.2219 133.022 34.3032 132.081 34.0797C128.348 33.2467 124.634 32.1292 120.892 31.5196C119.328 31.2555 117.792 30.9507 116.276 29.9552C115.902 29.7113 115.46 29.4675 115.124 29.7723C113.8 30.9507 112.514 28.8986 111.209 29.6707C109.818 28.2688 108.349 28.6548 106.91 28.4923C105.403 28.3094 103.906 27.903 102.399 27.5779C102.294 27.5576 102.16 27.4764 102.092 27.3138C101.977 27.0294 101.852 26.6636 101.833 26.2979C101.824 25.9728 101.939 25.3633 102.035 25.3023C102.457 25.0382 102.898 24.7537 103.33 24.7944C106.958 25.1804 110.585 25.6477 114.213 26.0541C115.547 26.2166 116.89 26.176 118.234 26.4401C123.089 27.3748 127.945 28.4313 132.791 29.4066C133.895 29.6301 135.008 29.752 136.121 29.9552C136.678 30.0567 137.225 30.3006 137.781 30.4021C139.403 30.7069 141.015 30.9304 142.637 31.2352C146.092 31.926 149.547 32.1698 153.011 31.8447C154.22 31.7431 155.42 30.8898 156.638 31.5806C156.725 31.6415 156.84 31.3977 157.041 31.2352C156.85 29.9348 157.118 29.1018 157.608 28.7564C158.145 28.3907 158.702 28.2078 159.249 27.9233C160.285 27.3748 161.379 27.5373 162.358 26.2776C162.271 26.1354 162.185 26.0135 162.108 25.8306C162.08 25.7696 162.089 25.5868 162.08 25.4852C162.156 25.5258 162.291 25.4852 162.3 25.5868C162.329 25.8103 162.3 26.0947 162.3 26.3589C162.617 26.1354 162.924 25.9322 163.241 25.7087H163.222C163.625 23.0673 164.709 23.7378 165.477 22.9861C165.314 21.0355 165.227 20.6698 164.863 20.9136C164.066 21.4216 163.193 21.0965 162.454 22.4781C161.993 23.3518 161.504 23.047 161.101 21.9702C160.957 21.5841 160.755 21.2997 160.63 21.0559C159.978 21.5841 159.325 21.7467 158.836 22.5594C157.943 23.9816 157.243 23.5347 156.6 21.7873C156.245 20.812 155.899 20.0603 155.324 20.1009C154.825 20.1415 154.71 19.085 154.633 18.0894H154.642C153.433 18.9021 152.234 19.7352 151.072 20.5276C150.823 19.7961 150.65 19.2882 150.458 18.699C150.17 19.4304 149.902 20.1009 149.633 20.7714C149.7 21.3606 150.084 21.6044 149.921 22.4781C149.556 22.0921 149.652 21.3809 149.681 20.6901C149.278 21.1574 148.884 21.6248 148.433 22.1327C147.848 21.3403 147.272 19.6336 146.553 21.5028C146.831 21.6857 147.224 21.4216 147.263 22.9861C146.984 22.3359 146.802 21.8889 146.601 21.4622C146.581 20.7917 146.562 20.1212 146.543 19.3491C145.9 19.7352 145.315 20.1009 144.604 20.5276C144.537 19.2272 144.153 18.7193 143.693 18.699C143.213 18.699 142.714 18.191 142.301 19.4304C141.956 20.4666 141.466 20.6089 140.987 20.0196C140.987 19.4101 140.977 18.9834 140.967 18.2926C140.152 18.2316 139.336 18.191 138.52 18.1301C137.849 19.7555 137.321 18.5974 136.783 17.5408C136.726 17.7237 136.678 17.9269 136.62 18.1097C136.678 17.9066 136.726 17.7034 136.783 17.5002C136.284 17.5002 135.785 17.5002 135.306 17.5205C135.258 17.7034 135.219 17.805 135.19 17.9269C134.835 19.6133 134.72 19.6539 134.346 18.2316C134.26 17.8862 134.183 17.5205 134.164 17.4392C132.916 17.0126 131.764 16.5046 130.603 16.3014C130.028 16.1998 129.442 16.0983 128.818 16.5452C128.262 16.9516 127.561 15.8748 126.909 15.6513C126.083 15.3668 125.239 15.2855 124.404 15.0823C122.849 14.7166 121.295 14.3103 119.74 14.0055C119.596 13.9852 119.424 14.5744 119.222 14.9604C118.579 13.7007 117.821 13.1318 116.938 13.396C116.449 13.5382 115.921 13.396 115.431 13.1318C114.04 12.3597 112.648 12.7661 111.247 12.7661C110.931 12.7661 110.604 13.1725 110.288 13.4163C109.798 13.8226 109.731 12.0956 109.299 12.1769C109.136 12.1972 108.963 12.1362 108.8 12.1159C103.791 11.4657 98.772 10.9375 93.7627 10.1248C91.3732 9.73871 88.9837 10.0028 86.5846 9.27139C84.0991 8.49931 81.5753 8.41804 79.061 8.03199C76.2205 7.60531 73.3703 7.11768 70.5298 6.77227C69.0328 6.58941 67.5261 6.691 66.0195 6.52846C63.4572 6.24401 60.895 5.79701 58.3328 5.57351C57.0564 5.4516 55.7801 5.65478 54.5038 5.71574C54.6381 5.93924 54.7821 6.1221 54.8972 6.40655C54.9356 6.50814 54.8972 6.81291 54.8972 7.03641C54.8013 6.97546 54.6573 6.95514 54.6381 6.81291C54.5806 6.44719 54.5902 6.04083 54.571 5.63446C54.024 5.59383 53.477 5.53287 52.9204 5.49224C52.0375 5.41097 51.1546 5.35001 50.2718 5.18747C49.9359 5.12651 49.6096 4.8827 49.5424 3.62298C49.7632 2.85089 50.0223 1.9569 50.2718 1.08323L50.3006 1.00195C50.0894 1.14418 49.8879 1.40831 49.6768 1.40831C47.6711 1.388 45.6655 1.24577 43.6598 1.30672C42.9017 1.32704 42.0956 0.859727 41.3855 2.16008C41.2511 2.4039 40.9441 2.32263 40.7617 2.16008C39.8021 1.20513 38.8137 1.08323 37.806 1.1645C37.2494 1.20513 36.6928 1.24577 36.1363 1.24577C32.1729 1.24577 28.2096 0.981635 24.2559 1.24577C19.8511 1.55054 15.4464 2.30231 11.0416 2.85089C10.6578 2.89153 10.1972 3.09471 9.89967 2.66803C9.25671 1.7334 8.59456 1.99754 7.942 1.91626C7.04953 1.79436 6.15707 1.57086 5.2646 1.71308C4.33375 1.85531 3.3837 0.940999 2.48164 1.93658C2.3377 2.56644 2.20335 3.1963 2.0594 3.80584C2.03061 4.04966 2.00182 4.29347 1.98263 4.53729C2.01142 4.29347 2.04021 4.02934 2.07859 3.76521C1.86747 3.78552 1.65635 3.82616 1.33007 3.88711C1.16693 6.28464 1.01339 8.58058 0.840655 11.0187C0.648727 11.0187 0.389624 10.9781 0.111328 10.9578C0.485588 11.8111 0.984602 11.9127 1.33007 13.0912C1.59877 14.0258 2.30891 14.1071 2.81752 14.615C2.89429 14.6963 2.92308 15.0417 2.97106 15.2652C2.74074 17.0329 1.91545 15.3262 1.54119 16.7281C2.23214 18.4145 3.27814 16.5656 3.89231 18.5364C3.70998 19.0444 3.54684 19.5117 3.28774 20.2431C4.52568 20.6089 5.65805 21.1574 6.82882 20.8527C7.06873 20.7917 7.4046 20.6901 7.43339 21.9702C7.04953 22.3765 6.64648 23.108 6.23384 23.1486C5.7924 23.2096 5.33178 22.6407 4.86155 22.3359C4.41052 24.5912 4.92873 26.3792 5.09187 28.2281C5.11106 28.4313 5.255 28.5735 5.39895 28.8377C5.62926 28.1062 5.85958 27.3951 6.0803 26.6636C6.8672 27.8963 7.11031 29.4133 6.80962 31.2149C6.79043 31.3368 6.77124 31.479 6.74245 31.6009C6.29142 33.4295 6.45456 35.1159 6.94397 36.7007C7.45258 38.3465 7.97079 39.9923 8.51779 41.7396C8.19151 42.3288 7.942 42.7758 7.64451 43.3041C8.50819 44.5638 7.26065 45.1937 7.59653 46.6159C10.2739 46.2705 12.9993 45.8642 15.7343 45.6C16.5596 45.5188 17.4041 45.9048 18.2294 46.0674C18.7572 45.3765 19.285 45.2749 19.832 45.8845C20.686 44.6045 21.6457 45.153 22.5573 44.8686C23.018 44.6045 23.469 44.0762 23.9392 44.7264C24.0064 45.5797 23.7569 45.8032 23.565 45.7016C23.2099 45.5188 22.874 45.0921 22.5285 44.7467C22.3846 45.1327 22.2694 45.8032 22.1063 45.8845C21.3386 46.2909 20.5613 46.555 19.7936 45.7626C19.2658 46.2705 18.7476 47.2052 18.191 45.9251C17.9415 46.2299 17.7015 46.7175 17.452 46.7988C15.5136 47.3474 13.5655 47.6522 11.627 48.2007C9.96684 48.6681 8.27787 48.3633 6.6081 48.4039C5.37016 48.4446 4.16101 48.8103 2.99985 50.0091C3.09581 50.07 3.20137 50.1106 3.29734 50.1716C3.24935 50.1716 3.19178 50.1716 3.14379 50.1513C3.09581 50.1106 3.05743 49.9887 3.01904 49.9075C3.08622 50.578 3.22057 51.2688 3.19178 51.9189C3.16299 52.4879 2.96146 53.0161 2.79832 53.6866C3.1342 54.1742 3.4029 54.7432 3.70998 54.9666C4.1898 55.3324 4.44891 56.1248 4.63124 57.222C4.82317 58.3598 4.77518 59.4163 4.47769 60.3916C4.66962 60.3916 4.89994 60.1274 5.01509 60.8182L4.94792 60.8589ZM6.12828 61.123C6.21465 61.0214 6.30101 60.9402 6.38738 60.8386C6.38738 60.5947 6.38738 60.3509 6.37778 60.0868C6.37778 60.1884 6.38738 60.29 6.38738 60.3916C6.38738 60.5135 6.38738 60.6354 6.38738 60.7573C6.30101 60.8995 6.21465 61.0214 6.12828 61.123ZM11.2816 21.9702C10.4275 22.7219 9.57339 23.0064 8.7385 22.1124C8.65213 21.1168 8.89205 20.9746 9.10317 20.9746C9.92846 20.9746 10.7633 21.0559 11.5886 21.1168C11.8094 21.0762 12.0301 20.9949 12.2508 21.0152C12.3372 21.0152 12.4139 21.2997 12.4907 21.4419C12.3755 21.6044 12.2316 21.9498 12.1356 21.8889C11.9341 21.7263 11.7614 21.3403 11.5694 21.0559C11.4639 21.3403 11.3967 21.8686 11.272 21.9702H11.2816ZM145.334 57.6486C142.772 56.6327 140.152 57.222 137.59 55.7184C137.637 55.4746 137.647 55.2714 137.676 55.2511C137.887 55.1089 138.098 54.8651 138.3 54.8854C140.852 55.2917 143.405 55.7387 145.948 56.2061C146.092 56.2264 146.226 56.5921 146.725 57.3032C145.967 57.4861 145.631 57.7502 145.324 57.6283L145.334 57.6486ZM137.369 24.0223C137.158 23.1892 136.975 22.5188 136.726 21.5028C137.398 21.0762 137.906 20.9949 138.789 22.0311C138.165 22.9048 137.801 23.4127 137.369 24.0223ZM151.485 73.9031C152.617 72.2776 153.577 72.4605 154.479 74.1875C153.5 74.7564 152.541 75.4472 151.485 73.9031ZM9.41025 43.6901C9.35267 43.7714 9.29509 43.873 9.23752 43.9543C9.23752 43.8527 9.20873 43.7105 9.21832 43.6292C9.22792 43.5479 9.2855 43.5073 9.31429 43.4463C9.34308 43.5276 9.38146 43.5886 9.41025 43.6698V43.6901ZM164.738 38.2449C164.738 38.2449 164.651 38.123 164.642 38.0417C164.632 37.9605 164.69 37.8792 164.728 37.7979C164.757 37.8792 164.795 37.9605 164.824 38.0214C164.795 38.1027 164.767 38.2449 164.738 38.2449ZM134.797 54.2962C134.826 54.5197 134.912 54.8244 134.874 54.9463C134.826 55.1292 134.701 55.1495 134.615 55.2511C134.586 55.0276 134.557 54.8041 134.528 54.5806C134.615 54.479 134.711 54.3977 134.797 54.2962ZM25.3115 44.8889C25.2251 44.9702 25.1484 45.0921 25.0524 45.1327C25.0236 45.1327 24.9852 44.9702 24.9468 44.8686C25.014 44.706 25.0908 44.5435 25.158 44.381C25.2059 44.5435 25.2635 44.706 25.3115 44.8889ZM39.0152 5.41097C39.0152 5.41097 38.9672 5.57351 38.948 5.65478C38.9384 5.51256 38.9288 5.35001 38.9096 5.14683C38.9576 5.26874 39.0056 5.32969 39.0152 5.41097ZM73.0153 52.3253L73.1016 52.1221L73.14 52.3863L73.0249 52.3253H73.0153ZM151.255 67.6654C151.255 67.6654 151.303 67.5029 151.322 67.4419C151.332 67.5842 151.341 67.7264 151.351 67.9296C151.303 67.8076 151.255 67.7467 151.245 67.6654H151.255Z" fill="#F3E5FF"/>
<path d="M176.886 33.2264C176.435 33.7953 175.994 34.3845 175.543 34.9128C175.187 35.3191 174.832 35.7458 174.458 35.9896C173.882 36.3756 173.364 36.0506 173.23 35.3191C173.019 34.2423 173.374 31.987 173.911 31.3977C174.727 30.5037 175.562 29.7926 176.31 29.0612C176.771 29.6707 176.665 30.3818 176.598 31.0726C176.502 32.0073 176.675 32.7184 176.934 33.3279L176.905 33.206L176.886 33.2264Z" fill="#F3E5FF"/>
<path d="M167.348 34.9736C167.242 36.5584 167.76 38.2245 167.338 39.7483C167.223 39.7889 167.127 39.8296 167.127 39.8093C167.012 38.773 166.906 37.7368 166.791 36.6803C166.983 36.1114 167.165 35.5222 167.357 34.9532L167.348 34.9736Z" fill="#F3E5FF"/>
<path d="M175.619 41.3535C176.281 41.0488 176.867 39.7484 177.663 40.2361C177.132 41.2113 176.745 42.2679 176.502 43.4057C176.205 42.7149 175.907 42.0444 175.619 41.3535Z" fill="#F3E5FF"/>
<path d="M167.791 22.0514C167.554 23.3517 167.138 24.0629 166.543 24.1848C166.85 22.8438 167.695 23.7581 167.791 22.0514Z" fill="#F3E5FF"/>
<path d="M171.168 20.304C170.928 20.9338 170.841 22.1529 170.256 21.5637C170.582 21.1167 170.88 20.7103 171.168 20.304Z" fill="#F3E5FF"/>
<path d="M168.211 38.1027C167.923 37.0664 167.636 36.0099 167.348 34.9737C167.626 35.5832 167.866 35.6035 168.067 34.7299L168.048 34.7908C168.087 35.9286 168.125 37.0461 168.163 38.1839L168.221 38.1027H168.211Z" fill="#F3E5FF"/>
<path d="M168.816 15.5699C168.816 15.5699 168.893 15.6512 168.941 15.7122C168.912 15.7934 168.864 15.956 168.855 15.9357C168.797 15.8747 168.749 15.7731 168.691 15.6715C168.739 15.6309 168.778 15.6106 168.826 15.5699H168.816Z" fill="#F3E5FF"/>
<path d="M168.164 38.1839C168.51 38.4684 168.845 38.7528 169.191 39.0373L169.172 38.9357C168.788 39.1389 168.346 39.7891 168.222 38.1027L168.164 38.1839Z" fill="#F3E5FF"/>
<path d="M107.889 90.8076C107.745 90.6857 107.611 90.5435 107.467 90.4216C107.467 90.3809 107.476 90.32 107.486 90.2794C107.63 90.3809 107.774 90.5029 107.908 90.6044C107.908 90.6654 107.889 90.7264 107.879 90.8076H107.889Z" fill="#F3E5FF"/>
<path d="M4.81445 32.7183L4.90082 32.6573L4.86244 32.9012L4.81445 32.7183Z" fill="#F3E5FF"/>
<path d="M164.094 18.7192C164.094 18.7192 164.142 18.4957 164.18 18.4957C164.209 18.4957 164.247 18.6176 164.276 18.6786C164.247 18.7599 164.228 18.9021 164.199 18.9021C164.171 18.9021 164.132 18.7802 164.103 18.7192H164.094Z" fill="#F3E5FF"/>
<path d="M52.2984 1.63171C52.2984 1.63171 52.3752 1.75362 52.4136 1.79426C52.356 1.85521 52.2984 1.93648 52.2312 1.9568C52.212 1.9568 52.1833 1.77394 52.1641 1.69267C52.212 1.67235 52.2504 1.65203 52.2984 1.63171Z" fill="#F3E5FF"/>
<path d="M172.328 21.0559C172.366 20.873 172.424 20.6902 172.453 20.487C172.472 20.3651 172.453 20.2229 172.453 20.101C172.424 20.2229 172.395 20.3245 172.386 20.4464C172.357 20.6495 172.347 20.873 172.318 21.0965V21.0762L172.328 21.0559Z" fill="#F3E5FF"/>
<path d="M171.33 35.9489L171.195 35.8676L171.291 35.6441L171.33 35.9489Z" fill="#F3E5FF"/>
<path d="M91.1719 88.2882L91.287 88.4711H91.1719V88.2882Z" fill="#F3E5FF"/>
<path d="M109.522 90.1575C109.464 90.3606 109.407 90.5638 109.339 90.7264C109.311 90.8076 109.253 90.8889 109.215 90.8889C109.176 90.8889 109.128 90.7873 109.09 90.7264C109.157 90.6451 109.234 90.5841 109.301 90.5029C109.387 90.381 109.455 90.2387 109.541 90.0965L109.522 90.1371V90.1575Z" fill="#F3E5FF"/>
<path d="M148.262 19.8164C148.262 19.8164 148.319 19.6539 148.348 19.5726C148.377 19.6539 148.425 19.7352 148.434 19.8164C148.434 19.8977 148.386 19.979 148.358 20.0603C148.329 19.979 148.3 19.8977 148.271 19.8164H148.262Z" fill="#F3E5FF"/>
<path d="M157.485 19.8367C157.485 19.8367 157.571 19.9586 157.581 20.0398C157.581 20.1211 157.552 20.2227 157.533 20.3243C157.485 20.2227 157.437 20.1211 157.389 19.9992C157.427 19.9383 157.456 19.8976 157.494 19.8367H157.485Z" fill="#F3E5FF"/>
<path d="M50.2339 1.00189C50.2914 1.12379 50.3586 1.26602 50.4162 1.38793C50.397 1.28634 50.3874 1.10348 50.3586 1.06284C50.3202 1.0222 50.2531 1.06284 50.2051 1.06284L50.2339 0.981567V1.00189Z" fill="#F3E5FF"/>
<path d="M75.3658 86.0328L75.2891 85.8296L75.3946 85.8499L75.3658 86.0328Z" fill="#F3E5FF"/>
<path d="M94.0405 88.7148L94.1269 88.918H94.0117L94.0405 88.7148Z" fill="#F3E5FF"/>
<path d="M109.539 90.1168C109.616 90.259 109.692 90.4013 109.779 90.5435C109.692 90.4216 109.606 90.2794 109.529 90.1575L109.548 90.1168H109.539Z" fill="#F3E5FF"/>
<path d="M154.594 18.0487C154.69 18.1706 154.795 18.2722 154.891 18.3941C154.786 18.2722 154.69 18.1706 154.584 18.0487H154.594Z" fill="#F3E5FF"/>
<path d="M161.649 44.3605C161.649 44.3605 161.581 44.4418 161.543 44.4824C161.591 44.4215 161.629 44.3605 161.677 44.2996L161.649 44.3605Z" fill="#F3E5FF"/>
<path d="M163.174 25.7086C163.308 25.7086 163.442 25.7086 163.212 25.7086C163.452 25.7682 163.327 25.7285 163.193 25.7086H163.164H163.174Z" fill="#F3E5FF"/>
<path d="M161.687 44.2996C161.754 44.4012 161.821 44.5231 161.898 44.6246C161.869 44.5434 161.85 44.4215 161.812 44.3808C161.764 44.3402 161.706 44.3808 161.658 44.3605L161.687 44.2996Z" fill="#F3E5FF"/>
<path d="M168.653 22.0514C168.365 22.7422 168.077 22.3562 167.779 22.0514C168.077 22.092 168.374 22.1327 168.672 22.1733L168.653 22.0514Z" fill="#F3E5FF"/>
<path d="M168.681 22.1734C168.777 22.153 168.873 22.1327 168.969 22.1124C168.864 22.1124 168.768 22.0921 168.662 22.0718L168.681 22.1734Z" fill="#F3E5FF"/>
<path d="M168.066 34.7299C168.124 34.8721 168.181 35.0143 168.248 35.1362C168.181 35.0143 168.114 34.9127 168.047 34.7908L168.076 34.7299H168.066Z" fill="#F3E5FF"/>
<path d="M168.308 41.3332C168.308 41.3332 168.222 41.3942 168.174 41.4348C168.193 41.5364 168.212 41.638 168.231 41.7396C168.27 41.577 168.299 41.4348 168.337 41.2723L168.318 41.3332H168.308Z" fill="#F3E5FF"/>
<path d="M168.328 41.2723L168.5 41.5974C168.5 41.5974 168.462 41.3942 168.433 41.3739C168.395 41.3332 168.347 41.3739 168.299 41.3536L168.318 41.2926L168.328 41.2723Z" fill="#F3E5FF"/>
<path d="M169.181 39.0373C169.181 39.0373 169.258 38.956 169.296 38.9154C169.248 38.9154 169.21 38.9154 169.162 38.9154L169.181 39.017V39.0373Z" fill="#F3E5FF"/>
<path d="M171.178 20.304C171.562 20.5478 171.945 20.8119 172.329 21.0557V21.076C171.945 20.8119 171.562 20.5478 171.178 20.304Z" fill="#F3E5FF"/>
<path d="M176.914 33.3482C176.99 33.2263 177.067 33.1247 177.115 33.0638C177.067 33.1044 176.981 33.1654 176.895 33.2263L176.923 33.3482H176.914Z" fill="#F3E5FF"/>
<path d="M1.99279 3.78551C1.964 4.02933 1.93521 4.27314 1.91602 4.51696C1.9448 4.27314 1.97359 4.00901 2.01198 3.74487L1.99279 3.78551Z" fill="#F3E5FF"/>
<path d="M136.726 17.5204C136.668 17.7032 136.62 17.9064 136.562 18.0893C136.62 17.8861 136.668 17.6829 136.726 17.4797V17.5204Z" fill="#F3E5FF"/>
</svg>
