<svg width="199" height="116" viewBox="0 0 199 116" fill="none" xmlns="http://www.w3.org/2000/svg">
<path d="M13.8606 81.7774C13.6078 82.1151 13.4601 81.5603 13.284 81.215C13.4091 83.973 12.9946 86.1441 12.1156 87.8845C13.0942 91.2175 12.4184 93.4108 11.7965 95.4279C11.9755 96.7048 12.0949 97.7301 12.2611 98.7294C12.7256 101.509 14.248 103.695 15.5318 103.438C17.429 103.067 19.339 102.713 21.2249 102.27C22.9446 101.871 24.643 101.4 26.3428 100.874C30.4085 99.5869 34.4443 98.1739 38.5214 96.9594C41.0718 96.2071 43.6975 95.8717 46.2381 95.1208C48.7587 94.3731 51.5762 95.2008 53.807 92.8579C55.193 92.6042 56.5705 92.296 57.9579 92.1166C61.5706 91.6458 65.1791 91.2129 68.8031 90.8148C70.6663 90.6171 72.4968 90.1449 74.3457 89.8562C77.646 89.341 81.0201 89.2988 84.363 89.0565C84.7166 89.0386 85.0773 89.0009 85.4366 89.1498C87.2331 89.8946 88.9201 89.8735 90.4865 88.8833C90.9054 88.6315 91.4052 88.7026 91.8781 88.6661C92.6351 88.6225 93.4047 88.5955 94.1673 88.5883C97.5827 88.6142 100.918 87.8697 104.463 89.0499C104.829 89.1791 105.184 89.105 105.53 89.0325C106.677 88.8161 107.876 88.9272 109.043 88.8382C111.781 88.6344 114.53 88.5034 117.282 88.3906C118.749 88.3293 120.206 88.1391 121.778 89.1426C122.243 89.4429 122.825 89.6503 123.193 89.3319C124.191 88.4863 125.311 88.6842 126.442 88.75C127.625 88.8263 128.788 88.7752 129.969 88.7771C130.56 88.7781 131.152 88.7229 131.747 88.8164C132.04 88.864 132.469 89.002 132.633 89.4051C133.538 91.6126 134.589 91.6908 135.565 91.7435C139.728 91.9323 143.882 91.9921 148.045 92.1065C151.01 92.1842 153.979 92.2238 156.944 92.3015C163.428 92.4821 169.837 92.2457 175.853 89.4238C176.517 89.115 177.028 88.8674 176.932 87.0744C176.905 86.5753 177.17 86.1237 177.358 85.7589C177.535 85.3957 177.9 85.32 177.984 84.8782C178.18 83.7851 178.639 83.5271 179.137 83.2629C180.769 82.4302 182.37 81.4718 184.013 80.712C184.688 80.4016 185.219 79.7595 185.753 79.005C186.595 77.811 187.007 75.8826 187.623 74.2206C187.116 72.8644 186.94 71.6057 187.528 70.6751C188.147 69.6837 188.526 68.1332 189.376 67.6462C189.611 67.5164 189.862 66.9739 189.885 66.467C189.966 64.8327 190.008 63.1483 189.946 61.4431C189.823 58.3119 190.059 56.2992 191.235 55.0904C191.692 54.6275 192.261 54.2963 192.257 52.6379C191.997 52.7344 191.794 52.8034 191.587 52.9104C190.557 53.4253 189.536 53.9948 188.492 54.4187C188.139 54.5671 187.76 54.1603 187.724 53.0847C188.16 52.2896 188.752 51.7125 188.977 50.6709C189.221 49.4957 189.677 49.089 190.148 48.5866C190.683 48.037 191.23 47.5602 191.765 47.0106C191.843 46.9238 191.873 46.6582 191.957 46.3469C191.62 45.4301 191.265 44.4603 190.886 43.4011C190.288 43.9418 189.796 44.3729 189.296 44.8237C188.556 45.4985 187.879 46.4431 186.89 46.1127C186.717 46.0466 186.551 46.2216 186.396 46.339C184.297 47.7665 182.204 49.2304 180.102 50.6397C179.364 51.1278 178.608 51.5068 177.826 51.778C177.536 51.8792 177.225 51.3872 177.256 50.2825C177.722 50.0047 178.239 49.663 178.772 49.3562C180.111 48.6066 181.46 47.8553 182.799 47.1057L182.866 46.5547C182.844 46.7444 182.823 46.9341 182.805 47.1421C183.658 45.8904 184.536 44.7281 185.41 43.5477C186.494 42.0736 187.833 41.1935 188.604 38.8921C188.715 38.5579 188.962 38.4448 189.152 38.2287C188.661 38.0817 188.243 37.6249 187.993 36.5455C186.85 37.7679 185.707 38.9903 184.561 40.1944C184.378 40.3908 184.155 40.7239 183.956 40.6244C182.641 39.8977 181.751 41.1738 180.761 41.9435C180.353 42.2681 179.964 42.6457 179.53 42.8627C177.489 43.9456 175.43 44.9754 173.374 46.0234C173.493 46.1353 173.619 46.2274 173.717 46.3985C173.761 46.4849 173.742 46.7489 173.757 46.9143C173.703 46.8295 173.632 46.766 173.608 46.6766C173.541 46.4447 173.482 46.193 173.425 45.9595C172.865 46.1587 172.319 46.3746 171.769 46.5722C171.046 46.8342 170.342 47.4102 169.589 47.2854C168.419 47.0953 167.37 47.4828 166.299 47.7991C162.091 48.9594 157.75 49.2644 153.366 49.2964C150.649 49.3104 147.906 49.0864 145.175 49.0094C142.803 48.951 140.439 49.0032 138.067 48.9448C134.324 48.8395 130.562 48.5507 126.836 48.5547C123.344 48.5593 119.876 48.7838 116.429 49.0796C113.615 49.314 110.685 48.6157 107.957 49.4704C106.713 48.9376 105.593 49.3922 104.42 49.4448C103.944 49.4632 103.471 49.4997 102.995 49.3876C102.552 49.289 102.15 48.8671 102.004 47.4732C102.574 47.403 103.137 47.2963 103.725 47.2791C104.261 47.2514 104.8 47.3163 105.323 47.272C107.67 47.1105 110.015 46.9308 112.352 46.7709C116.925 46.4485 121.492 46.0896 126.12 46.1872C128.736 46.2448 131.315 46.0659 133.931 46.1235C138.205 46.239 142.511 46.5547 146.787 46.6141C150.34 46.6745 153.877 46.5696 157.398 46.3555C159.92 46.204 162.426 45.8872 164.901 45.3703C166.676 45 168.373 44.1944 170.141 43.5828C169.953 42.8294 169.812 42.2549 169.653 41.6273C170.089 40.7017 170.716 40.5478 171.338 40.3575C172.403 40.0048 173.555 40.0114 174.363 38.599C174.436 38.4759 174.583 38.3783 174.67 38.4766C175.871 39.9107 176.517 38.244 177.483 38.0374C177.276 36.448 177.375 35.1276 176.974 33.6057C176.516 33.7332 176.129 33.8681 175.735 33.9484C174.759 34.1566 173.758 34.2011 172.812 34.5351C171.413 35.0331 170.084 35.9117 168.666 36.2824C167.17 36.6836 165.749 37.8189 164.006 36.5065C163.614 36.2135 163.156 36.3411 162.769 36.4759C161.657 36.8546 160.389 36.3629 159.478 37.8287C159.209 38.2621 158.722 38.2077 158.312 38.2531C156.906 38.3794 155.501 38.4495 154.087 38.5213C153.915 38.5294 153.711 38.5241 153.54 38.3456C152.343 37.1345 151.245 37.3432 150.138 37.4229C149.665 37.4595 149.18 37.6842 148.713 37.3657C147.303 36.3556 146.079 36.8636 144.792 36.9712C143.797 37.0521 142.814 37.2801 141.809 37.232C137.825 37.0897 133.822 36.6895 129.86 36.7488C128.203 36.7653 126.57 36.7406 124.86 36.0942C124.438 35.9363 123.947 35.7894 123.641 36.1167C122.434 37.3863 120.815 35.7563 119.571 36.6589C117.934 35.6283 116.467 36.2115 114.953 36.2988C113.367 36.3787 111.76 36.2568 110.153 36.2093C110.041 36.2082 109.891 36.1572 109.798 36.0224C109.639 35.7863 109.459 35.4789 109.388 35.1545C109.332 34.8649 109.367 34.3003 109.457 34.2302C109.858 33.9254 110.275 33.5992 110.728 33.5658C114.54 33.3248 118.363 33.1567 122.177 32.934C123.582 32.8638 124.968 32.6102 126.396 32.6294C131.557 32.6812 136.735 32.8421 141.891 32.9318C143.065 32.9535 144.235 32.8826 145.417 32.8846C146.008 32.8855 146.608 33.0154 147.199 33.0164C148.922 33.0271 150.623 32.9665 152.346 32.9772C156.021 33.0371 159.634 32.6968 163.177 31.8453C164.415 31.5588 165.538 30.6005 166.897 31.0221C166.995 31.0627 167.08 30.8257 167.266 30.6476C166.886 29.514 167.048 28.7244 167.506 28.3359C168.012 27.9215 168.563 27.6677 169.09 27.3244C170.087 26.6655 171.242 26.6341 172.08 25.3476C171.971 25.2342 171.864 25.139 171.759 24.9876C171.721 24.9377 171.705 24.7723 171.681 24.6829C171.766 24.7069 171.9 24.6488 171.924 24.7382C171.985 24.9337 171.995 25.1931 172.032 25.4297C172.329 25.1783 172.618 24.9467 172.915 24.6953L172.895 24.6984C172.944 22.2676 174.161 22.6927 174.851 21.8952C174.409 20.1747 174.268 19.8611 173.925 20.1384C173.171 20.7222 172.221 20.5723 171.648 21.9292C171.293 22.7862 170.744 22.5924 170.176 21.6931C169.973 21.3706 169.724 21.1485 169.561 20.9503C168.959 21.5289 168.305 21.78 167.912 22.5871C167.187 24.0052 166.398 23.7182 165.488 22.2572C164.984 21.4412 164.521 20.8237 163.93 20.9533C163.419 21.0704 163.152 20.1427 162.933 19.2635L162.943 19.2619C161.804 20.1854 160.678 21.1255 159.586 22.023C159.225 21.4082 158.975 20.9812 158.694 20.4845C158.498 21.1862 158.314 21.8302 158.129 22.4741C158.281 22.991 158.713 23.1473 158.666 23.9561C158.234 23.6694 158.234 23.0169 158.167 22.3936C157.815 22.8773 157.473 23.3595 157.077 23.8874C156.36 23.2723 155.525 21.8369 155.04 23.6274C155.354 23.7462 155.725 23.446 155.983 24.841C155.604 24.3037 155.353 23.9328 155.084 23.5833C154.971 22.9859 154.857 22.3885 154.729 21.7001C154.117 22.1498 153.562 22.572 152.886 23.069C152.635 21.9153 152.166 21.5224 151.686 21.5787C151.189 21.6563 150.601 21.2821 150.347 22.4589C150.134 23.4428 149.647 23.6493 149.068 23.1992C148.982 22.6533 148.913 22.2727 148.806 21.6556C147.953 21.7329 147.102 21.8284 146.249 21.9057C145.78 23.4702 145.071 22.5183 144.367 21.6589C144.333 21.832 144.312 22.0218 144.278 22.1948C144.309 22.0036 144.33 21.8138 144.361 21.6225C143.844 21.7033 143.327 21.784 142.833 21.8798C142.809 22.0513 142.784 22.1485 142.771 22.2623C142.639 23.8301 142.525 23.8851 141.939 22.6719C141.801 22.3765 141.67 22.0613 141.639 21.9917C140.287 21.8113 139.023 21.5426 137.792 21.5484C137.181 21.5506 136.561 21.5542 135.977 22.0555C135.457 22.5094 134.581 21.6583 133.874 21.5636C132.979 21.4424 132.093 21.5061 131.2 21.4592C129.538 21.3831 127.871 21.2706 126.218 21.249C126.066 21.2541 125.97 21.8098 125.815 22.1881C124.973 21.1639 124.108 20.777 123.23 21.1563C122.743 21.3628 122.177 21.3208 121.633 21.1634C120.083 20.697 118.699 21.2859 117.247 21.5125C116.919 21.5638 116.638 21.9805 116.344 22.2501C115.894 22.6932 115.583 21.1573 115.147 21.2999C114.981 21.3445 114.793 21.3178 114.622 21.326C109.342 21.5538 104.069 21.8924 98.7663 21.9747C96.2371 22.0154 93.7988 22.6384 91.2114 22.3713C88.5288 22.0818 85.9031 22.4172 83.2447 22.4781C80.2426 22.5554 77.2221 22.5796 74.2313 22.7296C72.655 22.808 71.1086 23.1426 69.5252 23.2407C66.8313 23.4004 64.1146 23.4144 61.4292 23.6286C60.0901 23.7259 58.7964 24.1143 57.4828 24.3753C57.6533 24.5537 57.8279 24.6942 57.987 24.9303C58.041 25.0151 58.0438 25.2943 58.0751 25.4945C57.9671 25.4554 57.8152 25.4605 57.7754 25.3362C57.6646 25.018 57.6178 24.6525 57.5411 24.2916C56.9688 24.3437 56.3936 24.3776 55.8114 24.4312C54.8855 24.5012 53.9624 24.5894 53.0252 24.5866C52.6687 24.5863 52.2967 24.4207 52.0509 23.3034C52.1716 22.5762 52.315 21.7336 52.4513 20.9107L52.4697 20.8333C52.2709 20.9948 52.0991 21.264 51.8804 21.2981C49.8 21.6043 47.7025 21.8013 45.6334 22.1803C44.851 22.3211 43.9506 22.0329 43.3969 23.3124C43.2918 23.5525 42.9623 23.5294 42.7507 23.4133C41.6231 22.7132 40.5822 22.7639 39.5498 22.9996C38.9789 23.126 38.4081 23.2524 37.8315 23.3425C33.726 23.9835 29.5837 24.3879 25.5251 25.2639C21.005 26.2492 16.5474 27.6349 12.0613 28.8386C11.6694 28.9371 11.2207 29.1936 10.8528 28.8595C10.0561 28.1265 9.40716 28.4701 8.71984 28.5029C7.77831 28.538 6.82259 28.4822 5.918 28.7539C4.97365 29.0318 3.86168 28.3666 3.06649 29.4042C3.00545 29.9916 2.95436 30.5774 2.89049 31.1466C2.89476 31.3696 2.89903 31.5926 2.91324 31.8141C2.90897 31.5911 2.90186 31.3499 2.90469 31.1071C2.68883 31.1594 2.47582 31.23 2.14637 31.3373C2.31264 33.511 2.47464 35.5921 2.63665 37.8037C2.43784 37.8348 2.16376 37.8403 1.87264 37.8671C2.37965 38.5709 2.91077 38.5811 3.43342 39.5807C3.84245 40.3743 4.58941 40.3323 5.18729 40.7049C5.27818 40.7653 5.3563 41.07 5.43726 41.2624C5.44587 42.8828 4.35232 41.4877 4.16068 42.8039C5.11222 44.2025 5.93719 42.3774 6.84898 44.0432C6.73114 44.5276 6.6275 44.9725 6.46139 45.6695C7.79486 45.7969 9.04456 46.1051 10.2147 45.6428C10.4547 45.5494 10.7884 45.4041 10.9972 46.5458C10.6564 46.9719 10.3412 47.6922 9.91943 47.7953C9.47069 47.9213 8.91399 47.4862 8.38428 47.2893C8.23244 49.3822 9.01926 50.8997 9.44679 52.5293C9.49509 52.7082 9.66408 52.8123 9.85013 53.0256C9.98642 52.3332 10.1256 51.659 10.2519 50.9682C11.2394 51.9449 11.7034 53.2644 11.6438 54.9265C11.641 55.0388 11.641 55.1693 11.6282 55.2831C11.4167 56.9938 11.8215 58.4778 12.5501 59.818C13.3071 61.2097 14.074 62.5999 14.885 64.0764C14.6294 64.6569 14.4334 65.0976 14.1991 65.6188C15.2699 66.6074 14.0657 67.3733 14.6125 68.5928C17.3377 67.8504 20.104 67.0457 22.9001 66.3668C23.7436 66.1605 24.6724 66.3697 25.55 66.3818C26.0001 65.6777 26.5327 65.5014 27.1845 65.9588C27.8902 64.6743 28.961 65.0104 29.8656 64.6082C30.3058 64.2971 30.6991 63.751 31.2771 64.2573C31.466 65.0107 31.2388 65.2512 31.0258 65.1913C30.6324 65.0849 30.2249 64.7571 29.8187 64.5036C29.7236 64.8727 29.698 65.4918 29.5404 65.591C28.802 66.0791 28.0337 66.4414 27.1277 65.8558C26.652 66.3961 26.2459 67.317 25.4903 66.2606C25.2745 66.5739 25.0942 67.0495 24.8471 67.1626C22.9158 67.9674 20.9405 68.5555 19.0092 69.3603C17.3548 70.0473 15.5627 70.0475 13.8387 70.354C12.562 70.5906 11.3607 71.1137 10.3255 72.3751C10.4334 72.4142 10.5484 72.4335 10.6564 72.4726C10.6067 72.4804 10.547 72.4897 10.4945 72.4792C10.4391 72.4506 10.3823 72.3476 10.3312 72.281C10.4945 72.8707 10.7303 73.4677 10.7914 74.0546C10.8411 74.5688 10.7062 75.0745 10.631 75.7014C11.0471 76.0839 11.405 76.5499 11.7543 76.7004C12.3025 76.9504 12.6817 77.6182 13.024 78.5713C13.3819 79.5593 13.4799 80.5134 13.3082 81.4349C13.507 81.4039 13.7086 81.1301 13.9245 81.7302L13.8606 81.7774ZM15.1202 81.8231C15.1955 81.7181 15.2736 81.6314 15.3488 81.5264C15.3147 81.3081 15.2807 81.0897 15.2338 80.8547C15.248 80.9457 15.2721 81.0351 15.2863 81.1261C15.3034 81.2353 15.3204 81.3444 15.3375 81.4536C15.2679 81.595 15.1955 81.7181 15.1202 81.8231ZM14.9834 45.9235C14.2038 46.7349 13.3589 47.1278 12.369 46.4621C12.1403 45.5844 12.369 45.4183 12.5877 45.3841C13.4425 45.2506 14.3187 45.1884 15.1822 45.1095C15.4051 45.0374 15.6224 44.9289 15.8539 44.9114C15.9433 44.8975 16.0626 45.1398 16.162 45.2548C16.0655 45.419 15.9647 45.7516 15.8567 45.7125C15.6253 45.5996 15.3923 45.2818 15.1538 45.058C15.0842 45.3299 15.0885 45.8139 14.9734 45.925L14.9834 45.9235ZM158.832 56.1975C156.036 55.702 153.405 56.6535 150.54 55.7213C150.556 55.4951 150.538 55.3116 150.565 55.2888C150.763 55.1272 150.948 54.8747 151.16 54.8603C153.861 54.8114 156.567 54.7989 159.267 54.8062C159.419 54.8011 159.609 55.1069 160.226 55.6631C159.466 55.9495 159.155 56.2404 158.82 56.1809L158.832 56.1975ZM145.88 27.3692C145.544 26.6573 145.262 26.0862 144.861 25.2167C145.497 24.7259 146.013 24.5709 147.072 25.3562C146.548 26.2395 146.242 26.7534 145.88 27.3692ZM167.477 69.7605C168.423 68.1216 169.443 68.1302 170.619 69.531C169.684 70.1989 168.787 70.9728 167.477 69.7605ZM16.0822 65.679C16.0339 65.7611 15.9885 65.8614 15.9402 65.9435C15.926 65.8525 15.8763 65.7298 15.8748 65.6555C15.8734 65.5811 15.9274 65.5354 15.9487 65.4762C15.9899 65.5443 16.0382 65.5927 16.0793 65.6608L16.0822 65.679ZM176.219 35.6809C176.219 35.6809 176.112 35.5857 176.091 35.5144C176.07 35.4432 176.118 35.3611 176.147 35.2821C176.188 35.3502 176.239 35.4168 176.277 35.4668C176.259 35.5442 176.249 35.6762 176.219 35.6809ZM147.449 54.8991C147.51 55.0946 147.642 55.3536 147.619 55.469C147.595 55.6405 147.469 55.6789 147.394 55.7839C147.332 55.5884 147.271 55.3928 147.21 55.1973C147.286 55.0924 147.374 55.0041 147.449 54.8991ZM32.7214 64.1809C32.6433 64.2677 32.5808 64.3893 32.4871 64.4412C32.4572 64.4459 32.3947 64.3065 32.3408 64.2217C32.3876 64.0653 32.4444 63.9073 32.4913 63.7508C32.5637 63.8887 32.6461 64.0249 32.7214 64.1809ZM41.3961 26.6073C41.3961 26.6073 41.3691 26.7606 41.3606 26.8365C41.3308 26.7107 41.2981 26.5667 41.2498 26.3878C41.3166 26.4892 41.3748 26.5361 41.3961 26.6073ZM83.1758 63.126L83.2369 62.93L83.3136 63.1604L83.1858 63.1244L83.1758 63.126ZM166.367 64.2112C166.367 64.2112 166.393 64.0578 166.405 64.0001C166.435 64.126 166.464 64.2518 166.503 64.4322C166.436 64.3308 166.378 64.284 166.357 64.2127L166.367 64.2112Z" fill="#FFF2CC"/>
<path d="M188.102 29.2212C187.714 29.8037 187.339 30.4028 186.946 30.9489C186.635 31.3703 186.327 31.8098 185.973 32.0887C185.431 32.5276 184.849 32.3202 184.607 31.6869C184.238 30.7566 184.29 28.6792 184.764 28.0646C185.484 27.132 186.25 26.3601 186.923 25.5839C187.485 26.0553 187.475 26.7093 187.502 27.3389C187.534 28.1915 187.812 28.8004 188.166 29.3045L188.119 29.1999L188.102 29.2212Z" fill="#FFF2CC"/>
<path d="M178.464 32.3289C178.576 33.7654 179.346 35.1738 179.122 36.6069C179.008 36.6619 178.915 36.7138 178.912 36.6956C178.648 35.7862 178.393 34.8752 178.126 33.9475C178.246 33.407 178.352 32.8497 178.471 32.3092L178.464 32.3289Z" fill="#FFF2CC"/>
<path d="M187.927 36.705C188.571 36.3249 188.995 35.0656 189.888 35.3735C189.475 36.3329 189.221 37.3418 189.129 38.4001C188.724 37.8295 188.322 37.2771 187.927 36.705Z" fill="#FFF2CC"/>
<path d="M177.115 20.6842C177.051 21.8871 176.72 22.5913 176.121 22.7967C176.251 21.546 177.254 22.2283 177.115 20.6842Z" fill="#FFF2CC"/>
<path d="M180.37 18.5729C180.21 19.1758 180.291 20.2816 179.602 19.8486C179.877 19.3955 180.129 18.9834 180.37 18.5729Z" fill="#FFF2CC"/>
<path d="M179.798 34.9917C179.355 34.1102 178.909 33.2105 178.466 32.329C178.839 32.8299 179.091 32.8093 179.177 31.9942L179.166 32.0519C179.365 33.0647 179.561 34.0594 179.76 35.0722L179.808 34.9901L179.798 34.9917Z" fill="#FFF2CC"/>
<path d="M177.274 14.7132C177.274 14.7132 177.364 14.7736 177.422 14.8204C177.404 14.8979 177.377 15.0512 177.364 15.0345C177.296 14.9893 177.232 14.906 177.159 14.8243C177.203 14.7802 177.24 14.7558 177.283 14.7116L177.274 14.7132Z" fill="#FFF2CC"/>
<path d="M179.759 35.0722C180.157 35.2711 180.545 35.4715 180.942 35.6704L180.908 35.5825C180.539 35.8266 180.173 36.4803 179.808 34.9901L179.759 35.0722Z" fill="#FFF2CC"/>
<path d="M124.681 91.9515C124.515 91.8656 124.356 91.76 124.19 91.6741C124.184 91.6377 124.186 91.5815 124.19 91.5436C124.353 91.6113 124.519 91.6972 124.673 91.7665C124.681 91.821 124.67 91.8787 124.671 91.9531L124.681 91.9515Z" fill="#FFF2CC"/>
<path d="M9.78587 56.596L9.86653 56.5275L9.86098 56.752L9.78587 56.596Z" fill="#FFF2CC"/>
<path d="M172.822 18.2974C172.822 18.2974 172.841 18.0895 172.88 18.0833C172.91 18.0786 172.967 18.1816 173.005 18.2316C172.987 18.309 172.987 18.4395 172.957 18.4441C172.927 18.4488 172.871 18.3458 172.832 18.2958L172.822 18.2974Z" fill="#FFF2CC"/>
<path d="M54.6253 21.0746C54.6253 21.0746 54.7217 21.1713 54.7671 21.2015C54.7161 21.2654 54.6679 21.3475 54.6013 21.3766C54.5814 21.3797 54.5261 21.2205 54.4949 21.1508C54.5416 21.1249 54.5785 21.1005 54.6253 21.0746Z" fill="#FFF2CC"/>
<path d="M181.679 19.0585C181.693 18.8885 181.726 18.7155 181.728 18.5289C181.731 18.4166 181.691 18.2923 181.674 18.1831C181.661 18.2969 181.646 18.3926 181.653 18.5033C181.651 18.6899 181.673 18.8916 181.674 19.0964L181.672 19.0782L181.679 19.0585Z" fill="#FFF2CC"/>
<path d="M182.726 32.5585L182.576 32.5074L182.644 32.2917L182.726 32.5585Z" fill="#FFF2CC"/>
<path d="M107.012 92.3988L107.156 92.544L107.037 92.5626L107.012 92.3988Z" fill="#FFF2CC"/>
<path d="M126.28 91.1055C126.249 91.2968 126.218 91.4881 126.171 91.6445C126.152 91.7219 126.104 91.804 126.064 91.8103C126.024 91.8165 125.961 91.7332 125.912 91.6848C125.971 91.6012 126.042 91.5342 126.1 91.4505C126.172 91.3274 126.222 91.1891 126.291 91.0478L126.277 91.0873L126.28 91.1055Z" fill="#FFF2CC"/>
<path d="M156.573 21.8408C156.573 21.8408 156.61 21.6859 156.628 21.6085C156.669 21.6767 156.73 21.7417 156.751 21.813C156.763 21.8858 156.725 21.9663 156.706 22.0437C156.665 21.9756 156.624 21.9074 156.583 21.8393L156.573 21.8408Z" fill="#FFF2CC"/>
<path d="M166.13 20.3674C166.13 20.3674 166.237 20.4627 166.258 20.5339C166.27 20.6067 166.254 20.7023 166.248 20.7964C166.184 20.7132 166.121 20.6299 166.054 20.5285C166.085 20.4677 166.109 20.4267 166.14 20.3659L166.13 20.3674Z" fill="#FFF2CC"/>
<path d="M52.3999 20.8442C52.4768 20.9441 52.5665 21.0605 52.6433 21.1604C52.6092 21.0725 52.5737 20.9103 52.5381 20.8786C52.4925 20.8484 52.4284 20.8957 52.3786 20.9035L52.3971 20.826L52.3999 20.8442Z" fill="#FFF2CC"/>
<path d="M90.3242 92.9351L90.2168 92.7655L90.3282 92.7667L90.3242 92.9351Z" fill="#FFF2CC"/>
<path d="M110.043 92.3169L110.161 92.4849L110.042 92.5035L110.043 92.3169Z" fill="#FFF2CC"/>
<path d="M126.295 91.066C126.394 91.1809 126.494 91.2959 126.603 91.4094C126.496 91.3141 126.387 91.2007 126.291 91.1039L126.305 91.0644L126.295 91.066Z" fill="#FFF2CC"/>
<path d="M162.887 19.2332C163.003 19.3269 163.127 19.4008 163.243 19.4945C163.117 19.4024 163.003 19.3269 162.877 19.2348L162.887 19.2332Z" fill="#FFF2CC"/>
<path d="M173.873 41.6582C173.873 41.6582 173.815 41.7418 173.781 41.7844C173.822 41.7221 173.854 41.6613 173.894 41.599L173.873 41.6582Z" fill="#FFF2CC"/>
<path d="M172.846 24.7061C172.985 24.6844 173.124 24.6627 172.886 24.6999C173.142 24.7157 173.007 24.6995 172.866 24.703L172.836 24.7076L172.846 24.7061Z" fill="#FFF2CC"/>
<path d="M173.905 41.5973C173.988 41.6775 174.075 41.7758 174.169 41.8544C174.127 41.7863 174.091 41.6802 174.045 41.65C173.99 41.6213 173.936 41.667 173.884 41.6566L173.905 41.5973Z" fill="#FFF2CC"/>
<path d="M178.01 20.5444C177.808 21.2097 177.456 20.9105 177.105 20.6857C177.419 20.674 177.733 20.6622 178.047 20.6505L178.01 20.5444Z" fill="#FFF2CC"/>
<path d="M178.058 20.649C178.154 20.6153 178.251 20.5815 178.347 20.5478C178.238 20.5649 178.136 20.5622 178.023 20.5611L178.058 20.649Z" fill="#FFF2CC"/>
<path d="M179.176 31.9942C179.256 32.1122 179.335 32.2303 179.421 32.3287C179.335 32.2303 179.251 32.1502 179.165 32.0518L179.186 31.9926L179.176 31.9942Z" fill="#FFF2CC"/>
<path d="M180.348 37.8697C180.348 37.8697 180.268 37.9382 180.224 37.9823C180.258 38.0702 180.292 38.1581 180.326 38.246C180.343 38.0942 180.353 37.9622 180.37 37.8104L180.358 37.8681L180.348 37.8697Z" fill="#FFF2CC"/>
<path d="M180.36 37.8119L180.584 38.0751C180.584 38.0751 180.516 37.8994 180.483 37.8858C180.438 37.8556 180.394 37.8998 180.341 37.8893L180.353 37.8316L180.36 37.8119Z" fill="#FFF2CC"/>
<path d="M180.931 35.6721C180.931 35.6721 180.999 35.5869 181.033 35.5443C180.984 35.5521 180.944 35.5582 180.895 35.566L180.929 35.6539L180.931 35.6721Z" fill="#FFF2CC"/>
<path d="M180.381 18.5714C180.813 18.7276 181.247 18.9021 181.679 19.0584L181.682 19.0766C181.247 18.9021 180.813 18.7276 180.381 18.5714Z" fill="#FFF2CC"/>
<path d="M188.149 29.3258C188.212 29.2042 188.277 29.1008 188.318 29.0385C188.274 29.0826 188.193 29.1511 188.113 29.2197L188.159 29.3242L188.149 29.3258Z" fill="#FFF2CC"/>
<path d="M2.81745 31.1394C2.82179 31.3624 2.82613 31.5854 2.84039 31.8069C2.83605 31.5839 2.82887 31.3427 2.83161 31.0999L2.81745 31.1394Z" fill="#FFF2CC"/>
<path d="M144.303 21.6502C144.269 21.8232 144.248 22.0129 144.214 22.186C144.245 21.9947 144.266 21.805 144.297 21.6138L144.303 21.6502Z" fill="#FFF2CC"/>
</svg>
