<svg width="208" height="68" viewBox="0 0 208 68" fill="none" xmlns="http://www.w3.org/2000/svg">
<path d="M5.7047 42.3106C5.36979 42.535 5.3028 42.1003 5.16884 41.8198C4.83392 43.9092 4.0078 45.4937 2.74628 46.6997C3.24866 49.3219 2.13227 50.8924 1.1052 52.3368C1.08287 53.3183 1.03822 54.1036 1.04938 54.8748C1.08287 57.0203 2.37788 58.8432 3.82918 58.8012C5.97263 58.7451 8.12726 58.703 10.2707 58.5908C12.2244 58.4927 14.1669 58.3384 16.1206 58.1421C20.7982 57.6513 25.4647 57.0624 30.1424 56.6277C33.0673 56.3612 36.0034 56.4173 38.9171 56.1509C41.8086 55.8845 44.7558 56.838 47.6026 55.3376C49.1655 55.3095 50.7285 55.2394 52.2803 55.2675C56.3216 55.3376 60.3517 55.4357 64.393 55.562C66.4695 55.6321 68.5571 55.4918 70.6336 55.4918C74.34 55.4918 78.0464 55.8564 81.7528 56.0668C82.1435 56.0948 82.5454 56.1088 82.9138 56.2631C84.7559 57.0343 86.6091 57.2166 88.4958 56.6557C88.9981 56.5155 89.534 56.6277 90.0587 56.6557C90.896 56.7118 91.7444 56.7819 92.5817 56.8661C96.3216 57.2867 100.106 57.1185 103.79 58.4226C104.17 58.5628 104.572 58.5488 104.962 58.5347C106.257 58.5067 107.552 58.7311 108.847 58.8012C111.884 58.9694 114.921 59.1938 117.957 59.4322C119.576 59.5584 121.206 59.5864 122.758 60.526C123.215 60.8064 123.818 61.0308 124.276 60.8344C125.515 60.3156 126.71 60.5961 127.938 60.7784C129.221 60.9747 130.505 61.0728 131.8 61.2131C132.448 61.2832 133.106 61.3112 133.743 61.4514C134.055 61.5216 134.502 61.6758 134.614 61.9983C135.228 63.7652 136.366 63.9475 137.427 64.1017C141.959 64.7327 146.503 65.2656 151.047 65.8405C154.284 66.2472 157.533 66.6258 160.77 67.0324C167.848 67.9299 174.915 68.5048 181.993 67.0885C182.774 66.9343 183.377 66.8081 183.578 65.4479C183.634 65.0693 184.002 64.7608 184.27 64.5084C184.527 64.256 184.94 64.2419 185.108 63.9194C185.51 63.1201 186.057 62.9799 186.648 62.8397C188.58 62.405 190.5 61.8721 192.431 61.4935C193.224 61.3393 193.916 60.9186 194.63 60.4138C195.758 59.6145 196.539 58.2122 197.5 57.0343C197.176 55.9546 197.198 54.987 198.002 54.356C198.85 53.6829 199.531 52.5611 200.547 52.2947C200.826 52.2246 201.195 51.846 201.306 51.4674C201.675 50.2474 202.01 48.9854 202.233 47.6953C202.635 45.3255 203.238 43.8391 204.734 43.0678C205.314 42.7733 205.995 42.591 206.274 41.343C205.973 41.3851 205.738 41.4131 205.493 41.4692C204.276 41.7357 203.059 42.0442 201.842 42.2405C201.429 42.3106 201.083 41.96 201.228 41.1467C201.842 40.5998 202.59 40.2352 203.014 39.478C203.483 38.6226 204.053 38.3702 204.656 38.0477C205.337 37.6972 206.018 37.4027 206.699 37.0521C206.799 36.996 206.877 36.7997 207.022 36.5753C206.81 35.8462 206.587 35.0749 206.352 34.2336C205.604 34.5701 204.99 34.8365 204.365 35.117C203.439 35.5377 202.534 36.1687 201.507 35.8041C201.329 35.734 201.117 35.8462 200.927 35.9163C198.381 36.7436 195.836 37.599 193.291 38.4123C192.398 38.6928 191.505 38.8891 190.6 39.0013C190.265 39.0433 190.009 38.6367 190.232 37.8093C190.79 37.6551 191.415 37.4588 192.052 37.2905C193.648 36.8838 195.256 36.4772 196.852 36.0705L197.019 35.6639C196.964 35.8041 196.908 35.9443 196.852 36.0986C198.002 35.2572 199.163 34.486 200.324 33.7007C201.764 32.7191 203.383 32.2143 204.622 30.5737C204.801 30.3353 205.091 30.2792 205.337 30.139C204.823 29.9707 204.443 29.5781 204.354 28.7367C202.892 29.522 201.429 30.3072 199.967 31.0785C199.732 31.2047 199.431 31.4291 199.23 31.3309C197.913 30.6298 196.718 31.4851 195.501 31.9479C194.999 32.1442 194.508 32.3826 193.994 32.4948C191.572 33.0697 189.138 33.6026 186.704 34.1494C186.816 34.2476 186.939 34.3317 187.017 34.472C187.05 34.5421 186.983 34.7384 186.972 34.8646C186.927 34.7945 186.86 34.7384 186.849 34.6683C186.816 34.486 186.793 34.2897 186.771 34.1074C186.124 34.1915 185.487 34.2897 184.851 34.3738C184.014 34.486 183.143 34.8365 182.339 34.6543C181.089 34.3738 179.872 34.5421 178.644 34.6543C173.832 35.0329 169.021 34.7524 164.209 34.2616C161.228 33.9531 158.259 33.4623 155.278 33.0837C152.688 32.7612 150.087 32.5228 147.497 32.2003C143.411 31.6815 139.336 31.0224 135.25 30.5877C131.421 30.181 127.58 29.9427 123.751 29.7604C120.625 29.6061 117.533 28.7367 114.396 29.0592C113.123 28.5124 111.817 28.7227 110.522 28.6245C109.997 28.5825 109.473 28.5544 108.97 28.4142C108.501 28.288 108.133 27.9234 108.211 26.8577C108.847 26.8717 109.484 26.8577 110.131 26.9138C110.723 26.9558 111.304 27.068 111.884 27.0961C114.485 27.2503 117.086 27.3905 119.676 27.5448C124.745 27.8393 129.813 28.1057 134.87 28.7227C137.728 29.0733 140.586 29.2415 143.444 29.5921C148.111 30.181 152.777 30.9242 157.455 31.4711C161.34 31.9339 165.236 32.2704 169.132 32.5228C171.923 32.7051 174.725 32.7612 177.527 32.663C179.537 32.5929 181.535 32.1863 183.578 31.9339C183.5 31.3449 183.444 30.8962 183.377 30.4054C184.014 29.7604 184.728 29.7183 185.443 29.6482C186.671 29.508 187.932 29.6482 189.06 28.6806C189.16 28.5965 189.339 28.5404 189.417 28.6245C190.489 29.8445 191.482 28.6666 192.576 28.6245C192.621 27.4046 192.956 26.423 192.777 25.2311C192.253 25.2731 191.806 25.3292 191.359 25.3432C190.254 25.3853 189.149 25.3012 188.055 25.4414C186.436 25.6517 184.829 26.1566 183.21 26.2687C181.502 26.3949 179.749 27.082 178.063 25.8901C177.684 25.6237 177.159 25.6658 176.712 25.7218C175.429 25.8761 174.122 25.3573 172.872 26.3529C172.504 26.6473 171.979 26.5492 171.521 26.5352C169.958 26.465 168.407 26.3529 166.844 26.2407C166.654 26.2267 166.431 26.1986 166.274 26.0444C165.169 24.9927 163.93 25.0207 162.702 24.9506C162.177 24.9226 161.608 25.0347 161.15 24.7403C159.777 23.8148 158.348 24.0532 156.919 23.983C155.814 23.927 154.697 23.983 153.603 23.8288C149.261 23.2539 144.94 22.4826 140.586 22.062C138.767 21.8797 136.98 21.6693 135.216 20.9822C134.781 20.8139 134.268 20.6457 133.877 20.856C132.336 21.6693 130.84 20.253 129.322 20.7859C127.703 19.8183 125.995 20.0848 124.321 19.9726C122.568 19.8464 120.826 19.5659 119.074 19.3416C118.951 19.3275 118.794 19.2715 118.716 19.1593C118.582 18.963 118.437 18.7105 118.415 18.4581C118.404 18.2338 118.538 17.8131 118.649 17.771C119.141 17.5887 119.654 17.3924 120.156 17.4205C124.376 17.6869 128.596 18.0094 132.816 18.2899C134.368 18.4021 135.931 18.374 137.494 18.5563C143.143 19.2013 148.792 19.9305 154.429 20.6036C155.713 20.7578 157.008 20.842 158.303 20.9822C158.951 21.0523 159.587 21.2206 160.235 21.2907C162.121 21.501 163.997 21.6553 165.884 21.8656C169.903 22.3424 173.921 22.5107 177.952 22.2863C179.358 22.2162 180.754 21.6273 182.172 22.104C182.272 22.1461 182.406 21.9778 182.64 21.8656C182.417 20.9682 182.73 20.3933 183.299 20.1549C183.924 19.9025 184.572 19.7763 185.208 19.58C186.414 19.2013 187.687 19.3135 188.825 18.4441C188.725 18.346 188.624 18.2618 188.535 18.1356C188.501 18.0936 188.513 17.9674 188.501 17.8972C188.591 17.9253 188.747 17.8972 188.758 17.9674C188.792 18.1216 188.758 18.3179 188.758 18.5002C189.127 18.346 189.484 18.2057 189.852 18.0515H189.83C190.299 16.2285 191.56 16.6913 192.453 16.1725C192.264 14.8263 192.163 14.5739 191.739 14.7422C190.812 15.0927 189.796 14.8684 188.937 15.8219C188.401 16.4249 187.832 16.2145 187.363 15.4713C187.195 15.2049 186.961 15.0086 186.816 14.8403C186.057 15.2049 185.297 15.3171 184.728 15.878C183.69 16.8596 182.875 16.5511 182.127 15.3451C181.714 14.672 181.312 14.1532 180.642 14.1812C180.062 14.2093 179.928 13.4801 179.838 12.793H179.85C178.443 13.3539 177.047 13.9288 175.697 14.4757C175.406 13.9709 175.205 13.6203 174.982 13.2137C174.647 13.7185 174.335 14.1812 174.022 14.644C174.1 15.0506 174.547 15.2189 174.357 15.8219C173.933 15.5555 174.044 15.0647 174.078 14.5879C173.609 14.9104 173.151 15.2329 172.626 15.5835C171.945 15.0366 171.276 13.8587 170.438 15.1488C170.762 15.275 171.22 15.0927 171.264 16.1725C170.941 15.7237 170.729 15.4152 170.494 15.1208C170.472 14.658 170.45 14.1953 170.427 13.6624C169.679 13.9288 168.998 14.1812 168.172 14.4757C168.094 13.5783 167.647 13.2277 167.112 13.2137C166.553 13.2137 165.973 12.8631 165.493 13.7185C165.091 14.4337 164.522 14.5318 163.963 14.1252C163.963 13.7045 163.952 13.41 163.941 12.9332C162.992 12.8912 162.043 12.8631 161.094 12.8211C160.313 13.9429 159.699 13.1436 159.074 12.4144C159.007 12.5406 158.951 12.6808 158.884 12.807C158.951 12.6668 159.007 12.5266 159.074 12.3864C158.493 12.3864 157.913 12.3864 157.354 12.4004C157.299 12.5266 157.254 12.5967 157.22 12.6808C156.807 13.8447 156.673 13.8728 156.238 12.8912C156.137 12.6528 156.048 12.4004 156.026 12.3443C154.575 12.0498 153.235 11.6992 151.884 11.559C151.214 11.4889 150.533 11.4188 149.808 11.7273C149.16 12.0077 148.345 11.2645 147.586 11.1103C146.626 10.914 145.643 10.8579 144.672 10.7177C142.864 10.4653 141.055 10.1848 139.247 9.97447C139.079 9.96044 138.878 10.3671 138.644 10.6335C137.896 9.76413 137.014 9.37149 135.987 9.55379C135.417 9.65195 134.803 9.55379 134.234 9.37149C132.615 8.83864 130.997 9.11909 129.367 9.11909C128.998 9.11909 128.619 9.39954 128.25 9.56781C127.681 9.84826 127.603 8.65634 127.1 8.71243C126.911 8.72645 126.71 8.68439 126.52 8.67036C120.692 8.22164 114.854 7.85705 109.026 7.29615C106.246 7.02972 103.466 7.21201 100.676 6.7072C97.7841 6.17434 94.848 6.11825 91.9231 5.85182C88.6186 5.55735 85.3029 5.2208 81.9984 4.98242C80.2569 4.85622 78.5041 4.92633 76.7514 4.81415C73.7707 4.61783 70.7899 4.30933 67.8092 4.15509C66.3244 4.07095 64.8396 4.21118 63.3548 4.25324C63.5111 4.40749 63.6785 4.5337 63.8125 4.73001C63.8572 4.80013 63.8125 5.01046 63.8125 5.16471C63.7009 5.12265 63.5334 5.10862 63.5111 5.01046C63.4441 4.75806 63.4553 4.47761 63.4329 4.19715C62.7966 4.16911 62.1603 4.12704 61.5128 4.099C60.4857 4.04291 59.4586 4.00084 58.4315 3.88866C58.0408 3.84659 57.6612 3.67832 57.5831 2.80892C57.8399 2.27606 58.1413 1.65906 58.4315 1.05609L58.465 1C58.2194 1.09816 57.985 1.28045 57.7394 1.28045C55.4061 1.26643 53.0729 1.16827 50.7397 1.21034C49.8577 1.22436 48.9199 0.901842 48.0938 1.79929C47.9375 1.96756 47.5803 1.91147 47.3682 1.79929C46.2518 1.14023 45.1019 1.05609 43.9297 1.11218C43.2822 1.14023 42.6347 1.16827 41.9872 1.16827C37.3765 1.16827 32.7659 0.985977 28.1664 1.16827C23.0422 1.37861 17.9179 1.89745 12.7937 2.27606C12.3472 2.3041 11.8113 2.44433 11.4652 2.14985C10.7173 1.50481 9.94696 1.68711 9.18782 1.63102C8.14958 1.54688 7.11135 1.39263 6.07311 1.49079C4.99022 1.58895 3.885 0.957932 2.83559 1.64504C2.66814 2.07974 2.51184 2.51444 2.34439 2.93512C2.31089 3.10339 2.2774 3.27166 2.25507 3.43993C2.28857 3.27166 2.32206 3.08937 2.36671 2.90707C2.12111 2.9211 1.8755 2.94914 1.49593 2.99121C1.30615 4.64588 1.12753 6.23043 0.926577 7.91314C0.7033 7.91314 0.401876 7.8851 0.078125 7.87108C0.513515 8.46003 1.09403 8.53014 1.49593 9.34345C1.80852 9.98849 2.63465 10.0446 3.22633 10.3951C3.31564 10.4512 3.34913 10.6896 3.40495 10.8439C3.13702 12.0638 2.17693 10.8859 1.74154 11.8535C2.54533 13.0174 3.76219 11.7413 4.47668 13.1015C4.26457 13.4521 4.07478 13.7746 3.77336 14.2794C5.21349 14.5318 6.53083 14.9104 7.89282 14.7001C8.17191 14.658 8.56265 14.5879 8.59614 15.4713C8.14958 15.7518 7.6807 16.2566 7.20066 16.2846C6.68712 16.3267 6.15126 15.9341 5.60423 15.7237C5.07953 17.2802 5.68237 18.5142 5.87216 19.7903C5.89449 19.9305 6.06194 20.0287 6.2294 20.211C6.49733 19.7062 6.76527 19.2154 7.02204 18.7105C7.93747 19.5613 8.22029 20.6083 7.87049 21.8516C7.84816 21.9357 7.82583 22.0339 7.79234 22.118C7.26764 23.3801 7.45743 24.544 8.02678 25.6377C8.61847 26.7735 9.22131 27.9094 9.85765 29.1153C9.47808 29.522 9.18782 29.8305 8.84174 30.1951C9.84649 31.0645 8.39519 31.4992 8.78592 32.4807C11.9006 32.2424 15.0712 31.9619 18.2529 31.7796C19.213 31.7235 20.1954 31.99 21.1555 32.1021C21.7695 31.6254 22.3835 31.5553 23.0198 31.9759C24.0134 31.0925 25.1298 31.4711 26.1904 31.2748C26.7262 31.0925 27.2509 30.7279 27.7979 31.1766C27.8761 31.7656 27.5858 31.9198 27.3626 31.8497C26.9495 31.7235 26.5588 31.4291 26.1569 31.1907C25.9894 31.4571 25.8554 31.9198 25.6657 31.9759C24.7725 32.2564 23.8683 32.4387 22.9752 31.8918C22.3612 32.2424 21.7583 32.8874 21.1108 32.004C20.8205 32.2143 20.5415 32.5509 20.2512 32.607C17.9961 32.9856 15.7298 33.1959 13.4747 33.5745C11.5434 33.897 9.57856 33.6867 7.63605 33.7147C6.19591 33.7428 4.78927 33.9952 3.43844 34.8225C3.55008 34.8646 3.67288 34.8926 3.78452 34.9347C3.7287 34.9347 3.66172 34.9347 3.6059 34.9207C3.55008 34.8926 3.50542 34.8085 3.46077 34.7524C3.53892 35.2152 3.69521 35.6919 3.66172 36.1406C3.62823 36.5333 3.39379 36.8979 3.204 37.3606C3.59474 37.6972 3.90732 38.0898 4.26457 38.244C4.82276 38.4964 5.12418 39.0433 5.3363 39.8005C5.55957 40.5858 5.50375 41.315 5.15767 41.9881C5.38095 41.9881 5.64888 41.8058 5.78285 42.2825L5.7047 42.3106ZM7.07786 42.4929C7.17833 42.4228 7.2788 42.3667 7.37928 42.2966C7.37928 42.1283 7.37928 41.96 7.36811 41.7777C7.36811 41.8478 7.37928 41.918 7.37928 41.9881C7.37928 42.0722 7.37928 42.1563 7.37928 42.2405C7.2788 42.3386 7.17833 42.4228 7.07786 42.4929ZM13.0728 15.4713C12.0793 15.9902 11.0857 16.1865 10.1144 15.5695C10.0139 14.8824 10.293 14.7842 10.5386 14.7842C11.4987 14.7842 12.47 14.8403 13.4301 14.8824C13.6869 14.8543 13.9436 14.7982 14.2004 14.8123C14.3009 14.8123 14.3902 15.0086 14.4795 15.1067C14.3455 15.2189 14.1781 15.4573 14.0664 15.4152C13.832 15.3031 13.631 15.0366 13.4078 14.8403C13.285 15.0366 13.2068 15.4012 13.0617 15.4713H13.0728ZM169.021 40.095C166.04 39.3939 162.992 39.8005 160.011 38.7629C160.067 38.5946 160.078 38.4544 160.112 38.4404C160.357 38.3422 160.603 38.1739 160.837 38.1879C163.807 38.4684 166.777 38.7769 169.735 39.0994C169.902 39.1134 170.059 39.3658 170.639 39.8566C169.757 39.9828 169.367 40.1651 169.009 40.081L169.021 40.095ZM159.755 16.8876C159.509 16.3127 159.297 15.8499 159.007 15.1488C159.788 14.8543 160.38 14.7982 161.407 15.5134C160.681 16.1164 160.257 16.4669 159.755 16.8876ZM176.177 51.3131C177.494 50.1913 178.61 50.3175 179.66 51.5094C178.521 51.9021 177.405 52.3788 176.177 51.3131ZM10.8959 30.4615C10.8289 30.5176 10.7619 30.5877 10.6949 30.6438C10.6949 30.5737 10.6614 30.4755 10.6726 30.4194C10.6838 30.3633 10.7508 30.3353 10.7843 30.2932C10.8177 30.3493 10.8624 30.3914 10.8959 30.4475V30.4615ZM191.594 26.7034C191.594 26.7034 191.493 26.6193 191.482 26.5632C191.471 26.5071 191.538 26.451 191.583 26.3949C191.616 26.451 191.661 26.5071 191.694 26.5492C191.661 26.6053 191.627 26.7034 191.594 26.7034ZM156.763 37.7813C156.796 37.9355 156.897 38.1459 156.852 38.23C156.796 38.3562 156.651 38.3702 156.551 38.4404C156.517 38.2861 156.484 38.1319 156.45 37.9776C156.551 37.9075 156.662 37.8514 156.763 37.7813ZM29.3944 31.2888C29.2939 31.3449 29.2046 31.4291 29.093 31.4571C29.0595 31.4571 29.0148 31.3449 28.9702 31.2748C29.0483 31.1626 29.1376 31.0504 29.2158 30.9383C29.2716 31.0504 29.3386 31.1626 29.3944 31.2888ZM45.3363 4.04291C45.3363 4.04291 45.2805 4.15509 45.2582 4.21118C45.247 4.11302 45.2359 4.00084 45.2135 3.86061C45.2694 3.94475 45.3252 3.98681 45.3363 4.04291ZM84.8898 36.4211L84.9903 36.2809L85.035 36.4632L84.901 36.4211H84.8898ZM175.909 47.0082C175.909 47.0082 175.964 46.896 175.987 46.8539C175.998 46.9521 176.009 47.0502 176.02 47.1905C175.964 47.1063 175.909 47.0643 175.897 47.0082H175.909Z" fill="#D4F7E9"/>
<path d="M205.727 23.2399C205.202 23.6325 204.689 24.0392 204.164 24.4037C203.751 24.6842 203.338 24.9787 202.903 25.1469C202.233 25.4134 201.63 25.189 201.474 24.6842C201.228 23.941 201.641 22.3845 202.266 21.9778C203.215 21.3608 204.187 20.87 205.057 20.3652C205.593 20.7859 205.47 21.2767 205.392 21.7535C205.281 22.3985 205.482 22.8893 205.783 23.31L205.75 23.2258L205.727 23.2399Z" fill="#D4F7E9"/>
<path d="M194.63 24.4459C194.508 25.5397 195.11 26.6895 194.619 27.7412C194.485 27.7693 194.374 27.7973 194.374 27.7833C194.24 27.0681 194.117 26.353 193.983 25.6238C194.206 25.2312 194.418 24.8245 194.642 24.4319L194.63 24.4459Z" fill="#D4F7E9"/>
<path d="M204.254 28.8489C205.024 28.6385 205.705 27.7411 206.632 28.0776C206.014 28.7507 205.564 29.4799 205.281 30.2652C204.935 29.7884 204.589 29.3256 204.254 28.8489Z" fill="#D4F7E9"/>
<path d="M195.144 15.5273C194.869 16.4248 194.385 16.9156 193.693 16.9997C194.05 16.0742 195.032 16.7052 195.144 15.5273Z" fill="#D4F7E9"/>
<path d="M199.074 14.3215C198.795 14.7562 198.694 15.5976 198.013 15.1909C198.393 14.8824 198.739 14.602 199.074 14.3215Z" fill="#D4F7E9"/>
<path d="M195.635 26.6053C195.3 25.8902 194.965 25.161 194.63 24.4459C194.954 24.8665 195.233 24.8806 195.468 24.2776L195.445 24.3197C195.49 25.1049 195.535 25.8762 195.579 26.6614L195.646 26.6053H195.635Z" fill="#D4F7E9"/>
<path d="M196.338 11.0542C196.338 11.0542 196.428 11.1103 196.484 11.1524C196.45 11.2084 196.394 11.3206 196.383 11.3066C196.316 11.2645 196.26 11.1944 196.193 11.1243C196.249 11.0963 196.294 11.0822 196.35 11.0542H196.338Z" fill="#D4F7E9"/>
<path d="M195.579 26.6613C195.981 26.8576 196.372 27.0539 196.774 27.2503L196.752 27.1802C196.305 27.3204 195.791 27.7691 195.646 26.6052L195.579 26.6613Z" fill="#D4F7E9"/>
<path d="M125.459 62.9798C125.292 62.8957 125.135 62.7975 124.968 62.7134C124.968 62.6853 124.979 62.6433 124.99 62.6152C125.158 62.6853 125.325 62.7695 125.482 62.8396C125.482 62.8817 125.459 62.9237 125.448 62.9798H125.459Z" fill="#D4F7E9"/>
<path d="M5.54834 22.8892L5.64881 22.8472L5.60416 23.0154L5.54834 22.8892Z" fill="#D4F7E9"/>
<path d="M190.846 13.2277C190.846 13.2277 190.902 13.0735 190.946 13.0735C190.98 13.0735 191.025 13.1576 191.058 13.1997C191.025 13.2558 191.002 13.3539 190.969 13.3539C190.935 13.3539 190.891 13.2698 190.857 13.2277H190.846Z" fill="#D4F7E9"/>
<path d="M60.7872 1.43481C60.7872 1.43481 60.8765 1.51895 60.9211 1.547C60.8541 1.58906 60.7872 1.64515 60.709 1.65918C60.6867 1.65918 60.6532 1.53297 60.6309 1.47688C60.6867 1.46286 60.7313 1.44884 60.7872 1.43481Z" fill="#D4F7E9"/>
<path d="M200.424 14.8402C200.469 14.714 200.536 14.5878 200.57 14.4476C200.592 14.3634 200.57 14.2653 200.57 14.1812C200.536 14.2653 200.503 14.3354 200.491 14.4195C200.458 14.5598 200.447 14.714 200.413 14.8683V14.8542L200.424 14.8402Z" fill="#D4F7E9"/>
<path d="M199.263 25.1188L199.107 25.0627L199.219 24.9084L199.263 25.1188Z" fill="#D4F7E9"/>
<path d="M106.012 61.2412L106.146 61.3674H106.012V61.2412Z" fill="#D4F7E9"/>
<path d="M127.357 62.5311C127.29 62.6713 127.223 62.8115 127.145 62.9237C127.112 62.9798 127.045 63.0359 127 63.0359C126.955 63.0359 126.899 62.9658 126.855 62.9237C126.933 62.8676 127.022 62.8256 127.1 62.7695C127.201 62.6853 127.279 62.5872 127.379 62.489L127.357 62.5171V62.5311Z" fill="#D4F7E9"/>
<path d="M172.426 13.9849C172.426 13.9849 172.493 13.8727 172.526 13.8167C172.559 13.8727 172.615 13.9288 172.626 13.9849C172.626 14.041 172.571 14.0971 172.537 14.1532C172.504 14.0971 172.47 14.041 172.437 13.9849H172.426Z" fill="#D4F7E9"/>
<path d="M183.154 13.999C183.154 13.999 183.255 14.0832 183.266 14.1392C183.266 14.1953 183.232 14.2655 183.21 14.3356C183.154 14.2655 183.098 14.1953 183.042 14.1112C183.087 14.0691 183.121 14.0411 183.165 13.999H183.154Z" fill="#D4F7E9"/>
<path d="M58.387 1.00011C58.454 1.08424 58.5321 1.1824 58.5991 1.26654C58.5768 1.19642 58.5656 1.07022 58.5321 1.04217C58.4875 1.01413 58.4093 1.04217 58.3535 1.04217L58.387 0.986084V1.00011Z" fill="#D4F7E9"/>
<path d="M87.6249 59.6847L87.5356 59.5444L87.6584 59.5585L87.6249 59.6847Z" fill="#D4F7E9"/>
<path d="M109.35 61.5356L109.45 61.6759H109.316L109.35 61.5356Z" fill="#D4F7E9"/>
<path d="M127.379 62.5032C127.469 62.6013 127.558 62.6995 127.658 62.7976C127.558 62.7135 127.457 62.6154 127.368 62.5312L127.39 62.5032H127.379Z" fill="#D4F7E9"/>
<path d="M179.794 12.7649C179.905 12.849 180.028 12.9191 180.14 13.0033C180.017 12.9191 179.905 12.849 179.782 12.7649H179.794Z" fill="#D4F7E9"/>
<path d="M187.999 30.9241C187.999 30.9241 187.921 30.9802 187.876 31.0083C187.932 30.9662 187.977 30.9241 188.033 30.8821L187.999 30.9241Z" fill="#D4F7E9"/>
<path d="M189.774 18.0515C189.93 18.0515 190.087 18.0515 189.819 18.0515C190.098 18.0936 189.953 18.0655 189.796 18.0515H189.763H189.774Z" fill="#D4F7E9"/>
<path d="M188.044 30.8821C188.122 30.9522 188.2 31.0363 188.289 31.1064C188.256 31.0504 188.234 30.9662 188.189 30.9382C188.133 30.9101 188.066 30.9382 188.01 30.9241L188.044 30.8821Z" fill="#D4F7E9"/>
<path d="M196.149 15.5273C195.814 16.0041 195.479 15.7377 195.133 15.5273C195.479 15.5554 195.825 15.5834 196.171 15.6115L196.149 15.5273Z" fill="#D4F7E9"/>
<path d="M196.182 15.6116C196.294 15.5976 196.406 15.5836 196.517 15.5695C196.394 15.5695 196.283 15.5555 196.16 15.5415L196.182 15.6116Z" fill="#D4F7E9"/>
<path d="M195.468 24.2776C195.535 24.3757 195.602 24.4739 195.68 24.558C195.602 24.4739 195.523 24.4038 195.445 24.3197L195.479 24.2776H195.468Z" fill="#D4F7E9"/>
<path d="M195.747 28.8348C195.747 28.8348 195.646 28.8769 195.591 28.9049C195.613 28.975 195.635 29.0451 195.658 29.1152C195.702 29.0031 195.736 28.9049 195.78 28.7927L195.758 28.8348H195.747Z" fill="#D4F7E9"/>
<path d="M195.769 28.7927L195.97 29.0171C195.97 29.0171 195.925 28.8769 195.892 28.8628C195.847 28.8348 195.791 28.8628 195.736 28.8488L195.758 28.8067L195.769 28.7927Z" fill="#D4F7E9"/>
<path d="M196.763 27.2504C196.763 27.2504 196.852 27.1943 196.897 27.1663C196.841 27.1663 196.796 27.1663 196.74 27.1663L196.763 27.2364V27.2504Z" fill="#D4F7E9"/>
<path d="M199.085 14.3215C199.532 14.4898 199.978 14.6721 200.425 14.8404V14.8544C199.978 14.6721 199.532 14.4898 199.085 14.3215Z" fill="#D4F7E9"/>
<path d="M205.761 23.324C205.85 23.2399 205.939 23.1698 205.995 23.1277C205.939 23.1557 205.839 23.1978 205.739 23.2399L205.772 23.324H205.761Z" fill="#D4F7E9"/>
<path d="M2.26631 2.92111C2.23282 3.08938 2.19933 3.25765 2.177 3.42593C2.21049 3.25765 2.24398 3.07536 2.28864 2.89307L2.26631 2.92111Z" fill="#D4F7E9"/>
<path d="M159.007 12.4004C158.94 12.5266 158.884 12.6668 158.817 12.793C158.884 12.6528 158.94 12.5125 159.007 12.3723V12.4004Z" fill="#D4F7E9"/>
</svg>
