<svg width="336" height="98" viewBox="0 0 336 98" fill="none" xmlns="http://www.w3.org/2000/svg">
<path d="M9.24375 60.8588C8.70015 61.1839 8.59143 60.5541 8.37399 60.1477C7.8304 63.1751 6.48953 65.471 4.44198 67.2184C5.25737 71.0178 3.44539 73.2935 1.77836 75.3862C1.74212 76.8085 1.66964 77.9463 1.68776 79.0638C1.74212 82.1724 3.84402 84.8138 6.19961 84.7528C9.67862 84.6716 13.1758 84.6106 16.6548 84.4481C19.8258 84.3058 22.9786 84.0823 26.1496 83.7979C33.7418 83.0867 41.3159 82.2334 48.9082 81.6035C53.6556 81.2175 58.4211 81.2988 63.1504 80.9127C67.8434 80.5267 72.6271 81.9083 77.2477 79.7343C79.7844 79.6936 82.3212 79.592 84.8399 79.6327C91.3993 79.7343 97.9406 79.8765 104.5 80.0594C107.87 80.1609 111.259 79.9578 114.629 79.9578C120.645 79.9578 126.661 80.486 132.676 80.7908C133.311 80.8314 133.963 80.8518 134.561 81.0753C137.551 82.1928 140.559 82.4569 143.621 81.6442C144.436 81.441 145.306 81.6035 146.158 81.6442C147.517 81.7254 148.894 81.827 150.253 81.9489C156.323 82.5585 162.465 82.3147 168.445 84.2042C169.061 84.4074 169.713 84.3871 170.348 84.3668C172.449 84.3261 174.551 84.6512 176.653 84.7528C181.582 84.9966 186.511 85.3217 191.439 85.6671C194.067 85.85 196.712 85.8906 199.231 87.2519C199.974 87.6583 200.952 87.9834 201.695 87.6989C203.706 86.9472 205.645 87.3535 207.638 87.6177C209.722 87.9021 211.806 88.0443 213.908 88.2475C214.959 88.3491 216.028 88.3898 217.061 88.5929C217.568 88.6945 218.293 88.918 218.474 89.3853C219.471 91.9454 221.319 92.2095 223.04 92.433C230.397 93.3474 237.772 94.1194 245.146 94.9525C250.401 95.5417 255.674 96.0903 260.929 96.6795C272.417 97.9799 283.887 98.8129 295.375 96.7608C296.643 96.5373 297.622 96.3544 297.948 94.3836C298.038 93.835 298.636 93.388 299.071 93.0223C299.488 92.6565 300.158 92.6362 300.43 92.1689C301.082 91.0108 301.97 90.8076 302.931 90.6044C306.065 89.9746 309.182 89.2025 312.317 88.6539C313.603 88.4304 314.727 87.8208 315.886 87.0894C317.717 85.9313 318.985 83.8995 320.543 82.1928C320.018 80.6283 320.054 79.2263 321.359 78.312C322.736 77.3367 323.841 75.7113 325.49 75.3253C325.943 75.2237 326.541 74.6751 326.722 74.1265C327.32 72.3588 327.864 70.5302 328.226 68.6609C328.878 65.2272 329.857 63.0735 332.285 61.956C333.227 61.5293 334.332 61.2652 334.785 59.4569C334.296 59.5178 333.916 59.5585 333.517 59.6397C331.542 60.0258 329.567 60.4728 327.592 60.7572C326.921 60.8588 326.36 60.3509 326.595 59.1724C327.592 58.38 328.806 57.8518 329.494 56.7546C330.256 55.5152 331.18 55.1495 332.158 54.6821C333.263 54.1742 334.369 53.7475 335.474 53.2396C335.637 53.1583 335.764 52.8738 336 52.5487C335.655 51.4922 335.293 50.3747 334.912 49.1556C333.698 49.6433 332.702 50.0293 331.687 50.4357C330.183 51.0452 328.715 51.9595 327.048 51.4313C326.758 51.3297 326.414 51.4922 326.106 51.5938C321.975 52.7926 317.843 54.032 313.712 55.2104C312.262 55.6168 310.813 55.9012 309.345 56.0638C308.802 56.1247 308.385 55.5355 308.747 54.3367C309.653 54.1132 310.668 53.8288 311.701 53.585C314.292 52.9957 316.901 52.4065 319.492 51.8173L319.764 51.2281C319.673 51.4313 319.583 51.6344 319.492 51.8579C321.359 50.6389 323.243 49.5214 325.128 48.3835C327.465 46.9613 330.092 46.2298 332.104 43.8526C332.394 43.5072 332.865 43.4259 333.263 43.2228C332.43 42.979 331.814 42.41 331.669 41.191C329.295 42.3288 326.921 43.4666 324.548 44.5841C324.167 44.7669 323.678 45.092 323.352 44.9498C321.214 43.9339 319.275 45.1733 317.3 45.8438C316.484 46.1282 315.687 46.4736 314.854 46.6362C310.922 47.4692 306.971 48.2413 303.021 49.0337C303.203 49.1759 303.402 49.2979 303.529 49.501C303.583 49.6026 303.474 49.8871 303.456 50.0699C303.384 49.9684 303.275 49.8871 303.257 49.7855C303.203 49.5214 303.166 49.2369 303.13 48.9728C302.079 49.0947 301.046 49.2369 300.013 49.3588C298.654 49.5214 297.241 50.0293 295.936 49.7652C293.907 49.3588 291.932 49.6026 289.939 49.7652C282.129 50.3138 274.319 49.9074 266.51 49.1963C261.672 48.7493 256.852 48.0381 252.014 47.4896C247.81 47.0222 243.588 46.6768 239.384 46.2095C232.752 45.4577 226.139 44.5028 219.507 43.8729C213.292 43.2837 207.058 42.9383 200.843 42.6742C195.77 42.4507 190.751 41.191 185.659 41.6583C183.593 40.8659 181.473 41.1706 179.371 41.0284C178.52 40.9675 177.668 40.9268 176.853 40.7236C176.092 40.5408 175.494 40.0125 175.62 38.4683C176.653 38.4887 177.686 38.4683 178.737 38.5496C179.697 38.6106 180.64 38.7731 181.582 38.8138C185.804 39.0373 190.026 39.2404 194.23 39.4639C202.456 39.8906 210.682 40.2767 218.891 41.1706C223.529 41.6786 228.168 41.9224 232.807 42.4304C240.381 43.2837 247.955 44.3606 255.547 45.153C261.853 45.8235 268.177 46.3111 274.501 46.6768C279.031 46.941 283.579 47.0222 288.127 46.88C291.388 46.7784 294.632 46.1892 297.948 45.8235C297.821 44.9701 297.73 44.3199 297.622 43.6088C298.654 42.6742 299.814 42.6132 300.974 42.5116C302.967 42.3085 305.015 42.5116 306.845 41.1097C307.008 40.9878 307.298 40.9065 307.424 41.0284C309.164 42.7961 310.777 41.0894 312.552 41.0284C312.625 39.2607 313.168 37.8385 312.879 36.1115C312.027 36.1724 311.302 36.2537 310.577 36.274C308.783 36.335 306.99 36.213 305.214 36.4162C302.586 36.721 299.977 37.4524 297.35 37.615C294.577 37.7979 291.733 38.7934 288.997 37.0664C288.38 36.6804 287.529 36.7413 286.804 36.8226C284.72 37.0461 282.6 36.2943 280.571 37.7369C279.973 38.1636 279.121 38.0213 278.378 38.001C275.842 37.8994 273.323 37.7369 270.786 37.5744C270.478 37.554 270.116 37.5134 269.862 37.2899C268.068 35.766 266.057 35.8067 264.064 35.7051C263.212 35.6645 262.288 35.827 261.545 35.4003C259.316 34.0593 256.997 34.4047 254.677 34.3031C252.884 34.2219 251.072 34.3032 249.296 34.0797C242.247 33.2466 235.235 32.1291 228.168 31.5196C225.215 31.2554 222.315 30.9507 219.452 29.9551C218.746 29.7113 217.912 29.4675 217.278 29.7722C214.778 30.9507 212.349 28.8986 209.885 29.6706C207.258 28.2687 204.485 28.6547 201.767 28.4922C198.923 28.3093 196.096 27.903 193.251 27.5779C193.052 27.5576 192.798 27.4763 192.671 27.3137C192.454 27.0293 192.218 26.6636 192.182 26.2978C192.164 25.9728 192.381 25.3632 192.563 25.3023C193.36 25.0381 194.193 24.7537 195.009 24.7943C201.858 25.1804 208.707 25.6477 215.557 26.054C218.075 26.2166 220.612 26.1759 223.149 26.4401C232.318 27.3747 241.486 28.4312 250.637 29.4065C252.721 29.63 254.822 29.7519 256.924 29.9551C257.975 30.0567 259.008 30.3005 260.059 30.4021C263.121 30.7069 266.165 30.9304 269.228 31.2351C275.751 31.9259 282.274 32.1698 288.815 31.8447C291.098 31.7431 293.363 30.8897 295.665 31.5805C295.828 31.6415 296.045 31.3977 296.426 31.2351C296.063 29.9348 296.571 29.1017 297.495 28.7563C298.509 28.3906 299.56 28.2077 300.593 27.9233C302.55 27.3747 304.616 27.5372 306.464 26.2775C306.301 26.1353 306.138 26.0134 305.993 25.8305C305.939 25.7696 305.957 25.5867 305.939 25.4851C306.084 25.5258 306.337 25.4851 306.355 25.5867C306.41 25.8102 306.355 26.0947 306.355 26.3588C306.953 26.1353 307.533 25.9321 308.131 25.7086H308.095C308.856 23.0673 310.903 23.7378 312.353 22.986C312.045 21.0355 311.882 20.6697 311.193 20.9136C309.689 21.4215 308.041 21.0964 306.645 22.4781C305.776 23.3517 304.851 23.047 304.09 21.9701C303.819 21.5841 303.438 21.2996 303.203 21.0558C301.97 21.5841 300.738 21.7466 299.814 22.5593C298.129 23.9816 296.806 23.5346 295.592 21.7872C294.922 20.812 294.269 20.0602 293.182 20.1008C292.24 20.1415 292.023 19.0849 291.878 18.0894H291.896C289.613 18.9021 287.348 19.7351 285.155 20.5275C284.684 19.7961 284.358 19.2881 283.995 18.6989C283.452 19.4303 282.945 20.1008 282.437 20.7713C282.564 21.3606 283.289 21.6044 282.981 22.4781C282.292 22.092 282.473 21.3809 282.528 20.6901C281.767 21.1574 281.024 21.6247 280.172 22.1326C279.067 21.3402 277.98 19.6335 276.621 21.5028C277.146 21.6856 277.889 21.4215 277.962 22.986C277.436 22.3358 277.092 21.8888 276.711 21.4622C276.675 20.7917 276.639 20.1212 276.603 19.3491C275.389 19.7351 274.283 20.1008 272.942 20.5275C272.815 19.2272 272.091 18.7192 271.221 18.6989C270.315 18.6989 269.373 18.1909 268.594 19.4303C267.941 20.4666 267.017 20.6088 266.111 20.0196C266.111 19.41 266.093 18.9834 266.075 18.2925C264.535 18.2316 262.995 18.1909 261.454 18.13C260.186 19.7554 259.189 18.5973 258.175 17.5408C258.066 17.7236 257.975 17.9268 257.867 18.1097C257.975 17.9065 258.066 17.7033 258.175 17.5001C257.232 17.5001 256.29 17.5001 255.384 17.5205C255.294 17.7033 255.221 17.8049 255.167 17.9268C254.496 19.6132 254.279 19.6538 253.572 18.2316C253.409 17.8862 253.264 17.5205 253.228 17.4392C250.872 17.0125 248.698 16.5046 246.505 16.3014C245.418 16.1998 244.313 16.0982 243.135 16.5452C242.084 16.9515 240.761 15.8747 239.529 15.6512C237.971 15.3667 236.376 15.2855 234.8 15.0823C231.865 14.7166 228.929 14.3102 225.994 14.0054C225.722 13.9851 225.396 14.5743 225.015 14.9604C223.801 13.7007 222.37 13.1318 220.703 13.3959C219.779 13.5381 218.782 13.3959 217.858 13.1318C215.231 12.3597 212.603 12.766 209.958 12.766C209.36 12.766 208.744 13.1724 208.146 13.4162C207.222 13.8226 207.095 12.0955 206.279 12.1768C205.971 12.1971 205.645 12.1362 205.337 12.1159C195.879 11.4657 186.402 10.9374 176.943 10.1247C172.431 9.73865 167.92 10.0028 163.39 9.27133C158.697 8.49925 153.931 8.41797 149.184 8.03193C143.82 7.60525 138.438 7.11762 133.075 6.77221C130.248 6.58935 127.403 6.69094 124.559 6.5284C119.721 6.24394 114.883 5.79695 110.045 5.57345C107.635 5.45154 105.225 5.65472 102.815 5.71568C103.068 5.93917 103.34 6.12204 103.558 6.40649C103.63 6.50808 103.558 6.81285 103.558 7.03635C103.377 6.97539 103.105 6.95508 103.068 6.81285C102.96 6.44712 102.978 6.04076 102.942 5.6344C101.909 5.59377 100.876 5.53281 99.825 5.49218C98.158 5.41091 96.491 5.34995 94.8239 5.18741C94.1897 5.12645 93.5737 4.88264 93.4468 3.62292C93.8636 2.85083 94.3528 1.95684 94.8239 1.08316L94.8783 1.00189C94.4797 1.14412 94.0991 1.40825 93.7005 1.40825C89.9135 1.38793 86.1264 1.24571 82.3393 1.30666C80.9079 1.32698 79.3858 0.859666 78.0449 2.16002C77.7913 2.40384 77.2114 2.32256 76.8671 2.16002C75.0551 1.20507 73.1888 1.08316 71.2862 1.16444C70.2353 1.20507 69.1843 1.24571 68.1334 1.24571C60.6498 1.24571 53.1663 0.981574 45.7009 1.24571C37.3839 1.55048 29.0669 2.30225 20.7499 2.85083C20.0251 2.89147 19.1553 3.09465 18.5936 2.66797C17.3796 1.73334 16.1293 1.99748 14.8971 1.9162C13.212 1.7943 11.5269 1.5708 9.8417 1.71302C8.08407 1.85525 6.29021 0.940938 4.58694 1.93652C4.31514 2.56638 4.06146 3.19624 3.78966 3.80578C3.7353 4.0496 3.68094 4.29341 3.6447 4.53723C3.69906 4.29341 3.75342 4.02928 3.8259 3.76514C3.42727 3.78546 3.02863 3.8261 2.41255 3.88705C2.10451 6.28458 1.8146 8.58052 1.48844 11.0187C1.12604 11.0187 0.636805 10.978 0.111328 10.9577C0.818003 11.8111 1.76024 11.9127 2.41255 13.0911C2.91991 14.0258 4.26078 14.107 5.22113 14.615C5.36609 14.6962 5.42045 15.0417 5.51105 15.2652C5.07617 17.0328 3.51787 15.3261 2.81119 16.728C4.11582 18.4144 6.09089 16.5655 7.25056 18.5364C6.90628 19.0443 6.59825 19.5116 6.10901 20.2431C8.44647 20.6088 10.5846 21.1574 12.7952 20.8526C13.2482 20.7917 13.8824 20.6901 13.9368 21.9701C13.212 22.3765 12.451 23.1079 11.6718 23.1485C10.8383 23.2095 9.96854 22.6406 9.08067 22.3358C8.22903 24.5911 9.20751 26.3791 9.51554 28.2281C9.55179 28.4312 9.82358 28.5735 10.0954 28.8376C10.5303 28.1061 10.9651 27.395 11.3819 26.6636C12.8677 27.8962 13.3268 29.4133 12.759 31.2148C12.7228 31.3367 12.6865 31.4789 12.6322 31.6009C11.7805 33.4295 12.0886 35.1159 13.0127 36.7007C13.973 38.3464 14.9515 39.9922 15.9843 41.7395C15.3683 42.3288 14.8971 42.7758 14.3354 43.304C15.9662 44.5638 13.6106 45.1936 14.2448 46.6159C19.3003 46.2705 24.4463 45.8641 29.6105 45.6C31.1688 45.5187 32.7634 45.9047 34.3217 46.0673C35.3183 45.3765 36.3148 45.2749 37.3477 45.8844C38.9604 44.6044 40.7723 45.153 42.4937 44.8685C43.3635 44.6044 44.2151 44.0761 45.103 44.7263C45.2298 45.5797 44.7587 45.8032 44.3963 45.7016C43.7259 45.5187 43.0917 45.092 42.4394 44.7466C42.1676 45.1327 41.9501 45.8032 41.6421 45.8844C40.1925 46.2908 38.7248 46.5549 37.2752 45.7625C36.2786 46.2705 35.3001 47.2051 34.2492 45.9251C33.7781 46.2298 33.3251 46.7175 32.8539 46.7987C29.1937 47.3473 25.5154 47.6521 21.8552 48.2007C18.7204 48.668 15.5313 48.3632 12.3785 48.4039C10.041 48.4445 7.75792 48.8102 5.56541 50.009C5.74661 50.0699 5.94593 50.1106 6.12713 50.1715C6.03653 50.1715 5.92781 50.1715 5.83721 50.1512C5.74661 50.1106 5.67413 49.9887 5.60165 49.9074C5.72849 50.5779 5.98217 51.2687 5.92781 51.9189C5.87345 52.4878 5.49293 53.0161 5.18489 53.6866C5.81909 54.1742 6.32645 54.7431 6.90628 54.9666C7.81228 55.3323 8.30151 56.1247 8.64579 57.2219C9.00819 58.3597 8.91759 59.4162 8.35587 60.3915C8.71827 60.3915 9.15315 60.1274 9.37059 60.8182L9.24375 60.8588ZM11.4725 61.123C11.6356 61.0214 11.7986 60.9401 11.9617 60.8385C11.9617 60.5947 11.9617 60.3509 11.9436 60.0867C11.9436 60.1883 11.9617 60.2899 11.9617 60.3915C11.9617 60.5134 11.9617 60.6353 11.9617 60.7572C11.7986 60.8995 11.6356 61.0214 11.4725 61.123ZM21.2029 21.9701C19.5902 22.7219 17.9775 23.0063 16.4011 22.1123C16.238 21.1167 16.691 20.9745 17.0897 20.9745C18.648 20.9745 20.2244 21.0558 21.7827 21.1167C22.1995 21.0761 22.6162 20.9948 23.033 21.0152C23.1961 21.0152 23.341 21.2996 23.486 21.4418C23.2685 21.6044 22.9967 21.9498 22.8155 21.8888C22.435 21.7263 22.1089 21.3402 21.7465 21.0558C21.5471 21.3402 21.4203 21.8685 21.1847 21.9701H21.2029ZM274.319 57.6486C269.481 56.6327 264.535 57.2219 259.697 55.7184C259.787 55.4745 259.805 55.2714 259.86 55.251C260.258 55.1088 260.657 54.865 261.038 54.8853C265.857 55.2917 270.677 55.7387 275.479 56.206C275.751 56.2263 276.005 56.592 276.947 57.3032C275.515 57.486 274.881 57.7502 274.301 57.6283L274.319 57.6486ZM259.28 24.0222C258.881 23.1892 258.537 22.5187 258.066 21.5028C259.334 21.0761 260.295 20.9948 261.962 22.0311C260.784 22.9047 260.095 23.4127 259.28 24.0222ZM285.934 73.903C288.072 72.2776 289.884 72.4604 291.588 74.1874C289.739 74.7564 287.927 75.4472 285.934 73.903ZM17.6695 43.6901C17.5608 43.7714 17.4521 43.8729 17.3433 43.9542C17.3433 43.8526 17.289 43.7104 17.3071 43.6291C17.3252 43.5479 17.4339 43.5072 17.4883 43.4463C17.5427 43.5275 17.6151 43.5885 17.6695 43.6698V43.6901ZM310.958 38.2448C310.958 38.2448 310.795 38.1229 310.777 38.0417C310.759 37.9604 310.867 37.8791 310.94 37.7979C310.994 37.8791 311.067 37.9604 311.121 38.0213C311.067 38.1026 311.012 38.2448 310.958 38.2448ZM254.424 54.2961C254.478 54.5196 254.641 54.8244 254.569 54.9463C254.478 55.1291 254.243 55.1495 254.08 55.251C254.025 55.0275 253.971 54.804 253.916 54.5805C254.08 54.479 254.261 54.3977 254.424 54.2961ZM47.6941 44.8888C47.5311 44.9701 47.3861 45.092 47.2049 45.1327C47.1505 45.1327 47.0781 44.9701 47.0056 44.8685C47.1324 44.706 47.2774 44.5434 47.4042 44.3809C47.4948 44.5434 47.6035 44.706 47.6941 44.8888ZM73.5693 5.41091C73.5693 5.41091 73.4787 5.57345 73.4425 5.65472C73.4244 5.5125 73.4062 5.34995 73.37 5.14677C73.4606 5.26868 73.5512 5.32963 73.5693 5.41091ZM137.768 52.3252L137.931 52.1221L138.004 52.3862L137.786 52.3252H137.768ZM285.499 67.6654C285.499 67.6654 285.59 67.5028 285.626 67.4419C285.644 67.5841 285.662 67.7263 285.681 67.9295C285.59 67.8076 285.499 67.7466 285.481 67.6654H285.499Z" fill="#F3E5FF"/>
<path d="M333.897 33.2264C333.046 33.7953 332.212 34.3845 331.361 34.9128C330.69 35.3191 330.02 35.7458 329.313 35.9896C328.226 36.3756 327.247 36.0506 326.994 35.3191C326.595 34.2423 327.265 31.987 328.28 31.3977C329.82 30.5037 331.397 29.7926 332.81 29.0612C333.68 29.6707 333.481 30.3818 333.354 31.0726C333.173 32.0073 333.499 32.7184 333.988 33.3279L333.934 33.206L333.897 33.2264Z" fill="#F3E5FF"/>
<path d="M315.887 34.9736C315.688 36.5584 316.666 38.2245 315.869 39.7483C315.651 39.7889 315.47 39.8296 315.47 39.8093C315.253 38.773 315.053 37.7368 314.836 36.6803C315.198 36.1114 315.543 35.5222 315.905 34.9532L315.887 34.9736Z" fill="#F3E5FF"/>
<path d="M331.506 41.3535C332.756 41.0488 333.861 39.7484 335.365 40.2361C334.363 41.2113 333.632 42.2679 333.173 43.4057C332.611 42.7149 332.049 42.0444 331.506 41.3535Z" fill="#F3E5FF"/>
<path d="M316.72 22.0514C316.273 23.3517 315.488 24.0629 314.364 24.1848C314.944 22.8438 316.539 23.7581 316.72 22.0514Z" fill="#F3E5FF"/>
<path d="M323.098 20.304C322.645 20.9339 322.482 22.153 321.377 21.5637C321.993 21.1167 322.555 20.7104 323.098 20.304Z" fill="#F3E5FF"/>
<path d="M317.518 38.1027C316.974 37.0664 316.43 36.0099 315.887 34.9737C316.412 35.5832 316.865 35.6035 317.246 34.7299L317.209 34.7908C317.282 35.9286 317.354 37.0461 317.427 38.1839L317.536 38.1027H317.518Z" fill="#F3E5FF"/>
<path d="M318.659 15.5699C318.659 15.5699 318.804 15.6512 318.895 15.7122C318.841 15.7934 318.75 15.956 318.732 15.9357C318.623 15.8747 318.533 15.7731 318.424 15.6715C318.514 15.6309 318.587 15.6106 318.678 15.5699H318.659Z" fill="#F3E5FF"/>
<path d="M317.426 38.1839C318.078 38.4684 318.712 38.7528 319.365 39.0373L319.328 38.9357C318.604 39.1389 317.77 39.7891 317.534 38.1027L317.426 38.1839Z" fill="#F3E5FF"/>
<path d="M203.615 90.8076C203.343 90.6857 203.089 90.5435 202.817 90.4216C202.817 90.3809 202.835 90.32 202.854 90.2794C203.125 90.3809 203.397 90.5029 203.651 90.6044C203.651 90.6654 203.615 90.7264 203.597 90.8076H203.615Z" fill="#F3E5FF"/>
<path d="M8.99023 32.7183L9.15331 32.6573L9.08083 32.9012L8.99023 32.7183Z" fill="#F3E5FF"/>
<path d="M309.744 18.7192C309.744 18.7192 309.835 18.4957 309.907 18.4957C309.962 18.4957 310.034 18.6176 310.088 18.6786C310.034 18.7599 309.998 18.9021 309.943 18.9021C309.889 18.9021 309.817 18.7802 309.762 18.7192H309.744Z" fill="#F3E5FF"/>
<path d="M98.6482 1.63171C98.6482 1.63171 98.7932 1.75362 98.8656 1.79426C98.7569 1.85521 98.6482 1.93648 98.5214 1.9568C98.4851 1.9568 98.4308 1.77394 98.3945 1.69267C98.4851 1.67235 98.5576 1.65203 98.6482 1.63171Z" fill="#F3E5FF"/>
<path d="M325.29 21.0558C325.362 20.873 325.471 20.6901 325.525 20.4869C325.561 20.365 325.525 20.2228 325.525 20.1009C325.471 20.2228 325.416 20.3244 325.398 20.4463C325.344 20.6495 325.326 20.873 325.271 21.0965V21.0762L325.29 21.0558Z" fill="#F3E5FF"/>
<path d="M323.406 35.9489L323.152 35.8676L323.334 35.6441L323.406 35.9489Z" fill="#F3E5FF"/>
<path d="M172.051 88.2882L172.268 88.4711H172.051V88.2882Z" fill="#F3E5FF"/>
<path d="M206.697 90.1575C206.589 90.3606 206.48 90.5638 206.353 90.7264C206.299 90.8076 206.19 90.8889 206.117 90.8889C206.045 90.8889 205.954 90.7873 205.882 90.7264C206.009 90.6451 206.154 90.5841 206.28 90.5029C206.444 90.381 206.57 90.2387 206.733 90.0965L206.697 90.1371V90.1575Z" fill="#F3E5FF"/>
<path d="M279.847 19.8164C279.847 19.8164 279.955 19.6539 280.01 19.5726C280.064 19.6539 280.155 19.7352 280.173 19.8164C280.173 19.8977 280.082 19.979 280.028 20.0603C279.974 19.979 279.919 19.8977 279.865 19.8164H279.847Z" fill="#F3E5FF"/>
<path d="M297.26 19.8367C297.26 19.8367 297.423 19.9586 297.441 20.0399C297.441 20.1212 297.387 20.2228 297.351 20.3244C297.26 20.2228 297.17 20.1212 297.079 19.9993C297.152 19.9383 297.206 19.8977 297.278 19.8367H297.26Z" fill="#F3E5FF"/>
<path d="M94.7506 1.00189C94.8594 1.12379 94.9862 1.26602 95.0949 1.38793C95.0587 1.28634 95.0406 1.10348 94.9862 1.06284C94.9137 1.0222 94.7869 1.06284 94.6963 1.06284L94.7506 0.981567V1.00189Z" fill="#F3E5FF"/>
<path d="M142.207 86.0328L142.062 85.8296L142.262 85.8499L142.207 86.0328Z" fill="#F3E5FF"/>
<path d="M177.468 88.7148L177.632 88.918H177.414L177.468 88.7148Z" fill="#F3E5FF"/>
<path d="M206.733 90.1168C206.878 90.259 207.023 90.4013 207.186 90.5435C207.023 90.4216 206.86 90.2794 206.715 90.1575L206.751 90.1168H206.733Z" fill="#F3E5FF"/>
<path d="M291.805 18.0488C291.986 18.1707 292.186 18.2723 292.367 18.3942C292.168 18.2723 291.986 18.1707 291.787 18.0488H291.805Z" fill="#F3E5FF"/>
<path d="M305.124 44.3605C305.124 44.3605 304.997 44.4418 304.925 44.4824C305.015 44.4215 305.088 44.3605 305.178 44.2996L305.124 44.3605Z" fill="#F3E5FF"/>
<path d="M308.004 25.7086C308.258 25.7086 308.512 25.7086 308.077 25.7086C308.53 25.7682 308.294 25.7285 308.041 25.7086H307.986H308.004Z" fill="#F3E5FF"/>
<path d="M305.196 44.2996C305.323 44.4012 305.45 44.5231 305.595 44.6246C305.54 44.5434 305.504 44.4215 305.432 44.3808C305.341 44.3402 305.232 44.3808 305.142 44.3605L305.196 44.2996Z" fill="#F3E5FF"/>
<path d="M318.35 22.0514C317.806 22.7422 317.263 22.3562 316.701 22.0514C317.263 22.092 317.825 22.1327 318.386 22.1733L318.35 22.0514Z" fill="#F3E5FF"/>
<path d="M318.404 22.1733C318.586 22.153 318.767 22.1327 318.948 22.1124C318.749 22.1124 318.567 22.092 318.368 22.0717L318.404 22.1733Z" fill="#F3E5FF"/>
<path d="M317.245 34.7299C317.354 34.8721 317.463 35.0143 317.589 35.1362C317.463 35.0143 317.336 34.9127 317.209 34.7908L317.263 34.7299H317.245Z" fill="#F3E5FF"/>
<path d="M317.699 41.3332C317.699 41.3332 317.536 41.3942 317.445 41.4348C317.482 41.5364 317.518 41.638 317.554 41.7396C317.627 41.577 317.681 41.4348 317.753 41.2723L317.717 41.3332H317.699Z" fill="#F3E5FF"/>
<path d="M317.735 41.2723L318.061 41.5974C318.061 41.5974 317.989 41.3942 317.934 41.3739C317.862 41.3332 317.771 41.3739 317.681 41.3536L317.717 41.2926L317.735 41.2723Z" fill="#F3E5FF"/>
<path d="M319.347 39.0373C319.347 39.0373 319.492 38.956 319.564 38.9154C319.474 38.9154 319.401 38.9154 319.311 38.9154L319.347 39.017V39.0373Z" fill="#F3E5FF"/>
<path d="M323.117 20.304C323.842 20.5478 324.567 20.812 325.292 21.0558V21.0761C324.567 20.812 323.842 20.5478 323.117 20.304Z" fill="#F3E5FF"/>
<path d="M333.951 33.3482C334.096 33.2263 334.241 33.1247 334.332 33.0638C334.241 33.1044 334.078 33.1654 333.915 33.2263L333.969 33.3482H333.951Z" fill="#F3E5FF"/>
<path d="M3.66351 3.78551C3.60915 4.02933 3.55479 4.27314 3.51855 4.51696C3.57291 4.27314 3.62727 4.00901 3.69975 3.74487L3.66351 3.78551Z" fill="#F3E5FF"/>
<path d="M258.066 17.5204C257.957 17.7033 257.867 17.9065 257.758 18.0893C257.867 17.8862 257.957 17.683 258.066 17.4798V17.5204Z" fill="#F3E5FF"/>
</svg>
