<svg width="317" height="80" viewBox="0 0 317 80" fill="none" xmlns="http://www.w3.org/2000/svg">
<path d="M8.59279 49.7095C8.08131 49.974 7.97902 49.4615 7.77443 49.1308C7.26295 51.5944 6.00131 53.4627 4.07476 54.8847C4.84197 57.9766 3.13705 59.8284 1.56852 61.5314C1.53443 62.6888 1.46623 63.6147 1.48328 64.5241C1.53443 67.0538 3.51213 69.2032 5.72853 69.1536C9.00197 69.0875 12.2925 69.0379 15.5659 68.9056C18.5495 68.7899 21.5161 68.608 24.4997 68.3765C31.6433 67.7978 38.7698 67.1034 45.9135 66.5908C50.3803 66.2767 54.8643 66.3428 59.3141 66.0287C63.7299 65.7145 68.2308 66.8388 72.5784 65.0697C74.9653 65.0366 77.3521 64.954 79.722 64.987C85.8938 65.0697 92.0485 65.1854 98.2204 65.3342C101.391 65.4169 104.58 65.2516 107.751 65.2516C113.411 65.2516 119.072 65.6815 124.732 65.9295C125.329 65.9625 125.942 65.9791 126.505 66.1609C129.318 67.0703 132.148 67.2853 135.03 66.6239C135.797 66.4586 136.615 66.5908 137.416 66.6239C138.695 66.69 139.991 66.7727 141.27 66.8719C146.981 67.3679 152.761 67.1695 158.387 68.7072C158.967 68.8725 159.58 68.856 160.177 68.8395C162.155 68.8064 164.132 69.071 166.11 69.1536C170.748 69.352 175.385 69.6166 180.022 69.8977C182.494 70.0465 184.984 70.0795 187.353 71.1873C188.052 71.518 188.973 71.7825 189.672 71.5511C191.565 70.9393 193.389 71.27 195.264 71.4849C197.225 71.7164 199.186 71.8321 201.163 71.9975C202.152 72.0802 203.158 72.1132 204.13 72.2786C204.607 72.3612 205.289 72.5431 205.46 72.9234C206.397 75.0067 208.136 75.2216 209.756 75.4035C216.678 76.1476 223.617 76.7758 230.556 77.4538C235.5 77.9332 240.462 78.3797 245.406 78.8591C256.215 79.9173 267.007 80.5952 277.816 78.9253C279.01 78.7434 279.931 78.5946 280.237 76.9908C280.323 76.5444 280.885 76.1806 281.294 75.883C281.687 75.5854 282.317 75.5689 282.573 75.1886C283.187 74.2461 284.022 74.0808 284.926 73.9154C287.875 73.4029 290.808 72.7746 293.757 72.3282C294.968 72.1463 296.025 71.6503 297.116 71.055C298.838 70.1126 300.032 68.4592 301.498 67.0703C301.003 65.7972 301.037 64.6563 302.265 63.9123C303.561 63.1187 304.601 61.7959 306.152 61.4818C306.578 61.3991 307.141 60.9527 307.312 60.5063C307.874 59.0678 308.386 57.5797 308.727 56.0586C309.34 53.2643 310.261 51.5117 312.546 50.6023C313.432 50.2551 314.472 50.0402 314.898 48.5686C314.438 48.6183 314.08 48.6513 313.705 48.7175C311.847 49.0316 309.988 49.3954 308.13 49.6268C307.499 49.7095 306.971 49.2962 307.192 48.3372C308.13 47.6923 309.272 47.2625 309.92 46.3696C310.636 45.361 311.506 45.0634 312.426 44.6831C313.466 44.2698 314.506 43.9226 315.546 43.5092C315.7 43.4431 315.819 43.2116 316.041 42.9471C315.717 42.0873 315.376 41.1779 315.018 40.1859C313.875 40.5827 312.938 40.8968 311.983 41.2275C310.568 41.7235 309.187 42.4676 307.618 42.0377C307.346 41.955 307.022 42.0873 306.732 42.1699C302.845 43.1455 298.957 44.154 295.07 45.113C293.706 45.4437 292.342 45.6752 290.961 45.8075C290.45 45.8571 290.058 45.3776 290.399 44.4021C291.251 44.2202 292.206 43.9887 293.178 43.7903C295.616 43.3108 298.071 42.8313 300.509 42.3518L300.765 41.8723C300.679 42.0377 300.594 42.203 300.509 42.3849C302.265 41.3928 304.038 40.4835 305.811 39.5576C308.011 38.4002 310.483 37.8049 312.375 35.8704C312.648 35.5894 313.091 35.5232 313.466 35.3579C312.682 35.1595 312.102 34.6965 311.966 33.7045C309.733 34.6304 307.499 35.5563 305.266 36.4657C304.908 36.6145 304.447 36.879 304.14 36.7633C302.129 35.9366 300.304 36.9452 298.446 37.4908C297.679 37.7223 296.929 38.0033 296.144 38.1356C292.445 38.8135 288.728 39.4418 285.011 40.0866C285.182 40.2024 285.369 40.3016 285.489 40.4669C285.54 40.5496 285.437 40.7811 285.42 40.9299C285.352 40.8472 285.25 40.7811 285.233 40.6984C285.182 40.4835 285.148 40.252 285.113 40.037C284.125 40.1362 283.153 40.252 282.181 40.3512C280.902 40.4835 279.573 40.8968 278.345 40.6819C276.435 40.3512 274.577 40.5496 272.702 40.6819C265.353 41.1283 258.005 40.7976 250.657 40.2189C246.105 39.8552 241.57 39.2765 237.018 38.8301C233.062 38.4498 229.09 38.1687 225.134 37.7884C218.894 37.1766 212.672 36.3995 206.432 35.887C200.584 35.4075 194.719 35.1264 188.871 34.9115C184.097 34.7296 179.374 33.7045 174.584 34.0848C172.64 33.4399 170.645 33.6879 168.668 33.5722C167.866 33.5226 167.065 33.4895 166.298 33.3242C165.582 33.1754 165.019 32.7455 165.138 31.4889C166.11 31.5054 167.082 31.4889 168.071 31.555C168.974 31.6046 169.861 31.7369 170.748 31.77C174.72 31.9519 178.692 32.1172 182.648 32.2991C190.388 32.6463 198.129 32.9604 205.852 33.6879C210.216 34.1013 214.581 34.2997 218.946 34.7131C226.072 35.4075 233.199 36.2838 240.342 36.9286C246.275 37.4743 252.226 37.8711 258.176 38.1687C262.438 38.3836 266.717 38.4498 270.997 38.334C274.066 38.2514 277.117 37.7719 280.237 37.4743C280.118 36.7798 280.033 36.2507 279.931 35.672C280.902 34.9115 281.993 34.8619 283.085 34.7792C284.96 34.6139 286.887 34.7792 288.609 33.6383C288.762 33.5391 289.035 33.473 289.154 33.5722C290.791 35.0107 292.308 33.6218 293.979 33.5722C294.047 32.1337 294.559 30.9764 294.286 29.571C293.485 29.6206 292.803 29.6867 292.121 29.7032C290.433 29.7528 288.745 29.6536 287.074 29.819C284.602 30.067 282.147 30.6622 279.675 30.7945C277.066 30.9433 274.39 31.7535 271.815 30.3481C271.235 30.0339 270.434 30.0835 269.752 30.1496C267.792 30.3315 265.797 29.7198 263.887 30.8937C263.325 31.2409 262.523 31.1252 261.824 31.1086C259.437 31.026 257.068 30.8937 254.681 30.7614C254.391 30.7449 254.05 30.7118 253.811 30.5299C252.123 29.2899 250.231 29.3229 248.355 29.2403C247.554 29.2072 246.685 29.3395 245.986 28.9923C243.889 27.901 241.706 28.1821 239.524 28.0994C237.836 28.0333 236.131 28.0994 234.46 27.9175C227.828 27.2396 221.23 26.3303 214.581 25.8342C211.802 25.6193 209.074 25.3713 206.38 24.5611C205.715 24.3627 204.931 24.1643 204.334 24.4123C201.982 25.3713 199.697 23.7013 197.378 24.3296C194.906 23.1888 192.298 23.5029 189.74 23.3707C187.064 23.2218 184.404 22.8912 181.727 22.6266C181.54 22.6101 181.301 22.544 181.182 22.4117C180.977 22.1802 180.755 21.8826 180.721 21.585C180.704 21.3204 180.909 20.8244 181.079 20.7748C181.83 20.5599 182.614 20.3284 183.381 20.3614C189.826 20.6756 196.27 21.0559 202.715 21.3866C205.085 21.5188 207.472 21.4858 209.858 21.7007C218.485 22.4613 227.112 23.3211 235.722 24.1147C237.683 24.2966 239.66 24.3958 241.638 24.5611C242.627 24.6438 243.599 24.8422 244.588 24.9249C247.469 25.1729 250.333 25.3548 253.214 25.6028C259.352 26.1649 265.49 26.3633 271.645 26.0988C273.793 26.0161 275.924 25.3217 278.089 25.8838C278.243 25.9334 278.447 25.735 278.805 25.6028C278.464 24.5446 278.942 23.8667 279.811 23.5856C280.766 23.288 281.755 23.1392 282.727 22.9077C284.568 22.4613 286.512 22.5936 288.251 21.5684C288.097 21.4527 287.944 21.3535 287.807 21.2047C287.756 21.1551 287.773 21.0063 287.756 20.9236C287.893 20.9567 288.131 20.9236 288.148 21.0063C288.199 21.1882 288.148 21.4196 288.148 21.6346C288.711 21.4527 289.256 21.2874 289.819 21.1055H289.785C290.501 18.956 292.428 19.5017 293.792 18.8899C293.502 17.3026 293.348 17.005 292.7 17.2034C291.285 17.6168 289.734 17.3522 288.421 18.4766C287.603 19.1875 286.733 18.9395 286.017 18.0632C285.761 17.7491 285.403 17.5176 285.182 17.3192C284.022 17.7491 282.863 17.8813 281.993 18.5427C280.408 19.7001 279.163 19.3363 278.021 17.9144C277.39 17.1208 276.776 16.509 275.753 16.5421C274.867 16.5751 274.662 15.7154 274.526 14.9052H274.543C272.395 15.5666 270.264 16.2445 268.201 16.8893C267.757 16.2941 267.451 15.8807 267.11 15.4012C266.598 15.9964 266.121 16.5421 265.643 17.0877C265.763 17.5672 266.445 17.7656 266.155 18.4766C265.507 18.1624 265.677 17.5837 265.729 17.0216C265.012 17.4018 264.314 17.7821 263.512 18.1955C262.472 17.5506 261.449 16.1618 260.171 17.6829C260.665 17.8317 261.364 17.6168 261.432 18.8899C260.938 18.3608 260.614 17.9971 260.256 17.6499C260.222 17.1042 260.188 16.5586 260.154 15.9303C259.011 16.2445 257.971 16.5421 256.71 16.8893C256.59 15.8311 255.908 15.4177 255.09 15.4012C254.237 15.4012 253.351 14.9879 252.618 15.9964C252.004 16.8397 251.134 16.9554 250.282 16.4759C250.282 15.9799 250.265 15.6327 250.248 15.0705C248.799 15.0209 247.35 14.9879 245.9 14.9383C244.707 16.261 243.769 15.3185 242.814 14.4588C242.712 14.6076 242.627 14.7729 242.525 14.9217C242.627 14.7564 242.712 14.591 242.814 14.4257C241.928 14.4257 241.041 14.4257 240.189 14.4422C240.104 14.591 240.035 14.6737 239.984 14.7729C239.353 16.1452 239.149 16.1783 238.484 15.0209C238.331 14.7398 238.194 14.4422 238.16 14.3761C235.944 14.0289 233.898 13.6155 231.835 13.4502C230.812 13.3675 229.772 13.2848 228.664 13.6486C227.675 13.9793 226.43 13.103 225.271 12.9211C223.805 12.6896 222.304 12.6235 220.821 12.4581C218.059 12.1605 215.297 11.8298 212.535 11.5818C212.279 11.5653 211.973 12.0448 211.614 12.3589C210.472 11.3338 209.125 10.8709 207.557 11.0858C206.687 11.2015 205.75 11.0858 204.88 10.8709C202.408 10.2426 199.936 10.5733 197.447 10.5733C196.884 10.5733 196.304 10.9039 195.742 11.1023C194.872 11.433 194.753 10.0276 193.986 10.0938C193.696 10.1103 193.389 10.0607 193.099 10.0442C184.199 9.51507 175.283 9.08518 166.383 8.42382C162.138 8.10967 157.892 8.32461 153.63 7.72938C149.214 7.10109 144.731 7.03495 140.264 6.7208C135.217 6.37359 130.153 5.97677 125.107 5.69569C122.447 5.54688 119.771 5.62955 117.094 5.49728C112.542 5.2658 107.99 4.90205 103.437 4.72018C101.17 4.62097 98.9023 4.78631 96.6348 4.83591C96.8735 5.01779 97.1292 5.1666 97.3338 5.39807C97.402 5.48075 97.3338 5.72876 97.3338 5.91063C97.1633 5.86103 96.9076 5.8445 96.8735 5.72876C96.7712 5.43114 96.7882 5.10046 96.7541 4.76978C95.7823 4.73671 94.8105 4.68711 93.8217 4.65404C92.2531 4.5879 90.6846 4.5383 89.1161 4.40603C88.5194 4.35643 87.9397 4.15802 87.8204 3.1329C88.2125 2.5046 88.6728 1.7771 89.1161 1.06614L89.1672 1C88.7921 1.11574 88.4341 1.33068 88.059 1.33068C84.4958 1.31415 80.9325 1.19841 77.3692 1.24801C76.0223 1.26455 74.5902 0.884261 73.3285 1.94244C73.0899 2.14085 72.5443 2.07472 72.2203 1.94244C70.5154 1.16534 68.7594 1.06614 66.9692 1.13227C65.9803 1.16534 64.9915 1.19841 64.0026 1.19841C56.9613 1.19841 49.92 0.983466 42.8957 1.19841C35.0702 1.44642 27.2446 2.05818 19.419 2.5046C18.7371 2.53767 17.9187 2.70301 17.3902 2.3558C16.2479 1.59523 15.0715 1.81017 13.9121 1.74404C12.3266 1.64483 10.741 1.46296 9.15541 1.57869C7.50164 1.69443 5.81377 0.950398 4.21115 1.76057C3.95541 2.27313 3.71672 2.78568 3.46098 3.28171C3.40984 3.48012 3.35869 3.67853 3.32459 3.87694C3.37574 3.67853 3.42689 3.46358 3.49508 3.24864C3.12 3.26517 2.74492 3.29824 2.16525 3.34784C1.87541 5.29887 1.60262 7.16722 1.29574 9.15132C0.954754 9.15132 0.494426 9.11825 0 9.10172C0.664918 9.79615 1.55148 9.87882 2.16525 10.8378C2.64262 11.5984 3.90426 11.6645 4.80787 12.0779C4.94426 12.144 4.99541 12.4251 5.08066 12.6069C4.67148 14.0454 3.20525 12.6566 2.54033 13.7974C3.76787 15.1697 5.62623 13.6651 6.71738 15.2689C6.39344 15.6823 6.10361 16.0626 5.64328 16.6578C7.84262 16.9554 9.85443 17.4018 11.9344 17.1538C12.3607 17.1042 12.9574 17.0216 13.0085 18.0632C12.3266 18.3939 11.6105 18.9891 10.8774 19.0222C10.0931 19.0718 9.27476 18.6088 8.43935 18.3608C7.63803 20.1961 8.55869 21.6511 8.84853 23.1557C8.88262 23.3211 9.13836 23.4368 9.3941 23.6517C9.80328 23.0565 10.2125 22.4778 10.6046 21.8826C12.0026 22.8857 12.4345 24.1202 11.9003 25.5862C11.8662 25.6854 11.8321 25.8012 11.781 25.9004C10.9797 27.3884 11.2695 28.7608 12.139 30.0504C13.0426 31.3897 13.9633 32.729 14.9351 34.1509C14.3554 34.6304 13.9121 34.9941 13.3836 35.424C14.918 36.4491 12.7016 36.9617 13.2984 38.1191C18.0551 37.838 22.8971 37.5073 27.7561 37.2924C29.2223 37.2262 30.7226 37.5404 32.1889 37.6727C33.1266 37.1105 34.0643 37.0278 35.0361 37.5239C36.5535 36.4822 38.2584 36.9286 39.878 36.6972C40.6964 36.4822 41.4977 36.0523 42.3331 36.5814C42.4525 37.2758 42.0092 37.4577 41.6682 37.3751C41.0374 37.2262 40.4407 36.879 39.8269 36.5979C39.5712 36.9121 39.3666 37.4577 39.0767 37.5239C37.7128 37.8545 36.3318 38.0695 34.9679 37.4247C34.0302 37.838 33.1095 38.5986 32.1207 37.5569C31.6774 37.8049 31.2512 38.2018 30.8079 38.2679C27.3639 38.7143 23.903 38.9623 20.459 39.4087C17.5095 39.789 14.5089 39.541 11.5423 39.5741C9.34295 39.6072 7.19476 39.9048 5.1318 40.8803C5.3023 40.9299 5.48984 40.963 5.66033 41.0126C5.57508 41.0126 5.47279 41.0126 5.38754 40.996C5.3023 40.963 5.2341 40.8638 5.1659 40.7976C5.28525 41.3432 5.52394 41.9054 5.47279 42.4345C5.42164 42.8974 5.06361 43.3273 4.77377 43.873C5.37049 44.2698 5.84787 44.7327 6.39344 44.9146C7.2459 45.2122 7.70623 45.8571 8.03017 46.7499C8.37115 47.6758 8.2859 48.5356 7.75738 49.3292C8.09836 49.3292 8.50754 49.1143 8.71213 49.6764L8.59279 49.7095ZM10.6898 49.9244C10.8433 49.8418 10.9967 49.7756 11.1502 49.693C11.1502 49.4946 11.1502 49.2962 11.1331 49.0812C11.1331 49.1639 11.1502 49.2465 11.1502 49.3292C11.1502 49.4284 11.1502 49.5276 11.1502 49.6268C10.9967 49.7426 10.8433 49.8418 10.6898 49.9244ZM19.8453 18.0632C18.3279 18.675 16.8105 18.9064 15.3272 18.1789C15.1738 17.3688 15.6 17.253 15.9751 17.253C17.4413 17.253 18.9246 17.3192 20.3908 17.3688C20.783 17.3357 21.1751 17.2696 21.5672 17.2861C21.7207 17.2861 21.8571 17.5176 21.9934 17.6333C21.7889 17.7656 21.5331 18.0467 21.3626 17.9971C21.0046 17.8648 20.6977 17.5506 20.3567 17.3192C20.1692 17.5506 20.0498 17.9805 19.8282 18.0632H19.8453ZM258.005 47.0971C253.453 46.2704 248.799 46.7499 244.247 45.5264C244.332 45.328 244.349 45.1626 244.4 45.1461C244.775 45.0303 245.15 44.8319 245.508 44.8485C250.043 45.1792 254.578 45.5429 259.096 45.9232C259.352 45.9397 259.591 46.2373 260.477 46.816C259.131 46.9648 258.534 47.1798 257.988 47.0806L258.005 47.0971ZM243.854 19.7332C243.479 19.0553 243.155 18.5096 242.712 17.6829C243.906 17.3357 244.809 17.2696 246.378 18.1128C245.27 18.8238 244.622 19.2371 243.854 19.7332ZM268.934 60.3244C270.946 59.0017 272.651 59.1505 274.253 60.5559C272.514 61.0188 270.809 61.581 268.934 60.3244ZM16.5207 35.7382C16.4184 35.8043 16.3161 35.887 16.2138 35.9531C16.2138 35.8704 16.1626 35.7547 16.1797 35.6886C16.1967 35.6224 16.299 35.5894 16.3502 35.5398C16.4013 35.6059 16.4695 35.6555 16.5207 35.7216V35.7382ZM292.479 31.307C292.479 31.307 292.325 31.2078 292.308 31.1417C292.291 31.0756 292.393 31.0094 292.462 30.9433C292.513 31.0094 292.581 31.0756 292.632 31.1252C292.581 31.1913 292.53 31.307 292.479 31.307ZM239.285 44.369C239.336 44.5509 239.49 44.7989 239.422 44.8981C239.336 45.0469 239.115 45.0634 238.961 45.1461C238.91 44.9642 238.859 44.7823 238.808 44.6005C238.961 44.5178 239.132 44.4517 239.285 44.369ZM44.7712 36.7137C44.6177 36.7798 44.4813 36.879 44.3108 36.9121C44.2597 36.9121 44.1915 36.7798 44.1233 36.6972C44.2426 36.5649 44.379 36.4326 44.4984 36.3003C44.5836 36.4326 44.6859 36.5649 44.7712 36.7137ZM69.1174 4.5879C69.1174 4.5879 69.0322 4.72018 68.998 4.78631C68.981 4.67057 68.964 4.5383 68.9298 4.37296C69.0151 4.47216 69.1003 4.52177 69.1174 4.5879ZM129.523 42.7652L129.676 42.5998L129.744 42.8148L129.54 42.7652H129.523ZM268.525 55.2484C268.525 55.2484 268.61 55.1162 268.644 55.0666C268.661 55.1823 268.678 55.298 268.695 55.4634C268.61 55.3642 268.525 55.3146 268.508 55.2484H268.525Z" fill="#D4F7E9"/>
<path d="M314.063 27.223C313.261 27.6859 312.477 28.1654 311.676 28.5953C311.045 28.926 310.414 29.2732 309.749 29.4716C308.726 29.7858 307.806 29.5212 307.567 28.926C307.192 28.0497 307.823 26.2144 308.777 25.7349C310.226 25.0074 311.71 24.4287 313.04 23.8335C313.858 24.3295 313.67 24.9082 313.551 25.4704C313.381 26.2309 313.687 26.8096 314.148 27.3057L314.097 27.2065L314.063 27.223Z" fill="#D4F7E9"/>
<path d="M297.116 28.645C296.928 29.9346 297.849 31.2904 297.099 32.5305C296.894 32.5635 296.724 32.5966 296.724 32.5801C296.519 31.7368 296.332 30.8936 296.127 30.0338C296.468 29.5709 296.792 29.0914 297.133 28.6284L297.116 28.645Z" fill="#D4F7E9"/>
<path d="M311.812 33.8367C312.989 33.5887 314.029 32.5305 315.444 32.9273C314.501 33.721 313.813 34.5807 313.381 35.5066C312.852 34.9445 312.324 34.3989 311.812 33.8367Z" fill="#D4F7E9"/>
<path d="M297.9 18.1293C297.479 19.1875 296.741 19.7662 295.684 19.8654C296.229 18.7742 297.73 19.5182 297.9 18.1293Z" fill="#D4F7E9"/>
<path d="M303.903 16.7075C303.477 17.22 303.323 18.2121 302.283 17.7326C302.863 17.3688 303.391 17.0381 303.903 16.7075Z" fill="#D4F7E9"/>
<path d="M298.652 31.1913C298.14 30.348 297.629 29.4882 297.117 28.645C297.612 29.141 298.038 29.1576 298.396 28.4466L298.362 28.4962C298.43 29.4221 298.498 30.3315 298.566 31.2574L298.669 31.1913H298.652Z" fill="#D4F7E9"/>
<path d="M299.726 12.855C299.726 12.855 299.862 12.9212 299.947 12.9708C299.896 13.0369 299.811 13.1692 299.794 13.1527C299.691 13.1031 299.606 13.0204 299.504 12.9377C299.589 12.9046 299.657 12.8881 299.743 12.855H299.726Z" fill="#D4F7E9"/>
<path d="M298.564 31.2574C299.178 31.4888 299.775 31.7203 300.389 31.9518L300.355 31.8691C299.673 32.0345 298.888 32.5636 298.667 31.1912L298.564 31.2574Z" fill="#D4F7E9"/>
<path d="M191.479 74.0808C191.223 73.9816 190.984 73.8659 190.729 73.7667C190.729 73.7336 190.746 73.684 190.763 73.6509C191.018 73.7336 191.274 73.8328 191.513 73.9155C191.513 73.9651 191.479 74.0147 191.462 74.0808H191.479Z" fill="#D4F7E9"/>
<path d="M8.35352 26.8098L8.5089 26.7602L8.43984 26.9586L8.35352 26.8098Z" fill="#D4F7E9"/>
<path d="M291.338 15.4178C291.338 15.4178 291.423 15.236 291.491 15.236C291.542 15.236 291.611 15.3352 291.662 15.3848C291.611 15.4509 291.577 15.5666 291.525 15.5666C291.474 15.5666 291.406 15.4674 291.355 15.4178H291.338Z" fill="#D4F7E9"/>
<path d="M92.7133 1.51245C92.7133 1.51245 92.8497 1.61166 92.9179 1.64472C92.8156 1.69433 92.7133 1.76046 92.594 1.777C92.5599 1.777 92.5087 1.62819 92.4746 1.56205C92.5599 1.54552 92.6281 1.52899 92.7133 1.51245Z" fill="#D4F7E9"/>
<path d="M305.964 17.3192C306.032 17.1704 306.134 17.0216 306.185 16.8563C306.219 16.7571 306.185 16.6413 306.185 16.5421C306.134 16.6413 306.083 16.724 306.066 16.8232C306.015 16.9885 305.998 17.1704 305.947 17.3523V17.3358L305.964 17.3192Z" fill="#D4F7E9"/>
<path d="M304.189 29.4387L303.951 29.3726L304.121 29.1907L304.189 29.4387Z" fill="#D4F7E9"/>
<path d="M161.781 72.0306L161.985 72.1794H161.781V72.0306Z" fill="#D4F7E9"/>
<path d="M194.379 73.5517C194.276 73.7171 194.174 73.8824 194.055 74.0147C194.003 74.0808 193.901 74.147 193.833 74.147C193.765 74.147 193.68 74.0643 193.611 74.0147C193.731 73.9486 193.867 73.899 193.986 73.8328C194.14 73.7336 194.259 73.6179 194.413 73.5021L194.379 73.5352V73.5517Z" fill="#D4F7E9"/>
<path d="M263.205 16.3105C263.205 16.3105 263.307 16.1783 263.358 16.1121C263.409 16.1783 263.494 16.2444 263.511 16.3105C263.511 16.3767 263.426 16.4428 263.375 16.5089C263.324 16.4428 263.273 16.3767 263.222 16.3105H263.205Z" fill="#D4F7E9"/>
<path d="M279.59 16.327C279.59 16.327 279.744 16.4262 279.761 16.4924C279.761 16.5585 279.71 16.6412 279.676 16.7238C279.59 16.6412 279.505 16.5585 279.42 16.4593C279.488 16.4097 279.539 16.3766 279.607 16.327H279.59Z" fill="#D4F7E9"/>
<path d="M89.0472 0.999994C89.1495 1.0992 89.2689 1.21494 89.3712 1.31414C89.3371 1.23147 89.32 1.08266 89.2689 1.0496C89.2007 1.01653 89.0813 1.0496 88.9961 1.0496L89.0472 0.983459V0.999994Z" fill="#D4F7E9"/>
<path d="M133.701 70.1952L133.564 70.0299L133.752 70.0464L133.701 70.1952Z" fill="#D4F7E9"/>
<path d="M166.877 72.3778L167.03 72.5432H166.826L166.877 72.3778Z" fill="#D4F7E9"/>
<path d="M194.412 73.5187C194.548 73.6344 194.684 73.7502 194.838 73.8659C194.684 73.7667 194.531 73.651 194.395 73.5517L194.429 73.5187H194.412Z" fill="#D4F7E9"/>
<path d="M274.457 14.8721C274.627 14.9713 274.815 15.0539 274.985 15.1532C274.797 15.0539 274.627 14.9713 274.439 14.8721H274.457Z" fill="#D4F7E9"/>
<path d="M286.99 36.2839C286.99 36.2839 286.871 36.35 286.803 36.3831C286.888 36.3335 286.956 36.2839 287.041 36.2343L286.99 36.2839Z" fill="#D4F7E9"/>
<path d="M289.699 21.1054C289.937 21.1054 290.176 21.1054 289.767 21.1054C290.193 21.155 289.971 21.1219 289.733 21.1054H289.682H289.699Z" fill="#D4F7E9"/>
<path d="M287.057 36.2343C287.176 36.3169 287.296 36.4161 287.432 36.4988C287.381 36.4327 287.347 36.3335 287.279 36.3004C287.193 36.2673 287.091 36.3004 287.006 36.2839L287.057 36.2343Z" fill="#D4F7E9"/>
<path d="M299.434 18.1293C298.923 18.6915 298.411 18.3773 297.883 18.1293C298.411 18.1624 298.94 18.1955 299.468 18.2285L299.434 18.1293Z" fill="#D4F7E9"/>
<path d="M299.485 18.2285C299.656 18.212 299.826 18.1955 299.997 18.1789C299.809 18.1789 299.639 18.1624 299.451 18.1459L299.485 18.2285Z" fill="#D4F7E9"/>
<path d="M298.393 28.4466C298.496 28.5623 298.598 28.6781 298.717 28.7773C298.598 28.6781 298.479 28.5954 298.359 28.4962L298.411 28.4466H298.393Z" fill="#D4F7E9"/>
<path d="M298.82 33.8203C298.82 33.8203 298.667 33.8699 298.582 33.903C298.616 33.9856 298.65 34.0683 298.684 34.151C298.752 34.0187 298.803 33.903 298.871 33.7707L298.837 33.8203H298.82Z" fill="#D4F7E9"/>
<path d="M298.856 33.7707L299.163 34.0352C299.163 34.0352 299.095 33.8699 299.043 33.8534C298.975 33.8203 298.89 33.8534 298.805 33.8368L298.839 33.7872L298.856 33.7707Z" fill="#D4F7E9"/>
<path d="M300.374 31.9519C300.374 31.9519 300.51 31.8857 300.578 31.8527C300.493 31.8527 300.425 31.8527 300.34 31.8527L300.374 31.9353V31.9519Z" fill="#D4F7E9"/>
<path d="M303.918 16.7075C304.6 16.9059 305.282 17.1208 305.964 17.3192V17.3358C305.282 17.1208 304.6 16.9059 303.918 16.7075Z" fill="#D4F7E9"/>
<path d="M314.114 27.3223C314.251 27.2231 314.387 27.1404 314.472 27.0908C314.387 27.1239 314.234 27.1735 314.08 27.2231L314.131 27.3223H314.114Z" fill="#D4F7E9"/>
<path d="M3.34115 3.26518C3.29012 3.46359 3.2391 3.662 3.20508 3.86041C3.25611 3.662 3.30713 3.44706 3.37517 3.23212L3.34115 3.26518Z" fill="#D4F7E9"/>
<path d="M242.711 14.4422C242.609 14.5911 242.524 14.7564 242.422 14.9052C242.524 14.7399 242.609 14.5745 242.711 14.4092V14.4422Z" fill="#D4F7E9"/>
</svg>
