<svg width="270" height="352" viewBox="0 0 270 352" fill="none" xmlns="http://www.w3.org/2000/svg">
<rect width="270" height="352" rx="32" fill="#F3E5FF"/>
<path d="M66.592 312V269.504H60.768L45.472 277.888V285.312L59.424 277.696V312H66.592ZM111.681 312V303.872H117.505V297.408H111.681V269.504H104.193L80.833 297.792V303.872H104.513V312H111.681ZM89.217 297.408L104.513 278.656V297.408H89.217ZM140.45 268.864C129.314 268.864 122.914 276.864 122.914 290.752C122.914 304.64 129.314 312.64 140.45 312.64C151.586 312.64 157.986 304.64 157.986 290.752C157.986 276.864 151.586 268.864 140.45 268.864ZM140.45 275.328C147.042 275.328 150.754 280.896 150.754 290.752C150.754 300.608 147.042 306.176 140.45 306.176C133.858 306.176 130.146 300.608 130.146 290.752C130.146 280.896 133.858 275.328 140.45 275.328ZM173.315 268.864C167.235 268.864 163.715 273.088 163.715 279.424C163.715 285.696 167.235 289.92 173.315 289.92C179.395 289.92 182.915 285.696 182.915 279.424C182.915 273.088 179.395 268.864 173.315 268.864ZM169.347 312H174.979L202.179 269.504H196.547L169.347 312ZM173.315 273.28C176.195 273.28 177.987 275.52 177.987 279.424C177.987 283.264 176.195 285.504 173.315 285.504C170.435 285.504 168.643 283.264 168.643 279.424C168.643 275.52 170.435 273.28 173.315 273.28ZM198.211 291.584C192.131 291.584 188.611 295.808 188.611 302.144C188.611 308.416 192.131 312.64 198.211 312.64C204.291 312.64 207.811 308.416 207.811 302.144C207.811 295.808 204.291 291.584 198.211 291.584ZM198.211 296C201.091 296 202.883 298.24 202.883 302.144C202.883 305.984 201.091 308.224 198.211 308.224C195.331 308.224 193.539 305.984 193.539 302.144C193.539 298.24 195.331 296 198.211 296Z" fill="#0F143C"/>
<path d="M37.5 57H39.9V43.72H37.5V57ZM47.8906 47.42C46.4106 47.42 45.3306 48 44.7306 49.06H44.6906L44.6106 47.62H42.8306V57H44.9506V52.08C44.9506 50.34 45.8506 49.32 47.3506 49.32C48.7106 49.32 49.5306 50.2 49.5306 51.74V57H51.6506V51.5C51.6506 48.94 50.2306 47.42 47.8906 47.42ZM58.6444 47.42C55.5844 47.42 53.5644 49.44 53.5644 52.32C53.5644 55.18 55.5844 57.2 58.6444 57.2C59.9444 57.2 60.9444 56.94 61.6444 56.4V54.06H61.5444C60.9044 54.88 60.0044 55.3 58.8444 55.3C56.9044 55.3 55.7044 54.08 55.7044 52.32C55.7044 50.52 56.9044 49.32 58.8444 49.32C59.9844 49.32 60.8844 49.7 61.5444 50.54H61.6444V48.24C60.9044 47.7 59.9444 47.42 58.6444 47.42ZM68.7728 47.42C67.3728 47.42 66.4128 47.98 65.8728 49.06H65.8328L65.7528 47.62H63.9728V57H66.0928V52.84C66.0928 50.56 66.9128 49.44 68.5928 49.44C69.1728 49.44 69.6728 49.6 70.0728 49.88H70.1728V47.78C69.8728 47.58 69.3728 47.42 68.7728 47.42ZM80.7328 52.96V51.92C80.7328 49.18 78.8928 47.42 75.9928 47.42C73.1328 47.42 71.1128 49.44 71.1128 52.32C71.1128 55.24 73.3128 57.2 76.5928 57.2C78.0728 57.2 79.3528 56.84 80.1528 56.22V54.12H80.0528C79.2128 54.92 78.0528 55.34 76.6728 55.34C74.8128 55.34 73.5328 54.46 73.2728 52.96H80.7328ZM76.0528 49.28C77.5128 49.28 78.5928 50.1 78.7728 51.38H73.2728C73.5328 50.12 74.7128 49.28 76.0528 49.28ZM92.1498 57V47.62H90.3898L90.3098 48.96H90.2698C89.5898 48 88.4298 47.42 86.9098 47.42C84.2298 47.42 82.2698 49.48 82.2698 52.32C82.2698 55.16 84.2298 57.2 86.9098 57.2C88.4298 57.2 89.6098 56.62 90.2898 55.66H90.3298L90.3898 57H92.1498ZM87.2498 55.3C85.5698 55.3 84.4098 54.06 84.4098 52.32C84.4098 50.54 85.5698 49.32 87.2498 49.32C88.9298 49.32 90.0898 50.54 90.0898 52.32C90.0898 54.06 88.9298 55.3 87.2498 55.3ZM98.1267 47.42C95.8667 47.42 94.3667 48.62 94.3667 50.46C94.3667 52.24 95.2667 53 97.7067 53.2C99.2267 53.32 99.6467 53.6 99.6467 54.22C99.6467 54.9 98.9667 55.34 97.8667 55.34C96.4267 55.34 95.2867 54.9 94.5067 54.06H94.4067V56.28C95.1867 56.88 96.4067 57.2 97.9667 57.2C100.307 57.2 101.727 56.06 101.727 54.22C101.727 52.32 100.747 51.4 98.2467 51.26C96.8667 51.18 96.4467 50.94 96.4467 50.4C96.4467 49.74 97.1667 49.28 98.1867 49.28C99.4067 49.28 100.387 49.62 101.027 50.28H101.127V48.1C100.447 47.66 99.3467 47.42 98.1267 47.42ZM112.778 52.96V51.92C112.778 49.18 110.938 47.42 108.038 47.42C105.178 47.42 103.158 49.44 103.158 52.32C103.158 55.24 105.358 57.2 108.638 57.2C110.118 57.2 111.398 56.84 112.198 56.22V54.12H112.098C111.258 54.92 110.098 55.34 108.718 55.34C106.858 55.34 105.578 54.46 105.318 52.96H112.778ZM108.098 49.28C109.558 49.28 110.638 50.1 110.818 51.38H105.318C105.578 50.12 106.758 49.28 108.098 49.28ZM123.89 47.42C120.97 47.42 118.91 49.44 118.91 52.32C118.91 55.18 120.97 57.2 123.89 57.2C126.81 57.2 128.89 55.18 128.89 52.32C128.89 49.44 126.81 47.42 123.89 47.42ZM123.89 49.32C125.59 49.32 126.75 50.54 126.75 52.32C126.75 54.06 125.59 55.3 123.89 55.3C122.21 55.3 121.05 54.06 121.05 52.32C121.05 50.54 122.21 49.32 123.89 49.32ZM134.861 42.8C132.701 42.8 131.521 44.06 131.521 46.28V47.62H129.861V49.46H131.521V57H133.641V49.46H136.501V47.62H133.641V46.38C133.641 45.3 134.181 44.7 135.181 44.7C135.701 44.7 136.261 44.84 136.661 45.12H136.761V43.14C136.321 42.92 135.681 42.8 134.861 42.8ZM147.604 47.42C146.204 47.42 145.244 47.98 144.704 49.06H144.664L144.584 47.62H142.804V57H144.924V52.84C144.924 50.56 145.744 49.44 147.424 49.44C148.004 49.44 148.504 49.6 148.904 49.88H149.004V47.78C148.704 47.58 148.204 47.42 147.604 47.42ZM159.564 52.96V51.92C159.564 49.18 157.724 47.42 154.824 47.42C151.964 47.42 149.944 49.44 149.944 52.32C149.944 55.24 152.144 57.2 155.424 57.2C156.904 57.2 158.184 56.84 158.984 56.22V54.12H158.884C158.044 54.92 156.884 55.34 155.504 55.34C153.644 55.34 152.364 54.46 152.104 52.96H159.564ZM154.884 49.28C156.344 49.28 157.424 50.1 157.604 51.38H152.104C152.364 50.12 153.544 49.28 154.884 49.28ZM172.741 47.42C171.081 47.42 170.041 47.98 169.461 49.1H169.421C168.861 48 167.821 47.42 166.501 47.42C165.101 47.42 164.121 47.96 163.561 48.98H163.521L163.461 47.62H161.701V57H163.821V52C163.821 50.26 164.561 49.32 165.961 49.32C167.241 49.32 167.921 50.14 167.921 51.68V57H170.041V52.16C170.041 50.26 170.781 49.32 172.201 49.32C173.461 49.32 174.141 50.14 174.141 51.68V57H176.261V51.46C176.261 48.88 175.001 47.42 172.741 47.42ZM183.156 47.42C180.236 47.42 178.176 49.44 178.176 52.32C178.176 55.18 180.236 57.2 183.156 57.2C186.076 57.2 188.156 55.18 188.156 52.32C188.156 49.44 186.076 47.42 183.156 47.42ZM183.156 49.32C184.856 49.32 186.016 50.54 186.016 52.32C186.016 54.06 184.856 55.3 183.156 55.3C181.476 55.3 180.316 54.06 180.316 52.32C180.316 50.54 181.476 49.32 183.156 49.32ZM195.768 54.76H195.668C195.288 55.18 194.828 55.32 194.328 55.32C193.408 55.32 192.868 54.72 192.868 53.7V49.46H195.728V47.62H192.868V45.04H191.108L190.808 47.62H189.088V49.46H190.748V53.78C190.748 56 191.888 57.2 194.008 57.2C194.748 57.2 195.328 57.08 195.768 56.86V54.76ZM206.868 52.96V51.92C206.868 49.18 205.028 47.42 202.128 47.42C199.268 47.42 197.248 49.44 197.248 52.32C197.248 55.24 199.448 57.2 202.728 57.2C204.208 57.2 205.488 56.84 206.288 56.22V54.12H206.188C205.348 54.92 204.188 55.34 202.808 55.34C200.948 55.34 199.668 54.46 199.408 52.96H206.868ZM202.188 49.28C203.648 49.28 204.728 50.1 204.908 51.38H199.408C199.668 50.12 200.848 49.28 202.188 49.28ZM47.88 84L51.1 74.62H48.94L46.88 81.28H46.84L44.52 74.62H42.82L40.5 81.28H40.46L38.4 74.62H36.14L39.38 84H41.42L43.6 77.68H43.64L45.8 84H47.88ZM56.86 74.42C53.94 74.42 51.88 76.44 51.88 79.32C51.88 82.18 53.94 84.2 56.86 84.2C59.78 84.2 61.86 82.18 61.86 79.32C61.86 76.44 59.78 74.42 56.86 74.42ZM56.86 76.32C58.56 76.32 59.72 77.54 59.72 79.32C59.72 81.06 58.56 82.3 56.86 82.3C55.18 82.3 54.02 81.06 54.02 79.32C54.02 77.54 55.18 76.32 56.86 76.32ZM68.7877 74.42C67.3877 74.42 66.4277 74.98 65.8877 76.06H65.8477L65.7677 74.62H63.9877V84H66.1077V79.84C66.1077 77.56 66.9277 76.44 68.6077 76.44C69.1877 76.44 69.6877 76.6 70.0877 76.88H70.1877V74.78C69.8877 74.58 69.3877 74.42 68.7877 74.42ZM73.9639 79.9L77.8239 84H80.6239L75.9639 79.2L80.4239 74.62H77.7639L73.9639 78.64V70H71.8439V84H73.9639V79.9ZM90.6156 79.96V78.92C90.6156 76.18 88.7756 74.42 85.8756 74.42C83.0156 74.42 80.9956 76.44 80.9956 79.32C80.9956 82.24 83.1956 84.2 86.4756 84.2C87.9556 84.2 89.2356 83.84 90.0356 83.22V81.12H89.9356C89.0956 81.92 87.9356 82.34 86.5556 82.34C84.6956 82.34 83.4156 81.46 83.1556 79.96H90.6156ZM85.9356 76.28C87.3956 76.28 88.4756 77.1 88.6556 78.38H83.1556C83.4156 77.12 84.5956 76.28 85.9356 76.28ZM97.5127 74.42C96.1127 74.42 95.1527 74.98 94.6127 76.06H94.5727L94.4927 74.62H92.7127V84H94.8327V79.84C94.8327 77.56 95.6527 76.44 97.3327 76.44C97.9127 76.44 98.4127 76.6 98.8127 76.88H98.9127V74.78C98.6127 74.58 98.1127 74.42 97.5127 74.42ZM103.869 74.42C101.609 74.42 100.109 75.62 100.109 77.46C100.109 79.24 101.009 80 103.449 80.2C104.969 80.32 105.389 80.6 105.389 81.22C105.389 81.9 104.709 82.34 103.609 82.34C102.169 82.34 101.029 81.9 100.249 81.06H100.149V83.28C100.929 83.88 102.149 84.2 103.709 84.2C106.049 84.2 107.469 83.06 107.469 81.22C107.469 79.32 106.489 78.4 103.989 78.26C102.609 78.18 102.189 77.94 102.189 77.4C102.189 76.74 102.909 76.28 103.929 76.28C105.149 76.28 106.129 76.62 106.769 77.28H106.869V75.1C106.189 74.66 105.089 74.42 103.869 74.42ZM117.355 74.42C115.095 74.42 113.595 75.62 113.595 77.46C113.595 79.24 114.495 80 116.935 80.2C118.455 80.32 118.875 80.6 118.875 81.22C118.875 81.9 118.195 82.34 117.095 82.34C115.655 82.34 114.515 81.9 113.735 81.06H113.635V83.28C114.415 83.88 115.635 84.2 117.195 84.2C119.535 84.2 120.955 83.06 120.955 81.22C120.955 79.32 119.975 78.4 117.475 78.26C116.095 78.18 115.675 77.94 115.675 77.4C115.675 76.74 116.395 76.28 117.415 76.28C118.635 76.28 119.615 76.62 120.255 77.28H120.355V75.1C119.675 74.66 118.575 74.42 117.355 74.42ZM124.006 70.34C123.206 70.34 122.666 70.9 122.666 71.7C122.666 72.5 123.206 73.04 124.006 73.04C124.826 73.04 125.366 72.5 125.366 71.7C125.366 70.9 124.826 70.34 124.006 70.34ZM122.946 74.62V84H125.066V74.62H122.946ZM132.835 74.42C131.355 74.42 130.275 75 129.675 76.06H129.635L129.555 74.62H127.775V84H129.895V79.08C129.895 77.34 130.795 76.32 132.295 76.32C133.655 76.32 134.475 77.2 134.475 78.74V84H136.595V78.5C136.595 75.94 135.175 74.42 132.835 74.42ZM143.589 74.42C140.529 74.42 138.509 76.44 138.509 79.32C138.509 82.18 140.529 84.2 143.589 84.2C144.889 84.2 145.889 83.94 146.589 83.4V81.06H146.489C145.849 81.88 144.949 82.3 143.789 82.3C141.849 82.3 140.649 81.08 140.649 79.32C140.649 77.52 141.849 76.32 143.789 76.32C144.929 76.32 145.829 76.7 146.489 77.54H146.589V75.24C145.849 74.7 144.889 74.42 143.589 74.42ZM157.977 79.96V78.92C157.977 76.18 156.137 74.42 153.237 74.42C150.377 74.42 148.357 76.44 148.357 79.32C148.357 82.24 150.557 84.2 153.837 84.2C155.317 84.2 156.597 83.84 157.397 83.22V81.12H157.297C156.457 81.92 155.297 82.34 153.917 82.34C152.057 82.34 150.777 81.46 150.517 79.96H157.977ZM153.297 76.28C154.757 76.28 155.837 77.1 156.017 78.38H150.517C150.777 77.12 151.957 76.28 153.297 76.28ZM174.649 81.98H168.309V81.94L169.829 80.84C173.509 78.16 174.649 76.64 174.649 74.52C174.649 71.94 172.849 70.52 169.589 70.52C168.069 70.52 166.529 70.98 165.449 71.78V74.18H165.569C166.609 73.14 168.089 72.54 169.629 72.54C171.409 72.54 172.389 73.28 172.389 74.64C172.389 75.94 171.449 77.02 168.249 79.52L165.269 81.88V84H174.649V81.98ZM183.137 70.52C179.657 70.52 177.657 73.02 177.657 77.36C177.657 81.7 179.657 84.2 183.137 84.2C186.617 84.2 188.617 81.7 188.617 77.36C188.617 73.02 186.617 70.52 183.137 70.52ZM183.137 72.54C185.197 72.54 186.357 74.28 186.357 77.36C186.357 80.44 185.197 82.18 183.137 82.18C181.077 82.18 179.917 80.44 179.917 77.36C179.917 74.28 181.077 72.54 183.137 72.54ZM196.345 70.52C192.865 70.52 190.865 73.02 190.865 77.36C190.865 81.7 192.865 84.2 196.345 84.2C199.825 84.2 201.825 81.7 201.825 77.36C201.825 73.02 199.825 70.52 196.345 70.52ZM196.345 72.54C198.405 72.54 199.565 74.28 199.565 77.36C199.565 80.44 198.405 82.18 196.345 82.18C194.285 82.18 193.125 80.44 193.125 77.36C193.125 74.28 194.285 72.54 196.345 72.54ZM209.752 75.44C208.852 75.44 207.932 75.5 207.132 75.74V72.74H213.792V70.72H205.132V78.14H205.252C206.252 77.68 207.572 77.4 208.832 77.4C211.232 77.4 212.392 78.18 212.392 79.76C212.392 81.3 211.252 82.18 209.232 82.18C207.352 82.18 205.772 81.64 204.832 80.68H204.712V82.98C205.672 83.74 207.372 84.2 209.332 84.2C212.672 84.2 214.672 82.54 214.672 79.74C214.672 77.04 212.832 75.44 209.752 75.44Z" fill="#0F143C"/>
<path d="M66.125 245.75V237.5C66.125 237.135 65.9801 236.785 65.7223 236.527C65.4644 236.27 65.1147 236.125 64.75 236.125H59.25C58.8853 236.125 58.5356 236.27 58.2777 236.527C58.0199 236.785 57.875 237.135 57.875 237.5V245.75C57.875 246.114 57.7301 246.464 57.4723 246.722C57.2144 246.98 56.8647 247.125 56.5 247.125H48.25C47.8853 247.125 47.5356 246.98 47.2777 246.722C47.0199 246.464 46.875 246.114 46.875 245.75V229.851C46.8781 229.661 46.9192 229.473 46.9959 229.299C47.0727 229.125 47.1835 228.968 47.3219 228.837L61.0719 216.342C61.3254 216.11 61.6565 215.981 62 215.981C62.3435 215.981 62.6746 216.11 62.9281 216.342L76.6781 228.837C76.8165 228.968 76.9273 229.125 77.0041 229.299C77.0808 229.473 77.1219 229.661 77.125 229.851V245.75C77.125 246.114 76.9801 246.464 76.7223 246.722C76.4644 246.98 76.1147 247.125 75.75 247.125H67.5C67.1353 247.125 66.7856 246.98 66.5277 246.722C66.2699 246.464 66.125 246.114 66.125 245.75Z" stroke="#AF52FF" stroke-width="2" stroke-linecap="round" stroke-linejoin="round"/>
</svg>
