<svg width="53" height="53" viewBox="0 0 53 53" fill="none" xmlns="http://www.w3.org/2000/svg">
<g clip-path="url(#clip0_1235_15966)">
<path d="M26.5 46.375C37.4767 46.375 46.375 37.4767 46.375 26.5C46.375 15.5233 37.4767 6.625 26.5 6.625C15.5233 6.625 6.625 15.5233 6.625 26.5C6.625 37.4767 15.5233 46.375 26.5 46.375Z" stroke="#AF52FF" stroke-width="2" stroke-linecap="round" stroke-linejoin="round"/>
<path d="M7.9502 19.875H45.0502" stroke="#AF52FF" stroke-width="2" stroke-linecap="round" stroke-linejoin="round"/>
<path d="M7.9502 33.125H45.0502" stroke="#AF52FF" stroke-width="2" stroke-linecap="round" stroke-linejoin="round"/>
<path d="M25.3958 6.625C21.6755 12.5866 19.7031 19.4728 19.7031 26.5C19.7031 33.5272 21.6755 40.4134 25.3958 46.375" stroke="#AF52FF" stroke-width="2" stroke-linecap="round" stroke-linejoin="round"/>
<path d="M27.6045 6.625C31.3248 12.5866 33.2971 19.4728 33.2971 26.5C33.2971 33.5272 31.3248 40.4134 27.6045 46.375" stroke="#AF52FF" stroke-width="2" stroke-linecap="round" stroke-linejoin="round"/>
</g>
<defs>
<clipPath id="clip0_1235_15966">
<rect width="53" height="53" fill="white"/>
</clipPath>
</defs>
</svg>
