<svg width="53" height="53" viewBox="0 0 53 53" fill="none" xmlns="http://www.w3.org/2000/svg">
<path d="M18.2188 33.125C24.1644 33.125 28.9844 28.3051 28.9844 22.3594C28.9844 16.4137 24.1644 11.5938 18.2188 11.5938C12.2731 11.5938 7.45312 16.4137 7.45312 22.3594C7.45312 28.3051 12.2731 33.125 18.2188 33.125Z" stroke="#AF52FF" stroke-width="2" stroke-miterlimit="10"/>
<path d="M32.1719 11.9871C33.1236 11.729 34.105 11.5968 35.091 11.5938C37.9462 11.5938 40.6845 12.728 42.7035 14.7469C44.7224 16.7659 45.8566 19.5042 45.8566 22.3594C45.8566 25.2146 44.7224 27.9529 42.7035 29.9718C40.6845 31.9908 37.9462 33.125 35.091 33.125" stroke="#AF52FF" stroke-width="2" stroke-linecap="round" stroke-linejoin="round"/>
<path d="M3.3125 40.868C4.99348 38.4759 7.22547 36.5235 9.81992 35.1757C12.4144 33.8279 15.2951 33.1243 18.2188 33.1243C21.1424 33.1243 24.0231 33.8279 26.6176 35.1757C29.212 36.5235 31.444 38.4759 33.125 40.868" stroke="#AF52FF" stroke-width="2" stroke-linecap="round" stroke-linejoin="round"/>
<path d="M35.0918 33.125C38.0157 33.1232 40.897 33.8259 43.4917 35.1738C46.0865 36.5216 48.3182 38.4748 49.998 40.868" stroke="#AF52FF" stroke-width="2" stroke-linecap="round" stroke-linejoin="round"/>
</svg>
