<svg width="53" height="53" viewBox="0 0 53 53" fill="none" xmlns="http://www.w3.org/2000/svg">
<path d="M20.589 13.3935C20.1584 12.5705 20.0625 11.6129 20.3213 10.7208C20.5801 9.82873 21.1736 9.07115 21.9778 8.60631C22.7819 8.14147 23.7346 8.00532 24.6368 8.22631C25.539 8.44729 26.3209 9.00832 26.8192 9.7922L32.2212 19.1376" stroke="#AF52FF" stroke-width="2" stroke-linecap="round" stroke-linejoin="round"/>
<path d="M15.7972 19.4798L12.9161 14.4919C12.4856 13.6689 12.3897 12.7113 12.6485 11.8193C12.9073 10.9272 13.5007 10.1696 14.3049 9.70476C15.1091 9.23992 16.0618 9.10377 16.964 9.32476C17.8661 9.54574 18.6481 10.1068 19.1464 10.8906L25.2686 21.4965" stroke="#AF52FF" stroke-width="2" stroke-linecap="round" stroke-linejoin="round"/>
<path d="M31.392 32.1023C30.9176 31.2845 30.6092 30.3812 30.4845 29.444C30.3599 28.5068 30.4214 27.5542 30.6657 26.6408C30.9099 25.7274 31.332 24.8713 31.9078 24.1214C32.4836 23.3715 33.2017 22.7426 34.021 22.2707L32.2203 19.1376C31.7428 18.309 31.6139 17.3247 31.8621 16.4011C32.1103 15.4775 32.7152 14.6904 33.5438 14.2128C34.3724 13.7353 35.3567 13.6064 36.2803 13.8546C37.2039 14.1028 37.991 14.7077 38.4686 15.5363L42.0699 21.7846C43.9802 25.0941 44.4975 29.0269 43.508 32.7178C42.5186 36.4087 40.1035 39.5554 36.794 41.4657C33.4845 43.3759 29.5517 43.8933 25.8608 42.9038C22.1698 41.9144 19.0231 39.4993 17.1129 36.1898L9.55013 23.081C9.31367 22.6708 9.16033 22.2179 9.09886 21.7484C9.0374 21.2789 9.06902 20.8019 9.19192 20.3445C9.44012 19.421 10.045 18.6338 10.8736 18.1563C11.7022 17.6787 12.6865 17.5498 13.6101 17.798C14.5337 18.0462 15.3208 18.6512 15.7984 19.4797L19.7598 26.3402" stroke="#AF52FF" stroke-width="2" stroke-linecap="round" stroke-linejoin="round"/>
<path d="M18.2648 45.5532C15.8181 43.8656 13.7813 41.6504 12.3047 39.0708" stroke="#AF52FF" stroke-width="2" stroke-linecap="round" stroke-linejoin="round"/>
<path d="M35.3535 7.91953C36.9972 7.91507 38.6128 8.3459 40.036 9.16821C41.4592 9.99051 42.6394 11.175 43.4564 12.6012" stroke="#AF52FF" stroke-width="2" stroke-linecap="round" stroke-linejoin="round"/>
</svg>
