<svg width="53" height="53" viewBox="0 0 53 53" fill="none" xmlns="http://www.w3.org/2000/svg">
<path d="M8.28125 46.375C11.0254 46.375 13.25 44.1504 13.25 41.4062C13.25 38.6621 11.0254 36.4375 8.28125 36.4375C5.53709 36.4375 3.3125 38.6621 3.3125 41.4062C3.3125 44.1504 5.53709 46.375 8.28125 46.375Z" stroke="#AF52FF" stroke-width="2" stroke-linecap="round" stroke-linejoin="round"/>
<path d="M19.875 24.8438C22.6192 24.8438 24.8438 22.6192 24.8438 19.875C24.8438 17.1308 22.6192 14.9062 19.875 14.9062C17.1308 14.9062 14.9062 17.1308 14.9062 19.875C14.9062 22.6192 17.1308 24.8438 19.875 24.8438Z" stroke="#AF52FF" stroke-width="2" stroke-linecap="round" stroke-linejoin="round"/>
<path d="M33.125 38.0938C35.8692 38.0938 38.0938 35.8692 38.0938 33.125C38.0938 30.3808 35.8692 28.1562 33.125 28.1562C30.3808 28.1562 28.1562 30.3808 28.1562 33.125C28.1562 35.8692 30.3808 38.0938 33.125 38.0938Z" stroke="#AF52FF" stroke-width="2" stroke-linecap="round" stroke-linejoin="round"/>
<path d="M44.7188 16.5625C47.4629 16.5625 49.6875 14.3379 49.6875 11.5938C49.6875 8.84959 47.4629 6.625 44.7188 6.625C41.9746 6.625 39.75 8.84959 39.75 11.5938C39.75 14.3379 41.9746 16.5625 44.7188 16.5625Z" stroke="#AF52FF" stroke-width="2" stroke-linecap="round" stroke-linejoin="round"/>
<path d="M17.5141 24.2434L10.6406 37.0379" stroke="#AF52FF" stroke-width="2" stroke-linecap="round" stroke-linejoin="round"/>
<path d="M29.6055 29.6055L23.3945 23.3945" stroke="#AF52FF" stroke-width="2" stroke-linecap="round" stroke-linejoin="round"/>
<path d="M42.3578 15.9621L35.4844 28.7567" stroke="#AF52FF" stroke-width="2" stroke-linecap="round" stroke-linejoin="round"/>
</svg>
