<svg width="53" height="53" viewBox="0 0 53 53" fill="none" xmlns="http://www.w3.org/2000/svg">
<path d="M19.3965 37.4861C17.0838 44.3634 7.91406 44.3634 7.91406 44.3634C7.91406 44.3634 7.91406 35.1937 14.7914 32.881" stroke="#AF52FF" stroke-width="2" stroke-linecap="round" stroke-linejoin="round"/>
<path d="M40.0489 21.4189L26.274 35.1938L17.084 26.0038L30.8589 12.2289C36.0726 7.01512 41.2864 7.07598 43.518 7.40057C43.8623 7.44651 44.182 7.60449 44.4276 7.85014C44.6733 8.09579 44.8312 8.41545 44.8772 8.7598C45.2018 10.9914 45.2626 16.2051 40.0489 21.4189Z" stroke="#AF52FF" stroke-width="2" stroke-linecap="round" stroke-linejoin="round"/>
<path d="M37.7559 23.7115V36.8169C37.7498 37.245 37.5748 37.6533 37.269 37.953L30.7163 44.526C30.5084 44.7336 30.248 44.881 29.963 44.9522C29.6779 45.0235 29.3789 45.016 29.0977 44.9306C28.8166 44.8453 28.5639 44.6851 28.3666 44.4674C28.1693 44.2496 28.0348 43.9824 27.9775 43.6942L26.2734 35.194" stroke="#AF52FF" stroke-width="2" stroke-linecap="round" stroke-linejoin="round"/>
<path d="M28.5665 14.5212H15.4611C15.033 14.5273 14.6247 14.7023 14.325 15.0081L7.75204 21.5608C7.54439 21.7687 7.39707 22.029 7.3258 22.3141C7.25454 22.5991 7.262 22.8982 7.34738 23.1793C7.43277 23.4605 7.59288 23.7132 7.81063 23.9105C8.02839 24.1077 8.29561 24.2422 8.5838 24.2995L17.0841 26.0036" stroke="#AF52FF" stroke-width="2" stroke-linecap="round" stroke-linejoin="round"/>
</svg>
