<svg width="44" height="45" viewBox="0 0 44 45" fill="none" xmlns="http://www.w3.org/2000/svg">
<path d="M6.875 11.3944V33.3944C6.875 34.1238 7.16473 34.8232 7.68046 35.339C8.19618 35.8547 8.89565 36.1444 9.625 36.1444H37.125C37.4897 36.1444 37.8394 35.9995 38.0973 35.7417C38.3551 35.4838 38.5 35.1341 38.5 34.7694V15.5194C38.5 15.1547 38.3551 14.805 38.0973 14.5471C37.8394 14.2893 37.4897 14.1444 37.125 14.1444H9.625C8.89565 14.1444 8.19618 13.8547 7.68046 13.339C7.16473 12.8232 6.875 12.1238 6.875 11.3944ZM6.875 11.3944C6.875 10.6651 7.16473 9.96559 7.68046 9.44987C8.19618 8.93414 8.89565 8.64441 9.625 8.64441H33" stroke="#FFC310" stroke-width="2" stroke-linecap="round" stroke-linejoin="round"/>
<path d="M30.9375 27.2069C32.0766 27.2069 33 26.2835 33 25.1444C33 24.0053 32.0766 23.0819 30.9375 23.0819C29.7984 23.0819 28.875 24.0053 28.875 25.1444C28.875 26.2835 29.7984 27.2069 30.9375 27.2069Z" fill="#FFC310"/>
</svg>
