<svg width="53" height="53" viewBox="0 0 53 53" fill="none" xmlns="http://www.w3.org/2000/svg">
<path d="M44.4764 25.7036L13.1979 8.18473C12.9345 8.03918 12.6329 7.97733 12.3334 8.00742C12.0339 8.03752 11.7507 8.15812 11.5214 8.35318C11.2922 8.54824 11.1278 8.8085 11.0501 9.09931C10.9725 9.39013 10.9853 9.6977 11.0868 9.98107L16.9758 26.5C17.1055 26.8207 17.1055 27.1793 16.9758 27.5L11.0868 44.0189C10.9853 44.3023 10.9725 44.6098 11.0501 44.9006C11.1278 45.1914 11.2922 45.4517 11.5214 45.6468C11.7507 45.8418 12.0339 45.9624 12.3334 45.9925C12.6329 46.0226 12.9345 45.9608 13.1979 45.8152L44.4764 28.2963C44.708 28.1682 44.901 27.9804 45.0354 27.7524C45.1698 27.5244 45.2407 27.2646 45.2407 27C45.2407 26.7353 45.1698 26.4755 45.0354 26.2475C44.901 26.0196 44.708 25.8318 44.4764 25.7036V25.7036Z" stroke="#AF52FF" stroke-width="2" stroke-linecap="round" stroke-linejoin="round"/>
<path d="M17.1611 27H29.0133" stroke="#AF52FF" stroke-width="2" stroke-linecap="round" stroke-linejoin="round"/>
</svg>
