<?xml version="1.0" encoding="utf-8"?>
<!-- Generator: Adobe Illustrator 24.3.0, SVG Export Plug-In . SVG Version: 6.00 Build 0)  -->
<svg version="1.1" id="Layer_1" xmlns="http://www.w3.org/2000/svg" xmlns:xlink="http://www.w3.org/1999/xlink" x="0px" y="0px"
	 width="205px" height="68px" viewBox="0 0 205 68" enable-background="new 0 0 205 68" xml:space="preserve">
<g>
	<defs>
		<rect id="SVGID_1_" width="205" height="68"/>
	</defs>
	<clipPath id="SVGID_2_">
		<use xlink:href="#SVGID_1_"  overflow="visible"/>
	</clipPath>
	<g clip-path="url(#SVGID_2_)">
		<path fill="#FFFFFF" d="M74.1,21.7v5.2h-0.2c-1-0.7-2.2-1.1-3.7-1.1c-4.2,0-6.2,2.8-6.2,8.4v10.3h-5.3V21.3h4.4l0.2,3.6h0.1
			c1.3-2.7,3.7-4.1,7.2-4.1C72.1,20.8,73.3,21.2,74.1,21.7"/>
		<path fill="#FFFFFF" d="M80.7,30.6h13.7c-0.4-3.2-3.1-5.2-6.8-5.2C84.3,25.4,81.3,27.5,80.7,30.6z M80.7,34.5
			c0.6,3.7,3.8,5.9,8.4,5.9c3.4,0,6.3-1,8.4-3h0.2v5.2c-2,1.5-5.2,2.4-8.8,2.4c-8.1,0-13.6-4.8-13.6-12.1s5-12.1,12.1-12.1
			c7.1,0,11.8,4.4,11.8,11.1v2.6L80.7,34.5L80.7,34.5z"/>
		<path fill="#FFFFFF" d="M138.8,30.8v13.7h-5.3V31.3c0-3.8-1.7-5.8-4.8-5.8c-3.5,0-5.4,2.3-5.4,7v12h-5.3V31.3
			c0-3.8-1.7-5.8-4.9-5.8c-3.5,0-5.3,2.3-5.3,6.6v12.4h-5.3V21.3h4.4l0.1,3.4h0.1c1.4-2.5,3.8-3.9,7.3-3.9c3.3,0,5.9,1.4,7.3,4.2
			h0.1c1.4-2.8,4-4.2,8.1-4.2C135.7,20.8,138.8,24.4,138.8,30.8"/>
		<path fill="#FFFFFF" d="M147.4,32.9c0,4.3,2.9,7.4,7.1,7.4c4.2,0,7.1-3.1,7.1-7.4s-2.9-7.4-7.1-7.4
			C150.2,25.5,147.4,28.5,147.4,32.9z M166.9,32.9c0,7.1-5.2,12.1-12.4,12.1s-12.4-5-12.4-12.1c0-7.1,5.1-12.1,12.4-12.1
			C161.7,20.8,166.9,25.8,166.9,32.9z"/>
		<path fill="#FFFFFF" d="M189.9,32.9c0-4.4-2.9-7.4-7.1-7.4c-4.1,0-7.1,3-7.1,7.4s2.9,7.4,7.1,7.4C187,40.3,189.9,37.2,189.9,32.9z
			 M195.2,32.9c0,7-4.9,12.1-11.5,12.1c-3.8,0-6.7-1.4-8.4-3.8h-0.1l-0.1,3.3h-4.4V10.7h5.3v13.1h0.1c1.7-1.9,4.3-3,7.7-3
			C190.4,20.8,195.2,25.9,195.2,32.9"/>
		<path fill="#FFFFFF" d="M204.3,44.5H199V21.3h5.3V44.5z M205,14.1c0,2-1.3,3.3-3.4,3.3c-2,0-3.3-1.3-3.3-3.3c0-2,1.3-3.4,3.3-3.4
			C203.6,10.7,205,12.1,205,14.1z"/>
		<path fill="#AF52FF" d="M35.7,6.5c5.5,0.3,8.3,2.6,9.8,4.5c2.4,3.2,2.9,7.7,1.2,12.7c-1.4,4.2-4.1,8.2-7.8,11.7c0,0,0,0,0,0
			c0,0-0.1,0.1-0.1,0.1c-0.2,0.2-0.4,0.4-0.6,0.6c-0.1,0.1-0.1,0.1-0.2,0.2c-0.2,0.2-0.5,0.4-0.7,0.6c0,0-0.1,0-0.1,0.1c0,0,0,0,0,0
			c-0.5,0.4-1,0.8-1.4,1.2c-4.7,3.5-9.9,5.8-14.8,6.5c-0.2,0.6-0.4,1.3-0.5,1.9c0.1,0.1,0.3,0.3,0.5,0.4c5.5-0.7,11.2-3.1,16.3-7
			c0.7-0.5,1.3-1,1.9-1.5c0,0,0,0,0,0c0.6-0.5,1.2-1,1.7-1.6c0,0,0,0,0,0c3.8-3.7,6.6-8,8.1-12.4c1.9-5.7,1.4-11-1.6-14.8
			c-2.5-3.2-6.6-5.2-11.5-5.4C31.8,4,27.6,4.9,23.5,6.6c0.2,0.7,0.4,1.5,0.5,2.3C27.9,7.2,31.9,6.3,35.7,6.5"/>
		<path fill="#AF52FF" d="M6.6,25.3C6.6,25.3,6.6,25.3,6.6,25.3C6.6,25.3,6.6,25.3,6.6,25.3z"/>
		<path fill="#AF52FF" d="M8.5,21.9c2-3.2,4.8-6.1,8.1-8.6c1.7-1.3,3.4-2.4,5.2-3.3c-0.1-0.9-0.3-1.6-0.5-2.3
			c-2.1,1.1-4.2,2.3-6.1,3.8c-3.1,2.4-5.8,5.2-7.9,8.1c-0.3,0.9-0.6,1.9-0.9,2.9C7,22.2,7.7,22,8.5,21.9"/>
		<path fill="#AF52FF" d="M15.2,44.8c-4.5-0.6-7-2.6-8.3-4.4c-2-2.6-2.6-6.1-1.9-10c-0.1-0.3-0.2-0.6-0.3-0.9
			c-0.2,1-0.4,1.9-0.6,2.9c-0.4,1.9-0.7,3.8-0.9,5.7c0.4,1.3,1.1,2.5,1.9,3.6c2.5,3.2,6.6,5.2,11.5,5.4c0.4,0,0.7,0,1.1,0
			C16.8,46.4,16,45.6,15.2,44.8"/>
		<path fill="#FFC310" d="M17.7,47.3c0.3-0.8,0.5-1.6,0.7-2.5c-3.4-3.3-6.3-6.7-8.5-9.9c-1.7-2.5-2.8-4.8-3.3-6.6
			c-0.4-1.5-0.3-2.7,0.1-3.3c0.5-0.7,1.8-1,3.6-0.9c6.3,0.3,16.7,5.3,26.8,12.9c0.6-0.5,1.2-1,1.7-1.6c-10.5-8-21.5-13.3-28.4-13.6
			C7.9,21.7,6,22.3,5,23.6C3.1,26,4.2,30.5,8.1,36.2C10.5,39.8,13.8,43.5,17.7,47.3"/>
		<path fill="#FFC310" d="M56.9,53.6c-3.7-5.4-9.4-11.3-16.2-16.7c-0.5,0.5-1.1,1.1-1.7,1.6c6.8,5.3,12.4,11.2,16,16.4
			c1.7,2.5,2.8,4.8,3.3,6.6c0.4,1.5,0.3,2.7-0.1,3.3c-0.5,0.7-1.8,1-3.6,0.9C48,65.4,37.2,60,26.9,52.1c-2.3-1.8-4.5-3.6-6.5-5.5
			c-0.2,0.8-0.5,1.6-0.8,2.4c1.9,1.7,3.8,3.3,5.9,4.9c10.6,8.2,22,13.8,29,14.1c2.6,0.1,4.5-0.5,5.5-1.8
			C61.9,63.8,60.8,59.3,56.9,53.6"/>
		<path fill="#4BDCA3" d="M20.7,35.5c-1.6,8.6-4.2,16.5-7.2,22.3c-2.8,5.5-5.5,7.9-7,7.8c-0.1,0-0.1,0-0.2,0c-1-0.2-2.9-2.4-3.7-9.4
			c-0.8-6.6-0.3-15,1.4-23.9c0.2-1,0.4-2,0.6-2.9C3.8,27,3.9,25,5,23.6c0.4-0.5,0.8-0.9,1.4-1.1c1.4-4.7,3-8.9,4.8-12.4
			c2.8-5.5,5.5-7.9,7-7.8c0.1,0,0.1,0,0.2,0c1,0.2,2.9,2.4,3.7,9.4c0.5,3.9,0.5,8.5,0,13.5c0.7,0.3,1.5,0.7,2.2,1.1
			C25.6,11.9,23.5,1,18.7,0.1c-0.2,0-0.3,0-0.5-0.1c-5.8-0.3-13,13.8-16.5,32C-1.7,50.7,0.1,66.8,6,67.9c0.2,0,0.3,0,0.5,0.1
			c5.8,0.3,13-13.8,16.5-32c0.5-2.5,0.8-5,1.1-7.3c-0.7-0.4-1.5-0.7-2.2-1.1C21.6,30.1,21.2,32.8,20.7,35.5"/>
	</g>
</g>
</svg>
