<?xml version="1.0" encoding="utf-8"?>
<!-- Generator: Adobe Illustrator 24.3.0, SVG Export Plug-In . SVG Version: 6.00 Build 0)  -->
<svg version="1.1" id="Layer_1" xmlns="http://www.w3.org/2000/svg" xmlns:xlink="http://www.w3.org/1999/xlink" x="0px" y="0px"
	 width="149px" height="49px" viewBox="0 0 149 49" enable-background="new 0 0 149 49" xml:space="preserve">
<path d="M77.8,29.7c-0.1,0-0.2,0-0.3,0.1c-0.1,0.2-0.1,0.4,0,0.6c0.3,0.5,1.1,1,1.6,1c0.2,0,0.4-0.1,0.5-0.2c0.1-0.1,0-0.2,0-0.3
	C79.2,30.4,78.3,29.7,77.8,29.7z M129.8,29.7c-0.2,0-0.3,0.1-0.4,0.1c-0.1,0.2-0.1,0.4,0,0.6c0.3,0.6,1.2,1.2,1.7,1.2
	c0.2,0,0.3-0.1,0.3-0.2c0.2-0.2,0-0.9-0.5-1.3C130.6,29.9,130.1,29.7,129.8,29.7z M51.5,36.2l0-0.1c0.2-0.9,0.6-1.5,1.3-1.9
	c0.1-0.1,0.2-0.1,0.3-0.1c0.2,0,0.4,0.1,0.5,0.3c0,0.1,0.1,0.3-0.3,0.7c-0.4,0.4-0.9,0.7-1.7,1.1L51.5,36.2L51.5,36.2z M138.1,36.9
	L138.1,36.9c-0.1-0.9,0.5-1.4,1.1-1.6c0.1,0,0.2,0,0.3,0c0.3,0,0.5,0.1,0.6,0.3c0.1,0.2,0,0.4-0.1,0.6
	C139.6,36.6,138.7,36.8,138.1,36.9L138.1,36.9L138.1,36.9z M42.7,37.8c-0.1,0-0.2-0.1-0.3-0.1c-0.1-0.1-0.1-0.3,0-0.4
	c0.2-0.6,1.4-2.4,2-2.4c0.2,0,0.3,0.1,0.4,0.2c0.1,0.2,0.2,0.5,0.1,0.8C44.6,36.8,43.5,37.8,42.7,37.8z M106.1,38.7
	c-0.4,0-0.7-0.1-0.9-0.4c-0.2-0.3-0.3-0.6-0.2-1c0.1-0.6,0.9-1.4,1.6-1.4c0.3,0,0.6,0.1,0.8,0.3c0.3,0.3,0.4,0.7,0.3,0.9
	C107.7,38,106.9,38.7,106.1,38.7 M77.3,33.9c-0.3,0-0.6,0.2-0.7,0.8c-0.4,1.6-0.4,3,0.2,3.8c0.3,0.4,0.7,0.7,1.1,0.8
	c0.3,0.1,0.5,0,0.6-0.1c0-0.1,0-0.1,0-0.2c-0.4-0.9-0.5-2.4,0-3.7c0.3-0.6,0.1-1-0.5-1.3C77.7,34,77.4,33.9,77.3,33.9 M72.4,37
	l0,0.1c0.1,1.5,1.1,2.3,1.6,2.4c0.3,0.1,0.5,0,0.6-0.1c0-0.1,0-0.1,0-0.2c-0.7-1.2-0.3-3.3-0.2-3.6c0.2-0.7-0.2-1-0.6-1.2l0,0
	c-0.2-0.1-0.4-0.2-0.6-0.2c-0.1,0-0.3,0-0.4,0.2c-0.6,1.3-2.4,3.3-3.3,3.3c-0.3,0-0.5-0.1-0.6-0.3c-0.3-0.5,0-1.4,0.3-2.2
	c0.2-0.5,0.1-0.8-0.4-1.1c-0.3-0.1-0.5-0.2-0.7-0.2c-0.3,0-0.5,0.1-0.6,0.4c-0.2,0.4-0.5,1.2-0.7,2.4c-0.1,0.5,0.1,1,0.5,1.5
	c0.5,0.5,1.2,0.9,1.8,0.9C69.8,39,70.8,38.4,72.4,37L72.4,37z M32.5,33.3c-0.4,0-0.6,0.3-0.7,0.7c-0.3,0.9-0.8,2.7-1,3.9
	c-0.1,0.8,0.1,1.1,0.7,1.5c0.7,0.4,1.3,0.4,1.7,0c0.2-0.2,0.3-0.4,0.5-0.6c0.8-0.8,1.6-1.8,2.3-2.3c0.2-0.1,0.4,0,0.5,0.2
	c0.9,2.3,2.3,2.7,3.1,2.7c0.1,0,0.2,0,0.3,0c0.3,0,0.4-0.2,0.4-0.4c0-0.1-0.1-0.2-0.2-0.2h0c-1.2,0-1.4-1.2-1.7-2.8l0-0.2
	c-0.1-0.5-0.5-1-1.1-1.2c-0.2-0.1-0.3-0.1-0.5-0.1c-0.3,0-0.5,0.2-0.8,0.3c-0.6,0.4-1.4,1.3-2.1,2c-0.6,0.6-0.9,1-1,1l-0.1,0l0-0.1
	c0.1-0.6,0.5-2.1,1-3.4c0.1-0.2,0.1-0.3,0-0.5c-0.1-0.2-0.3-0.4-0.6-0.5C32.9,33.4,32.7,33.3,32.5,33.3 M111.3,34.8
	c-0.1,0-0.3,0-0.4,0.1c-0.1,0.1-0.1,0.2,0,0.3c0.2,0.7-0.1,2.1-0.2,3c0,0.1,0,0.2-0.1,0.3c-0.1,0.7,0.2,0.9,0.6,1.1
	c0.2,0.1,0.4,0.2,0.6,0.2c0.2,0,0.4-0.1,0.5-0.4c0.5-1.5,1.9-4.1,5.6-4.3c0.1,0,0.2-0.1,0.2-0.2c0-0.1-0.1-0.3-0.3-0.4
	c-0.2-0.1-0.6-0.2-0.9-0.2c-1.2,0-2.8,0.5-3.9,1.3l-0.1,0l0-0.1c0-0.1-0.6-0.7-1.2-0.8C111.5,34.8,111.4,34.8,111.3,34.8 M29,28.1
	c-0.4,0-0.6,0.3-0.7,0.5c-0.1,0.4-0.2,1.1-0.4,1.8c-0.5,2-1.1,4.7-1.2,6.6c-0.2,2.4,0.3,3,1,3.2c0.1,0,0.3,0,0.3,0
	c0.1-0.1,0.1-0.2,0.1-0.4c0-2.1,1.4-7.8,2.1-10.1c0.3-0.9,0-1.2-0.5-1.4C29.4,28.1,29.2,28.1,29,28.1 M127,37.5l0,0.2
	c0,1.2,0.3,2,1,2.5c0.2,0.1,0.4,0.2,0.6,0.2c0.1,0,0.2,0,0.2-0.1c0,0,0-0.1,0-0.2c-0.3-1-0.2-2.3,0.3-3.6c0.2-0.7,0.3-1.1-0.3-1.4
	c-0.5-0.3-0.9-0.3-1.1,0c0,0,0,0.1-0.1,0.1l0,0.1c-1.2,1.7-3,3.8-4.3,3.8c-0.2,0-0.4-0.1-0.5-0.2c-0.3-0.3-0.4-0.8-0.3-1.6
	c0.2-2,1.1-5,2-6.6c0.2-0.4,0.3-0.6,0.2-0.8c-0.1-0.1-0.3-0.2-0.7-0.2h0c-0.9,0-1.2,0.5-1.4,0.9c-0.8,1.7-1.7,4.3-1.8,7
	c0,0.7,0.2,1.3,0.7,1.8c0.7,0.7,1.5,0.9,2,0.9c1.3,0,2.7-1.6,3.4-2.5L127,37.5L127,37.5z M98.7,36.9L98.7,36.9
	c-0.3,1.7-0.4,3.4-0.4,4.5c0.1,1.3,0.3,2,0.8,2.3c0.1,0.1,0.3,0.1,0.4,0.1c0.1,0,0.2,0,0.3-0.1c0.1-0.1,0.1-0.2,0.1-0.3
	c-0.2-1.6,0.1-4.2,0.6-6.8l0,0l0,0c0.9-0.1,1.8-0.3,2.7-0.3l0.1,0l-0.1,0.1c-0.2,0.2-0.3,0.6-0.3,1c0,1,1.3,2.5,3.4,2.5
	c1.2,0,2.7-1.1,2.7-2.4c0-1.7-1.4-2.8-2.8-2.8c-0.5,0-1.1,0.2-1.5,0.7l0,0h0c-0.3,0-0.7,0-1,0c-1.1,0-2.1,0-3,0.1l-0.1,0l0-0.1
	c0.5-1.9,1-3.4,1.6-4.5c0.2-0.4,0.4-0.6,0.7-0.7c0,0,0,0,0.1,0c0.3,0,0.6,0.2,0.7,0.6c0,0.1,0.1,0.2,0.2,0.2c0.1,0,0.2-0.1,0.3-0.2
	c0.1-0.2,0.2-0.5,0.1-0.8c-0.1-0.5-0.4-0.8-0.8-1.1c-0.4-0.2-0.8-0.3-1.1-0.3c-0.5,0-0.8,0.2-1.2,0.7c-1.3,1.8-2.1,4.4-2.5,6.3l0,0
	l0,0c-1.4,0.2-2.5,0.5-3.4,0.8c-0.2,0.1-0.3,0.2-0.4,0.3c0,0.2,0.2,0.4,0.5,0.6c0.5,0.3,0.9,0.4,1.3,0.2
	C97.3,37.3,97.8,37.1,98.7,36.9L98.7,36.9L98.7,36.9z M131.8,37.4L131.8,37.4c-0.3,2-0.5,3.8-0.4,5c0.1,1.5,0.6,1.9,0.9,2.1
	c0.3,0.2,0.6,0.2,0.7,0.1c0-0.1,0.1-0.1,0-0.3c-0.2-1.8,0-4.4,0.4-7.1l0,0l0,0c0.8-0.2,1.7-0.4,2.5-0.6l0.1,0l0,0.1
	c-0.1,0.6,0.2,1.3,0.7,1.9c1,1.2,2.8,1.8,4.9,1.8c1.2,0,2.2-0.5,2.6-0.8c0.2-0.1,0.2-0.3,0.2-0.4c0-0.1-0.1-0.1-0.3,0
	c-0.8,0.2-1.5,0.3-2.2,0.3c-1.6,0-2.9-0.6-3.6-1.5l-0.1-0.1l0.1,0c1.3-0.1,2.8-0.9,3-1.4c0.2-0.5,0-0.9-0.1-1.2
	c-0.4-0.6-1.2-1-1.9-1c-0.9,0-2,0.5-2.7,1.1l0,0h0c-1,0.3-2,0.4-2.9,0.6l-0.1,0l0-0.1c0.4-1.8,0.9-3.4,1.5-4.7
	c0.2-0.4,0.4-0.7,0.7-0.7c0.3,0,0.5,0.2,0.7,0.6c0,0.1,0.1,0.2,0.2,0.2c0.1,0,0.2-0.1,0.3-0.3c0.2-0.4,0-1.2-0.6-1.6
	c-0.4-0.3-0.8-0.4-1.1-0.4c-0.4,0-0.8,0.2-1.1,0.6c-0.9,1.4-1.7,3.7-2.3,6.4l0,0.1H132c-0.4,0-0.7,0-1-0.1c-0.3,0-0.5,0-0.5,0.1
	c-0.1,0.2,0,0.5,0.3,0.9C131,37.4,131.3,37.4,131.8,37.4L131.8,37.4L131.8,37.4z M42,47.9c-0.2,0-0.4-0.1-0.6-0.3
	c-0.2-0.3-0.5-1.1,0.2-3.1c0.5-1.3,1.3-2.4,2.6-3.5l0.1-0.1l0,0.1C44.3,45.1,43.3,47.9,42,47.9z M87.9,38.1L87.9,38.1
	c-0.4,0.8-0.7,1.6-1.1,2.5c-1,2.4-2.1,5-4.1,7.7c-0.1,0.1-0.1,0.2-0.1,0.3c0,0.1,0.1,0.1,0.3,0.1c0.1,0,0.3-0.1,0.5-0.2
	c1.4-0.9,3.3-3.8,5.3-8c1.5-3.2,2.5-4.2,3.3-5.1c0.1-0.1,0.2-0.2,0.3-0.3c0.1-0.1,0.2-0.3,0.1-0.4c-0.1-0.2-0.3-0.4-0.7-0.5
	c-0.6-0.2-1-0.1-1.3,0.2l0,0c-1,1.2-2.4,2.6-3,2.6c-0.2,0-0.3-0.1-0.4-0.2c-0.3-0.3-0.2-1-0.2-1.5c0-0.1,0-0.2,0-0.2
	c0-0.4-0.2-0.7-0.8-0.8c-0.5-0.1-2-0.2-3.2-0.2h-0.1l0-0.1c0.3-1.8,0.9-3.5,1.4-4.4c0.2-0.3,0.3-0.6,0.3-0.7
	c-0.1-0.1-0.3-0.3-0.7-0.4c-0.2,0-0.3-0.1-0.4-0.1c-0.6,0-0.8,0.5-1,0.8c-0.6,1.4-1,3.1-1.3,4.7l0,0.1h-0.1c-0.3,0-0.6,0-0.8,0
	c-0.2,0-0.3,0-0.4,0.1c-0.1,0.1,0,0.2,0,0.4c0.1,0.3,0.4,0.7,1,0.9l0,0v0.1c0,0.4,0,0.7,0,1c0,1.7,0.5,2.8,1.5,3c0,0,0.1,0,0.1,0
	c0.1,0,0.3,0,0.4-0.1c0-0.1,0-0.1,0-0.2c-0.5-0.9-0.4-2.5-0.3-3.8l0,0l0,0c0.7-0.1,1.5-0.2,2.1-0.2h0c0.1,0,0.2,0,0.3,0.1
	c0.1,0.1,0.1,0.2,0.1,0.3c0,0.3,0,1.2,0.6,1.8C86,37.9,86.8,38.2,87.9,38.1L87.9,38.1L87.9,38.1z M44.3,38.1l0,0.2
	c0,0.5,0,1,0.1,1.4v0l0,0c-2.1,1.4-3.5,3-4.1,4.7c-0.5,1.4-0.4,2.7,0.2,3.5c0.4,0.6,1,0.9,1.7,0.9c1.3,0,2.3-1,3-2.9
	c0.7-2,1-4.5,1-6.2v0l0,0c0.9-0.6,2-1.1,3.3-1.7l0,0l0,0c0.6,0.8,1.8,1.7,3.2,1.7c1.7,0,3.3-1.3,3.9-1.8l0.1-0.1l0,0.1
	c0.1,0.5,0.4,0.9,0.9,1.2c0.8,0.5,1.4,0.5,1.9,0c0.4-0.4,0.6-0.7,0.9-1c0.4-0.5,0.8-0.9,1.4-1.3c0.3-0.2,0.5-0.1,0.7,0.2
	c1,1.7,2.1,2.7,3.3,2.7c0.3,0,0.6-0.1,0.7-0.2c0-0.1-0.1-0.2-0.2-0.3c-0.7-0.5-1.4-1.4-2-2.9c-0.2-0.5-0.5-0.8-1.4-1.2
	c-0.2-0.1-0.3-0.1-0.5-0.1c-0.3,0-0.5,0.1-0.7,0.3l-0.1,0c-0.6,0.4-1.4,1.2-1.9,1.7c-0.2,0.3-0.5,0.5-0.6,0.6
	c-0.2,0.2-0.4,0.2-0.5,0.1c-0.1-0.1-0.1-0.2-0.1-0.3c0-0.8,0.3-1.7,0.8-2.7c0.1-0.2,0.1-0.4,0-0.5c-0.1-0.2-0.3-0.4-0.7-0.5
	c-0.2-0.1-0.4-0.1-0.6-0.1c-0.4,0-0.6,0.3-0.8,0.7c-0.3,0.7-0.4,1.3-0.6,2.2v0l0,0c-1.5,1.4-2.8,2.2-3.9,2.2c-0.9,0-1.4-0.5-1.5-1.4
	l0,0l0,0c1.2-0.5,2.4-1.2,3-1.9c0.4-0.5,0.3-1,0.2-1.3c-0.3-0.6-1-1-1.6-1c-0.8,0-3.8,1.5-3.8,4.1v0l0,0c-0.7,0.3-1.8,0.8-2.8,1.3
	l-0.1,0.1l0-0.1c0.2-1.5,0.6-2.7,0.8-3.1c0.1-0.3,0.2-0.5,0.1-0.6c-0.1-0.2-0.2-0.3-0.5-0.4c-0.4-0.2-0.8-0.1-1.1,0.1l-0.1,0l0-0.1
	c0,0-0.4-0.6-1.1-0.6c-1.6,0-3.9,2.7-4,3.7c0,0.3,0,0.5,0.3,0.8c0.4,0.5,1.3,0.9,1.9,0.8c0.7,0,1.3-0.5,1.7-0.9L44.3,38.1L44.3,38.1
	z"/>
<path fill-rule="evenodd" clip-rule="evenodd" fill="#009AA3" d="M14.2,10.7c0.9,0.9,1.3,2,1.3,3.4c0,2-0.9,3.5-2.6,4.6
	c-1.4,0.8-3.2,1.3-5.5,1.3c-1.9,0-3.8-0.2-5.7-0.7l0,0v-3.6c2.1,0.7,3.9,1,5.5,1c2.2,0,3.3-0.6,3.3-1.7c0-0.4-0.2-0.8-0.5-1.1
	c-0.3-0.3-1.2-0.7-2.5-1.3c-2.4-1-4-1.8-4.7-2.5C1.8,9,1.3,7.8,1.3,6.4c0-1.8,0.7-3.2,2.1-4.2c1.4-0.9,3.2-1.4,5.4-1.4
	c1.2,0,3,0.2,5.3,0.7V5c-1.7-0.7-3.3-1-4.8-1c-2.1,0-3.1,0.6-3.1,1.7c0,0.4,0.2,0.8,0.6,1c0.3,0.2,1.3,0.7,2.9,1.4
	C11.9,9.1,13.4,9.9,14.2,10.7z M18.4,19.5h5.2V1.1h-5.2V19.5z M33.3,11.6h7.2v-3h-7.2V4.4h8.3V1.1H28.3v18.4h13.4V16h-8.5V11.6z
	 M56.4,12.9L51.8,1.1h-6.7v18.4h3.6v-13l5.3,13.2h3.2l5.4-13.2v13h4.9V1.1h-6.3L56.4,12.9z M77.2,11.6h7.2v-3h-7.2V4.4h8.3V1.1H72.3
	v18.4h13.4V16h-8.5V11.6z M101.4,13.4L95.1,1.1h-6v18.4h3.6V7l6.5,12.5h5.8V1.1h-3.6V13.4z M121.2,10.7c-0.8-0.7-2.3-1.6-4.5-2.6
	c-1.6-0.7-2.6-1.2-2.9-1.4c-0.4-0.3-0.6-0.6-0.6-1c0-1.1,1-1.7,3.1-1.7c1.5,0,3.1,0.3,4.8,1V1.5l-0.5-0.1c-2-0.4-3.6-0.6-4.8-0.6
	c-2.2,0-4,0.5-5.4,1.4c-1.4,1-2.1,2.3-2.1,4.1c0,1.4,0.5,2.6,1.4,3.5c0.7,0.7,2.3,1.6,4.8,2.5c1.4,0.6,2.2,1,2.5,1.3
	c0.3,0.3,0.5,0.7,0.5,1.1c0,1.2-1.1,1.7-3.3,1.7c-1.6,0-3.5-0.3-5.5-1v3.6l0,0c1.9,0.4,3.8,0.7,5.7,0.7c2.2,0,4.1-0.4,5.5-1.3
	c1.7-1,2.6-2.6,2.6-4.6C122.5,12.7,122.1,11.5,121.2,10.7z"/>
</svg>
