<svg version="1.2" xmlns="http://www.w3.org/2000/svg" viewBox="0 0 236 97" width="236" height="97">
	<title>brush_form_team-svg</title>
	<style>
		.s0 { fill: #f3e5ff } 
	</style>
	<path id="Layer" fill-rule="evenodd" class="s0" d="m6.5 59.9c-0.3 0.2-0.4-0.1-0.5-0.5 0.2-0.1 0.5-0.2 0.6 0.4zm-0.6-0.6q0.6-1.4 0.2-3c-0.2-1.1-0.6-1.9-1.2-2.3-0.4-0.2-0.8-0.8-1.2-1.3 0.2-0.6 0.4-1.2 0.5-1.7 0-0.6-0.1-1.3-0.2-1.9q0 0-0.1 0 0 0 0.1-0.1 0 0 0 0 0 0 0 0c1.5-1.1 3.1-1.5 4.7-1.5 2.2-0.1 4.5 0.2 6.7-0.2 2.5-0.6 5.1-0.9 7.7-1.4 0.3-0.1 0.6-0.5 0.9-0.8-1.1-0.2-2.1-0.5-3.2-0.4-3.6 0.2-7.2 0.6-10.8 1-0.4-1.4 1.2-2.1 0.1-3.3 0.4-0.6 0.7-1 1.1-1.6-0.7-1.7-1.4-3.4-2-5-0.7-1.6-0.9-3.3-0.3-5.1q0-0.2 0.1-0.4 0.6-2.7-1-4.6-0.4 1.1-0.9 2.2c-0.2-0.3-0.4-0.4-0.4-0.6-0.2-1.9-0.9-3.6-0.3-5.9 0.6 0.3 1.2 0.9 1.8 0.8 0.6 0 1.1-0.8 1.6-1.2 0-1.3-0.5-1.1-0.8-1.1-1.5 0.3-3-0.2-4.7-0.6 0.4-0.7 0.6-1.2 0.8-1.7-0.8-2-2.2-0.1-3.1-1.8 0.5-1.4 1.6 0.3 1.9-1.5-0.1-0.2-0.1-0.5-0.2-0.6-0.7-0.5-1.6-0.6-2-1.5-0.4-1.2-1.1-1.3-1.6-2.2 0.4 0 0.7 0.1 1 0.1 0.2-2.5 0.4-4.8 0.6-7.2 0.4 0 0.7-0.1 1-0.1q0.3-0.9 0.5-1.8c1.2-1 2.5-0.1 3.7-0.2 1.2-0.2 2.4 0.1 3.6 0.2 0.8 0.1 1.7-0.2 2.6 0.7 0.4 0.5 1 0.3 1.5 0.2 5.8-0.5 11.7-1.3 17.5-1.6 5.3-0.3 10.5 0 15.8 0q1.1 0 2.2-0.1c1.3-0.1 2.6 0.1 3.9 1 0.2 0.2 0.7 0.3 0.8 0 1-1.3 2-0.8 3-0.8 2.7-0.1 5.4 0 8 0.1 0.3 0 0.6-0.3 0.9-0.4h-0.1c-0.3 0.9-0.7 1.8-1 2.6 0.1 1.2 0.6 1.5 1 1.5 1.2 0.2 2.4 0.3 3.5 0.4q1.1 0 2.2 0.1 0 0 0 0.1c1.7-0.1 3.3-0.3 5-0.2 3.4 0.3 6.8 0.7 10.2 1 2 0.2 4 0 6 0.2 3.7 0.4 7.5 0.9 11.3 1.3 3.3 0.4 6.7 0.5 10 1.2 3.1 0.8 6.3 0.5 9.5 0.9 6.6 0.8 13.3 1.3 19.9 2 0.2 0 0.5 0.1 0.7 0 0.6 0 0.7 1.7 1.3 1.3 0.4-0.3 0.9-0.7 1.3-0.7 1.8 0 3.7-0.4 5.5 0.4 0.7 0.3 1.4 0.4 2 0.3 1.2-0.3 2.2 0.3 3 1.5 0.3-0.4 0.5-1 0.7-0.9 2.1 0.3 4.2 0.7 6.2 1 1.1 0.2 2.2 0.3 3.3 0.6 0.9 0.2 1.8 1.3 2.6 0.9 0.8-0.4 1.6-0.3 2.3-0.2 1.6 0.2 3.1 0.7 4.8 1.1 0 0.1 0.1 0.4 0.2 0.8 0.5 1.4 0.7 1.4 1.1-0.3 0.1-0.1 0.1-0.2 0.2-0.4q0.9 0 1.9 0-0.1 0.3-0.2 0.6 0.1-0.3 0.2-0.6c0.7 1.1 1.4 2.2 2.3 0.6q1.7 0.1 3.3 0.2c0 0.6 0 1.1 0 1.7 0.6 0.6 1.3 0.4 1.8-0.6 0.5-1.2 1.2-0.7 1.8-0.7 0.6 0 1.1 0.5 1.2 1.8 0.9-0.4 1.7-0.8 2.6-1.2 0 0.8 0 1.4 0 2 1-1.6 1.7 0 2.5 0.8 0.6-0.5 1.1-1 1.6-1.4q0.5-1 1.1-2c0.2 0.5 0.5 1.1 0.8 1.8 1.5-0.8 3.1-1.6 4.7-2.4 0.1 0.9 0.3 2 0.9 2 0.8-0.1 1.2 0.7 1.7 1.6 0.9 1.8 1.8 2.2 3 0.8 0.6-0.8 1.5-1 2.4-1.5 0.1 0.3 0.4 0.5 0.6 0.9 0.5 1.1 1.2 1.4 1.8 0.5 1-1.3 2.1-1 3.2-1.5 0.5-0.3 0.6 0.1 0.8 2-1 0.8-2.5 0.1-3 2.8q-0.6 0.3-1.2 0.6 0 0 0 0c-1.3 1.2-2.7 1-4.1 1.6-0.7 0.3-1.4 0.4-2.2 0.8-0.6 0.4-1 1.2-0.7 2.5-0.3 0.2-0.4 0.4-0.5 0.3-1.7-0.7-3.2 0.2-4.8 0.3-4.6 0.3-9.2 0.1-13.8-0.6-2.2-0.3-4.3-0.5-6.4-0.8-0.8-0.1-1.5-0.4-2.2-0.5-1.5-0.2-3-0.3-4.5-0.5-6.4-1-12.8-2.1-19.3-3-1.7-0.3-3.5-0.2-5.3-0.4-4.8-0.4-9.6-0.9-14.4-1.2-0.6-0.1-1.2 0.2-1.7 0.5-0.2 0-0.3 0.6-0.3 1 0 0.3 0.2 0.7 0.3 1 0.1 0.1 0.3 0.2 0.4 0.2 2 0.4 4 0.8 6 1 1.9 0.1 3.9-0.3 5.7 1.1 1.8-0.7 3.5 1.3 5.2 0.1 0.5-0.3 1 0 1.5 0.2 2.1 1 4.1 1.3 6.2 1.6 4.9 0.6 9.8 1.7 14.8 2.5 1.2 0.3 2.5 0.2 3.8 0.3 1.6 0.1 3.2-0.3 4.8 1.1 0.5 0.4 1.2 0.2 1.8 0.3 1.4 0.1 2.8 0 4 1.5 0.2 0.3 0.5 0.3 0.7 0.3 1.8 0.2 3.5 0.4 5.3 0.5 0.5 0 1.1 0.1 1.6-0.3 1.4-1.4 2.9-0.7 4.3-0.9 0.5-0.1 1.1-0.2 1.6 0.2 1.9 1.8 3.9 0.8 5.8 0.6 1.9-0.2 3.7-0.9 5.6-1.2 1.2-0.2 2.5-0.1 3.7-0.2 0.5 0 1.1-0.1 1.7-0.1 0.2 1.7-0.2 3.1-0.3 4.9-1.2 0-2.4 1.8-3.6 0-0.1-0.1-0.3-0.1-0.4 0.1-1.3 1.4-2.7 1.2-4.1 1.4-0.8 0.1-1.6 0.1-2.4 1.1 0.1 0.7 0.2 1.3 0.3 2.2-2.4 0.3-4.6 0.9-6.9 1q-4.8 0.2-9.6-0.2-6.7-0.5-13.3-1.5c-5.3-0.8-10.7-1.9-16-2.7-3.2-0.5-6.5-0.8-9.8-1.3-5.7-0.9-11.5-1.2-17.3-1.7q-4.4-0.3-8.9-0.6c-0.6-0.1-1.3-0.2-2-0.3-0.7-0.1-1.4-0.1-2.1-0.1-0.1 1.6 0.3 2.1 0.8 2.3 0.6 0.2 1.2 0.2 1.8 0.3 1.5 0.1 3-0.2 4.4 0.6 3.6-0.4 7.1 0.8 10.7 1 4.3 0.3 8.7 0.6 13.1 1.2 4.6 0.7 9.3 1.6 13.9 2.4 3 0.4 6 0.8 8.9 1.2 3.4 0.6 6.8 1.3 10.2 1.8 5.5 0.7 11 1.1 16.4 0.5 1.4-0.1 2.8-0.4 4.3 0 0.9 0.3 1.9-0.2 2.8-0.4q1.1-0.2 2.2-0.4 0 0.1 0 0.1c2.8-0.8 5.5-1.6 8.2-2.4 0.6-0.2 1.2-0.5 1.8-0.8 1.3-0.7 2.7-1.9 4.2-0.9 0.2 0.2 0.6-0.2 0.8-0.4q2.5-1.6 5-3.3c0.1 1.2 0.6 1.7 1.2 2-0.3 0.2-0.6 0.3-0.8 0.6-1.5 2.4-3.3 3.1-4.9 4.5-1.4 1.2-2.7 2.3-4 3.5q0.1-0.3 0.2-0.6l-0.2 0.6q-2.7 0.9-5.5 1.7c-0.7 0.3-1.4 0.6-2 0.8-0.3 1.2 0 1.8 0.4 1.7q1.5-0.2 3-0.8c2.9-1.2 5.8-2.4 8.7-3.6 0.3-0.1 0.5-0.3 0.7-0.2 1.2 0.5 2.2-0.4 3.3-1 0.7-0.4 1.4-0.8 2.2-1.3q0.4 1.8 0.8 3.4c-0.2 0.3-0.3 0.6-0.4 0.7-0.8 0.5-1.5 0.9-2.3 1.4-0.7 0.5-1.3 0.9-1.9 2.1-0.5 1.1-1.3 1.6-2 2.4-0.2 1.2 0.2 1.7 0.7 1.6 1.4-0.3 2.8-0.7 4.1-1.1 0.3-0.1 0.6-0.1 0.9-0.2-0.3 1.8-1.1 2.1-1.7 2.5-1.7 1.1-2.4 3.3-2.9 6.7-0.2 1.9-0.6 3.7-1 5.5-0.2 0.5-0.6 1.1-0.9 1.2-1.1 0.4-1.9 2-2.9 3-0.9 0.9-0.9 2.3-0.6 3.9-1.1 1.7-2 3.7-3.2 4.8-0.8 0.8-1.6 1.4-2.5 1.6-2.2 0.6-4.4 1.3-6.6 2-0.7 0.2-1.3 0.4-1.8 1.5-0.2 0.5-0.7 0.5-0.9 0.9-0.4 0.3-0.8 0.8-0.8 1.3-0.3 2-0.9 2.2-1.8 2.4-8.1 2.1-16.2 1.2-24.2-0.1-3.7-0.6-7.4-1.1-11.1-1.7-5.2-0.8-10.4-1.6-15.5-2.5-1.2-0.2-2.5-0.5-3.2-3.1-0.2-0.4-0.7-0.6-1-0.7-0.8-0.3-1.5-0.3-2.3-0.4-1.4-0.2-2.9-0.3-4.4-0.6-1.4-0.3-2.7-0.7-4.1 0.1-0.6 0.2-1.2-0.1-1.8-0.5-1.7-1.4-3.6-1.4-5.4-1.6q-5.2-0.5-10.4-0.9c-1.5-0.1-3-0.4-4.4-0.4-0.5 0-0.9 0.1-1.4-0.1-4.2-1.9-8.5-1.7-12.8-2.3q-1.4-0.2-2.8-0.3c-0.6 0-1.2-0.2-1.8 0-2.2 0.8-4.3 0.6-6.4-0.6-0.4-0.2-0.9-0.2-1.3-0.2-4.2-0.4-8.5-0.9-12.7-0.9-2.3 0-4.7 0.2-7.1 0.1q-6.9-0.3-13.8-0.4c-1.8 0-3.5 0.1-5.3 0.1-3.3 2.2-6.6 0.8-9.9 1.2-3.3 0.4-6.7 0.3-10 0.7-5.4 0.6-10.7 1.4-16 2.2q-3.3 0.4-6.7 0.6c-2.4 0.2-4.9 0.2-7.3 0.3-1.7 0.1-3.2-2.6-3.2-5.7 0-1.1 0-2.2 0.1-3.7 1.1-2 2.4-4.3 1.8-8.1 1.5-1.8 2.4-4.1 2.8-7.1q0 0.1 0 0.1zm206.9-11.2q0.1 0 0.1 0.1 0-0.1 0-0.1 0 0-0.1 0zm0.1 0.1q0.1 0.3 0.1 0.6c0 0.1 0.1 0.2 0.1 0.3 0-0.2 0.1-0.4 0.1-0.5q-0.1-0.3-0.3-0.4zm2.3-22.9q0 0 0-0.1 0 0.1 0 0.2 0 0 0-0.1zm0-0.1c0-0.2 0-0.4 0-0.6 0-0.1-0.2 0-0.3-0.1 0 0.1 0 0.3 0 0.4q0.1 0.2 0.3 0.3zm-10.2-8.1q0 0.1 0 0.1 0 0 0-0.1zm-6.6 2.7q0 0.1 0 0.2 0-0.1 0-0.3 0 0.1 0 0.1 0 0 0 0zm0 0.2c0 0.6-0.1 1.2 0.4 1.5 0.1-0.7-0.2-1-0.4-1.5zm-4.1 0.6q0 0 0.1 0 0 0 0-0.1 0 0-0.1-0.1 0 0.1 0 0.2zm0.1 0c0.3 0.4 0.5 0.8 0.8 1.4 0-1.4-0.4-1.3-0.8-1.4zm-122.2-15.8q0.1 0 0.1 0.1 0-0.1 0-0.1 0 0-0.1 0zm0.1 0.1c0 0.3 0 0.7 0.1 1 0 0.1 0.2 0.1 0.3 0.2 0-0.2 0.1-0.5 0-0.6-0.1-0.3-0.2-0.4-0.4-0.6zm-69.6-2q-0.1 0.3-0.1 0.7 0-0.4 0.1-0.8 0 0 0 0 0 0 0 0.1zm21.4 42.2q0 0 0 0 0-0.1 0-0.1-0.1 0-0.1 0.1 0 0 0.1 0zm2.2-0.2q0 0 0 0-0.1 0-0.1-0.1 0 0-0.1 0.1 0.1 0 0.2 0zm3.6-1q0 0 0 0 0-0.1-0.1-0.1 0 0.1 0 0.2 0-0.1 0.1-0.1zm0 0c0.5 0.3 0.9 0.7 1.3 0.9 0.3 0.1 0.6-0.2 0.5-1-0.6-0.6-1.2-0.2-1.8 0.1zm-0.1 0.1c-1.2 0.2-2.4-0.3-3.5 0.9 1 0.7 2 0.4 3 0 0.2 0 0.3-0.6 0.5-0.9zm-25.8 5.1q0.1 0.1 0.1 0.1 0.1 0 0.2 0-0.1 0-0.3-0.1zm1.9 10.4q0 0 0.1-0.1 0 0-0.1-0.1 0 0.1 0 0.2zm20.2-14.6c-0.6-0.5-1.3-0.4-2 0.2 0.7 1.1 1.4 0.3 2-0.2zm-22.1 4.1q0 0 0 0 0 0.1 0 0.1 0 0 0 0 0 0 0-0.1zm4.1 11.2q0 0 0 0zm0.3-0.3q0 0 0-0.1-0.1 0.2-0.3 0.4 0.2-0.2 0.3-0.3zm0-0.8q0 0.1 0 0.2 0-0.1 0-0.2zm0 0.2q0 0.3 0 0.5 0 0 0 0 0-0.2 0-0.3 0-0.1 0-0.2zm6.5-38.3c0.2-0.1 0.2-0.5 0.4-0.8-1.1-0.1-2.2-0.2-3.3-0.2-0.3 0-0.6 0.2-0.5 1.2 1.1 0.9 2.3 0.6 3.4-0.2zm0.4-0.8q0 0 0.1 0-0.1-0.1-0.1-0.1 0 0 0 0.1 0 0 0 0zm0.1 0c0.2 0.2 0.4 0.6 0.7 0.7 0.1 0.1 0.3-0.2 0.4-0.4-0.1-0.1-0.2-0.4-0.3-0.4-0.3 0-0.6 0-0.8 0.1zm177.3 36.5c0.4 0.1 0.8-0.2 1.8-0.3-0.6-0.7-0.8-1.1-1-1.1q-5.1-0.7-10.1-1.4c-0.3 0-0.6 0.3-0.9 0.4 0 0 0 0.2-0.1 0.5 3.4 1.5 6.9 0.9 10.3 1.9zm-8.7-35.6c-1.2-1-1.8-0.9-2.7-0.5 0.3 1 0.6 1.7 0.8 2.5 0.6-0.6 1.1-1.1 1.9-2zm20.8 52.2c-1.2-1.8-2.4-1.9-3.9-0.3 1.4 1.5 2.6 0.8 3.9 0.3zm-192.3-30.6q-0.1-0.1-0.2-0.2c0 0.1-0.1 0.1-0.1 0.2 0 0.1 0 0.2 0 0.3q0.1-0.1 0.3-0.2zm206-5.7q0-0.1-0.1-0.2c0 0.1-0.1 0.2-0.1 0.2 0 0.1 0.1 0.2 0.1 0.2 0.1 0 0.1-0.1 0.1-0.2zm-40.1 16.6q0 0.3 0.1 0.7c0.1-0.2 0.3-0.2 0.3-0.4 0.1-0.1 0-0.4-0.1-0.6q-0.2 0.1-0.3 0.3zm-145.1-10.2q-0.1 0.2-0.2 0.5c0 0.1 0.1 0.2 0.1 0.2 0.1 0 0.2-0.1 0.3-0.2q-0.1-0.3-0.2-0.5zm18.3-39.3q0 0.3 0 0.6c0.1-0.1 0.1-0.3 0.1-0.3 0-0.1-0.1-0.1-0.1-0.3zm45.2 47.2l0.2 0.1-0.1-0.3-0.1 0.2zm103.7 15.4c0 0 0.1 0.1 0.2 0.2q-0.1-0.3-0.1-0.5c0 0.1-0.1 0.3-0.1 0.3z"/>
	<path id="Layer" class="s0" d="m234.5 32.2c-0.6 0.6-1.2 1.2-1.8 1.7-0.4 0.4-0.9 0.8-1.4 1.1-0.8 0.4-1.4 0.1-1.6-0.7-0.3-1.1 0.2-3.3 0.9-3.9 1.1-0.9 2.2-1.6 3.2-2.3 0.6 0.6 0.4 1.3 0.3 2-0.1 0.9 0.1 1.6 0.5 2.2l-0.1-0.1z"/>
	<path id="Layer" class="s0" d="m221.9 34c-0.2 1.6 0.5 3.2 0 4.7-0.2 0.1-0.3 0.1-0.3 0.1q-0.2-1.5-0.5-3.1 0.4-0.9 0.8-1.7z"/>
	<path id="Layer" class="s0" d="m232.8 40.4c0.9-0.4 1.7-1.7 2.8-1.2q-1.1 1.5-1.6 3.2-0.6-1-1.2-2z"/>
	<path id="Layer" class="s0" d="m222.5 21.1q-0.5 1.9-1.7 2.1c0.4-1.4 1.5-0.4 1.7-2.1z"/>
	<path id="Layer" class="s0" d="m226.9 19.3c-0.3 0.6-0.4 1.9-1.2 1.3q0.7-0.7 1.2-1.3z"/>
	<path id="Layer" class="s0" d="m223 37.1q-0.6-1.6-1.1-3.1c0.3 0.6 0.7 0.6 0.9-0.3v0.1q0.1 1.7 0.2 3.4v-0.1z"/>
	<path id="Layer" class="s0" d="m223.8 14.6c0 0 0.1 0.1 0.2 0.1-0.1 0.1-0.1 0.3-0.1 0.2q-0.1-0.1-0.2-0.2 0-0.1 0.1-0.1z"/>
	<path id="Layer" class="s0" d="m223 37.1c0.2 1.7 0.8 1 1.3 0.8v0.1q-0.7-0.4-1.3-0.8z"/>
	<path id="Layer" class="s0" d="m143 89.8q-0.3-0.2-0.5-0.4 0 0 0-0.1 0.3 0.1 0.6 0.3-0.1 0.1-0.1 0.2z"/>
	<path id="Layer" class="s0" d="m6.3 31.7h0.2l-0.1 0.2z"/>
	<path id="Layer" class="s0" d="m217.6 17.7c0 0 0-0.2 0.1-0.2 0 0 0.1 0.1 0.1 0.2 0 0.1-0.1 0.2-0.1 0.2 0 0-0.1-0.1-0.1-0.2z"/>
	<path id="Layer" class="s0" d="m69.3 0.6c0 0 0.1 0.2 0.2 0.2-0.1 0.1-0.2 0.1-0.3 0.2 0 0 0-0.2-0.1-0.3q0.1 0 0.2-0.1z"/>
	<path id="Layer" class="s0" d="m228.5 20.1q0-0.3 0.1-0.7 0-0.1 0-0.3c0 0.1 0.1 0.3 0 0.4 0 0.2-0.1 0.4-0.1 0.6z"/>
	<path id="Layer" class="s0" d="m227.2 34.9h-0.2l0.1-0.3z"/>
	<path id="Layer" class="s0" d="m120.9 87.3l0.1 0.2h-0.1z"/>
	<path id="Layer" class="s0" d="m145.2 89.2q-0.1 0.3-0.2 0.5c-0.1 0.1-0.2 0.2-0.2 0.2-0.1 0-0.1-0.1-0.2-0.2q0.2-0.1 0.3-0.2 0.2-0.2 0.3-0.4z"/>
	<path id="Layer" class="s0" d="m196.6 18.8c0 0 0-0.1 0.1-0.2 0 0.1 0.1 0.1 0.1 0.2 0 0.1-0.1 0.2-0.1 0.3q-0.1-0.2-0.1-0.3z"/>
	<path id="Layer" class="s0" d="m208.8 18.8c0 0 0.1 0.2 0.1 0.2q0 0.2 0 0.3-0.1-0.1-0.2-0.3 0-0.1 0.1-0.2z"/>
	<path id="Layer" class="s0" d="m66.6 0l-0.1 0.1c0.1 0 0.2-0.1 0.2 0 0.1 0 0.1 0.2 0.1 0.3q-0.1-0.2-0.2-0.4z"/>
	<path id="Layer" class="s0" d="m99.9 85l-0.1-0.2h0.1z"/>
	<path id="Layer" class="s0" d="m124.7 87.7l0.1 0.2h-0.2z"/>
	<path id="Layer" class="s0" d="m145.2 89.1q0.2 0.2 0.3 0.4-0.1-0.1-0.3-0.3v-0.1z"/>
	<path id="Layer" class="s0" d="m205 17q0.2 0.2 0.4 0.4-0.2-0.2-0.5-0.4z"/>
	<path id="Layer" class="s0" d="m214.3 43.4c0 0-0.1 0-0.1 0.1q0.1-0.1 0.2-0.2z"/>
	<path id="Layer" class="s0" d="m216.3 24.7c0.2 0 0.4 0 0.1 0 0.3 0.1 0.1 0 0 0h-0.1z"/>
	<path id="Layer" class="s0" d="m214.3 43.4c0.1 0 0.2-0.1 0.2 0 0.1 0 0.1 0.1 0.1 0.2q-0.1-0.1-0.2-0.3z"/>
	<path id="Layer" class="s0" d="m223.6 21.2q-0.6-0.1-1.2-0.1c0.4 0.3 0.8 0.6 1.2 0z"/>
	<path id="Layer" class="s0" d="m223.6 21.1q0.2 0 0.4 0-0.2 0-0.4 0.1z"/>
	<path id="Layer" class="s0" d="m222.8 33.7q0.1 0.2 0.3 0.4-0.2-0.1-0.3-0.3v-0.1z"/>
	<path id="Layer" class="s0" d="m223.2 40.3q-0.1 0.2-0.2 0.4 0-0.1 0-0.3c0 0 0.1-0.1 0.1-0.1z"/>
	<path id="Layer" class="s0" d="m223.2 40.3l-0.1 0.1c0.1 0 0.2-0.1 0.2 0 0.1 0 0.1 0.2 0.1 0.2l-0.2-0.3z"/>
	<path id="Layer" class="s0" d="m224.3 38v-0.1q0.1 0 0.2 0c-0.1 0.1-0.2 0.1-0.2 0.1z"/>
	<path id="Layer" class="s0" d="m227 19.3q0.7 0.4 1.5 0.8-0.8-0.4-1.5-0.8z"/>
	<path id="Layer" class="s0" d="m234.6 32.3l-0.1-0.1q0.2-0.1 0.3-0.1-0.1 0.1-0.2 0.2z"/>
	<path id="Layer" class="s0" d="m2.6 2.7q0 0.4-0.1 0.8 0-0.3 0.1-0.7z"/>
	<path id="Layer" class="s0" d="m181.3 16.5q-0.1 0.3-0.2 0.6 0.1-0.3 0.2-0.6z"/>
</svg>