<svg width="148" height="50" viewBox="0 0 148 50" fill="none" xmlns="http://www.w3.org/2000/svg">
<path d="M10.6117 9.38796C8.77327 8.55738 7.64991 8.01384 7.24159 7.75732C6.75065 7.43978 6.50518 7.02974 6.50518 6.5272C6.50518 5.1836 7.7216 4.5118 10.1544 4.5118C11.8827 4.5118 13.7539 4.91564 15.7679 5.72333V1.58524C13.0597 1.056 10.9901 0.791382 9.55905 0.791382C6.96383 0.791382 4.8586 1.35018 3.24335 2.46779C1.60911 3.59588 0.791992 5.237 0.791992 7.39115C0.791992 9.06374 1.3532 10.4483 2.47561 11.545C3.34163 12.3765 5.20235 13.3816 8.05776 14.5602C9.64831 15.2172 10.6373 15.7303 11.0247 16.0993C11.2066 16.2606 11.3515 16.4596 11.4494 16.6826C11.5472 16.9056 11.5958 17.1473 11.5916 17.3909C11.5916 18.766 10.2959 19.4535 7.70451 19.4535C5.82718 19.4535 3.66971 19.0683 1.23213 18.2978V22.5989C3.43688 23.1213 5.69418 23.3872 7.95947 23.3914C10.5955 23.3914 12.7416 22.8893 14.3977 21.8852C16.4412 20.6446 17.4629 18.8442 17.4629 16.4841C17.4629 14.842 16.9416 13.5032 15.899 12.4676C15.0216 11.595 13.2591 10.5685 10.6117 9.38796ZM20.8843 22.9508H26.9436V1.17043H20.8843V22.9508ZM38.3415 13.6219H46.7852V10.0273H38.3415V5.10969H48.0415V1.17043H32.5015V22.9508H48.2922V18.7898H38.3415V13.6219ZM65.5614 15.0866L60.1032 1.17043H52.2477V22.9508H56.5166V7.52989L62.7554 23.1725H66.5115L72.8742 7.52989V22.9508H78.6187V1.17043H71.1564L65.5614 15.0866ZM90.018 13.6219H98.4617V10.0273H90.018V5.10969H99.718V1.17043H84.1781V22.9508H99.9673V18.7898H90.018V13.6219ZM118.429 15.7503L110.979 1.17043H103.956V22.9508H108.226V8.17356L115.873 22.9508H122.698V1.17043H118.429V15.7503ZM136.379 9.38796C134.541 8.55738 133.418 8.01384 133.009 7.75732C132.518 7.43978 132.272 7.02974 132.272 6.5272C132.272 5.1836 133.489 4.5118 135.922 4.5118C137.65 4.5118 139.521 4.91564 141.535 5.72333V1.58524C138.827 1.056 136.757 0.791382 135.326 0.791382C132.731 0.791382 130.626 1.35018 129.01 2.46779C127.376 3.59588 126.559 5.237 126.559 7.39115C126.559 9.06374 127.12 10.4483 128.243 11.545C129.109 12.3765 130.969 13.3816 133.825 14.5602C135.416 15.2172 136.405 15.7303 136.792 16.0993C136.974 16.2606 137.119 16.4596 137.216 16.6826C137.314 16.9056 137.363 17.1473 137.359 17.3909C137.359 18.766 136.063 19.4535 133.472 19.4535C131.594 19.4535 129.437 19.0683 126.999 18.2978V22.5989C129.204 23.1213 131.461 23.3872 133.727 23.3914C136.363 23.3914 138.509 22.8893 140.165 21.8852C142.208 20.6446 143.23 18.8442 143.23 16.4841C143.23 14.842 142.709 13.5032 141.666 12.4676C140.789 11.595 139.026 10.5685 136.379 9.38796Z" fill="#009999"/>
<path d="M18.4401 27.8613C16.5456 27.754 14.6227 27.6825 12.6856 27.6825C10.7484 27.6825 8.8255 27.754 6.93107 27.8613C5.27829 27.9489 3.72153 28.6683 2.58003 29.8718C1.43852 31.0753 0.798783 32.6717 0.791992 34.3338V43.2021C0.798783 44.8641 1.43852 46.4606 2.58003 47.6641C3.72153 48.8676 5.27829 49.5869 6.93107 49.6746C8.8255 49.7818 10.7484 49.8534 12.6856 49.8534C14.6227 49.8534 16.5456 49.7818 18.4401 49.6746C20.0928 49.5869 21.6496 48.8676 22.7911 47.6641C23.9326 46.4606 24.5724 44.8641 24.5791 43.2021V42.7015H21.8016V43.2021C21.7959 44.1436 21.4335 45.0477 20.7879 45.7305C20.1424 46.4133 19.2621 46.8237 18.3261 46.8782C16.4602 46.9926 14.58 47.0641 12.6856 47.0641C10.7911 47.0641 8.91096 46.9926 7.04502 46.8782C6.109 46.8237 5.22876 46.4133 4.5832 45.7305C3.93764 45.0477 3.5752 44.1436 3.56953 43.2021V34.3338C3.5752 33.3922 3.93764 32.4882 4.5832 31.8054C5.22876 31.1226 6.109 30.7122 7.04502 30.6577C8.91096 30.5433 10.7911 30.4717 12.6856 30.4717C14.58 30.4717 16.4602 30.5433 18.3261 30.6577C19.2621 30.7122 20.1424 31.1226 20.7879 31.8054C21.4335 32.4882 21.7959 33.3922 21.8016 34.3338V37.3375H10.3353V40.1983H24.5791V34.3338C24.5724 32.6717 23.9326 31.0753 22.7911 29.8718C21.6496 28.6683 20.0928 27.9489 18.4401 27.8613ZM43.3881 27.8971C41.8569 27.7683 40.2901 27.6825 38.7304 27.6825C37.1707 27.6825 35.6038 27.7683 34.0741 27.8971C32.4729 28.0457 30.9839 28.7868 29.8965 29.9764C28.809 31.166 28.2008 32.719 28.1899 34.3338V49.6388H30.9675V34.3338C30.9734 33.394 31.3333 32.4914 31.9749 31.8073C32.6164 31.1232 33.4921 30.7084 34.4259 30.6462C35.8417 30.5475 37.2775 30.4717 38.7304 30.4717C40.1832 30.4717 41.6204 30.5433 43.0363 30.6462C43.9697 30.7087 44.8451 31.1237 45.4864 31.8078C46.1277 32.4918 46.4874 33.3943 46.4932 34.3338V49.6388H49.2708V34.3338C49.26 32.7192 48.6519 31.1664 47.5648 29.9768C46.4776 28.7873 44.989 28.0461 43.3881 27.8971ZM70.4442 27.8613C68.5498 27.754 66.6268 27.6825 64.6897 27.6825C62.7525 27.6825 60.8296 27.754 58.9352 27.8613C57.2824 27.9489 55.7257 28.6683 54.5841 29.8718C53.4426 31.0753 52.8029 32.6717 52.7961 34.3338V43.2021C52.8029 44.8641 53.4426 46.4606 54.5841 47.6641C55.7257 48.8676 57.2824 49.5869 58.9352 49.6746C60.8296 49.7818 62.7525 49.8534 64.6897 49.8534C66.6268 49.8534 68.5498 49.7818 70.4442 49.6746C72.097 49.5869 73.6537 48.8676 74.7952 47.6641C75.9367 46.4606 76.5765 44.8641 76.5833 43.2021V42.7015H73.8057V43.2021C73.8 44.1436 73.4376 45.0477 72.7921 45.7305C72.1465 46.4133 71.2663 46.8237 70.3302 46.8782C68.4643 46.9926 66.5841 47.0641 64.6897 47.0641C62.7953 47.0641 60.9151 46.9926 59.0491 46.8782C58.1131 46.8237 57.2329 46.4133 56.5873 45.7305C55.9418 45.0477 55.5793 44.1436 55.5737 43.2021V34.3338C55.5793 33.3922 55.9418 32.4882 56.5873 31.8054C57.2329 31.1226 58.1131 30.7122 59.0491 30.6577C60.9151 30.5433 62.7953 30.4717 64.6897 30.4717C66.5841 30.4717 68.4643 30.5433 70.3302 30.6577C71.2663 30.7122 72.1465 31.1226 72.7921 31.8054C73.4376 32.4882 73.8 33.3922 73.8057 34.3338V37.3375H62.3395V40.1983H76.5833V34.3338C76.5765 32.6717 75.9367 31.0753 74.7952 29.8718C73.6537 28.6683 72.097 27.9489 70.4442 27.8613ZM80.4989 34.3323V49.6374H83.2764V34.3323C83.2764 32.377 84.8746 30.6849 86.8046 30.6849H92.4637V27.8942H86.7078C83.6824 27.8971 80.4989 30.5318 80.4989 34.3323ZM112.107 27.8613C110.213 27.754 108.29 27.6825 106.353 27.6825C104.416 27.6825 102.493 27.754 100.598 27.8613C98.9455 27.9489 97.3888 28.6683 96.2473 29.8718C95.1058 31.0753 94.466 32.6717 94.4592 34.3338V43.2021C94.466 44.8641 95.1058 46.4606 96.2473 47.6641C97.3888 48.8676 98.9455 49.5869 100.598 49.6746C102.493 49.7818 104.416 49.8534 106.353 49.8534C108.29 49.8534 110.213 49.7818 112.107 49.6746C113.76 49.5869 115.317 48.8676 116.458 47.6641C117.6 46.4606 118.24 44.8641 118.246 43.2021V37.3375H104.003V40.1983H115.469V43.2021C115.463 44.1436 115.101 45.0477 114.455 45.7305C113.81 46.4133 112.929 46.8237 111.993 46.8782C110.127 46.9926 108.247 47.0641 106.353 47.0641C104.458 47.0641 102.578 46.9926 100.712 46.8782C99.7762 46.8237 98.896 46.4133 98.2504 45.7305C97.6049 45.0477 97.2424 44.1436 97.2368 43.2021V34.3338C97.2424 33.3922 97.6049 32.4882 98.2504 31.8054C98.896 31.1226 99.7762 30.7122 100.712 30.6577C102.578 30.5433 104.458 30.4717 106.353 30.4717C108.247 30.4717 110.127 30.5433 111.993 30.6577C112.929 30.7122 113.81 31.1226 114.455 31.8054C115.101 32.4882 115.463 33.3922 115.469 34.3338V34.8344H118.246V34.3338C118.24 32.6717 117.6 31.0753 116.458 29.8718C115.317 28.6683 113.76 27.9489 112.107 27.8613ZM143.23 27.8971H139.752L130.315 40.4701C129.475 41.5861 129.022 42.9475 129.025 44.3464V49.6388H131.802V44.3464C131.801 43.5528 132.059 42.7806 132.536 42.1479L143.23 27.8971ZM122.188 27.8971H118.561L128.455 39.7363L130.17 37.4491L122.188 27.8971Z" fill="#641E8C"/>
</svg>
