<svg width="187" height="57" viewBox="0 0 187 57" fill="none" xmlns="http://www.w3.org/2000/svg">
<path fill-rule="evenodd" clip-rule="evenodd" d="M69.9434 36.4239V22.6816H71.7152L80.1371 33.7409V22.6816H81.8215V36.4239H80.0496L71.6277 25.2556V36.4239H69.9434ZM95.5371 35.8786C94.4215 36.2931 93.2184 36.5112 91.9496 36.5112C86.9621 36.5112 84.4684 34.1335 84.4684 29.3564C84.4684 24.8411 86.8746 22.5725 91.6871 22.5725C93.0652 22.5725 94.3559 22.7688 95.5371 23.1397V24.6666C94.3559 24.2085 93.1309 23.9904 91.884 23.9904C88.1215 23.9904 86.2402 25.7791 86.2402 29.3128C86.2402 33.1301 88.0996 35.0279 91.7965 35.0279C92.3871 35.0279 93.0434 34.9406 93.7652 34.7879V30.1854H95.5371V35.8786V35.8786ZM98.3809 31.1233V22.6816H100.153V31.1233C100.153 33.7627 101.465 35.0933 104.112 35.0933C106.737 35.0933 108.071 33.7627 108.071 31.1233V22.6816H109.843V31.1233C109.843 34.7225 107.94 36.533 104.112 36.533C100.284 36.533 98.3809 34.7225 98.3809 31.1233V31.1233ZM114.787 22.6816V34.9843H122.006V36.4239H113.015V22.6816H114.787V22.6816ZM124.565 36.4239H122.706L129.553 20.8711L136.4 36.4239H134.431L132.659 32.1049H128.109L128.59 30.6652H132.068L129.487 24.4485L124.565 36.4239V36.4239ZM138.303 36.4239V22.6816H144.187C146.812 22.6816 148.125 23.7723 148.125 25.9754C148.125 27.7641 146.834 29.0947 144.275 29.9454L149 36.4239H146.659L142.284 30.2508V29.0947C144.909 28.6802 146.243 27.6768 146.243 26.0626C146.243 24.7975 145.521 24.1649 144.056 24.1649H140.118V36.4239H138.303V36.4239Z" fill="#3F4363"/>
<path fill-rule="evenodd" clip-rule="evenodd" d="M37 19.017L51.1094 14L65.5906 18.9298L63.25 37.5365L51.1094 44.2332L39.1656 37.6237L37 19.017Z" fill="#6F728A"/>
<path fill-rule="evenodd" clip-rule="evenodd" d="M65.5906 18.9298L51.1094 14V44.2332L63.25 37.5365L65.5906 18.9298V18.9298Z" fill="#3F4363"/>
<path fill-rule="evenodd" clip-rule="evenodd" d="M51.1316 17.5337L42.3379 37.0347L45.6191 36.9693L47.391 32.563H55.2441L57.1691 37.0129L60.2973 37.0784L51.1316 17.5337V17.5337ZM51.1535 23.7941L54.1285 29.9891H48.5504L51.1535 23.7941V23.7941Z" fill="white"/>
</svg>
