<svg width="187" height="57" viewBox="0 0 187 57" fill="none" xmlns="http://www.w3.org/2000/svg">
<path d="M106.986 15.7723C106.986 14.9295 106.761 14.5957 105.962 14.3249C102.97 13.3093 99.9853 12.2741 96.9971 11.2487C95.1757 10.6234 93.3641 9.97095 91.5318 9.38049C89.7202 8.79655 87.9771 7.98316 86.0752 7.68848H85.5054C84.9029 7.8244 84.2929 7.91357 83.7003 8.11257C77.7608 10.1058 71.8214 12.0979 65.8722 14.0596C64.9566 14.3608 64.7119 14.5827 64.7119 15.6646C64.7184 23.3265 64.7152 30.9873 64.7152 38.6492C64.7152 38.758 64.713 38.8667 64.7152 38.9754C64.7293 39.4789 64.9283 39.8617 65.4089 40.0726C65.7069 40.2042 65.9766 40.3913 66.2658 40.5402C68.7843 41.8375 71.2864 43.1685 73.8016 44.4734C76.0884 45.6598 78.3676 46.8603 80.6533 48.0488C81.507 48.4925 82.366 48.9285 83.2131 49.3841C83.971 49.7919 84.7094 50.2682 85.5869 50.4063H86.1567C86.6602 50.2943 87.1321 50.1062 87.5943 49.8735C90.85 48.2282 94.0927 46.5558 97.3484 44.9094C100.229 43.4523 103.083 41.9441 105.991 40.5413C106.72 40.1901 107.003 39.6997 107 38.883C106.977 31.1798 106.986 23.4766 106.986 15.7723ZM84.7583 47.1865C84.7583 47.2539 84.7518 47.3213 84.7485 47.4029C84.5713 47.4148 84.4756 47.3278 84.3712 47.2735C78.6927 44.307 73.0176 41.3362 67.3358 38.3774C67.0585 38.2327 66.9531 38.0859 66.9531 37.763C66.9639 31.0384 66.9618 24.3128 66.9618 17.5883C66.9618 17.0978 66.9629 17.0957 67.4272 17.3066C73.0861 19.8762 78.7439 22.4457 84.4027 25.012C84.6246 25.1121 84.7692 25.2045 84.7681 25.5035C84.7572 32.7315 84.7594 39.9585 84.7594 47.1865H84.7583ZM85.5641 23.1188C80.1673 20.6602 74.7672 18.2103 69.3693 15.7571C69.2616 15.7081 69.1605 15.6483 69.0007 15.5635C70.622 15.0209 72.1813 14.4968 73.7418 13.9759C77.6303 12.6775 81.52 11.3791 85.4086 10.0808C85.6283 10.0079 85.8283 9.96334 86.0719 10.0482C91.522 11.9294 96.9754 13.7997 102.428 15.6733C102.516 15.7038 102.601 15.744 102.738 15.8006C101.42 16.3834 100.147 16.9467 98.874 17.5089C94.6385 19.3792 90.402 21.2463 86.1698 23.1232C85.9501 23.22 85.7827 23.2178 85.5663 23.1188H85.5641ZM104.389 38.6296C98.688 41.52 92.9922 44.4234 87.2963 47.3246C87.2039 47.3713 87.1093 47.4148 86.9679 47.4833V46.9951C86.9679 39.8758 86.9701 32.7555 86.9614 25.6362C86.9614 25.3132 87.0386 25.1414 87.3551 25.0033C92.9824 22.5316 98.6043 20.0447 104.227 17.5622C104.361 17.5034 104.498 17.4523 104.696 17.3719V17.797C104.696 24.5499 104.696 31.3027 104.7 38.0555C104.7 38.3176 104.667 38.4894 104.39 38.6296H104.389Z" fill="#3F4363"/>
<path d="M79.6139 32.825C79.9815 33.0849 80.3392 33.3035 80.6578 33.5699C81.9051 34.6127 82.6935 35.8796 82.5858 37.5835C82.4879 39.1255 81.4201 40.2085 79.8825 40.3118C79.0854 40.3651 78.3145 40.2379 77.562 39.99C75.4535 39.2962 73.4342 38.4208 71.7052 36.9865C70.4438 35.9405 69.5325 34.6486 69.0399 33.074C69.016 32.999 69.0008 32.9207 68.9834 32.8479C69.1052 32.7522 69.202 32.8392 69.2987 32.8653C70.6036 33.2252 71.9053 33.5949 73.2123 33.9429C73.4744 34.0125 73.5766 34.1441 73.6299 34.4007C73.9409 35.8948 74.8522 36.8191 76.3343 37.1529C77.2216 37.353 77.8588 36.8669 77.9545 35.9666C78.0818 34.7715 77.5065 33.7374 76.3767 33.1317C75.8558 32.8522 75.2958 32.7 74.7141 32.6304C74.4694 32.601 74.3965 32.5021 74.4335 32.2596C74.5346 31.5886 74.6216 30.9155 74.7054 30.2424C74.7347 30.0043 74.8119 29.9553 75.0381 30.0695C75.4024 30.2533 75.7917 30.3664 76.2092 30.3631C77.1727 30.3566 77.6849 29.6802 77.4174 28.757C77.1422 27.8077 75.7895 27.0128 74.8228 27.2162C74.2802 27.3303 74.0355 27.7229 73.8974 28.1937C73.8191 28.4602 73.7376 28.4645 73.5125 28.3525C72.288 27.7436 71.0604 27.1411 69.824 26.5583C69.5576 26.4321 69.5293 26.3234 69.6663 26.0776C70.4155 24.7412 71.6345 24.2802 73.0601 24.3628C75.4317 24.5009 77.6261 25.2588 79.6052 26.5702C80.8035 27.364 81.6757 28.446 81.9388 29.914C82.215 31.4516 81.5571 32.4075 80.0347 32.7282C79.9053 32.7554 79.777 32.787 79.6128 32.825H79.6139Z" fill="#3F4363"/>
<path d="M102.77 28.7552C102.642 27.7112 102.448 26.688 101.925 25.7613C101.223 24.5202 100.162 23.9283 98.7268 24.0419C98.1401 24.088 97.5732 24.2327 97.0395 24.4643C94.854 25.4131 92.6798 26.3851 90.4974 27.3395C90.289 27.431 90.278 27.5754 90.2723 27.7601C90.1651 31.9149 90.1231 36.0706 90.105 40.227C90.1022 40.7774 90.0733 41.327 90.0578 41.8324C90.2281 41.917 90.2832 41.8611 90.3406 41.8335C92.5906 40.731 94.8457 39.6418 97.0856 38.5173C98.1419 37.9874 99.1357 37.3369 99.9973 36.5236C102.235 34.4123 103.146 31.8119 102.771 28.7542L102.77 28.7552ZM98.2192 33.7121C97.9405 34.353 97.521 34.8688 96.9327 35.2478C96.1458 35.7555 95.2842 36.1054 94.3878 36.4934C94.3919 35.052 94.3921 33.6682 94.3999 32.2846C94.406 31.2393 94.4305 30.1935 94.429 29.1468C94.4292 28.8944 94.4986 28.7617 94.7451 28.6681C95.4397 28.4055 96.0994 28.0396 96.8614 27.988C97.6332 27.9367 98.061 28.2121 98.316 28.9423C98.5379 29.578 98.5881 30.2442 98.5959 30.9092C98.608 31.8593 98.6091 32.8124 98.2181 33.712L98.2192 33.7121Z" fill="#3F4363"/>
</svg>
