<svg width="187" height="57" viewBox="0 0 187 57" fill="none" xmlns="http://www.w3.org/2000/svg">
<g clip-path="url(#clip0_1889_13379)">
<path d="M65.9937 22.6293H67.7641V31.6139C67.7641 33.9929 66.722 35.6362 64.2818 35.6362C63.5599 35.647 62.8415 35.5335 62.1582 35.3006V33.5784C62.7412 33.8045 63.3617 33.9184 63.9869 33.9141C65.4815 33.9141 65.9981 33.0194 65.9981 31.7307L65.9937 22.6293ZM70.9881 21.939C71.1484 21.9285 71.3091 21.9517 71.4599 22.007C71.6107 22.0623 71.7482 22.1485 71.8638 22.26C71.9757 22.3723 72.0623 22.5072 72.1177 22.6558C72.1731 22.8043 72.196 22.963 72.1849 23.1211C72.1845 23.4342 72.06 23.7343 71.8386 23.9556C71.6173 24.177 71.3172 24.3015 71.0042 24.3019C70.6911 24.3015 70.391 24.177 70.1697 23.9556C69.9483 23.7343 69.8238 23.4342 69.8234 23.1211C69.813 22.9609 69.8362 22.8002 69.8915 22.6494C69.9468 22.4986 70.033 22.361 70.1445 22.2455C70.2568 22.1335 70.3917 22.0469 70.5402 21.9915C70.6888 21.9361 70.8475 21.9132 71.0056 21.9244L70.9881 21.939ZM70.1226 25.7161H71.8156V35.5501H70.1226V25.7161Z" fill="#3F4363"/>
<path d="M74.3701 25.7129H76.0223V27.4424C76.6061 26.2821 77.5868 25.4575 79.5046 25.5742V27.2264C77.3416 27.0031 76.0223 27.6598 76.0223 29.7425V35.5513H74.3701V25.7129Z" fill="#3F4363"/>
<path d="M87.4265 33.7768C86.796 35.0903 85.6167 35.7442 84.1032 35.7442C81.4878 35.7442 80.1699 33.5228 80.1699 30.6301C80.1699 27.8571 81.5462 25.5161 84.3003 25.5161C85.7349 25.5161 86.8369 26.1641 87.4294 27.4426V25.7131H89.1224V35.5471H87.4294L87.4265 33.7768ZM84.5542 34.1708C86.0692 34.1708 87.4265 33.2076 87.4265 31.0242V30.2288C87.4265 28.0454 86.1888 27.0821 84.744 27.0821C82.8349 27.0821 81.8542 28.3402 81.8542 30.6228C81.8629 32.9916 82.8058 34.1723 84.5586 34.1723L84.5542 34.1708ZM99.1316 35.7442C96.6329 35.7442 95.4727 35.2523 94.47 34.74V32.9303C95.6697 33.5608 97.5349 34.0103 99.2279 34.0103C101.175 34.0103 101.91 33.2441 101.91 32.1013C101.91 30.9585 101.203 30.3499 98.7434 29.7617C95.8244 29.0539 94.5357 28.0497 94.5357 25.9262C94.5357 23.915 96.0681 22.4263 99.079 22.4263C100.947 22.4263 102.147 22.8729 103.02 23.3692V25.1585C101.789 24.4806 100.402 24.1411 98.9973 24.1748C97.3043 24.1748 96.3016 24.7644 96.3016 25.9452C96.3016 27.0062 97.1292 27.5389 99.4074 28.1081C102.141 28.797 103.676 29.6727 103.676 32.002C103.662 34.2438 102.326 35.7588 99.1199 35.7588L99.1316 35.7442ZM105.169 30.6097C105.169 27.6615 106.899 25.5015 109.85 25.5015C112.801 25.5015 114.491 27.6469 114.491 30.6097C114.491 33.5724 112.779 35.75 109.85 35.75C106.921 35.75 105.169 33.5608 105.169 30.6097ZM106.822 30.6097C106.822 32.4778 107.747 34.1708 109.85 34.1708C111.953 34.1708 112.842 32.4778 112.842 30.6097C112.842 28.7415 111.937 27.0982 109.85 27.0982C107.763 27.0982 106.829 28.7415 106.829 30.6097H106.822ZM118.797 25.7131H121.333V27.2777H118.797V35.5471H117.145V27.2777H115.545V25.7131H117.139V24.6404C117.139 22.8116 118.16 21.5725 120.268 21.5725C120.653 21.5711 121.037 21.6236 121.406 21.7287V23.2933C121.057 23.227 120.701 23.1942 120.345 23.1955C119.303 23.1955 118.781 23.8056 118.781 24.69L118.797 25.7131ZM127.057 33.895C127.415 33.885 127.77 33.8385 128.118 33.7563V35.3881C127.748 35.494 127.364 35.5466 126.979 35.5442C124.874 35.5442 123.849 34.3066 123.849 32.4764V27.2864H122.25V25.7219H123.844V23.626H125.496V25.7131H128.111V27.2777H125.496V32.4559C125.505 33.3214 126.017 33.911 127.057 33.911V33.895ZM128.593 25.7131H130.461L133.292 34.0512L136.162 25.7131H137.776L140.648 34.0512L143.482 25.7131H145.351L141.731 35.5471H139.568L137.875 30.7892L136.98 27.7608L136.086 30.7892L134.371 35.5471H132.208L128.593 25.7131ZM153.074 33.7768C152.444 35.0903 151.264 35.7442 149.751 35.7442C147.136 35.7442 145.818 33.5228 145.818 30.6301C145.818 27.8571 147.194 25.5161 149.948 25.5161C151.383 25.5161 152.485 26.1641 153.077 27.4426V25.7131H154.77V35.5471H153.077L153.074 33.7768ZM150.202 34.1708C151.717 34.1708 153.074 33.2076 153.074 31.0242V30.2288C153.074 28.0454 151.837 27.0821 150.392 27.0821C148.491 27.0996 147.502 28.3489 147.502 30.6316C147.502 32.9916 148.451 34.1723 150.202 34.1723V34.1708Z" fill="#3F4363"/>
<path d="M157.324 25.7129H158.976V27.4424C159.56 26.2821 160.541 25.4575 162.459 25.5742V27.2264C160.296 27.0031 158.976 27.6598 158.976 29.7425V35.5513H157.324V25.7129Z" fill="#3F4363"/>
<path d="M168.416 35.7441C164.738 35.7441 163.125 33.6206 163.125 30.6038C163.125 27.6338 164.777 25.4956 167.766 25.4956C170.795 25.4956 171.999 27.6002 171.999 30.6038V31.37H164.822C165.059 33.0412 166.14 34.1241 168.461 34.1241C169.481 34.1235 170.493 33.9436 171.451 33.5928V35.1574C170.644 35.5953 169.404 35.7456 168.386 35.7456L168.416 35.7441ZM164.818 29.9354H170.3C170.202 28.1066 169.375 27.0631 167.684 27.0631C165.898 27.0543 164.993 28.219 164.817 29.9237L164.818 29.9354Z" fill="#3F4363"/>
<path d="M57.6902 27.3839L36.1092 5.80298L14.5283 27.3839C14.19 27.7236 14 28.1835 14 28.663C14 29.1424 14.19 29.6023 14.5283 29.942L36.1092 51.523L57.6902 29.942C58.0285 29.6023 58.2184 29.1424 58.2184 28.663C58.2184 28.1835 58.0285 27.7236 57.6902 27.3839V27.3839ZM36.1092 35.4198L29.3501 28.6607L36.1092 21.9016L42.8683 28.6607L36.1092 35.4198Z" fill="#6F728A"/>
<path d="M36.1089 21.9464C33.983 19.8208 32.7846 16.9403 32.7754 13.934C32.7662 10.9277 33.947 8.03997 36.0598 5.90137L21.2246 20.6428L29.2739 28.6921L36.1089 21.9464Z" fill="#3F4363"/>
<path d="M42.8863 28.6428L36.1094 35.4198C37.1669 36.4766 38.0057 37.7314 38.5781 39.1126C39.1504 40.4937 39.445 41.9741 39.445 43.4691C39.445 44.9641 39.1504 46.4445 38.5781 47.8257C38.0057 49.2068 37.1669 50.4616 36.1094 51.5184L50.9312 36.6966L42.8863 28.6428Z" fill="#3F4363"/>
</g>
<defs>
<clipPath id="clip0_1889_13379">
<rect width="154.959" height="45" fill="white" transform="translate(17 9)"/>
</clipPath>
</defs>
</svg>
