<svg width="187" height="57" viewBox="0 0 187 57" fill="none" xmlns="http://www.w3.org/2000/svg">
<path fill-rule="evenodd" clip-rule="evenodd" d="M47.7941 39.8887C47.7941 39.8887 46.2192 40.8051 48.9161 41.1147C52.1841 41.4878 53.8534 41.4341 57.4536 40.7531C57.4536 40.7531 58.4014 41.3466 59.7245 41.86C51.6515 45.3193 41.454 41.6599 47.7941 39.8887ZM46.8073 35.3745C46.8073 35.3745 45.0405 36.6822 47.7397 36.9613C51.2308 37.3219 53.9864 37.3513 58.7579 36.4332C58.7579 36.4332 59.4167 37.1019 60.4535 37.4672C50.6941 40.3218 39.8247 37.692 46.8073 35.3745Z" fill="#6F728A"/>
<path fill-rule="evenodd" clip-rule="evenodd" d="M55.1229 27.7162C57.113 30.007 54.6012 32.0672 54.6012 32.0672C54.6012 32.0672 59.6521 29.4603 57.3322 26.1947C55.1663 23.1507 53.5049 21.6384 62.4981 16.4233C62.4977 16.423 48.3812 19.9476 55.1229 27.7162Z" fill="#3F4363"/>
<path fill-rule="evenodd" clip-rule="evenodd" d="M65.7991 43.2278C65.7991 43.2278 66.9649 44.189 64.515 44.9323C59.8565 46.3433 45.1222 46.7688 41.0294 44.9884C39.5592 44.348 42.3176 43.4604 43.1854 43.2729C44.0905 43.0773 44.607 43.1128 44.607 43.1128C42.9709 41.9608 34.0318 45.3756 40.0672 46.3552C56.5245 49.0237 70.0674 45.1539 65.7991 43.2278ZM48.5513 30.6967C48.5513 30.6967 41.0574 32.4771 45.898 33.1243C47.9425 33.3976 52.015 33.3347 55.8116 33.0162C58.9134 32.7559 62.0269 32.199 62.0269 32.199C62.0269 32.199 60.934 32.668 60.1421 33.2078C52.5309 35.2098 37.8297 34.2774 42.0624 32.2308C45.6411 30.4996 48.5513 30.6967 48.5513 30.6967ZM61.9957 38.2107C69.7321 34.1915 66.1552 30.3283 63.6578 30.8489C63.0472 30.9765 62.7732 31.0866 62.7732 31.0866C62.7732 31.0866 63.0011 30.7302 63.4341 30.577C68.3738 28.841 72.1721 35.6983 61.8415 38.4139C61.8411 38.4139 61.9602 38.3065 61.9957 38.2107Z" fill="#6F728A"/>
<path fill-rule="evenodd" clip-rule="evenodd" d="M57.3307 8C57.3307 8 61.6144 12.2864 53.2667 18.8755C46.5722 24.1631 51.7404 27.177 53.2646 30.6219C49.3562 27.0963 46.4894 23.9921 48.4125 21.1037C51.2359 16.8639 59.0592 14.8077 57.3307 8Z" fill="#3F4363"/>
<path fill-rule="evenodd" clip-rule="evenodd" d="M49.3132 49.1056C56.738 49.5804 68.142 48.8419 68.4125 45.3279C68.4125 45.3279 67.8933 46.6599 62.2756 47.7165C55.9375 48.9096 48.119 48.7707 43.4834 48.0055C43.4834 48.0055 44.4333 48.7916 49.3132 49.1056Z" fill="#6F728A"/>
<path fill-rule="evenodd" clip-rule="evenodd" d="M145.129 20.7182H144.644V20.4465H145.952V20.7182H145.467V22.075H145.129V20.7182ZM147.738 20.7857H147.732L147.251 22.0743H147.03L146.551 20.7857H146.545V22.0743H146.224V20.4458H146.696L147.139 21.5978L147.583 20.4458H148.05V22.0743H147.739V20.7857H147.738ZM102.259 36.008C100.756 37.3105 99.167 38.0432 97.7404 38.0432C95.7081 38.0432 94.6053 36.8222 94.6053 34.8685C94.6053 32.7533 95.786 31.2056 100.511 31.2056H102.258V36.008H102.259ZM106.407 40.6878V26.2005C106.407 22.4979 104.295 20.0545 99.2051 20.0545C96.2353 20.0545 93.6318 20.7879 91.5151 21.7226L92.1245 24.2886C93.7919 23.6763 95.9475 23.1088 98.0635 23.1088C100.996 23.1088 102.258 24.2886 102.258 26.7313V28.5632H100.792C93.6692 28.5632 90.4549 31.3267 90.4549 35.4816C90.4549 39.0616 92.5731 41.0968 96.5605 41.0968C99.1237 41.0968 101.038 40.0388 102.826 38.4904L103.151 40.6878H106.407ZM120.252 40.6878H115.079L108.851 20.423H113.369L117.235 32.8759L118.096 36.6174C120.046 31.2056 121.43 25.7115 122.122 20.423H126.515C125.339 27.0955 123.22 34.4214 120.252 40.6878ZM140.103 36.008C138.595 37.3105 137.006 38.0432 135.583 38.0432C133.551 38.0432 132.449 36.8222 132.449 34.8685C132.449 32.7533 133.631 31.2056 138.353 31.2056H140.103V36.008ZM144.252 40.6878V26.2005C144.252 22.4979 142.134 20.0545 137.049 20.0545C134.076 20.0545 131.473 20.7879 129.357 21.7226L129.966 24.2886C131.634 23.6763 133.794 23.1088 135.91 23.1088C138.838 23.1088 140.102 24.2886 140.102 26.7313V28.5632H138.636C131.512 28.5632 128.3 31.3267 128.3 35.4816C128.3 39.0616 130.414 41.0968 134.402 41.0968C136.968 41.0968 138.879 40.0388 140.672 38.4904L140.998 40.6878H144.252ZM85.9065 44.1313C84.7244 45.8588 82.8125 47.2267 80.7223 47.9983L78.6738 45.5857C80.2663 44.7685 81.6305 43.4492 82.2656 42.2216C82.8125 41.1276 83.0409 39.7209 83.0409 36.3538V13.2153H87.4498V36.0344C87.4498 40.5381 87.09 42.3581 85.9065 44.1313Z" fill="#3F4363"/>
</svg>
