<svg width="187" height="57" viewBox="0 0 187 57" fill="none" xmlns="http://www.w3.org/2000/svg">
<path d="M89.5848 20.8977C88.7955 20.873 88.1542 21.4897 88.1296 22.2543L88.1296 29.358C84.7504 26.6448 79.7926 27.1874 77.0793 30.5666C75.9694 31.9726 75.3527 33.6992 75.3527 35.4998C75.2787 39.8409 78.7319 43.4175 83.0731 43.4915C87.4142 43.5655 90.9908 40.1123 91.0648 35.7711L91.0648 22.353C91.0648 21.9583 90.9168 21.5883 90.6455 21.317C90.3495 21.0457 89.9795 20.8977 89.5848 20.8977ZM87.7349 37.399C87.2416 38.583 86.3043 39.5203 85.1203 40.0383C83.8871 40.5562 82.5058 40.5562 81.2725 40.0383C80.0885 39.545 79.1759 38.583 78.6826 37.4237C78.1646 36.2151 78.1646 34.8338 78.6826 33.6005C79.1759 32.4166 80.1132 31.4793 81.2725 30.986C82.5058 30.468 83.8871 30.468 85.1203 30.986C86.3043 31.5039 87.2416 32.4412 87.7349 33.6252C88.2529 34.8091 88.2529 36.1904 87.7349 37.399ZM105.988 29.95C102.929 26.8915 97.9465 26.8915 94.888 29.95C93.408 31.4299 92.594 33.4279 92.594 35.4998C92.52 39.8409 95.9732 43.4175 100.314 43.4915C104.656 43.5655 108.232 40.1123 108.306 35.7711L108.306 35.4998C108.306 34.4638 108.109 33.4525 107.714 32.4906C107.319 31.5286 106.727 30.6653 105.988 29.95ZM104.976 37.3744C104.73 37.9663 104.36 38.4843 103.916 38.9283C103.472 39.3723 102.929 39.7423 102.362 39.9889C101.128 40.5069 99.7471 40.5069 98.5138 39.9889C97.3299 39.4956 96.3926 38.5337 95.8992 37.3744C95.3813 36.1658 95.3813 34.7845 95.8992 33.5512C96.3926 32.3672 97.3299 31.4546 98.5138 30.9366C99.7471 30.4187 101.128 30.4187 102.362 30.9366C102.954 31.1833 103.472 31.5533 103.916 31.9973C104.36 32.4412 104.73 32.9839 104.976 33.5512C105.494 34.8091 105.494 36.1904 104.976 37.3744ZM138.472 29.0867C138.472 28.8894 138.423 28.6921 138.349 28.5194C138.275 28.3467 138.152 28.1987 138.028 28.0507C137.905 27.9274 137.732 27.8041 137.56 27.7301C137.387 27.6561 137.19 27.6068 136.992 27.6068C136.721 27.6068 136.45 27.6808 136.203 27.8288L127.817 33.2799L127.817 22.3776C127.817 21.983 127.669 21.613 127.397 21.3417C127.126 21.0704 126.756 20.8977 126.361 20.8977C125.547 20.8977 124.906 21.539 124.881 22.353L124.881 41.8635C124.881 42.2582 125.029 42.6282 125.301 42.8995C125.572 43.1955 125.942 43.3435 126.337 43.3435C126.731 43.3435 127.101 43.1955 127.373 42.8995C127.644 42.6282 127.817 42.2582 127.792 41.8635L127.792 36.8071L129.494 35.6971L135.981 42.9735C136.252 43.2201 136.598 43.3681 136.968 43.3435C137.165 43.3435 137.362 43.3188 137.535 43.2201C137.708 43.1462 137.856 43.0475 138.004 42.8995C138.127 42.7515 138.25 42.6035 138.324 42.4308C138.398 42.2582 138.448 42.0609 138.448 41.8635C138.448 41.4935 138.3 41.1236 138.053 40.8522L132.034 34.0692L137.905 30.246C138.3 29.9993 138.497 29.5554 138.472 29.0867ZM114.127 31.9973C114.571 31.5533 115.114 31.1833 115.706 30.9366C116.322 30.69 116.964 30.542 117.63 30.542C118.222 30.542 118.789 30.6406 119.332 30.838C119.874 31.06 120.392 31.3559 120.836 31.7506C121.108 31.9726 121.453 32.0713 121.798 32.0713C122.193 32.0959 122.588 31.9479 122.859 31.6519C123.13 31.3806 123.278 30.986 123.278 30.5913C123.278 30.172 123.106 29.7527 122.76 29.4814C121.354 28.2234 119.529 27.5328 117.63 27.5821C113.289 27.5821 109.761 31.1093 109.761 35.4505C109.761 39.7916 113.264 43.2941 117.58 43.3188C119.48 43.3188 121.305 42.6528 122.736 41.4196C123.032 41.1482 123.204 40.7536 123.204 40.3343C123.229 39.545 122.612 38.9036 121.848 38.879L121.749 38.879C121.404 38.879 121.083 38.9776 120.812 39.175C120.368 39.5696 119.874 39.8656 119.332 40.0876C118.789 40.2849 118.197 40.3836 117.63 40.3836C116.964 40.3836 116.322 40.2603 115.706 39.9889C115.114 39.7423 114.596 39.3723 114.127 38.9283C112.203 37.0044 112.203 33.8965 114.103 31.9726C114.127 32.0219 114.127 32.0219 114.127 31.9973ZM167.602 28.6181C167.306 28.3467 166.986 28.1494 166.616 28.0261C166.196 27.8781 165.752 27.7794 165.309 27.7301C164.865 27.6808 164.421 27.6561 163.977 27.6561C163.089 27.6561 162.176 27.8041 161.337 28.1247C160.499 28.4207 159.734 28.8647 159.043 29.4074L159.043 29.1114C159.019 28.2974 158.328 27.6808 157.514 27.7054C157.145 27.7177 156.795 27.8698 156.534 28.1309C156.273 28.3919 156.121 28.7424 156.108 29.1114L156.108 41.9129C156.133 42.7268 156.824 43.3435 157.637 43.3188C158.006 43.3065 158.357 43.1544 158.618 42.8934C158.879 42.6323 159.031 42.2818 159.043 41.9129L159.043 35.5245C159.043 34.8585 159.167 34.2172 159.438 33.6005C159.685 33.0086 160.03 32.4906 160.499 32.0466C160.943 31.6026 161.485 31.2326 162.053 30.986C162.669 30.7393 163.311 30.5913 163.977 30.5913C164.643 30.5913 165.284 30.7147 165.9 30.9366C166.098 31.0353 166.295 31.0846 166.517 31.0846C166.714 31.0846 166.912 31.06 167.084 30.9613C167.257 30.8873 167.405 30.7886 167.553 30.6407C167.676 30.5173 167.8 30.3447 167.874 30.172C167.948 29.9993 167.997 29.802 167.997 29.6047C168.022 29.2347 167.874 28.8894 167.602 28.6181ZM153.987 32.4906C152.729 29.58 149.868 27.6808 146.711 27.6561C142.369 27.6561 138.867 31.1586 138.842 35.4998C138.842 39.841 142.369 43.3681 146.711 43.3681C148.585 43.3681 150.41 42.7022 151.841 41.4689L151.89 41.4196C152.014 41.3209 152.137 41.1976 152.211 41.0496C152.68 40.3589 152.507 39.4463 151.841 38.9776C151.274 38.6077 150.534 38.6817 150.04 39.1503C149.991 39.1996 149.843 39.323 149.843 39.3476L149.818 39.3723C149.399 39.7176 148.93 40.0136 148.413 40.1863C147.87 40.3836 147.303 40.4823 146.711 40.4576C146.168 40.4576 145.65 40.3836 145.132 40.2109C144.639 40.0383 144.17 39.8163 143.751 39.4956C143.331 39.1996 142.961 38.8297 142.665 38.4103C142.345 37.991 142.123 37.4977 141.975 37.0044L153.074 37.0044C153.469 37.0044 153.839 36.8564 154.11 36.5851C154.406 36.3138 154.554 35.9438 154.53 35.5491C154.554 34.4885 154.357 33.4525 153.987 32.4906ZM141.975 34.0692C142.123 33.5512 142.345 33.0826 142.665 32.6632C142.961 32.2439 143.331 31.8739 143.751 31.5779C144.17 31.282 144.639 31.0353 145.132 30.8626C145.625 30.69 146.168 30.616 146.686 30.616C147.204 30.616 147.747 30.69 148.24 30.8626C149.226 31.1833 150.09 31.8246 150.706 32.6632C151.027 33.0826 151.249 33.5759 151.422 34.0692L141.975 34.0692ZM162.595 41.2222C162.028 41.2222 161.584 41.6909 161.584 42.2582C161.584 42.8255 162.053 43.2695 162.62 43.2695C163.187 43.2695 163.631 42.8008 163.631 42.2582C163.631 41.6662 163.163 41.2222 162.595 41.2222ZM162.595 43.0475C162.151 43.0722 161.781 42.7268 161.757 42.2829C161.732 41.8389 162.077 41.4689 162.521 41.4442C162.965 41.4196 163.335 41.7649 163.36 42.2089L163.36 42.2582C163.385 42.6775 163.039 43.0475 162.62 43.0475L162.595 43.0475Z" fill="#3F4363"/>
<path d="M162.842 42.2581C162.966 42.2335 163.04 42.1348 163.04 42.0115C163.04 41.9128 163.015 41.8388 162.941 41.7895C162.842 41.7402 162.719 41.7155 162.596 41.7155C162.472 41.7155 162.324 41.7155 162.201 41.7402L162.201 42.7515L162.423 42.7515L162.423 42.3568L162.522 42.3568C162.645 42.3568 162.719 42.4061 162.744 42.5048C162.768 42.5788 162.793 42.6775 162.818 42.7515L163.064 42.7515C163.015 42.6775 162.99 42.5788 162.99 42.5048C163.015 42.4061 162.941 42.3075 162.842 42.2581ZM162.546 42.1841L162.423 42.1841L162.423 41.8882L162.546 41.8882C162.694 41.8882 162.768 41.9622 162.768 42.0361C162.793 42.1348 162.67 42.2088 162.546 42.1841ZM72.6645 24.2028C72.5165 24.0795 71.1845 23.0682 68.3233 23.0682C67.5833 23.0682 66.8187 23.1422 66.0787 23.2655C65.5361 19.4917 62.4035 17.6664 62.2802 17.5678L61.5156 17.1238L61.0223 17.8391C60.4056 18.8011 59.937 19.8863 59.6656 20.9963C59.1477 23.1422 59.4683 25.1648 60.5536 26.8914C59.2463 27.6314 57.1251 27.804 56.6811 27.8287L21.6558 27.8287C20.7432 27.8287 20.0032 28.5687 20.0032 29.4813C19.9539 32.5398 20.4719 35.5984 21.5325 38.4843C22.7411 41.6415 24.5417 43.9847 26.8603 45.4153C29.4748 47.0186 33.742 47.9312 38.5518 47.9312C40.7224 47.9312 42.893 47.7339 45.0389 47.3393C48.0234 46.7966 50.8847 45.7606 53.5239 44.256C55.6945 42.9981 57.6431 41.3948 59.2957 39.5202C62.0829 36.3877 63.7355 32.8852 64.9441 29.7773L65.4374 29.7773C68.4713 29.7773 70.3459 28.5687 71.3818 27.5327C72.0725 26.8914 72.5905 26.1021 72.9605 25.2141L73.1824 24.5728L72.6645 24.2028Z" fill="#3F4363"/>
<path d="M24.9115 26.8174L29.598 26.8174C29.82 26.8174 30.0173 26.6448 30.0173 26.3981L30.0173 22.2049C30.0173 21.983 29.8446 21.7856 29.598 21.7856L24.9115 21.7856C24.6895 21.7856 24.4922 21.9583 24.4922 22.2049L24.4922 26.3981C24.5169 26.6448 24.6895 26.8174 24.9115 26.8174ZM31.3739 26.8174L36.0604 26.8174C36.2824 26.8174 36.4797 26.6448 36.4797 26.3981L36.4797 22.2049C36.4797 21.983 36.3071 21.7856 36.0604 21.7856L31.3739 21.7856C31.1519 21.7856 30.9546 21.9583 30.9546 22.2049L30.9546 26.3981C30.9793 26.6448 31.1519 26.8174 31.3739 26.8174ZM37.9597 26.8174L42.6461 26.8174C42.8681 26.8174 43.0654 26.6448 43.0654 26.3981L43.0655 22.2049C43.0655 21.983 42.8928 21.7856 42.6461 21.7856L37.9597 21.7856C37.7377 21.7856 37.5403 21.9583 37.5403 22.2049L37.5403 26.3981C37.5403 26.6448 37.713 26.8174 37.9597 26.8174ZM44.4467 26.8174L49.1332 26.8174C49.3552 26.8174 49.5525 26.6448 49.5525 26.3981L49.5525 22.2049C49.5525 21.983 49.3799 21.7856 49.1332 21.7856L44.4467 21.7856C44.2247 21.7856 44.0274 21.9583 44.0274 22.2049L44.0274 26.3981C44.0274 26.6448 44.2247 26.8174 44.4467 26.8174ZM31.3739 20.8237L36.0604 20.8237C36.2824 20.8237 36.4797 20.6263 36.4797 20.4044L36.4797 16.2112C36.4797 15.9892 36.3071 15.7919 36.0604 15.7919L31.3739 15.7919C31.1519 15.7919 30.9546 15.9645 30.9546 16.2112L30.9546 20.4044C30.9793 20.6263 31.1519 20.8237 31.3739 20.8237ZM37.9597 20.8237L42.6461 20.8237C42.8681 20.8237 43.0655 20.6263 43.0655 20.4044L43.0655 16.2112C43.0655 15.9892 42.8928 15.7919 42.6461 15.7919L37.9597 15.7919C37.7377 15.7919 37.5403 15.9645 37.5403 16.2112L37.5403 20.4044C37.5403 20.6263 37.713 20.8237 37.9597 20.8237ZM44.4467 20.8237L49.1332 20.8237C49.3552 20.8237 49.5525 20.6263 49.5525 20.4044L49.5525 16.2112C49.5525 15.9892 49.3552 15.7919 49.1332 15.7919L44.4467 15.7919C44.2247 15.7919 44.0274 15.9645 44.0274 16.2112L44.0274 20.4044C44.0274 20.6263 44.2247 20.8237 44.4467 20.8237ZM44.4467 14.8052L49.1332 14.8052C49.3552 14.8052 49.5525 14.6326 49.5525 14.3859L49.5525 10.1928C49.5525 9.97077 49.3552 9.77344 49.1332 9.77344L44.4467 9.77344C44.2247 9.77344 44.0274 9.9461 44.0274 10.1928L44.0274 14.3859C44.0274 14.6079 44.2247 14.8052 44.4467 14.8052ZM50.9831 26.8174L55.6696 26.8174C55.8916 26.8174 56.0889 26.6448 56.0889 26.3981L56.0889 22.2049C56.0889 21.983 55.9163 21.7856 55.6696 21.7856L50.9831 21.7856C50.7611 21.7856 50.5638 21.9583 50.5638 22.2049L50.5638 26.3981C50.5885 26.6448 50.7611 26.8174 50.9831 26.8174Z" fill="#3F4363"/>
</svg>
