<svg width="187" height="57" viewBox="0 0 187 57" fill="none" xmlns="http://www.w3.org/2000/svg">
<path fill-rule="evenodd" clip-rule="evenodd" d="M43.1463 46.4983V36.2859L49.988 38.6606V49L43.1463 46.4983ZM58.0834 46.4983V36.2859L51.2417 38.6606V49L58.0834 46.4983ZM50.7724 33.536L57.1925 35.644L50.7724 37.8641L43.8582 35.5205L50.7724 33.536ZM35 32.2314V22.0052L41.8417 24.3788V34.7182L35 32.2314ZM49.9393 32.2303V22.0052L43.0976 24.3788V34.7182L49.9393 32.2303ZM42.6283 19.2657L49.0484 21.3749L42.6283 23.5949L35.7141 21.2514L42.6283 19.2657ZM50.9651 32.2303V22.0052L57.8068 24.3788V34.7182L50.9651 32.2303ZM65.9021 32.2303V22.0052L59.0604 24.3788V34.7182L65.9021 32.2303ZM58.6025 19.2657L65.0226 21.3749L58.6025 23.5949L51.6883 21.2514L58.6025 19.2657ZM59.1217 17.9611V7.74762L65.9634 10.1223V20.4606L59.1217 17.9611ZM74.0496 17.96V7.74762L67.2079 10.1223V20.4606L74.0496 17.96ZM66.7375 5L73.1576 7.10805L66.7375 9.32808L59.8233 6.98452L66.7375 5ZM75.0743 17.9611V7.74762L81.916 10.1223V20.4606L75.0743 17.9611ZM90 17.9611V7.74762L83.1583 10.1223V20.4606L90 17.9611ZM82.7004 5L89.1204 7.10805L82.7004 9.32808L75.7861 6.98452L82.7004 5Z" fill="#3F4363"/>
<path d="M78.29 41.7939L75.9612 49.7679H74.9507L73.1134 43.8451L71.4507 49.7679H70.4195L68 41.7939H69.2631L71.0258 47.7371L72.7023 41.7939H73.6255L75.449 47.7552L77.2611 41.7939H78.2773H78.29ZM84.7296 47.3884L85.9009 47.6148C85.6858 48.299 85.2474 48.894 84.6538 49.3072C84.0338 49.7543 83.308 49.9774 82.4721 49.9774C81.3697 49.9774 80.4763 49.5947 79.7942 48.8272C79.1121 48.0597 78.7608 47.0556 78.7608 45.8126C78.7608 44.5425 79.1052 43.5168 79.8241 42.7335C80.1535 42.3555 80.5638 42.0543 81.0254 41.8513C81.4871 41.6483 81.9886 41.5487 82.4939 41.5595C83.5503 41.5595 84.3978 41.9195 85.0408 42.6406C85.6839 43.3617 86.0123 44.4383 86.0284 45.8737H80.1571C80.1571 47.0793 80.412 47.8933 80.9242 48.3144C81.4363 48.7355 81.976 48.9461 82.5456 48.9461C83.5733 48.9461 84.2979 48.4231 84.7182 47.3759L84.7296 47.3884ZM84.6607 44.9613C84.6493 44.5142 84.5758 44.1168 84.4368 43.7693C84.2979 43.4217 84.0636 43.1263 83.7329 42.8818C83.4022 42.6372 83.006 42.515 82.5421 42.515C82.2455 42.5102 81.9511 42.5668 81.6779 42.6811C81.4048 42.7953 81.159 42.9647 80.9563 43.1783C80.5223 43.6312 80.2673 44.2142 80.2248 44.9613H84.6596H84.6607ZM88.3009 49.7679H87.6957V39.0136H88.9554V43.1342C89.5295 42.1006 90.3334 41.5833 91.3358 41.5833C92.2614 41.5833 93.0376 41.9456 93.6634 42.6667C94.2893 43.3878 94.6016 44.4372 94.6016 45.8115C94.6016 46.9967 94.2916 47.9906 93.6784 48.7944C93.0652 49.5981 92.2614 50 91.2761 50C90.1783 50 89.324 49.4861 88.7498 48.4604L88.2905 49.7793L88.3009 49.7679ZM88.9554 46.6435C89.0128 47.462 89.2689 48.0563 89.719 48.4253C90.1691 48.7944 90.6457 48.9914 91.1475 48.9914C91.7871 48.9914 92.3027 48.7174 92.6954 48.1695C93.0881 47.6216 93.2833 46.8711 93.2833 45.919C93.2833 44.8923 93.0939 44.0851 92.7161 43.4965C92.3383 42.9078 91.8124 42.6157 91.1406 42.6157C90.6124 42.6157 90.137 42.8252 89.7121 43.2429C89.2873 43.6606 89.0231 44.2017 88.9565 44.864V46.6412L88.9554 46.6435ZM97.8123 47.7008L99.0134 47.4563C99.2798 48.4582 100.125 48.9585 101.544 48.9585C102.067 48.9585 102.511 48.8431 102.874 48.6121C103.045 48.5121 103.186 48.3688 103.282 48.197C103.378 48.0252 103.425 47.8312 103.419 47.6352C103.419 47.0126 102.957 46.6163 102.032 46.4465L100.329 46.1273C99.6633 46.0005 99.1317 45.7537 98.7366 45.3847C98.3416 45.0156 98.1453 44.53 98.1453 43.913C98.1453 43.2338 98.414 42.6859 98.9537 42.2354C99.4934 41.7848 100.217 41.5607 101.13 41.5607C102.884 41.5607 103.966 42.2365 104.379 43.5893L103.227 43.8338C102.896 43.0074 102.216 42.592 101.188 42.592C100.676 42.592 100.256 42.7052 99.9286 42.9021C99.7753 42.9899 99.6487 43.1167 99.5622 43.2693C99.4757 43.4218 99.4325 43.5946 99.4371 43.7693C99.4371 44.3557 99.8562 44.7236 100.693 44.8764L102.267 45.1617C103.915 45.456 104.739 46.245 104.739 47.5254C104.746 47.8732 104.666 48.2174 104.505 48.5272C104.344 48.8369 104.108 49.1026 103.818 49.3004C103.205 49.751 102.388 49.9774 101.367 49.9774C99.4497 49.9774 98.267 49.2144 97.8123 47.6906V47.7008ZM111.438 47.3884L112.609 47.6148C112.397 48.2963 111.981 48.86 111.362 49.3072C110.743 49.7543 110.016 49.9774 109.18 49.9774C108.078 49.9774 107.185 49.5947 106.503 48.8272C105.821 48.0597 105.469 47.0556 105.469 45.8126C105.469 44.5425 105.823 43.5168 106.532 42.7335C106.862 42.3555 107.272 42.0543 107.734 41.8513C108.195 41.6483 108.697 41.5487 109.202 41.5595C110.256 41.5595 111.106 41.9195 111.748 42.6406C112.39 43.3617 112.72 44.4383 112.736 45.8737H106.865C106.865 47.0793 107.12 47.8933 107.631 48.3144C108.142 48.7355 108.683 48.9461 109.254 48.9461C110.282 48.9461 111.006 48.4231 111.427 47.3759L111.438 47.3884ZM111.369 44.9613C111.358 44.5142 111.283 44.1168 111.145 43.7693C111.007 43.4217 110.773 43.1263 110.442 42.8818C110.112 42.6372 109.716 42.515 109.252 42.515C108.955 42.5101 108.66 42.5666 108.387 42.6809C108.114 42.7951 107.868 42.9646 107.665 43.1783C107.231 43.6312 106.976 44.2142 106.934 44.9613H111.369V44.9613ZM115.362 49.7679H114.102V41.7939H115.204V43.6527C115.595 42.781 115.985 42.2173 116.376 41.9603C116.766 41.7033 117.18 41.5731 117.579 41.5731C117.745 41.5754 117.91 41.5852 118.075 41.6026V42.7867H117.82C117.128 42.7867 116.553 43.0402 116.094 43.5474C115.636 44.0545 115.392 44.7213 115.359 45.5466V49.7691L115.362 49.7679ZM125.903 41.7939L123.111 49.7679H121.805L118.919 41.7939H120.313L122.558 48.2748L124.786 41.7939H125.903V41.7939ZM128.257 39V40.3777H126.911V39H128.26H128.257ZM128.227 41.7927V49.7668H126.98V41.7927H128.24H128.227ZM134.812 46.9752L135.945 47.1722C135.784 48.0529 135.431 48.7423 134.882 49.2415C134.333 49.7408 133.647 49.9887 132.815 49.9887C131.701 49.9887 130.863 49.5811 130.266 48.7717C129.668 47.9623 129.389 46.9605 129.389 45.8001C129.389 44.5889 129.697 43.5814 130.314 42.7776C130.93 41.9739 131.769 41.572 132.84 41.572C133.72 41.572 134.425 41.8324 134.956 42.3644C135.488 42.8965 135.818 43.5531 135.944 44.3772L134.811 44.59C134.597 43.2734 133.953 42.6157 132.876 42.6157C132.554 42.6051 132.236 42.6805 131.954 42.834C131.673 42.9875 131.439 43.2133 131.277 43.4874C130.904 44.0681 130.717 44.8209 130.717 45.7469C130.717 46.7658 130.901 47.5582 131.273 48.1242C131.433 48.3902 131.662 48.6091 131.937 48.7583C132.212 48.9074 132.522 48.9812 132.836 48.9721C133.875 48.9721 134.533 48.311 134.811 46.9877L134.812 46.9752ZM143.052 47.3884L144.223 47.6148C144.008 48.299 143.57 48.894 142.976 49.3072C142.356 49.7543 141.63 49.9774 140.794 49.9774C139.692 49.9774 138.796 49.5947 138.115 48.8272C137.434 48.0597 137.082 47.0556 137.082 45.8126C137.082 44.5425 137.426 43.5168 138.145 42.7335C138.475 42.3555 138.885 42.0543 139.347 41.8513C139.808 41.6483 140.31 41.5487 140.815 41.5595C141.872 41.5595 142.721 41.9195 143.362 42.6406C144.003 43.3617 144.333 44.4383 144.35 45.8737H138.479C138.479 47.0793 138.734 47.8933 139.246 48.3144C139.759 48.7355 140.298 48.9461 140.868 48.9461C141.896 48.9461 142.62 48.4231 143.04 47.3759L143.052 47.3884ZM142.983 44.9613C142.972 44.5142 142.898 44.1168 142.759 43.7693C142.615 43.4139 142.371 43.1062 142.056 42.8818C141.726 42.6372 141.33 42.515 140.866 42.515C140.569 42.5097 140.275 42.566 140.002 42.6803C139.729 42.7946 139.483 42.9643 139.281 43.1783C138.849 43.6312 138.592 44.2142 138.549 44.9613H142.984H142.983ZM145.073 47.7008L146.274 47.4563C146.541 48.4582 147.385 48.9585 148.805 48.9585C149.327 48.9585 149.77 48.8431 150.135 48.6121C150.306 48.512 150.446 48.3686 150.542 48.1968C150.638 48.025 150.685 47.8311 150.679 47.6352C150.679 47.0126 150.216 46.6163 149.293 46.4465L147.59 46.1273C146.924 46.0005 146.392 45.7537 145.997 45.3847C145.602 45.0156 145.406 44.53 145.406 43.913C145.406 43.2338 145.675 42.6859 146.214 42.2354C146.754 41.7848 147.478 41.5607 148.39 41.5607C150.145 41.5607 151.227 42.2365 151.64 43.5893L150.487 43.8338C150.157 43.0074 149.477 42.592 148.449 42.592C147.937 42.592 147.53 42.7052 147.189 42.9021C147.036 42.9899 146.909 43.1167 146.823 43.2693C146.736 43.4218 146.693 43.5946 146.698 43.7693C146.698 44.3557 147.117 44.7236 147.954 44.8764L149.527 45.1617C151.176 45.456 152 46.245 152 47.5254C152.007 47.8732 151.926 48.2174 151.766 48.5272C151.605 48.8369 151.369 49.1026 151.079 49.3004C150.465 49.751 149.649 49.9774 148.628 49.9774C146.713 49.9774 145.528 49.2144 145.074 47.6906L145.073 47.7008Z" fill="#3F4363" stroke="black" stroke-width="0.213"/>
<path fill-rule="evenodd" clip-rule="evenodd" d="M116.645 24.7737V22.8613C116.643 22.797 116.655 22.7331 116.679 22.6735C116.703 22.6138 116.739 22.5596 116.785 22.5142C116.831 22.4687 116.886 22.433 116.946 22.4091C117.007 22.3852 117.071 22.3737 117.136 22.3753H125.803C126.08 22.3753 126.303 22.5742 126.304 22.8579V24.4968C126.302 24.7715 126.067 25.1298 125.652 25.7006L121.164 32.0392C122.83 32.0008 124.593 32.2472 126.107 33.0903C126.45 33.2802 126.539 33.5605 126.567 33.8363V35.8765C126.567 36.1591 126.256 36.4835 125.929 36.3139C123.261 34.9316 119.723 34.7801 116.772 36.3297C116.47 36.488 116.154 36.1681 116.154 35.8867V33.9471C116.154 33.6363 116.16 33.1062 116.477 32.6326L121.677 25.2518H117.148C117.082 25.2548 117.017 25.2445 116.956 25.2216C116.895 25.1987 116.839 25.1636 116.792 25.1187C116.745 25.0737 116.708 25.0197 116.683 24.96C116.657 24.9003 116.645 24.8361 116.646 24.7715L116.645 24.7737ZM85.628 36.7186H82.9911C82.7397 36.7027 82.5397 36.5151 82.5202 36.2664L82.5214 22.8839C82.5214 22.616 82.75 22.4024 83.03 22.4024L85.4851 22.4013C85.7423 22.4148 85.948 22.607 85.9651 22.8511V24.5985H86.0143C86.6543 22.9087 87.8602 22.1198 89.4843 22.1198C91.1336 22.1198 92.1669 22.9087 92.9064 24.5985C93.5464 22.9087 94.998 22.1198 96.549 22.1198C97.6577 22.1198 98.8624 22.5719 99.6007 23.5847C100.437 24.7104 100.266 26.3448 100.266 27.7814L100.264 36.2269C100.264 36.4948 100.035 36.7084 99.755 36.7084H97.1228C96.8599 36.6914 96.6496 36.4846 96.6496 36.228V29.1434C96.6496 28.5783 96.6987 27.1722 96.5753 26.6364C96.3787 25.7356 95.7752 25.4813 95.0254 25.4813C94.3854 25.4813 93.7202 25.904 93.4481 26.5799C93.1761 27.2558 93.2024 28.3827 93.2024 29.1434V36.2371C93.2024 36.5049 92.9738 36.7186 92.6938 36.7186H90.0592C89.7941 36.7016 89.5861 36.4948 89.5861 36.2382L89.5838 29.1434C89.5838 27.6514 89.8295 25.4541 87.9608 25.4541C86.0657 25.4541 86.1389 27.5938 86.1389 29.1434V36.2371C86.1389 36.5049 85.9103 36.7186 85.6303 36.7186H85.628ZM132.672 22.13C136.555 22.13 138.655 25.453 138.655 29.678C138.655 33.7617 136.335 37 132.672 37C128.863 37 126.786 33.677 126.786 29.5367C126.786 25.3694 128.887 22.13 132.672 22.13ZM132.698 25.2066C130.768 25.2066 130.646 27.8255 130.646 29.4587C130.646 31.092 130.623 34.2398 132.674 34.2398C134.701 34.2398 134.8 31.7679 134.8 30.0499C134.8 28.9241 134.751 27.5712 134.411 26.5008C134.117 25.5717 133.531 25.2055 132.701 25.2055L132.698 25.2066ZM144.274 36.7186H141.647C141.384 36.7016 141.174 36.4948 141.174 36.2382L141.169 22.85C141.192 22.6047 141.398 22.4137 141.676 22.4137L144.122 22.4126C144.23 22.4166 144.335 22.4554 144.419 22.523C144.504 22.5907 144.564 22.6836 144.59 22.7878V24.8223H144.64C145.379 22.9913 146.412 22.1187 148.234 22.1187C149.415 22.1187 150.572 22.5414 151.311 23.6954C152 24.7658 152 26.5663 152 27.8639V36.2845C151.97 36.5106 151.755 36.7061 151.495 36.7061H148.851C148.608 36.6903 148.411 36.514 148.394 36.2845V29.0168C148.394 27.5531 148.565 25.3999 146.745 25.3999C146.105 25.3999 145.514 25.8226 145.219 26.4703C144.85 27.2875 144.799 28.1035 144.799 29.0055V36.2122C144.795 36.4801 144.567 36.6937 144.285 36.6937L144.274 36.7186ZM110.036 30.3268C110.036 31.3441 110.061 32.1895 109.542 33.0926C109.123 33.8273 108.456 34.2794 107.717 34.2794C106.705 34.2794 106.113 33.5176 106.113 32.3884C106.113 30.1686 108.128 29.7639 110.034 29.7639V30.3291L110.036 30.3268ZM112.695 36.6847C112.52 36.8395 112.268 36.8497 112.072 36.7457C111.196 36.0257 111.04 35.6945 110.561 35.0073C109.114 36.4767 108.088 36.9028 106.214 36.9028C103.994 36.9028 102.267 35.5465 102.267 32.8383C102.267 30.7213 103.426 29.2824 105.079 28.5771C106.51 27.9555 108.508 27.8424 110.037 27.6729V27.3338C110.037 26.7122 110.086 25.9797 109.717 25.4428C109.397 24.9625 108.78 24.7647 108.237 24.7647C107.231 24.7647 106.337 25.2733 106.117 26.3312C106.071 26.5663 105.897 26.7981 105.66 26.8105L103.104 26.537C102.875 26.4884 102.647 26.3177 102.711 25.9922C103.298 22.9257 106.098 22 108.608 22C109.891 22 111.58 22.3391 112.579 23.2998C113.863 24.4866 113.738 26.0656 113.738 27.7871V31.8493C113.738 33.07 114.252 33.6069 114.732 34.2658C114.9 34.4919 114.938 34.7858 114.723 34.9587L112.7 36.6903L112.693 36.6835L112.695 36.6847ZM75.7687 30.3268C75.7687 31.3441 75.7939 32.1895 75.275 33.0926C74.8555 33.8273 74.1892 34.2794 73.4497 34.2794C72.4381 34.2794 71.8461 33.5176 71.8461 32.3884C71.8461 30.1686 73.86 29.7639 75.7665 29.7639V30.3291L75.7687 30.3268ZM78.4273 36.6847C78.2524 36.8395 78.001 36.8497 77.8044 36.7457C76.9288 36.0257 76.7711 35.6945 76.2934 35.0073C74.8464 36.4767 73.8211 36.9028 71.9467 36.9028C69.727 36.9028 68 35.5465 68 32.8383C68 30.7213 69.159 29.2824 70.8117 28.5771C72.2427 27.9555 74.2406 27.8424 75.7699 27.6729V27.3338C75.7699 26.7122 75.819 25.9797 75.4499 25.4428C75.1298 24.9625 74.5126 24.7647 73.9697 24.7647C72.9639 24.7647 72.0701 25.2733 71.8495 26.3312C71.8038 26.5663 71.6209 26.7981 71.3923 26.8105L68.8366 26.537C68.6081 26.4884 68.3795 26.3177 68.4435 25.9922C69.0298 22.9257 71.8301 22 74.3412 22C75.6236 22 77.3129 22.3391 78.313 23.2998C79.5954 24.4866 79.4719 26.0656 79.4719 27.7871V31.8493C79.4719 33.07 79.9863 33.6069 80.4663 34.2658C80.6343 34.4919 80.6721 34.7858 80.4583 34.9587L78.4467 36.6903L78.4399 36.6835L78.4273 36.6847Z" fill="#3F4363"/>
</svg>
