<svg width="187" height="57" viewBox="0 0 187 57" fill="none" xmlns="http://www.w3.org/2000/svg">
<path fill-rule="evenodd" clip-rule="evenodd" d="M116.423 20.5132H113.959L113.967 38.8614H123.939V36.6028H116.429L116.423 20.5132ZM133.434 35.6398C133.04 36.0505 132.565 36.3765 132.04 36.598C131.515 36.8195 130.951 36.9319 130.381 36.9283C128.504 36.9283 127.748 36.0043 127.748 34.799C127.748 32.9788 129.009 32.1092 131.697 32.1092C132.211 32.1092 133.014 32.1657 133.434 32.2488V35.6398ZM130.884 24.5192C128.972 24.5161 127.118 25.1806 125.643 26.3979L126.516 27.9071C127.524 27.3189 128.757 26.7306 130.522 26.7306C132.539 26.7306 133.435 27.7572 133.435 29.5025V30.3988C133.043 30.3146 132.231 30.2581 131.727 30.2581C127.413 30.2581 125.228 31.7704 125.228 34.9366C125.228 37.766 126.966 39.1941 129.598 39.1941C131.372 39.1941 133.071 38.3728 133.659 37.0648L134.108 38.8573H135.845V29.4738C135.845 26.5047 134.557 24.5151 130.886 24.5151L130.884 24.5192ZM143.796 37.0135C142.872 37.0135 142.059 36.9108 141.443 36.6213V28.134C142.285 27.4338 143.32 26.9298 144.626 26.9298C147.008 26.9298 147.932 28.6104 147.932 31.3279C147.932 35.1932 146.447 37.0155 143.786 37.0155M144.813 24.5212C142.61 24.5212 141.425 26.0201 141.425 26.0201V23.6506L141.417 20.5132H139.008L139.015 38.4138C140.22 38.9272 141.872 39.1982 143.666 39.1982C148.26 39.1982 150.473 36.2568 150.473 31.1873C150.473 27.1813 148.428 24.5202 144.814 24.5202M89.6263 22.5008C91.8111 22.5008 93.2114 23.2194 94.1364 23.9586L95.1959 22.124C93.7524 20.8582 91.81 20.1775 89.7383 20.1775C84.5003 20.1775 80.8311 23.3601 80.8311 29.8136C80.8311 36.5648 84.7898 39.1972 89.3184 39.1972C91.577 39.1972 93.5204 38.6654 94.7801 38.1325L94.7288 30.9193V28.6607H88.0063V30.9193H92.3028L92.3541 36.3954C91.7936 36.6757 90.8142 36.9088 89.497 36.9088C85.8555 36.9088 83.4192 34.6193 83.4192 29.7941C83.4192 24.8919 85.9407 22.5111 89.6376 22.5111M106.963 20.5132H104.554L104.562 23.5931V34.2374C104.562 37.2065 105.85 39.1961 109.521 39.1961C110.019 39.1962 110.515 39.1515 111.005 39.0627V36.8995C110.635 36.956 110.26 36.9842 109.885 36.9837C107.868 36.9837 106.972 35.9571 106.972 34.2118V26.8712H111.006V24.8539H106.972L106.963 20.5132ZM98.4422 38.8614H100.852V24.8549H98.4422V38.8614ZM98.4422 22.9217H100.852V20.5122H98.4422V22.9217Z" fill="#3F4363"/>
<path fill-rule="evenodd" clip-rule="evenodd" d="M57.2666 48.3663L64.7334 25.3848H49.7998L57.2666 48.3663Z" fill="#3F4363"/>
<path fill-rule="evenodd" clip-rule="evenodd" d="M57.2664 48.3652L49.7996 25.3755H39.334L57.2664 48.3652Z" fill="#6F728A"/>
<path fill-rule="evenodd" clip-rule="evenodd" d="M39.3345 25.3755L37.0758 32.3598C36.8685 32.9963 37.0964 33.6944 37.6374 34.0886L57.2772 48.359L39.3345 25.3755Z" fill="#87899D"/>
<path fill-rule="evenodd" clip-rule="evenodd" d="M39.334 25.3756H49.7996L45.3029 11.5344C45.0719 10.8219 44.0637 10.8219 43.8328 11.5344L39.334 25.3756Z" fill="#3F4363"/>
<path fill-rule="evenodd" clip-rule="evenodd" d="M57.2666 48.3653L64.7334 25.3838H75.1991L57.2666 48.3653Z" fill="#6F728A"/>
<path fill-rule="evenodd" clip-rule="evenodd" d="M75.1986 25.3755L77.4572 32.3598C77.6646 32.9963 77.4367 33.6944 76.8956 34.0886L57.2559 48.359L75.1986 25.3755Z" fill="#87899D"/>
<path fill-rule="evenodd" clip-rule="evenodd" d="M75.199 25.3756H64.7334L69.2301 11.5344C69.4611 10.8219 70.4693 10.8219 70.7003 11.5344L75.199 25.3756Z" fill="#3F4363"/>
</svg>
