<svg width="187" height="57" viewBox="0 0 187 57" fill="none" xmlns="http://www.w3.org/2000/svg">
<path d="M55.9912 32.1325C58.2197 32.1325 60.0263 30.3259 60.0263 28.0974C60.0263 25.8688 58.2197 24.0623 55.9912 24.0623C53.7626 24.0623 51.9561 25.8688 51.9561 28.0974C51.9561 30.3259 53.7626 32.1325 55.9912 32.1325Z" fill="#3F4363"/>
<path fill-rule="evenodd" clip-rule="evenodd" d="M55.9917 19.8931C61.4093 19.8931 66.4422 20.6705 70.237 21.9769C74.8092 23.5509 77.6203 25.9368 77.6203 28.0973C77.6203 30.3486 74.641 32.8833 69.7311 34.5101C66.0191 35.7399 61.1344 36.3819 55.9917 36.3819C50.7189 36.3819 45.7259 35.7793 41.9721 34.4966C37.2228 32.8733 34.3623 30.3057 34.3623 28.0973C34.3623 25.9544 37.0464 23.5869 41.5543 22.0152C45.3632 20.6873 50.5203 19.8931 55.9909 19.8931H55.9917Z" stroke="#3F4363" stroke-width="2"/>
<path fill-rule="evenodd" clip-rule="evenodd" d="M48.8496 24.0188C51.5562 19.3257 54.7438 15.3542 57.7713 12.7196C61.419 9.54517 64.8903 8.30199 66.7617 9.38117C68.712 10.5059 69.4194 14.3531 68.3758 19.4189C67.5875 23.249 65.7026 27.8011 63.1334 32.2561C60.4992 36.8238 57.483 40.848 54.4967 43.4582C50.718 46.7615 47.0647 47.9569 45.1516 46.8536C43.2952 45.7838 42.5853 42.2753 43.4758 37.585C44.2283 33.622 46.1166 28.7578 48.8488 24.0188L48.8496 24.0188Z" stroke="#3F4363" stroke-width="2"/>
<path fill-rule="evenodd" clip-rule="evenodd" d="M48.8568 32.2683C46.1426 27.5804 44.2946 22.8345 43.5233 18.8958C42.5948 14.1502 43.2513 10.5219 45.121 9.43955C47.0694 8.31155 50.7558 9.62005 54.6234 13.0542C57.5477 15.6506 60.5504 19.5562 63.1271 24.0071C65.7688 28.5703 67.7488 33.1934 68.519 37.0841C69.4936 42.0077 68.7048 45.7697 66.7935 46.8761C64.9389 47.9497 61.5452 46.813 57.9265 43.699C54.869 41.068 51.5978 37.0027 48.8568 32.2682V32.2683Z" stroke="#3F4363" stroke-width="2"/>
<path fill-rule="evenodd" clip-rule="evenodd" d="M100.783 38.4069L95.8372 30.9347C98.3368 30.7142 100.589 28.903 100.589 25.5942C100.589 22.2273 98.1998 20.0725 94.848 20.0725H87.4873V38.3929H89.7675V31.1135H93.4211L98.0906 38.3929L100.783 38.4069ZM94.5752 29.1224H89.7687V22.1182H94.5752C96.7462 22.1182 98.2288 23.5462 98.2288 25.607C98.2288 27.6677 96.745 29.1248 94.5752 29.1248V29.1224ZM109.271 38.7354C111.442 38.7354 113.226 38.0214 114.545 36.7037L113.556 35.357C112.511 36.4286 110.974 37.0323 109.464 37.0323C106.608 37.0323 104.849 34.9448 104.684 32.4464H115.423V31.9239C115.423 27.9417 113.06 24.8094 109.049 24.8094C105.259 24.8094 102.513 27.9138 102.513 31.759C102.513 35.9073 105.342 38.725 109.27 38.725L109.271 38.7354ZM113.392 30.9336H104.685C104.795 28.9018 106.194 26.5102 109.025 26.5102C112.047 26.5102 113.365 28.9553 113.392 30.9336ZM129.105 38.4057V29.2861C129.105 26.0725 126.772 24.8082 123.969 24.8082C121.798 24.8082 120.096 25.5222 118.668 27.0059L119.629 28.434C120.81 27.1708 122.102 26.5938 123.695 26.5938C125.618 26.5938 127.047 27.6097 127.047 29.3953V31.7846C125.975 30.5481 124.465 29.9711 122.651 29.9711C120.399 29.9711 118.007 31.3724 118.007 34.3388C118.007 37.2227 120.397 38.7343 122.651 38.7343C124.437 38.7343 125.949 38.1027 127.047 36.8941V38.4034L129.105 38.4057ZM123.393 37.2517C121.471 37.2517 120.124 36.0443 120.124 34.3678C120.124 32.6646 121.471 31.456 123.393 31.456C124.849 31.456 126.249 32.0052 127.047 33.1046V35.6042C126.25 36.7025 124.849 37.2529 123.393 37.2529V37.2517ZM139.067 38.7354C141.484 38.7354 142.912 37.7463 143.929 36.4286L142.555 35.1654C141.677 36.3461 140.55 36.8953 139.189 36.8953C136.359 36.8953 134.603 34.6975 134.603 31.759C134.603 28.8206 136.36 26.6507 139.189 26.6507C140.562 26.6507 141.688 27.1731 142.555 28.3806L143.929 27.1174C142.913 25.7985 141.484 24.8105 139.067 24.8105C135.111 24.8105 132.447 27.8326 132.447 31.7602C132.447 35.7157 135.111 38.7262 139.067 38.7262V38.7354ZM150.166 38.7354C151.373 38.7354 152.116 38.3779 152.639 37.8844L152.035 36.3461C151.76 36.648 151.222 36.8953 150.634 36.8953C149.728 36.8953 149.287 36.1813 149.287 35.1921V26.9514H151.98V25.1391H149.287V21.5133H147.226V25.1391H145.028V26.9525H147.226V35.6333C147.226 37.6116 148.215 38.7378 150.166 38.7378V38.7354Z" fill="#3F4363"/>
</svg>
