<svg width="187" height="57" viewBox="0 0 187 57" fill="none" xmlns="http://www.w3.org/2000/svg">
<path d="M78.3479 24.5104H73.874V21.8857H85.8546V24.5104H81.3807V37.6457H78.3491L78.3479 24.5104ZM88.6152 35.5011C89.8303 35.4951 91.0381 35.3124 92.1997 34.9578L92.6614 37.1311C91.2823 37.6278 89.8252 37.8832 88.3564 37.8857C84.6723 37.8857 83.3989 36.214 83.3989 33.4436V30.4273C83.3989 27.9913 84.4925 25.8896 88.2568 25.8896C92.021 25.8896 92.874 28.039 92.874 30.5204V32.9803H86.3491V33.569C86.3491 34.9494 86.8351 35.4796 88.6286 35.4796L88.6152 35.5011ZM86.3127 30.653H90.0429V30.0869C90.0429 29.0122 89.7051 28.248 88.2628 28.248C86.8206 28.248 86.3139 29.0027 86.3139 30.0869L86.3127 30.653Z" fill="#3F4363"/>
<path d="M100.874 28.5879C99.8153 29.0805 98.7951 29.6549 97.8245 30.3072V37.8857H94.874V26.1247H97.3368L97.5275 27.4258C98.4729 26.7799 99.4982 26.2621 100.577 25.8857L100.874 28.5879Z" fill="#3F4363"/>
<path d="M107.874 28.5879C106.815 29.0805 105.795 29.6549 104.825 30.3072V37.8857H101.874V26.1247H104.337L104.528 27.4258C105.473 26.7799 106.498 26.2621 107.577 25.8857L107.874 28.5879Z" fill="#3F4363"/>
<path d="M118.131 37.621H115.706L115.489 36.8638C114.442 37.528 113.221 37.8829 111.972 37.8857C109.811 37.8857 108.874 36.4408 108.874 34.4496C108.874 32.1037 109.92 31.2147 112.308 31.2147H115.151V30.0166C115.151 28.7382 114.787 28.2841 112.897 28.2841C111.795 28.2957 110.697 28.4149 109.62 28.64L109.255 26.4379C110.575 26.0814 111.937 25.898 113.306 25.8927C117.025 25.8927 118.116 27.1711 118.116 30.0705L118.131 37.621ZM115.172 33.2551H112.989C112.008 33.2551 111.762 33.5127 111.762 34.3897C111.762 35.2667 112.026 35.5554 112.956 35.5554C113.738 35.5452 114.506 35.342 115.186 34.9648L115.172 33.2551ZM127.24 23.4306C126.682 23.3138 126.114 23.2504 125.544 23.2413C124.382 23.2413 124.212 23.7409 124.212 24.6191V26.064H127.216L127.045 28.3345H124.202V37.5814H121.242V28.3776H119.345V26.1072H121.234V24.4658C121.234 22.0672 122.372 20.8858 124.999 20.8858C125.86 20.8821 126.718 20.9942 127.547 21.2189L127.24 23.4306ZM133.019 37.851C128.968 37.851 127.875 35.6704 127.875 33.2982V30.4024C127.875 28.0337 128.979 25.8496 133.019 25.8496C137.058 25.8496 138.17 28.0301 138.17 30.4024V33.3234C138.162 35.6764 137.069 37.8762 133.019 37.8762V37.851ZM133.019 28.2937C131.47 28.2937 130.836 28.9826 130.836 30.2826V33.3928C130.836 34.694 131.44 35.3817 133.019 35.3817C134.597 35.3817 135.202 34.6928 135.202 33.3928V30.2945C135.202 28.985 134.588 28.2973 133.019 28.2973V28.2937ZM145.773 28.483C144.697 28.9668 143.662 29.5316 142.675 30.1723V37.6186H139.683V26.0628H142.185L142.379 27.3412C143.339 26.7065 144.381 26.1978 145.477 25.828L145.773 28.483ZM153.917 37.621V29.5613C153.917 28.9479 153.653 28.6388 152.972 28.6388C151.883 28.7586 150.829 29.0893 149.874 29.6152V37.6425H146.931V26.0868H149.185L149.48 27.0633C150.954 26.3418 152.566 25.9296 154.214 25.8532C154.67 25.8117 155.128 25.9078 155.527 26.1284C155.926 26.349 156.246 26.6836 156.444 27.0872C157.921 26.3492 159.544 25.9287 161.2 25.8532C163.168 25.8532 163.874 27.207 163.874 29.2678V37.6377H160.915V29.5781C160.915 28.9647 160.651 28.6555 159.97 28.6555C158.879 28.7656 157.824 29.0983 156.872 29.632V37.6593L153.917 37.621Z" fill="#3F4363"/>
<path fill-rule="evenodd" clip-rule="evenodd" d="M54.1702 38.915V38.8068L39.8691 30.5479V47.059L54.1702 55.3179V38.915ZM54.1702 20.4777V36.9955L39.8691 28.7366V12.2188L54.1702 20.4777Z" fill="#6F728A"/>
<path fill-rule="evenodd" clip-rule="evenodd" d="M55.7383 36.9955L70.0461 28.7366V12.2188L55.7383 20.4777V36.9955Z" fill="#3F4363"/>
<path fill-rule="evenodd" clip-rule="evenodd" d="M24 19.5179L38.3011 27.7768V11.2589L24 3V19.5179Z" fill="#6F728A"/>
</svg>
