<svg width="187" height="57" viewBox="0 0 187 57" fill="none" xmlns="http://www.w3.org/2000/svg">
<g clip-path="url(#clip0_1889_13394)">
<path fill-rule="evenodd" clip-rule="evenodd" d="M57.1743 27.7683C57.1743 35.4848 51.184 41.7412 43.7947 41.7412C36.4054 41.7412 30.415 35.4848 30.415 27.7683C30.415 20.0519 36.4054 13.7954 43.7947 13.7954C51.184 13.7954 57.1743 20.0506 57.1743 27.7683" fill="#3F4363"/>
<path d="M30.9614 31.2288C30.9614 31.2288 29.9928 16.6576 43.143 16.2416L42.2253 14.6804L35.0896 17.1261L33.0506 19.5193L31.2665 23.0058L30.2471 27.0641L30.5528 29.7701" fill="#3F4363"/>
<path d="M34.6323 18.236C32.2845 20.688 30.8322 24.0733 30.8322 27.8195C30.8322 31.5656 32.2839 34.9515 34.6323 37.403C36.9807 39.8544 40.2177 41.3675 43.7957 41.3675C47.3738 41.3675 50.617 39.8481 52.9592 37.403C55.3014 34.9579 56.7593 31.5656 56.7593 27.8201C56.7593 24.0746 55.3064 20.6887 52.9592 18.2366C50.6121 15.7846 47.3738 14.2733 43.7957 14.272C40.2177 14.2708 36.9745 15.7915 34.6323 18.2366V18.236ZM34.0308 37.9956C31.5422 35.3916 30 31.791 30 27.8201C30 23.8492 31.5422 20.248 34.0308 17.6434C36.5193 15.0387 39.9839 13.423 43.7889 13.423C47.594 13.423 51.053 15.0375 53.5465 17.6434C56.04 20.2493 57.5834 23.8479 57.5834 27.8201C57.5834 31.7923 56.0412 35.3922 53.5465 37.9962C51.0517 40.6002 47.5933 42.2166 43.7889 42.2166C39.9845 42.2166 36.5317 40.6021 34.0308 37.9956Z" fill="#3F4363"/>
<path fill-rule="evenodd" clip-rule="evenodd" d="M49.427 27.8456L47.3881 28.1577L44.6348 28.4698L42.8507 28.5217L41.1181 28.4698L39.7929 28.0532L38.6147 26.7522L37.6969 24.0981L37.4923 23.5258L36.2688 23.1098L35.5556 21.9133L35.0459 20.1962L35.6065 18.6869L36.9317 18.2184L38.002 18.7388L38.5117 19.8835L39.1232 19.7796L39.3278 19.5201L39.1232 18.3235L39.0723 16.8141L39.378 14.7324L39.3656 13.5434L40.2958 12.0265L41.9267 10.8299L44.7811 9.58077L47.9412 10.0493L50.6933 12.0791L51.9677 14.1607L52.7831 15.6701L52.9877 19.4169L52.3763 22.6432L51.2551 25.5049L50.1848 27.0143" fill="#3F4363"/>
<path fill-rule="evenodd" clip-rule="evenodd" d="M47.6944 36.8485L40.4055 37.16V38.4092L41.0169 42.7808L40.7112 43.1455L35.6138 41.3759L35.2567 40.7517L34.7469 34.8713L33.5687 31.3322L33.3145 30.4996L37.3917 27.6379L38.6661 27.1175L39.7872 28.523L40.7559 29.4075L41.877 29.7715L42.3868 29.9279L42.9982 32.6339L43.4571 33.2062L44.6291 32.7896L43.8137 34.4028L48.2475 36.5364L47.6869 36.8485" fill="#3F4363"/>
<path fill-rule="evenodd" clip-rule="evenodd" d="M35.614 18.687L36.9392 18.2184L38.0095 18.7389L38.5192 19.8835L39.1307 19.7797L39.2838 19.1555L38.9781 17.9525L39.2838 15.0909L39.0296 13.5296L39.9474 12.4368L41.9355 10.8236L41.3749 10.043L38.5719 11.4485L37.3937 12.3855L36.7314 13.8417L35.712 15.2472L35.4062 16.9123L35.6109 18.6819" fill="#3F4363"/>
<path fill-rule="evenodd" clip-rule="evenodd" d="M37.7037 13.7954C37.7037 13.7954 38.4683 11.8707 41.5267 10.9337C44.5851 9.99666 41.6799 10.2562 41.6799 10.2562L38.3672 11.5567L37.0929 12.8577L36.5323 13.8986L37.7105 13.7947M36.1751 18.3215C36.1751 18.3215 35.1048 14.6786 39.1827 14.1581L39.0295 13.5339L36.2266 14.2113L35.4111 16.9192L35.6158 18.6887L36.1764 18.3247" fill="#6F728A"/>
<path fill-rule="evenodd" clip-rule="evenodd" d="M37.8057 23.1618L38.4729 22.5015C38.4729 22.5015 38.7743 22.5369 38.8251 22.9016C38.876 23.2663 39.0298 26.5445 41.2206 28.3147C41.4203 28.4762 39.5897 28.0615 39.5897 28.0615L37.9588 25.4657M47.1843 22.1798C47.1843 22.1798 47.3034 20.597 47.7195 20.7237C48.1356 20.8503 48.135 21.27 48.135 21.27C48.135 21.27 47.1242 21.9373 47.1843 22.1798Z" fill="#6F728A"/>
<path d="M51.4148 16.3974C51.4148 16.3974 50.5746 16.5784 50.4971 17.3344C50.4195 18.0903 51.4148 17.4908 51.5674 17.4382M45.2471 16.4493C45.2471 16.4493 44.126 16.6057 44.126 17.3338C44.126 18.0618 45.4003 18.0112 45.7569 17.6984" fill="#6F728A"/>
<path fill-rule="evenodd" clip-rule="evenodd" d="M38.3094 19.8377C38.3094 19.8377 36.3721 18.6348 36.1687 19.7858C35.9653 20.9368 35.5052 21.763 36.4745 22.9602L35.8122 22.7513L35.2007 21.1381L34.9961 19.5768L36.1743 18.3277L37.4995 18.4315L38.2641 19.0558L38.3094 19.8377ZM39.2396 16.5531C39.2396 16.5531 40.1059 11.9737 44.4895 11.0893C48.0985 10.3612 49.9942 11.2456 50.708 12.0782C50.708 12.0782 47.497 8.17566 44.4448 9.37225C41.3926 10.5688 39.1441 12.755 39.1949 14.1599L39.2458 16.5531M51.059 12.598C51.059 12.598 49.5813 12.5461 49.5298 13.899C49.5298 13.899 49.5298 14.108 49.6315 14.315C49.6315 14.315 50.8097 12.962 51.5166 13.6907M44.585 14.4562C44.585 14.4562 44.3369 12.3796 42.5962 13.5869C41.4751 14.3675 41.5768 15.4609 41.7808 15.6686C41.9848 15.8763 41.9296 16.3017 42.0909 16.0086C42.2521 15.7154 42.195 14.7841 42.7556 14.5239C43.3162 14.2637 44.2352 13.9731 44.5912 14.4568" fill="#6F728A"/>
<path fill-rule="evenodd" clip-rule="evenodd" d="M39.7938 28.5222L35.0028 30.7083C35.0028 30.7083 36.9909 38.7679 35.972 41.2712L35.2589 41.018L35.208 37.9474L33.8829 32.1189L33.3223 30.5057L38.3099 27.0654L39.7882 28.5215M40.2868 32.9831L40.9664 33.8296V36.9521H40.1516L40.0499 34.5064C40.0499 34.2531 40.1516 33.3035 40.1516 33.3035M40.3035 37.4206L38.0091 37.5245L38.6726 37.993L40.3035 38.2462" fill="#6F728A"/>
<path fill-rule="evenodd" clip-rule="evenodd" d="M48.1533 36.9002L50.0385 36.8483L50.4974 41.6359L48.5607 41.8955L48.1533 36.9002" fill="#3F4363"/>
<path fill-rule="evenodd" clip-rule="evenodd" d="M48.6631 36.9001L51.5175 36.7438L52.6957 33.5693C52.6957 33.4129 53.7152 29.1983 53.7152 29.1983L51.4207 26.7525L50.9619 26.336L49.7384 27.5851V32.424L48.668 36.9001" fill="#3F4363"/>
<path fill-rule="evenodd" clip-rule="evenodd" d="M49.9374 36.5362L48.1533 36.9003L48.4014 38.3577C49.0637 38.6698 50.1854 37.8373 50.1854 37.8373M49.982 27.4289L53.5496 30.1348L53.6513 28.8857L50.95 26.3361L49.987 27.4352" fill="#6F728A"/>
<path fill-rule="evenodd" clip-rule="evenodd" d="M42.0731 47.1523L41.0177 42.7807L40.4931 39.5549L40.4062 37.1598L45.1824 36.9066H48.154L47.8836 42.3641L48.3425 46.5794L48.2917 47.36L44.4178 47.6721L42.0737 47.1517" fill="#6F728A"/>
<path fill-rule="evenodd" clip-rule="evenodd" d="M47.491 36.8485C47.491 36.8485 47.2367 42.2604 48.0007 46.111C48.0007 46.111 46.4715 47.0999 44.2285 47.3601L48.5098 47.2037L49.0195 46.8916L48.4081 38.3572L48.2549 36.5357" fill="#3F4363"/>
<path fill-rule="evenodd" clip-rule="evenodd" d="M50.5841 41.22L52.5722 40.6476L56.3438 40.4387L56.9044 38.6698L55.8849 35.5992L54.7067 35.4428L53.0758 35.9632L51.5106 36.7432L50.6796 36.5875L50.0322 36.8407" fill="#6F728A"/>
<path fill-rule="evenodd" clip-rule="evenodd" d="M50.5488 40.1786C50.5488 40.1786 51.874 39.5544 52.078 39.6063L51.5175 36.7446L52.1797 36.485L52.6386 39.5031L55.7479 39.6595C55.7479 39.6595 56.3593 38.4566 56.2068 37.2137L56.7674 38.8788L56.8182 39.8159L56.0028 41.065L55.085 41.2739L53.5558 41.222L53.046 40.5458L51.262 40.8054L50.7014 41.0143" fill="#3F4363"/>
<path d="M48.5451 36.4844L47.424 33.5765L46.252 31.8595C46.252 31.8595 46.5062 31.1314 46.8634 31.1314H48.0354L49.1566 31.548L49.0549 33.4727L48.5451 36.4907" fill="#6F728A"/>
<path fill-rule="evenodd" clip-rule="evenodd" d="M48.7646 35.4949C48.7646 35.4949 47.337 32.6851 47.337 32.2685C47.337 32.2685 47.5913 31.6442 47.9485 31.8C48.3057 31.9557 49.0697 32.3723 49.0697 32.3723V31.3834L47.3364 31.0187L46.1582 31.1751L48.1463 35.9627L48.5537 36.0146" fill="#3F4363"/>
<path d="M42.5311 28.6267L41.1191 28.4697L39.7939 28.0531V28.5216L40.4413 29.251L42.4803 30.188" fill="#6F728A"/>
<path fill-rule="evenodd" clip-rule="evenodd" d="M40.2535 28.7825C40.2535 28.7825 41.8336 29.4599 42.3433 29.3029L42.3941 29.9265L40.9679 29.615L40.1016 28.9908L40.2547 28.7818" fill="#3F4363"/>
<path fill-rule="evenodd" clip-rule="evenodd" d="M50.5792 31.3017C49.7142 31.2764 48.9328 31.1706 48.2488 30.9737C48.2954 30.6876 48.2085 30.4064 48.278 30.2001C48.4684 30.0608 48.7883 30.062 49.0767 30.0291C48.8274 29.9038 48.4771 29.8544 48.1899 29.9265C48.1837 29.7277 48.0957 29.6049 48.043 29.4492C48.5291 29.2719 49.677 28.1101 50.3231 28.4951C50.6307 28.6787 50.7616 29.7233 50.7851 30.2311C50.805 30.6527 50.7479 31.0776 50.5792 31.3074" fill="#3F4363"/>
<path d="M50.5783 31.3017C49.7132 31.2764 48.9319 31.1706 48.2479 30.9737C48.2944 30.6876 48.2076 30.4064 48.277 30.2001C48.4674 30.0608 48.7874 30.062 49.0757 30.0291C48.8264 29.9038 48.4761 29.8544 48.189 29.9265C48.1828 29.7277 48.0947 29.6049 48.042 29.4492C48.5282 29.2719 49.676 28.1101 50.3222 28.4951C50.6297 28.6787 50.7606 29.7233 50.7842 30.2311C50.804 30.6527 50.7469 31.0776 50.5783 31.3074V31.3017Z" stroke="#3F4363" stroke-width="0.61625"/>
<path fill-rule="evenodd" clip-rule="evenodd" d="M46.4433 29.8582L46.4359 30.0595C46.1661 30.2406 45.7302 30.2387 45.4338 30.3907C45.8087 30.4031 46.1765 30.4982 46.5122 30.6692L46.4936 31.1738C45.9987 31.5195 45.5466 32.0349 44.9637 32.3596C44.6884 32.5129 43.721 32.9079 43.4277 32.8383C43.2621 32.799 43.2466 32.5888 43.1809 32.3907C43.0395 31.9665 42.7146 31.2916 42.686 30.6528C42.6501 29.8462 42.5701 28.4938 43.4215 28.661C44.108 28.7939 44.9073 29.1168 45.4387 29.4207C45.7637 29.6024 45.9516 29.8259 46.4446 29.8652" fill="#3F4363"/>
<path d="M46.4433 29.8582L46.4359 30.0595C46.1661 30.2406 45.7302 30.2387 45.4338 30.3907C45.8087 30.4031 46.1765 30.4982 46.5122 30.6692L46.4936 31.1738C45.9987 31.5195 45.5466 32.0349 44.9637 32.3596C44.6884 32.5129 43.721 32.9079 43.4277 32.8383C43.2621 32.799 43.2466 32.5888 43.1809 32.3907C43.0395 31.9665 42.7146 31.2916 42.686 30.6528C42.6501 29.8462 42.5701 28.4938 43.4215 28.661C44.108 28.7939 44.9073 29.1168 45.4387 29.4207C45.7637 29.6024 45.9516 29.8259 46.4446 29.8652L46.4433 29.8582Z" stroke="#3F4363" stroke-width="0.61625"/>
<path fill-rule="evenodd" clip-rule="evenodd" d="M46.9354 30.8205C46.8598 30.3811 46.7723 30.2558 46.8064 29.8728C47.9536 29.0915 48.1694 31.215 46.9354 30.8205Z" fill="#3F4363"/>
<path d="M46.9354 30.8205C46.8598 30.3811 46.7723 30.2558 46.8064 29.8728C47.9536 29.0915 48.1694 31.215 46.9354 30.8205Z" stroke="#3F4363" stroke-width="0.61625"/>
<path fill-rule="evenodd" clip-rule="evenodd" d="M48.6039 31.1707C48.6039 31.1707 48.2467 30.6503 48.5022 30.4933C48.7577 30.3363 49.0119 30.4933 49.1657 30.24C49.3195 29.9868 49.1657 29.8234 49.2165 29.5119C49.2674 29.2004 49.5223 29.1473 49.7771 29.0953C50.032 29.0434 50.7458 28.939 50.8475 29.1992L50.5417 28.2622L49.9303 28.0532L47.9937 29.1979L47.892 29.7702V30.9175M43.251 32.894L43.0526 30.4597C42.9447 29.2486 43.3378 29.4594 44.366 29.4594C44.5229 29.4594 45.3334 29.6506 45.391 29.7715C45.6689 30.3514 44.926 30.2223 45.711 30.6598C46.3745 31.0289 47.5447 30.4356 47.2768 29.6151C47.1267 29.4328 46.4955 29.5518 46.2697 29.4379L45.0754 28.8047C44.5688 28.5363 43.398 28.145 42.8579 28.5198C41.4893 29.4695 42.9447 31.8437 43.4327 32.8358" fill="#6F728A"/>
<path fill-rule="evenodd" clip-rule="evenodd" d="M44.585 14.4563C43.196 14.1258 42.5058 15.0502 42.0847 16.0074C41.7089 15.9144 41.8584 15.392 41.9533 15.1261C42.2013 14.4278 43.204 13.499 44.0226 13.6244C44.3748 13.6788 44.8517 14.0074 44.585 14.455M51.3542 16.072L51.42 16.0745C51.7337 16.7406 52.0054 17.4459 52.4016 18.0334C52.1362 18.664 50.3924 19.2224 50.4197 18.0967C50.7968 17.9283 51.4479 18.0625 51.7821 17.8473C51.5886 17.306 51.3108 16.8444 51.348 16.0783M45.2969 16.0897C45.5946 16.6469 45.6919 17.2331 46.1155 17.6535C46.3059 17.8435 46.6767 18.0746 46.4876 18.6019C46.4442 18.7267 46.1304 19.004 45.9493 19.0578C45.2876 19.2572 43.7448 19.0989 44.2675 18.2563C44.8151 18.2816 45.5512 18.619 45.9605 18.2132C45.6461 17.7067 45.0923 16.6855 45.292 16.0878M51.1 21.7542C50.1035 22.4076 48.9916 23.1186 47.3588 22.954C47.0097 22.6374 46.877 21.9549 47.2162 21.4997C47.3929 21.8163 47.2819 22.3861 47.7743 22.4646C48.7008 22.6267 49.7791 21.8859 50.4458 21.627C50.8594 20.9153 50.4104 20.6539 50.0377 20.1961C49.275 19.2579 48.253 18.0954 48.2902 16.6906C48.5984 16.4626 48.6251 17.0388 48.6623 17.1439C49.0604 18.0948 50.0619 19.311 50.793 20.1195C50.9791 20.3202 51.268 20.5121 51.3015 20.645C51.3964 21.0249 51.0547 21.4921 51.0944 21.7485M37.9665 21.066C37.654 20.8837 37.5796 20.0822 37.2131 20.053C36.6891 20.0214 36.779 21.0933 36.7864 21.7207C36.4255 21.3864 36.3623 20.3569 36.6271 19.8213C36.3251 19.6694 36.1899 19.9885 36.0225 20.0999C36.2376 18.5025 38.3169 19.3592 37.9659 21.0527M51.7412 22.4203C51.2773 23.3218 50.6213 24.3146 49.2595 24.3437C49.2316 24.0524 49.2099 23.6093 49.2607 23.4339C50.3013 23.3326 50.9437 22.7913 51.7412 22.4209M45.2176 23.0046C46.0857 23.4706 47.6819 23.5206 48.862 23.4858C48.9252 23.7498 48.924 24.0759 48.9265 24.3975C47.4097 24.4747 45.6151 24.0917 45.2182 23.0046M45.0532 23.8739C45.6535 25.4124 47.7173 25.2351 49.4573 25.1933C49.3804 25.3934 49.2093 25.6289 49.0083 25.7144C48.4502 25.9461 46.9123 26.1221 46.1384 25.7017C45.6473 25.4358 45.3323 24.8331 45.0631 24.4798C44.9391 24.3089 44.2861 23.8739 45.0532 23.8733" fill="white"/>
<path fill-rule="evenodd" clip-rule="evenodd" d="M51.0341 32.3641L48.8203 35.9475C49.1707 34.8953 49.3207 33.1346 49.3735 31.7924C50.1064 31.4423 50.7346 31.8715 51.0354 32.3634" fill="#6F728A"/>
<path fill-rule="evenodd" clip-rule="evenodd" d="M54.8256 36.7928C54.0368 36.9543 53.4825 37.7425 52.7129 37.6868C53.1358 37.079 53.8769 36.8213 54.8256 36.7928M55.1729 38.059C54.5298 38.1224 53.7745 38.2344 53.1228 38.1857C53.4316 37.7045 54.621 37.8704 55.1729 38.059ZM55.3961 39.1391C54.6737 39.155 53.7752 39.1404 53.0893 39.0758C53.4955 38.6301 54.9286 38.9112 55.3961 39.1391Z" fill="white"/>
<path fill-rule="evenodd" clip-rule="evenodd" d="M49.6734 42.1135C49.777 43.0404 50.1366 43.9787 50.092 44.9942C49.6926 45.1316 49.4632 45.2519 48.9274 45.2512L48.8096 42.2483C49.0731 42.2661 49.4607 42.0565 49.6728 42.1141" fill="#3F4363"/>
<path fill-rule="evenodd" clip-rule="evenodd" d="M48.509 28.4578C48.1463 28.6997 47.8374 29.0023 47.4889 29.26C46.7163 29.2992 46.2946 29.2055 45.7266 28.7522C45.7359 28.7161 45.7929 28.732 45.7886 28.6877C46.6158 29.0644 47.6675 28.5344 48.5028 28.4585" fill="#3F4363"/>
<path fill-rule="evenodd" clip-rule="evenodd" d="M44.166 34.2147C44.3936 33.2093 45.2841 32.6889 46.0927 32.1349C46.9274 33.2163 47.4353 34.6073 47.994 35.9495C46.6731 35.543 45.3238 34.8833 44.166 34.2147Z" fill="#6F728A"/>
<path fill-rule="evenodd" clip-rule="evenodd" d="M48.8114 42.2476C48.778 43.0707 48.8908 44.3876 48.9293 45.2505C49.4644 45.2512 49.6939 45.1302 50.0938 44.9935C50.1391 43.9786 49.7794 43.0397 49.6753 42.1128C49.4644 42.0558 49.0756 42.2647 48.8121 42.247L48.8114 42.2476ZM40.4752 37.5714C40.8287 40.8845 41.3396 43.6696 42.2773 46.6035C44.3584 47.2493 46.8674 47.305 48.7079 46.7225C48.3699 45.0663 48.5175 43.0504 48.3203 41.284C48.1715 39.9558 48.2471 38.6186 48.0431 37.2637C45.8138 36.7902 42.663 37.153 40.4758 37.5708L40.4752 37.5714ZM48.5696 37.2853C48.551 38.7085 48.6316 40.1121 48.7383 41.5367C49.2734 41.4543 49.6374 41.3999 50.1335 41.2885C49.9723 39.9171 49.9921 38.3736 49.6622 37.1606C49.2821 37.1644 48.9472 37.1561 48.5684 37.2859L48.5696 37.2853ZM51.2845 37.0561C51.0364 36.9966 50.735 37.0536 50.492 37.0586C50.6061 38.2185 50.8826 39.4987 50.98 40.7161C51.362 40.7288 51.566 40.5452 51.8792 40.4819C51.8959 39.4132 51.788 37.9406 51.2838 37.0555L51.2845 37.0561ZM55.3958 40.8909C56.1915 40.6933 56.6919 39.6981 56.4686 38.6762C56.3198 37.9893 56.0532 36.6958 55.7679 36.2565C55.5571 35.9317 54.9866 35.5056 54.5314 35.8038C53.7904 36.2881 52.485 36.4287 51.9455 37.0156C52.2165 37.9368 52.3008 39.2017 52.4125 40.3692C53.3383 40.4281 54.4775 40.1096 55.2464 40.4477C54.7088 40.625 54.0124 40.6269 53.5473 40.8858C53.9268 41.0732 54.8154 41.0352 55.3952 40.8921L55.3958 40.8909ZM47.9947 35.9494C47.4354 34.6072 46.9281 33.2162 46.0935 32.1349C45.2848 32.6888 44.3943 33.2093 44.1668 34.2147C45.3245 34.8832 46.6739 35.5429 47.9947 35.9494ZM49.3726 31.793C49.3199 33.1352 49.1699 34.8965 48.8195 35.9481C49.6554 34.8611 50.3295 33.5961 51.0333 32.3647C50.7332 31.8728 50.105 31.4435 49.3714 31.7936L49.3726 31.793ZM47.8099 31.2263C47.4937 31.1915 47.2246 31.598 46.8128 31.4226C46.7185 31.529 46.6268 31.6442 46.5362 31.7487C47.4459 32.868 47.8589 34.4552 48.5615 35.7702C48.9386 34.5072 48.8952 33.1238 48.9783 31.7436C48.4605 31.7772 48.1721 31.2656 47.8099 31.2263ZM46.8054 29.8727C46.7719 30.2558 46.8587 30.3811 46.9343 30.8205C48.1746 31.2143 47.9526 29.0921 46.8054 29.8727ZM45.4368 29.4144C44.9053 29.1168 44.106 28.7939 43.4195 28.6546C42.5681 28.4881 42.6481 29.8405 42.6841 30.6464C42.7126 31.2859 43.0375 31.9601 43.1789 32.3843C43.2453 32.5825 43.2595 32.7927 43.4257 32.8319C43.719 32.8952 44.6858 32.5071 44.9618 32.3533C45.5447 32.0291 45.9973 31.5138 46.4916 31.1675L46.5102 30.6629C46.1746 30.4918 45.8067 30.3968 45.4318 30.3843C45.7282 30.2324 46.1635 30.2343 46.4339 30.0532L46.4414 29.8519C45.9484 29.8139 45.7605 29.5891 45.4355 29.4074L45.4368 29.4144ZM40.3518 28.4723C39.9103 28.9294 41.5896 29.553 42.1241 29.5866C42.121 29.2972 42.2853 29.0244 42.2525 28.8167C41.6175 28.7027 40.7828 28.7787 40.3518 28.4723V28.4723ZM45.7877 28.6875C45.7859 28.7319 45.7288 28.716 45.7257 28.7521C46.2938 29.2054 46.7154 29.2991 47.4881 29.2599C47.8366 29.0016 48.1454 28.6996 48.5082 28.4577C47.6729 28.5337 46.6212 29.0636 45.7939 28.6869L45.7877 28.6875ZM50.7772 30.2324C50.7536 29.724 50.6222 28.6793 50.3152 28.4963C49.6703 28.1114 48.5218 29.2732 48.0351 29.4505C48.0878 29.6062 48.1752 29.729 48.182 29.9278C48.4698 29.8556 48.8195 29.905 49.0688 30.0304C48.7804 30.0633 48.4611 30.062 48.2701 30.2013C48.2 30.4077 48.2874 30.6888 48.2409 30.975C48.9249 31.1713 49.7063 31.277 50.5713 31.303C50.7388 31.0795 50.7971 30.6546 50.7772 30.2267V30.2324ZM39.6089 28.9155C39.4706 28.8142 38.533 27.5695 38.4046 27.6207C36.7148 28.3026 35.1286 29.484 33.7116 30.6008C35.0628 33.5619 35.6085 37.189 35.7053 40.6851C37.2531 41.424 38.6136 42.4895 40.7133 42.6009C40.4702 40.8447 40.2482 39.2783 40.1106 37.6246C39.5835 37.3967 38.8257 37.6348 38.3308 37.555C38.3265 36.9472 39.0855 37.2891 39.1482 36.8801C39.1959 36.5711 38.7308 36.5477 38.8815 36.0608C39.2678 36.2039 39.4706 36.5205 39.8824 36.6395C40.2588 35.7987 39.8774 34.3115 39.932 33.6094C39.9425 33.4777 39.9965 32.8788 40.2854 32.9839C40.5422 33.07 40.2718 34.5768 40.2941 35.2416C40.3189 35.8544 40.2216 36.447 40.4647 36.8307C42.5502 36.5389 44.6497 36.3633 46.7539 36.3046C46.2702 36.0931 45.6966 35.8931 45.0672 35.5303C44.7261 35.3403 43.6508 34.925 43.5522 34.5945C43.3953 34.0671 43.9646 33.7867 44.062 33.3283C43.0375 33.8981 42.8372 32.7813 42.5948 31.9899C42.3752 31.2726 42.25 30.7363 42.196 30.3235C41.3136 29.893 40.3698 29.4587 39.6101 28.9079L39.6089 28.9155ZM49.8873 27.7708C51.3012 27.0712 51.5617 30.3856 51.0017 31.4536C51.0873 31.7721 51.3818 31.8943 51.5021 32.1805C50.7133 33.6227 49.8371 34.9693 49.0328 36.3951C49.6312 36.0152 50.4864 36.3274 51.1908 36.0425C51.4482 35.9386 51.6348 35.3365 51.8295 34.8554C52.366 33.5309 52.929 31.8607 53.1795 30.597C53.2354 30.309 53.3904 29.6815 53.3557 29.4258C53.2936 28.9668 52.6841 28.6268 52.374 28.3431C51.8023 27.8189 51.4426 27.3574 50.846 26.868C50.598 27.2326 50.0858 27.477 49.888 27.7733L49.8873 27.7708ZM36.3837 14.9742C35.7102 15.7308 35.8504 17.1484 35.9328 18.1569C37.1501 17.375 38.7655 18.219 38.7507 19.5485C39.3317 19.5327 38.9677 18.8078 38.8623 18.3393C38.5187 16.8134 39.4408 15.1547 38.9038 13.7593C37.862 13.8397 37.0044 14.2746 36.383 14.9736L36.3837 14.9742ZM41.202 10.5836C39.6765 11.0249 37.7293 12.1556 37.0968 13.5542C37.5817 13.482 37.9185 13.2325 38.3972 13.2015C38.5783 13.1888 38.8151 13.2787 39.0235 13.2268C39.4377 13.1217 39.7875 12.174 40.1 11.8213C40.4039 11.4769 40.771 11.3294 41.0215 11.0154C41.1828 10.9362 41.4203 10.9413 41.4296 10.695C41.3595 10.619 41.2869 10.5608 41.2026 10.5848L41.202 10.5836ZM49.1382 10.9983C47.5557 10.0866 44.878 9.40091 43.1938 10.2575C41.8295 10.9489 40.0002 12.0936 39.3739 13.5434C39.9586 14.9362 39.2002 16.224 39.1525 17.6447C39.1277 18.4007 39.501 19.0604 39.5295 19.8828C39.3292 20.2196 38.7172 20.2614 38.2955 20.2373C38.1529 19.5093 37.9036 18.6913 37.1694 18.6102C36.1307 18.4944 35.371 19.3719 35.3239 20.2893C35.2619 21.3681 36.1362 23.1554 37.3641 23.0306C37.8391 22.9825 37.9557 22.4969 38.4728 22.502C38.7531 23.0731 38.04 23.2529 37.9668 23.6606C37.9482 23.7663 38.0257 24.1785 38.0722 24.3722C38.2955 25.3143 38.7934 26.5331 39.2833 27.2497C39.9053 28.1595 41.1269 28.2963 42.441 28.3856C42.6766 27.8696 43.5404 27.912 44.1041 28.0468C43.4282 27.7746 42.8019 27.1117 42.281 26.5261C41.6832 25.8537 41.078 25.1332 41.047 24.2532C42.1756 25.8524 43.1095 27.2497 45.1627 27.9531C46.7167 28.485 48.5311 27.7094 49.7249 26.8534C50.221 26.4976 50.5161 25.9329 50.8684 25.4162C52.1861 23.4814 52.8007 20.7185 52.6655 18.0423C52.6035 16.9382 52.6121 15.8378 52.25 15.0952C51.8705 14.3183 50.5881 13.6238 49.8377 14.3259C49.6988 13.5706 50.4622 13.104 51.3589 13.3762C50.7202 12.5342 50.0486 11.5212 49.1389 10.9976L49.1382 10.9983ZM52.0863 35.9089C53.3228 35.2821 55.6333 34.2197 56.4085 35.9114C56.6937 36.535 57.0305 37.5892 57.1787 38.2324C57.3883 39.1403 56.9517 41.0498 56.0377 41.3537C55.2303 41.6228 54.2877 41.6069 53.3091 41.4069C53.1944 41.3094 53.0611 41.141 52.978 40.9637C52.2835 40.9365 51.6324 41.0017 51.0848 41.2929C51.1369 41.8171 50.7896 41.9007 50.4634 42.0096C50.2216 42.9871 50.9471 44.2635 50.7735 45.1549C50.6495 45.7899 49.8849 45.8881 49.3224 46.0071C49.3038 46.3597 49.3472 46.6548 49.3857 46.953C49.2573 47.4367 48.6806 47.7127 48.133 47.7798C46.3347 48.0014 43.6049 48.0995 41.876 47.4645C41.3936 46.2553 41.0141 44.7864 40.611 43.4062C38.9299 43.5899 37.5656 42.663 36.2801 42.0558C35.8349 41.845 35.2197 41.7291 35.0523 41.367C34.891 41.0169 34.9568 40.3451 34.9171 39.7107C34.8154 38.09 34.728 36.5281 34.3094 34.8693C34.1215 34.1248 33.7934 33.4682 33.5652 32.7509C33.3544 32.0861 32.9842 31.265 32.8881 30.6021C32.7454 29.6195 33.6508 29.565 34.2306 29.1459C35.1261 28.4875 35.8293 28.1234 36.7991 27.5296C37.0863 27.3536 37.9526 26.9091 38.0518 26.7034C38.2477 26.2969 37.7157 25.7233 37.5731 25.4042C37.348 24.9002 37.2308 24.4716 37.1985 23.9746C36.3849 23.8436 35.7679 23.3491 35.3952 22.7907C34.7788 21.8682 34.3515 20.1614 34.8848 18.8628C34.9264 18.7603 35.1354 18.5589 35.1658 18.4026C35.2265 18.0936 35.0517 17.6821 35.0405 17.3529C34.9785 15.665 35.3195 14.2113 36.4327 13.7023C36.8841 11.865 38.5014 11.254 40.0244 10.3405C40.5936 9.99857 41.2212 9.78078 41.8698 9.53766C44.1953 8.66396 47.7634 8.82857 49.6932 10.3189C50.5118 10.9508 51.8202 12.2854 52.2878 13.2515C53.5237 15.8017 53.435 20.0639 52.5712 23.1661C52.4552 23.5827 52.286 24.195 52.0503 24.6951C51.886 25.0446 51.3762 25.7436 51.4383 26.0519C51.5021 26.371 52.601 27.2231 52.8366 27.4549C53.2608 27.8727 54.0669 28.4273 54.1389 28.9554C54.2089 29.5163 53.897 30.2849 53.7383 30.8262C53.2093 32.6338 52.6928 34.3039 52.0931 35.9152" fill="white"/>
<path fill-rule="evenodd" clip-rule="evenodd" d="M43.8368 23.3986C43.9037 23.3074 44.2727 23.1688 44.7886 23.4227C44.7886 23.4227 44.1772 23.5265 44.2281 24.5686L43.9738 24.5167C43.9738 24.5167 43.7103 23.5733 43.8374 23.3992" fill="#6F728A"/>
<path fill-rule="evenodd" clip-rule="evenodd" d="M48.3057 32.347C48.3057 32.4036 48.2893 32.4589 48.2585 32.506C48.2277 32.5531 48.1839 32.5897 48.1327 32.6114C48.0815 32.6331 48.0251 32.6387 47.9707 32.6277C47.9164 32.6167 47.8664 32.5894 47.8272 32.5494C47.788 32.5094 47.7613 32.4584 47.7505 32.4029C47.7397 32.3473 47.7452 32.2898 47.7665 32.2375C47.7877 32.1852 47.8236 32.1405 47.8697 32.1091C47.9158 32.0776 47.97 32.0609 48.0254 32.0609C48.1804 32.0609 48.3057 32.1894 48.3057 32.347ZM48.586 33.674C48.586 33.7306 48.5696 33.786 48.5388 33.833C48.508 33.8801 48.4642 33.9168 48.413 33.9384C48.3617 33.9601 48.3054 33.9657 48.251 33.9547C48.1966 33.9437 48.1467 33.9164 48.1075 33.8764C48.0683 33.8364 48.0416 33.7854 48.0308 33.7299C48.02 33.6744 48.0255 33.6168 48.0467 33.5645C48.068 33.5122 48.1039 33.4675 48.15 33.4361C48.1961 33.4047 48.2503 33.3879 48.3057 33.3879C48.4607 33.3879 48.586 33.5164 48.586 33.674Z" fill="white"/>
<path d="M63.817 40.6825V38.1032H65.2148C65.2578 38.7912 65.4155 39.2962 65.6879 39.6182C65.9674 39.9403 66.3796 40.1013 66.9244 40.1013C67.6198 40.1013 68.1035 39.827 68.3755 39.2783C68.655 38.7367 68.7947 37.7159 68.7947 36.2159V21.6922H66.4624V20.3639H75.0101V21.6934H72.9551V36.3026C72.9551 38.0808 72.5142 39.3798 71.6324 40.1994C70.758 41.0191 69.364 41.429 67.4503 41.429C66.855 41.429 66.2566 41.3667 65.6551 41.2422C65.0531 41.1177 64.4402 40.9311 63.8164 40.6825H63.817ZM84.6641 30.1728C84.6641 28.6364 84.5244 27.5607 84.2449 26.9458C83.9655 26.3236 83.4888 26.0126 82.8149 26.0126C82.1626 26.0126 81.6934 26.3165 81.4073 26.9242C81.1278 27.532 80.9881 28.5492 80.9881 29.9759V30.1734H84.6654L84.6641 30.1728ZM88.8462 31.4789H80.9868V31.5675C80.9868 33.0752 81.209 34.1656 81.6535 34.8388C82.0979 35.5049 82.8147 35.8379 83.804 35.8379C84.6284 35.8379 85.295 35.6146 85.8039 35.1681C86.3124 34.7215 86.6386 34.0736 86.7824 33.2244H88.5671C88.2587 34.5489 87.6459 35.5222 86.7285 36.1443C85.8107 36.7665 84.5277 37.0775 82.8794 37.0775C80.9013 37.0775 79.382 36.547 78.3216 35.4859C77.2674 34.418 76.7403 32.8958 76.7403 30.9192C76.7403 28.9874 77.2814 27.4799 78.3637 26.3969C79.446 25.3138 80.9513 24.7723 82.8794 24.7723C84.7716 24.7723 86.2231 25.3431 87.2339 26.4849C88.2447 27.619 88.7821 29.2862 88.8462 31.4865V31.4789ZM90.6098 36.7528V35.4245H92.2333V26.4127H90.6098V25.0844H96.0396V26.7305C96.4943 26.0354 97.0173 25.5341 97.6085 25.2269C98.1963 24.9196 98.9405 24.766 99.8409 24.766C101.124 24.766 102.091 25.1538 102.743 25.9296C103.402 26.6978 103.732 27.8321 103.732 29.3326V35.4251H105.366V36.7528H98.5448V35.4245H99.932V29.2225C99.932 28.2348 99.8066 27.5506 99.5556 27.1699C99.3076 26.7816 98.8811 26.5874 98.2763 26.5874C97.5094 26.5874 96.9468 26.8766 96.5884 27.4548C96.2299 28.0254 96.0507 28.9365 96.0507 30.188V35.4238H97.4485V36.7534H90.6098V36.7528ZM113.478 36.7528H106.607V35.4245H108.23V20.9894H106.607V19.6725H112.037V30.6387L116.649 26.4127H115.284V25.0844H120.493V26.4127H118.374L115.429 29.1129L120.245 35.4251H121.482V36.7528H114.923V35.4245H116.267L113.095 31.2643L112.031 32.2304V35.4251H113.472V36.7528H113.478ZM123.144 21.7795C123.144 21.1869 123.344 20.6893 123.745 20.2866C124.146 19.8772 124.637 19.6725 125.218 19.6725C125.784 19.6725 126.264 19.8772 126.658 20.2866C127.059 20.6893 127.26 21.1869 127.26 21.7795C127.26 22.3578 127.059 22.8516 126.658 23.261C126.264 23.6637 125.784 23.865 125.218 23.865C124.637 23.865 124.147 23.6637 123.745 23.261C123.344 22.8584 123.144 22.3645 123.144 21.7795ZM127.298 35.4232H128.932V36.7528H121.863V35.4245H123.487V26.4127H121.863V25.0844H127.293V35.4251L127.298 35.4232ZM130.26 36.7528V35.4245H131.884V26.4127H130.26V25.0844H135.69V26.7305C136.145 26.0354 136.668 25.5341 137.259 25.2269C137.847 24.9196 138.591 24.766 139.491 24.766C140.774 24.766 141.741 25.1538 142.393 25.9296C143.053 26.6978 143.382 27.8321 143.382 29.3326V35.4251H145.016V36.7528H138.195V35.4245H139.582V29.2225C139.582 28.2348 139.457 27.5506 139.206 27.1699C138.958 26.7816 138.531 26.5874 137.927 26.5874C137.16 26.5874 136.597 26.8766 136.239 27.4548C135.88 28.0254 135.701 28.9365 135.701 30.188V35.4238H137.099V36.7534H130.277L130.26 36.7528ZM146.538 36.4121V33.1516H147.754C147.854 34.0223 148.173 34.6882 148.71 35.1491C149.248 35.6028 149.979 35.8297 150.904 35.8297C151.678 35.8297 152.269 35.6946 152.677 35.4245C153.093 35.1459 153.301 34.7508 153.301 34.2393C153.301 33.775 153.169 33.4129 152.904 33.1529C152.646 32.8966 152.141 32.6734 151.388 32.483L149.819 32.0778C148.637 31.7824 147.78 31.354 147.249 30.7926C146.719 30.2291 146.454 29.4694 146.454 28.5134C146.454 27.2471 146.884 26.3067 147.744 25.6922C148.604 25.0701 149.93 24.759 151.722 24.759C152.396 24.759 153.112 24.8174 153.872 24.9344C154.639 25.0441 155.485 25.2197 156.41 25.4611V28.4102H155.194C155.13 27.6082 154.85 27.0082 154.356 26.6102C153.868 26.2076 153.166 26.0062 152.249 26.0062C151.475 26.0062 150.887 26.1343 150.486 26.3905C150.091 26.6438 149.894 27.0097 149.894 27.4884C149.894 27.8834 150.009 28.1945 150.238 28.4216C150.468 28.6482 150.88 28.8386 151.475 28.9926L153.034 29.3978C154.532 29.7861 155.566 30.2652 156.134 30.835C156.708 31.4057 156.995 32.1996 156.995 33.2168C156.995 34.5337 156.532 35.507 155.607 36.1367C154.69 36.7589 153.26 37.0699 151.317 37.0699C150.608 37.0699 149.856 37.0151 149.06 36.9053C148.265 36.7956 147.423 36.631 146.534 36.4115L146.538 36.4121Z" fill="#3F4363"/>
</g>
<defs>
<clipPath id="clip0_1889_13394">
<rect width="127" height="39" fill="white" transform="translate(30 9)"/>
</clipPath>
</defs>
</svg>
