<svg width="187" height="57" viewBox="0 0 187 57" fill="none" xmlns="http://www.w3.org/2000/svg">
<path d="M82.8002 34.2114H81.1341C81.0226 34.2114 80.9176 34.2639 80.8498 34.3535C79.8823 35.7835 78.2479 36.7237 76.3893 36.7237C73.4156 36.7237 71.0071 34.3142 71.0071 31.3416C71.0071 28.369 73.4167 25.9594 76.3893 25.9594C77.2701 25.9592 78.1375 26.1754 78.9153 26.5888C79.693 27.0023 80.3573 27.6004 80.8498 28.3307C80.9176 28.4182 81.0226 28.4728 81.1341 28.4728H82.8002C82.8611 28.4722 82.9209 28.4562 82.9739 28.4262C83.027 28.3962 83.0716 28.3533 83.1035 28.3015C83.1355 28.2496 83.1538 28.1905 83.1568 28.1297C83.1598 28.0689 83.1473 28.0083 83.1205 27.9535C82.493 26.7068 81.5313 25.659 80.3429 24.927C79.1546 24.1949 77.7861 23.8075 76.3904 23.8079C72.2294 23.8079 68.8545 27.1817 68.8545 31.3438C68.8545 35.5058 72.2283 38.8797 76.3904 38.8797C77.786 38.8798 79.1541 38.4923 80.3423 37.7602C81.5305 37.0282 82.492 35.9805 83.1195 34.734C83.1457 34.6837 83.1588 34.629 83.1588 34.5733C83.1582 34.4782 83.1201 34.3871 83.0528 34.32C82.9854 34.2528 82.8942 34.215 82.7991 34.2147L82.8002 34.2114ZM87.8238 21.2933C87.8238 23.2066 84.9529 23.2066 84.9529 21.2933C84.9529 19.3801 87.8238 19.3801 87.8238 21.2933ZM87.4663 38.1581V24.1643H85.3126V38.1581C85.3131 38.253 85.3511 38.3439 85.4182 38.411C85.4853 38.4782 85.5762 38.5161 85.6711 38.5167H87.1066C87.2015 38.5161 87.2924 38.4782 87.3595 38.411C87.4267 38.3439 87.4646 38.253 87.4652 38.1581H87.4663ZM96.8028 23.8144C94.6316 23.9172 92.8966 24.9547 91.7738 26.5388V24.5229C91.7732 24.4279 91.7352 24.3371 91.6681 24.2699C91.601 24.2028 91.5101 24.1648 91.4152 24.1643H89.9808C89.8859 24.1648 89.795 24.2028 89.7279 24.2699C89.6608 24.3371 89.6228 24.4279 89.6222 24.5229V38.1581C89.6222 38.3549 89.7818 38.5167 89.9808 38.5167H91.4163C91.5112 38.5161 91.6021 38.4782 91.6692 38.411C91.7363 38.3439 91.7743 38.253 91.7749 38.1581V31.3405C91.7749 28.498 93.9942 26.1551 96.7984 25.9703C96.8937 25.9701 96.9851 25.9321 97.0524 25.8647C97.1198 25.7973 97.1578 25.706 97.1581 25.6107V24.1719C97.1576 24.0779 97.1204 23.9879 97.0544 23.9209C96.9884 23.8539 96.899 23.8153 96.805 23.8133L96.8028 23.8144ZM111.103 34.2005H109.437C109.325 34.2005 109.22 34.2529 109.152 34.3426C108.185 35.7726 106.55 36.7128 104.692 36.7128C101.718 36.7128 99.3097 34.3032 99.3097 31.3306C99.3097 28.358 101.719 25.9485 104.692 25.9485C106.548 25.9485 108.184 26.8887 109.152 28.3209C109.22 28.4083 109.325 28.463 109.437 28.463H111.114C111.209 28.4627 111.3 28.4249 111.367 28.3577C111.435 28.2906 111.473 28.1995 111.473 28.1044C111.473 28.0485 111.46 27.9933 111.434 27.9437C110.807 26.6972 109.845 25.6494 108.657 24.9174C107.469 24.1854 106.101 23.7979 104.705 23.798C100.543 23.798 97.169 27.1718 97.169 31.3339C97.169 35.496 100.543 38.8698 104.705 38.8698C106.101 38.87 107.469 38.4824 108.657 37.7504C109.845 37.0184 110.807 35.9707 111.434 34.7241C111.46 34.6739 111.473 34.6192 111.473 34.5634C111.473 34.4683 111.435 34.3773 111.367 34.3101C111.3 34.243 111.209 34.2051 111.114 34.2048L111.103 34.2005ZM115.41 19.4884H113.975C113.88 19.4889 113.789 19.5269 113.722 19.594C113.655 19.6611 113.617 19.752 113.616 19.847V38.1483C113.617 38.2432 113.655 38.3341 113.722 38.4012C113.789 38.4683 113.88 38.5063 113.975 38.5069H115.41C115.505 38.5063 115.596 38.4683 115.663 38.4012C115.73 38.3341 115.768 38.2432 115.769 38.1483V19.8568C115.768 19.7619 115.73 19.671 115.663 19.6039C115.596 19.5367 115.505 19.4988 115.41 19.4982V19.4884ZM125.468 23.7958C121.306 23.7958 117.932 27.1697 117.932 31.3317C117.932 35.4938 121.306 38.8676 125.468 38.8676C126.864 38.8678 128.232 38.4802 129.42 37.7482C130.608 37.0162 131.57 35.9685 132.197 34.722C132.321 34.4836 132.146 34.1994 131.878 34.2027H130.202C130.087 34.2027 129.98 34.2573 129.912 34.3502C128.945 35.7759 127.31 36.7139 125.457 36.7139C122.729 36.7139 120.474 34.6826 120.122 32.0489H132.623C132.714 32.0482 132.803 32.0125 132.869 31.9492C132.935 31.8858 132.975 31.7995 132.98 31.7078L132.991 31.3306C132.991 27.1686 129.617 23.7947 125.456 23.7947L125.468 23.7958ZM120.281 29.8963C120.909 27.6223 122.992 25.9605 125.468 25.9605C127.945 25.9605 130.027 27.6332 130.656 29.8963H120.281ZM153.846 19.1309C150.975 19.1309 150.975 23.4383 153.846 23.4383C156.717 23.4383 156.717 19.1309 153.846 19.1309ZM155.639 24.1544V38.1483C155.639 38.2432 155.601 38.3341 155.534 38.4012C155.466 38.4683 155.376 38.5063 155.281 38.5069H152.41C152.315 38.5063 152.224 38.4683 152.157 38.4012C152.09 38.3341 152.052 38.2432 152.051 38.1483V24.1544H155.639ZM142.676 38.8753C146.194 38.8753 149.145 36.4646 149.977 33.2067C149.983 33.1827 149.986 33.1581 149.986 33.1334C149.985 33.0385 149.947 32.9476 149.88 32.8805C149.813 32.8134 149.722 32.7754 149.627 32.7748H146.59C146.522 32.7752 146.454 32.7952 146.397 32.8323C146.339 32.8695 146.293 32.9224 146.264 32.9848C145.639 34.3426 144.269 35.2861 142.676 35.2861C141.968 35.2862 141.272 35.0956 140.663 34.7343C140.053 34.373 139.552 33.8542 139.212 33.2325C138.873 32.6108 138.706 31.9091 138.731 31.201C138.756 30.4929 138.971 29.8046 139.354 29.2082C139.736 28.6118 140.272 28.1295 140.906 27.8118C141.539 27.494 142.246 27.3526 142.953 27.4024C143.66 27.4523 144.34 27.6914 144.923 28.0948C145.505 28.4982 145.968 29.051 146.263 29.6951C146.292 29.7573 146.338 29.8099 146.396 29.8469C146.454 29.8839 146.521 29.9037 146.589 29.9039H149.626C149.721 29.9034 149.812 29.8654 149.879 29.7983C149.946 29.7311 149.984 29.6403 149.985 29.5453C149.984 29.521 149.981 29.4969 149.976 29.4732C149.145 26.2152 146.193 23.8035 142.675 23.8035C138.514 23.8035 135.139 27.1773 135.139 31.3394C135.139 35.5015 138.514 38.8753 142.675 38.8753H142.676Z" fill="#3F4363"/>
<path d="M48.6686 33.1725C50.9693 33.1725 52.8343 31.3074 52.8343 29.0068C52.8343 26.7061 50.9693 24.8411 48.6686 24.8411C46.368 24.8411 44.5029 26.7061 44.5029 29.0068C44.5029 31.3074 46.368 33.1725 48.6686 33.1725Z" fill="#3F4363"/>
<path d="M48.6683 11.5139C40.517 11.5139 33.6687 17.0896 31.7263 24.6336C31.7081 24.7013 31.6984 24.771 31.6973 24.8411C31.6973 25.2989 32.0696 25.6743 32.5304 25.6743H39.5846C39.7443 25.6748 39.9007 25.6289 40.0348 25.5423C40.1689 25.4556 40.2749 25.3318 40.34 25.186C40.34 25.186 40.3506 25.1661 40.3552 25.1555C41.8094 22.0182 44.9848 19.8407 48.6714 19.8407C53.7328 19.8407 57.8359 23.9424 57.8359 29.0038C57.8359 34.0652 53.7343 38.1668 48.6729 38.1668C44.9878 38.1668 41.8124 35.9893 40.3567 32.8521C40.3522 32.8414 40.3415 32.8216 40.3415 32.8216C40.2072 32.5255 39.9112 32.3333 39.5862 32.3333H32.5319C32.0711 32.3333 31.6988 32.7056 31.6988 33.1664C31.6996 33.2365 31.7093 33.3063 31.7278 33.3739C33.6702 40.918 40.52 46.4936 48.6698 46.4936C58.3318 46.4921 66.178 38.6612 66.178 29.0007C66.178 19.3403 58.3456 11.5078 48.6851 11.5078L48.6683 11.5139Z" fill="#3F4363"/>
</svg>
