<svg width="187" height="57" viewBox="0 0 187 57" fill="none" xmlns="http://www.w3.org/2000/svg">
<g clip-path="url(#clip0_995_11190)">
<path d="M75.4263 28.1591C75.4263 23.405 74.0688 20.9691 71.3602 20.8327C70.2816 20.7831 69.2279 20.9505 68.2052 21.3534C67.387 21.6447 66.8354 21.936 66.5502 22.2273V33.5703C68.2858 34.6612 69.823 35.1633 71.168 35.0827C74.0069 34.8967 75.4263 32.591 75.4263 28.1591ZM78.7734 28.3575C78.7734 30.7748 78.2093 32.7769 77.0688 34.3699C75.7982 36.1736 74.0378 37.1034 71.794 37.1529C70.0957 37.2087 68.354 36.6757 66.5564 35.56V45.8678L63.6494 44.8327V21.9484C64.1267 21.3658 64.7403 20.8637 65.4841 20.436C67.2135 19.4257 69.3147 18.9112 71.794 18.8864L71.8374 18.9298C74.0998 18.8988 75.8416 19.8286 77.0688 21.7129C78.1969 23.436 78.7734 25.6488 78.7734 28.3575ZM96.5378 35.1261C96.5378 38.3616 96.2155 40.6054 95.5647 41.8513C94.9139 43.0972 93.6742 44.0951 91.8395 44.8327C90.3519 45.4153 88.7465 45.7377 87.0234 45.7872L86.5461 43.9587C88.3002 43.7232 89.5337 43.4815 90.2465 43.2459C91.6535 42.7686 92.6205 42.0372 93.1535 41.0579C93.5812 40.2583 93.792 38.7335 93.792 36.4835V35.7273C91.8023 36.6323 89.7197 37.0786 87.544 37.0786C86.1122 37.0786 84.8478 36.6323 83.7631 35.7273C82.542 34.7418 81.9283 33.4959 81.9283 31.9835V19.8782L84.8354 18.8802V31.0662C84.8354 32.3678 85.2568 33.372 86.0936 34.0724C86.9304 34.7728 88.0213 35.1137 89.354 35.0889C90.6866 35.0579 92.1122 34.5434 93.6308 33.5393V19.3203H96.5378V35.1261ZM107.893 36.9918C107.577 37.0166 107.255 37.0352 106.939 37.0352C105.296 37.0352 104.013 36.6447 103.096 35.8575C102.185 35.0703 101.726 33.9856 101.726 32.6034V21.1488H99.7362V19.3203H101.726V14.467L104.633 13.4319V19.3265H107.899V21.1488H104.633V32.5228C104.633 33.6137 104.924 34.3885 105.513 34.841C106.015 35.2129 106.815 35.4236 107.899 35.4794L107.893 36.9918ZM125.497 36.7563H122.589V25.531C122.589 24.3905 122.323 23.405 121.79 22.5868C121.176 21.6571 120.321 21.1922 119.23 21.1922C117.897 21.1922 116.23 21.8926 114.228 23.2996V36.7501H111.321V9.92981L114.228 9.01245V21.2294C116.087 19.8782 118.114 19.2025 120.321 19.2025C121.858 19.2025 123.11 19.7232 124.065 20.7521C125.019 21.7872 125.497 23.0765 125.497 24.6137V36.7563ZM140.949 27.7005C140.949 25.872 140.602 24.3658 139.914 23.1757C139.096 21.7191 137.819 20.9567 136.096 20.8761C132.91 21.062 131.317 23.343 131.317 27.7191C131.317 29.7273 131.645 31.4009 132.315 32.7459C133.17 34.4629 134.447 35.3058 136.151 35.281C139.35 35.2563 140.949 32.7335 140.949 27.7005ZM144.135 27.7191C144.135 30.3162 143.472 32.4794 142.145 34.2087C140.682 36.1426 138.668 37.1158 136.096 37.1158C133.542 37.1158 131.559 36.1426 130.12 34.2087C128.819 32.4794 128.168 30.3162 128.168 27.7191C128.168 25.2769 128.868 23.2191 130.275 21.5455C131.763 19.7728 133.716 18.8802 136.127 18.8802C138.538 18.8802 140.509 19.7728 142.021 21.5455C143.428 23.2253 144.135 25.2769 144.135 27.7191ZM160.802 36.7563H157.895V24.8988C157.895 23.5972 157.505 22.5806 156.724 21.8492C155.943 21.1178 154.895 20.7707 153.594 20.7955C152.211 20.8203 150.897 21.2728 149.651 22.1467V36.7563H146.744V21.7872C148.418 20.5662 149.955 19.7728 151.362 19.4009C152.689 19.0538 153.86 18.8802 154.87 18.8802C155.559 18.8802 156.209 18.9484 156.823 19.0786C157.963 19.3451 158.893 19.8348 159.612 20.5538C160.412 21.3472 160.809 22.3017 160.809 23.4174L160.802 36.7563Z" fill="#3F4363"/>
<path d="M34.926 10.0352C33.4322 10.0414 32.0004 10.1715 30.7422 10.3947C27.0417 11.0455 26.3661 12.4153 26.3661 14.9442V18.279H35.1182V19.3885H23.081C20.5397 19.3885 18.3083 20.9195 17.6141 23.8265C16.8083 27.1612 16.7773 29.2376 17.6141 32.7211C18.2339 35.312 19.7215 37.1591 22.2628 37.1591H25.269V33.1612C25.269 30.2728 27.767 27.7252 30.736 27.7252H39.4756C41.9116 27.7252 43.8517 25.7232 43.8517 23.281V14.9442C43.8517 12.5703 41.8496 10.7914 39.4756 10.3947C37.9818 10.1405 36.4198 10.029 34.926 10.0352ZM30.1905 12.719C31.0955 12.719 31.8331 13.469 31.8331 14.3926C31.8331 15.3099 31.0955 16.0538 30.1905 16.0538C29.2856 16.0538 28.5479 15.3099 28.5479 14.3926C28.5479 13.469 29.2856 12.719 30.1905 12.719Z" fill="#3F4363"/>
<path d="M44.9489 19.3884V23.2748C44.9489 26.2872 42.3951 28.8223 39.4819 28.8223H30.7422C28.3497 28.8223 26.3662 30.874 26.3662 33.2665V41.6033C26.3662 43.9773 28.4303 45.3719 30.7422 46.0475C33.5129 46.8595 36.1658 47.0083 39.4819 46.0475C41.6823 45.4091 43.8579 44.126 43.8579 41.6033V38.2686H35.1183V37.1591H48.234C50.7753 37.1591 51.7236 35.3864 52.61 32.7211C53.5212 29.9814 53.484 27.3409 52.61 23.8264C51.984 21.2975 50.7815 19.3884 48.234 19.3884H44.9489ZM40.0336 40.4876C40.9385 40.4876 41.6761 41.2314 41.6761 42.1488C41.6761 43.0723 40.9385 43.8223 40.0336 43.8223C39.1286 43.8223 38.391 43.0723 38.391 42.1488C38.391 41.2314 39.1286 40.4876 40.0336 40.4876Z" fill="#6F728A"/>
<path d="M166.462 16.7293H166.97V13.5309H168.179V13.1528H165.253V13.5309H166.462V16.7293ZM168.631 16.7293H169.065V13.8099L170.007 16.7293H170.491L171.476 13.8223V16.7355H171.953V13.1528H171.327L170.249 16.221L169.338 13.1528H168.637L168.631 16.7293Z" fill="#3F4363"/>
<path opacity="0.444" d="M46.9448 51.7128C46.9448 52.971 41.6948 53.9876 35.2175 53.9876C28.7402 53.9876 23.4902 52.971 23.4902 51.7128C23.4902 50.4545 28.7402 49.438 35.2175 49.438C41.6948 49.438 46.9448 50.4545 46.9448 51.7128Z" fill="url(#paint0_radial_995_11190)"/>
</g>
<defs>
<radialGradient id="paint0_radial_995_11190" cx="0" cy="0" r="1" gradientUnits="userSpaceOnUse" gradientTransform="translate(35.2175 51.6679) rotate(-90) scale(2.27308 9.99313)">
<stop stop-color="#B8B8B8" stop-opacity="0.498"/>
<stop offset="1" stop-color="#7F7F7F" stop-opacity="0"/>
</radialGradient>
<clipPath id="clip0_995_11190">
<rect width="154.959" height="45" fill="white" transform="translate(17 9)"/>
</clipPath>
</defs>
</svg>
