<svg width="187" height="57" viewBox="0 0 187 57" fill="none" xmlns="http://www.w3.org/2000/svg">
<path d="M42.9411 8.79814C42.5778 8.81966 42.2225 8.9139 41.8963 9.07528L27.7625 15.8207C27.398 15.9943 27.0773 16.2479 26.8244 16.5627C26.5715 16.8775 26.393 17.2453 26.302 17.6387L22.8406 32.7813C22.759 33.1324 22.7495 33.4965 22.8129 33.8514C22.8763 34.2063 23.0111 34.5447 23.2092 34.8459C23.2573 34.9198 23.3081 34.9909 23.3616 35.0593L33.1389 47.2088C33.3935 47.5214 33.7148 47.7733 34.0792 47.9459C34.4436 48.1185 34.8419 48.2075 35.2451 48.2065H50.9198C51.3246 48.2073 51.7244 48.1174 52.0899 47.9433C52.4553 47.7692 52.7771 47.5154 53.0315 47.2005L62.8005 35.0454C63.0533 34.7317 63.2316 34.3646 63.3219 33.9719C63.4121 33.5792 63.412 33.1711 63.3215 32.7785L59.8351 17.6193C59.7442 17.2259 59.5657 16.8581 59.3128 16.5433C59.0599 16.2285 58.7392 15.9749 58.3747 15.8013L44.2519 9.07528C43.845 8.87499 43.3943 8.77972 42.9411 8.79814Z" fill="#3F4363"/>
<path d="M43.0827 13.9529C42.8487 13.9693 42.6304 14.0769 42.4749 14.2526C42.3194 14.4283 42.2391 14.6581 42.2513 14.8924V15.1307C42.2746 15.4006 42.3135 15.6689 42.3677 15.9344C42.4453 16.4422 42.4732 16.9564 42.4508 17.4697C42.4022 17.6391 42.306 17.7911 42.1737 17.9076L42.1543 18.2678C41.6404 18.3105 41.1302 18.3892 40.6273 18.5034C38.512 18.9801 36.5876 20.0784 35.1013 21.6572L34.7964 21.441C34.6291 21.4906 34.4491 21.4726 34.2948 21.3911C33.8827 21.0862 33.5012 20.7419 33.1558 20.363C32.9825 20.1557 32.7975 19.9587 32.6015 19.7727L32.4131 19.623C32.2459 19.4883 32.04 19.4106 31.8256 19.4013C31.6977 19.3948 31.5701 19.4185 31.4531 19.4705C31.3361 19.5225 31.233 19.6013 31.1521 19.7006C31.0146 19.8937 30.9593 20.1334 30.9982 20.3671C31.0372 20.6009 31.1673 20.8097 31.36 20.9477L31.5346 21.0863C31.7602 21.2364 31.9943 21.3733 32.2357 21.4964C32.6854 21.7464 33.1096 22.0397 33.5022 22.3722C33.603 22.5158 33.6616 22.6848 33.6713 22.8599L33.9484 23.101C32.4535 25.344 31.8397 28.06 32.2246 30.7278L31.8699 30.8303C31.7775 30.9777 31.6535 31.1026 31.5069 31.1961C31.0109 31.3283 30.5032 31.4119 29.9909 31.4455C29.7193 31.4512 29.4482 31.4724 29.1789 31.5093L28.9572 31.5647H28.9295C28.7731 31.5855 28.6257 31.6495 28.5037 31.7495C28.3817 31.8496 28.29 31.9816 28.239 32.1309C28.1879 32.2801 28.1795 32.4407 28.2147 32.5945C28.2499 32.7482 28.3273 32.8891 28.4382 33.0014C28.5491 33.1136 28.6891 33.1927 28.8425 33.2297C28.9959 33.2667 29.1565 33.2602 29.3064 33.2109H29.323L29.5531 33.1832C29.8113 33.1053 30.0648 33.0128 30.3124 32.906C30.7886 32.7144 31.2824 32.5696 31.7868 32.4737C31.9613 32.4844 32.1294 32.544 32.2717 32.6455L32.6403 32.5818C33.4652 35.1417 35.1994 37.3107 37.5151 38.6787L37.3599 39.003C37.4314 39.151 37.4575 39.3168 37.4347 39.4796C37.2247 39.9649 36.9686 40.429 36.6698 40.8653C36.5055 41.0818 36.3537 41.3076 36.2153 41.5415L36.1045 41.7687C36.0252 41.9044 35.9851 42.0595 35.9888 42.2166C35.9925 42.3738 36.0397 42.5268 36.1253 42.6586C36.2109 42.7905 36.3315 42.8959 36.4736 42.9632C36.6156 43.0305 36.7736 43.057 36.9298 43.0397C37.086 43.0224 37.2344 42.962 37.3583 42.8653C37.4822 42.7686 37.5768 42.6394 37.6315 42.4921L37.7368 42.2759C37.833 42.0221 37.9144 41.7631 37.9807 41.4999C38.2024 40.9457 38.3271 40.3498 38.6347 39.9812C38.7351 39.8869 38.8617 39.8251 38.9978 39.8039L39.1918 39.4575C41.7014 40.4225 44.4786 40.4294 46.9931 39.4769L47.1593 39.8011C47.332 39.828 47.4872 39.9216 47.5917 40.0616C47.8305 40.5155 48.0245 40.9917 48.1709 41.4833C48.2381 41.7465 48.3205 42.0056 48.4175 42.2593L48.5228 42.4754C48.5776 42.6228 48.6722 42.752 48.7961 42.8487C48.92 42.9454 49.0684 43.0058 49.2246 43.0231C49.3808 43.0403 49.5388 43.0139 49.6808 42.9466C49.8229 42.8793 49.9435 42.7738 50.0291 42.642C50.1146 42.5102 50.1619 42.3571 50.1656 42.2C50.1693 42.0429 50.1292 41.8878 50.0498 41.7521L49.939 41.5249C49.8006 41.2918 49.6488 41.067 49.4845 40.8514C49.1921 40.4297 48.9415 39.9805 48.7362 39.5101C48.716 39.4241 48.7132 39.3349 48.7279 39.2479C48.7427 39.1608 48.7747 39.0775 48.8221 39.003C48.7678 38.8924 48.7206 38.7786 48.6808 38.6621C50.9934 37.2851 52.7209 35.108 53.5362 32.543L53.8965 32.6067C54.0255 32.4887 54.1956 32.4261 54.3703 32.4321C54.8747 32.528 55.3685 32.6728 55.8447 32.8645C56.092 32.9769 56.3455 33.075 56.604 33.1582C56.665 33.1748 56.7537 33.1859 56.8257 33.2053H56.8424C56.9922 33.2547 57.1529 33.2612 57.3063 33.2242C57.4597 33.1872 57.5997 33.1082 57.7106 32.996C57.8216 32.8838 57.899 32.7428 57.9342 32.589C57.9694 32.4352 57.961 32.2746 57.9099 32.1253C57.8586 31.9757 57.7665 31.8434 57.644 31.7433C57.5215 31.6432 57.3734 31.5795 57.2165 31.5592L56.9671 31.5037C56.6979 31.4669 56.4268 31.4456 56.1551 31.44C55.6429 31.4064 55.1352 31.3228 54.6392 31.1906C54.4857 31.1049 54.359 30.9783 54.2734 30.8248L53.9325 30.725C54.2978 28.0592 53.6716 25.3522 52.1727 23.1177L52.472 22.8405C52.4599 22.6662 52.5166 22.4941 52.63 22.3611C53.0196 22.0262 53.441 21.7301 53.8881 21.477C54.1295 21.3539 54.3636 21.2169 54.5893 21.0669L54.775 20.9172C54.9113 20.8324 55.0208 20.7108 55.0909 20.5664C55.161 20.422 55.1888 20.2607 55.1711 20.1012C55.1534 19.9416 55.091 19.7903 54.991 19.6648C54.8909 19.5392 54.7575 19.4445 54.6059 19.3916C54.4543 19.3387 54.2909 19.3298 54.1345 19.3658C53.978 19.4018 53.835 19.4814 53.7219 19.5953L53.5334 19.745C53.3375 19.931 53.1525 20.1281 52.9791 20.3353C52.6441 20.7184 52.2729 21.0682 51.8706 21.3801C51.7082 21.4458 51.5306 21.465 51.3579 21.4355L51.0364 21.6655C49.1826 19.7219 46.6862 18.5175 44.0111 18.2762C44.0111 18.1653 43.9945 17.9602 43.9917 17.8993C43.8478 17.8004 43.7484 17.6492 43.7146 17.478C43.6971 16.9652 43.7296 16.452 43.8116 15.9455C43.8658 15.68 43.9046 15.4117 43.928 15.1418V14.9007C43.9402 14.6664 43.8599 14.4366 43.7044 14.2609C43.5489 14.0852 43.3306 13.9776 43.0966 13.9612L43.0827 13.9529ZM42.0241 20.5099L41.7746 24.944H41.7552C41.7495 25.0787 41.7073 25.2093 41.6332 25.3219C41.559 25.4345 41.4558 25.5249 41.3344 25.5835C41.2129 25.642 41.0779 25.6666 40.9436 25.6545C40.8094 25.6424 40.6809 25.5942 40.5719 25.5149L36.9359 22.9375C38.0935 21.8005 39.5458 21.0096 41.1289 20.654C41.4256 20.5907 41.7253 20.5426 42.0268 20.5099H42.0241ZM44.1414 20.5099C46.0511 20.7468 47.83 21.6047 49.2046 22.9514L45.6019 25.5121C45.4929 25.5992 45.3618 25.654 45.2233 25.6703C45.0848 25.6866 44.9445 25.6637 44.8183 25.6043C44.6922 25.5448 44.5852 25.4511 44.5096 25.3339C44.4341 25.2167 44.3929 25.0807 44.3908 24.9412L44.1414 20.5099ZM35.6112 24.6087L38.9368 27.574V27.5934C39.0383 27.6821 39.1138 27.7966 39.1554 27.9248C39.1969 28.053 39.203 28.1901 39.1728 28.3214C39.1427 28.4528 39.0775 28.5735 38.9842 28.6707C38.8909 28.768 38.773 28.8382 38.643 28.8737V28.8876L34.3752 30.1153C34.1636 28.1925 34.5985 26.254 35.6112 24.6059V24.6087ZM50.5293 24.6087C51.5395 26.2525 51.9861 28.1809 51.8013 30.1014L47.5279 28.871V28.8543C47.3979 28.8188 47.28 28.7486 47.1867 28.6513C47.0935 28.5541 47.0283 28.4334 46.9981 28.302C46.968 28.1707 46.974 28.0336 47.0156 27.9054C47.0572 27.7772 47.1327 27.6627 47.2342 27.574L50.5321 24.6197L50.5293 24.6087ZM42.401 27.8095H43.7589L44.5903 28.8626L44.2855 30.1818L43.0661 30.7693L41.8412 30.1818L41.5529 28.8599L42.401 27.8095ZM46.7603 31.4123C46.8174 31.4056 46.875 31.4056 46.9321 31.4123L51.333 32.155C50.6851 33.9839 49.4455 35.5443 47.8106 36.5891L46.109 32.4654C46.0622 32.355 46.0425 32.2349 46.0518 32.1153C46.0611 31.9957 46.099 31.8801 46.1623 31.7782C46.2256 31.6764 46.3124 31.5912 46.4155 31.5299C46.5187 31.4686 46.635 31.433 46.7547 31.4261L46.7603 31.4123ZM39.3691 31.4317C39.4915 31.4336 39.6115 31.4656 39.7186 31.5249C39.8257 31.5842 39.9165 31.669 39.9831 31.7717C40.0496 31.8744 40.0899 31.9919 40.1002 32.1139C40.1106 32.2358 40.0908 32.3584 40.0426 32.4709V32.4876L38.3493 36.567C36.7341 35.5288 35.5052 33.9882 34.8519 32.1827L39.2139 31.44C39.2628 31.4352 39.312 31.4352 39.3608 31.44L39.3691 31.4317ZM43.055 33.222C43.1936 33.2178 43.3307 33.2521 43.4511 33.3211C43.5714 33.39 43.6703 33.491 43.7367 33.6127H43.7534L45.9039 37.4926C45.6218 37.5872 45.335 37.6677 45.0448 37.7337C43.4629 38.0958 41.8115 38.0104 40.2754 37.487L42.4204 33.6072C42.4847 33.4952 42.577 33.4018 42.6882 33.3362C42.7995 33.2706 42.9259 33.2351 43.055 33.233V33.222Z" fill="white" stroke="white" stroke-width="0.0692833"/>
<path d="M72.2474 29.2892L73.065 28.3969C73.3458 28.0865 73.6183 27.7798 73.8825 27.4768L74.6308 26.6121C74.8636 26.3387 75.064 26.1003 75.2321 25.8971H78.4136C77.7781 26.6269 77.1591 27.3225 76.5568 27.9839C75.9527 28.6454 75.2913 29.3289 74.5726 30.0347C74.9669 30.3973 75.3372 30.7852 75.6811 31.1959C76.0635 31.6449 76.4331 32.1067 76.7896 32.5816C77.1462 33.0564 77.4751 33.5368 77.7762 34.0227C78.0755 34.503 78.3268 34.9409 78.53 35.3363H75.4539C75.2691 35.0222 75.0511 34.6767 74.7998 34.2998C74.5485 33.921 74.2899 33.5497 74.0238 33.1857C73.7467 32.8162 73.4566 32.4532 73.1536 32.0966C72.8776 31.7772 72.5744 31.4823 72.2474 31.2153V35.3557H69.5703V21.8399L72.2474 21.4076V29.292V29.2892ZM87.85 35.0203C87.2714 35.1786 86.6837 35.3017 86.0902 35.3889C85.3421 35.5053 84.586 35.5627 83.8288 35.5608C83.1464 35.5809 82.4664 35.4709 81.8251 35.2365C81.3316 35.0492 80.8952 34.7369 80.5586 34.3303C80.2379 33.9228 80.0109 33.4497 79.8935 32.9446C79.757 32.3616 79.6909 31.7642 79.6968 31.1654V25.8999H82.3739V30.8329C82.3739 31.6957 82.4875 32.3183 82.7147 32.7007C82.942 33.0832 83.3669 33.2744 83.9896 33.2744C84.1743 33.2744 84.3775 33.2652 84.5992 33.2467C84.821 33.2282 85.0122 33.207 85.1729 33.183V25.8943H87.85V35.0203ZM99.1515 30.6195C99.161 31.3163 99.0485 32.0094 98.819 32.6675C98.6139 33.2513 98.2859 33.7843 97.8573 34.2305C97.4222 34.6724 96.8952 35.013 96.3137 35.2282C95.6462 35.4712 94.9398 35.5896 94.2296 35.5774C93.9063 35.5774 93.5682 35.5626 93.2153 35.533C92.8643 35.5035 92.517 35.4647 92.1733 35.4166C91.8315 35.3686 91.5054 35.3113 91.195 35.2448C90.8846 35.1783 90.6075 35.109 90.3636 35.037V21.8371L93.0407 21.4048V26.1161C93.3413 25.9842 93.6541 25.8821 93.9747 25.8112C94.317 25.7372 94.6664 25.701 95.0167 25.7031C95.6279 25.6907 96.2347 25.8097 96.7959 26.0523C97.3002 26.2776 97.7438 26.6196 98.0901 27.05C98.4527 27.5115 98.7211 28.0397 98.8799 28.6047C99.0669 29.2597 99.1583 29.9383 99.1515 30.6195ZM96.4218 30.5474C96.4218 28.8236 95.7871 27.9618 94.5179 27.9618C94.2418 27.9619 93.9669 27.9982 93.7003 28.0698C93.4684 28.1279 93.2469 28.2214 93.0435 28.347V33.2051C93.1728 33.2291 93.3391 33.2504 93.5423 33.2689C93.7456 33.2873 93.9673 33.2966 94.2075 33.2966C94.5254 33.3185 94.8438 33.2611 95.134 33.1295C95.4242 32.998 95.6772 32.7963 95.8703 32.5428C96.2638 31.9543 96.4563 31.2543 96.419 30.5474H96.4218ZM100.764 30.6915C100.748 29.94 100.879 29.1925 101.15 28.4911C101.379 27.9048 101.724 27.3705 102.164 26.9197C102.576 26.5103 103.069 26.1904 103.611 25.9803C104.145 25.7664 104.715 25.6564 105.29 25.656C106.631 25.656 107.691 26.0662 108.469 26.8865C109.245 27.7068 109.633 28.9132 109.633 30.5058C109.633 30.661 109.627 30.8319 109.616 31.0185C109.605 31.2033 109.593 31.3677 109.58 31.5118H103.511C103.535 31.774 103.616 32.0275 103.75 32.2543C103.884 32.481 104.066 32.6751 104.284 32.8227C104.829 33.1713 105.47 33.3409 106.116 33.3077C106.601 33.3079 107.086 33.2624 107.563 33.1719C107.96 33.1042 108.348 32.9927 108.721 32.8393L109.081 35.012C108.896 35.0998 108.704 35.1721 108.508 35.2282C108.245 35.3054 107.979 35.3683 107.709 35.4166C107.414 35.4721 107.1 35.5183 106.767 35.5552C106.433 35.5906 106.097 35.6082 105.761 35.6079C105.005 35.6242 104.252 35.4963 103.544 35.231C102.954 35.005 102.42 34.6521 101.981 34.1973C101.564 33.7534 101.252 33.2223 101.067 32.6425C100.861 32.0137 100.758 31.3559 100.762 30.6943L100.764 30.6915ZM107.05 29.6661C107.038 29.4405 106.999 29.2171 106.933 29.001C106.871 28.7916 106.767 28.5967 106.629 28.4273C106.485 28.2554 106.308 28.1148 106.108 28.0144C105.864 27.8996 105.596 27.8445 105.326 27.8537C105.06 27.8467 104.796 27.8988 104.553 28.0061C104.347 28.1013 104.164 28.2392 104.015 28.4107C103.869 28.5831 103.756 28.7815 103.683 28.9955C103.605 29.2143 103.548 29.4397 103.511 29.6689H107.05V29.6661ZM117.392 28.2666C117.152 28.2075 116.875 28.1447 116.561 28.0782C116.218 28.0101 115.869 27.9767 115.519 27.9784C115.318 27.9807 115.117 27.9955 114.918 28.0227C114.739 28.0425 114.562 28.0759 114.388 28.1225V35.328H111.711V26.396C112.264 26.2085 112.826 26.0512 113.396 25.9248C114.112 25.7685 114.844 25.6932 115.577 25.7004C115.721 25.7004 115.895 25.7096 116.098 25.7281C116.301 25.7465 116.505 25.7706 116.708 25.8001C116.911 25.8297 117.114 25.8666 117.318 25.911C117.496 25.9454 117.67 25.9964 117.839 26.0634L117.392 28.2666ZM119.277 26.2214C119.856 26.0633 120.443 25.9403 121.037 25.8528C121.786 25.7363 122.543 25.6789 123.301 25.681C123.984 25.6608 124.666 25.7679 125.31 25.9969C125.803 26.1781 126.239 26.4847 126.577 26.8865C126.896 27.2864 127.123 27.752 127.242 28.25C127.379 28.8264 127.445 29.4173 127.439 30.0098V35.3474H124.759V30.3312C124.759 29.4684 124.645 28.8587 124.418 28.5022C124.191 28.1437 123.766 27.9645 123.143 27.9645C122.958 27.9645 122.755 27.9738 122.533 27.9922C122.312 28.0107 122.12 28.032 121.96 28.056V35.3446H119.282V26.2214H119.277ZM129.406 30.6915C129.39 29.94 129.521 29.1925 129.791 28.4911C130.021 27.9048 130.366 27.3705 130.806 26.9197C131.215 26.5116 131.703 26.1918 132.241 25.9803C132.775 25.7665 133.345 25.6564 133.921 25.656C135.262 25.656 136.322 26.0662 137.099 26.8865C137.875 27.7068 138.263 28.9132 138.263 30.5058C138.263 30.661 138.257 30.8319 138.244 31.0185C138.231 31.2033 138.219 31.3677 138.208 31.5118H132.139C132.162 31.774 132.244 32.0275 132.378 32.2543C132.512 32.481 132.694 32.6751 132.912 32.8227C133.457 33.1713 134.098 33.3409 134.744 33.3077C135.229 33.3079 135.714 33.2624 136.19 33.1719C136.588 33.1042 136.976 32.9927 137.349 32.8393L137.709 35.012C137.524 35.0998 137.332 35.1721 137.135 35.2282C136.873 35.3054 136.607 35.3683 136.337 35.4166C136.042 35.4721 135.728 35.5183 135.395 35.5552C135.061 35.5906 134.725 35.6082 134.389 35.6079C133.633 35.6242 132.88 35.4963 132.172 35.231C131.582 35.005 131.048 34.6521 130.609 34.1973C130.193 33.7505 129.883 33.2164 129.7 32.6342C129.498 32.0076 129.398 31.3526 129.403 30.6943L129.406 30.6915ZM135.692 29.6661C135.68 29.4405 135.641 29.2171 135.575 29.001C135.512 28.7916 135.409 28.5967 135.27 28.4273C135.127 28.2554 134.949 28.1148 134.749 28.0144C134.505 27.8996 134.237 27.8445 133.968 27.8537C133.702 27.8466 133.438 27.8987 133.195 28.0061C132.989 28.1013 132.805 28.2392 132.657 28.4107C132.51 28.5831 132.398 28.7814 132.324 28.9955C132.247 29.2142 132.189 29.4397 132.153 29.6689H135.692V29.6661ZM140.25 23.5415L142.927 23.1092V25.8805H146.142V28.0976H142.927V31.4232C142.905 31.8904 143.008 32.3552 143.224 32.77C143.422 33.1026 143.819 33.2689 144.416 33.2689C144.714 33.2681 145.012 33.2412 145.305 33.1885C145.589 33.14 145.867 33.0648 146.137 32.964L146.514 35.0481C146.163 35.1884 145.803 35.3023 145.436 35.3889C144.958 35.4934 144.47 35.5418 143.981 35.533C143.363 35.5521 142.748 35.4514 142.168 35.2365C141.721 35.061 141.325 34.775 141.018 34.4051C140.72 34.0301 140.514 33.5907 140.417 33.122C140.298 32.5758 140.241 32.0181 140.245 31.4592V23.5415H140.25ZM147.567 30.6915C147.551 29.94 147.682 29.1925 147.952 28.4911C148.182 27.9048 148.527 27.3705 148.966 26.9197C149.379 26.5103 149.871 26.1905 150.413 25.9803C150.947 25.7665 151.517 25.6564 152.092 25.656C153.434 25.656 154.493 26.0662 155.271 26.8865C156.047 27.7068 156.435 28.9105 156.435 30.4975C156.435 30.6527 156.429 30.8236 156.416 31.0102C156.403 31.195 156.391 31.3594 156.38 31.5035H150.31C150.334 31.7659 150.416 32.0196 150.551 32.2463C150.685 32.4731 150.868 32.6671 151.086 32.8144C151.631 33.163 152.272 33.3326 152.918 33.2993C153.404 33.2996 153.888 33.2541 154.365 33.1636C154.762 33.0959 155.151 32.9843 155.523 32.831L155.883 35.0037C155.699 35.0915 155.507 35.1638 155.31 35.2199C155.047 35.2971 154.781 35.36 154.512 35.4083C154.216 35.4638 153.902 35.5099 153.569 35.5469C153.235 35.5823 152.899 35.5999 152.563 35.5996C151.807 35.6159 151.055 35.488 150.346 35.2227C149.756 34.9967 149.222 34.6438 148.783 34.1889C148.363 33.7462 148.046 33.215 147.858 32.6342C147.657 32.0074 147.557 31.3525 147.564 30.6943L147.567 30.6915ZM153.858 29.6661C153.846 29.4405 153.807 29.2171 153.741 29.001C153.678 28.7916 153.575 28.5967 153.436 28.4273C153.293 28.2554 153.116 28.1148 152.915 28.0144C152.671 27.8996 152.403 27.8445 152.134 27.8537C151.868 27.8466 151.604 27.8987 151.361 28.0061C151.15 28.0988 150.962 28.2359 150.809 28.4079C150.663 28.5803 150.55 28.7787 150.477 28.9927C150.399 29.2115 150.341 29.4369 150.305 29.6661H153.858ZM161.21 33.4213C161.563 33.4429 161.918 33.3939 162.252 33.2772C162.353 33.2269 162.437 33.1469 162.491 33.0478C162.546 32.9487 162.569 32.8354 162.557 32.7229C162.545 32.6039 162.502 32.49 162.433 32.3927C162.363 32.2954 162.269 32.2182 162.161 32.1686C161.777 31.9489 161.374 31.7634 160.958 31.6144C160.569 31.4721 160.188 31.3103 159.816 31.1294C159.496 30.9763 159.202 30.7733 158.946 30.528C158.705 30.2923 158.517 30.0091 158.392 29.6966C158.251 29.324 158.185 28.9278 158.195 28.5299C158.179 28.1264 158.261 27.725 158.432 27.3595C158.604 26.9939 158.861 26.6749 159.181 26.4292C159.839 25.9119 160.743 25.6532 161.892 25.6532C162.45 25.6507 163.006 25.7017 163.555 25.8057C163.983 25.8809 164.403 25.9921 164.813 26.1382L164.347 28.2223C164.014 28.1119 163.676 28.0194 163.333 27.9451C162.929 27.8576 162.516 27.8158 162.102 27.8204C161.264 27.8204 160.844 28.0541 160.844 28.5216C160.843 28.6165 160.861 28.7107 160.897 28.7987C160.946 28.897 161.021 28.9803 161.113 29.0398C161.253 29.1361 161.4 29.2204 161.554 29.292C161.738 29.3844 161.975 29.4841 162.263 29.5913C162.763 29.7702 163.249 29.9851 163.718 30.2343C164.056 30.4112 164.362 30.6425 164.624 30.9188C164.838 31.1521 164.998 31.4305 165.09 31.7335C165.185 32.0715 165.231 32.4216 165.226 32.7728C165.248 33.186 165.163 33.5979 164.979 33.9685C164.795 34.3391 164.518 34.6557 164.175 34.8873C163.473 35.364 162.483 35.6042 161.204 35.6079C160.501 35.6223 159.798 35.5497 159.112 35.3917C158.718 35.2995 158.331 35.1791 157.954 35.0314L158.403 32.8587C158.857 33.0379 159.325 33.1788 159.802 33.2799C160.265 33.3759 160.737 33.4232 161.21 33.4213Z" fill="#3F4363"/>
</svg>
