<svg width="187" height="57" viewBox="0 0 187 57" fill="none" xmlns="http://www.w3.org/2000/svg">
<path d="M54.7333 28.6061H48.5687V22.1876H55.068C57.4469 22.1876 58.6364 23.2738 58.6364 25.4469C58.6364 27.5534 57.3348 28.6072 54.7333 28.6072M59.1639 22.1128C58.3139 21.3296 57.1372 20.938 55.6183 20.938L46.79 20.9886V36.3446H48.5687L48.5527 29.8073H55.1222C56.769 29.8073 58.0663 29.4157 59.0125 28.6325C59.9587 27.8493 60.432 26.7625 60.432 25.3726C60.432 23.9828 60.0097 22.8965 59.165 22.1128H59.1639ZM70.6772 33.1199C70.5071 33.6223 70.2166 34.0717 69.833 34.4262C69.0361 35.2314 67.8206 35.6334 66.1854 35.6334C64.7086 35.6334 63.5759 35.2484 62.7854 34.4597C61.9949 33.671 61.5992 32.6299 61.5992 31.3176C61.5992 30.6345 61.7028 30.0278 61.9094 29.4987C62.1161 28.9696 62.4162 28.523 62.8093 28.1589C63.6275 27.3873 64.7527 27.0012 66.186 27.0012C69.3607 27.0012 70.9486 28.44 70.9486 31.3176C70.9486 32.0012 70.8583 32.6018 70.683 33.1199M71.0055 27.4549C69.9217 26.4319 68.3173 25.9149 66.1913 25.9149C64.1832 25.9149 62.6308 26.4374 61.5365 27.4824C60.5483 28.4284 60.049 29.7044 60.049 31.3115C60.049 32.9065 60.559 34.1935 61.579 35.1725C62.1421 35.7005 62.7982 36.0833 63.5478 36.3198C64.2974 36.5563 65.1766 36.6746 66.186 36.6746C68.3004 36.6746 69.9047 36.1686 71.0161 35.1566C72.0042 34.2326 72.5036 32.9566 72.5036 31.311C72.5036 29.661 72.0042 28.374 71.0055 27.4489V27.4549ZM84.4557 33.5638C84.4557 35.6307 82.6669 36.6641 79.09 36.6641C77.9967 36.6641 77.0755 36.5926 76.3275 36.4485C75.5795 36.3044 74.9713 36.0663 74.5043 35.7346C74.1439 35.4822 73.8486 35.1423 73.6442 34.7446C73.4317 34.3376 73.2936 33.8261 73.2298 33.2046L74.8942 33.1881C74.8942 34.0021 75.1853 34.6005 75.7681 34.9855C76.3934 35.4475 77.5 35.6785 79.09 35.6785C81.5901 35.6785 82.8407 35.0295 82.8407 33.7326C82.8407 32.9736 82.4157 32.4522 81.5827 32.1651C81.4127 32.1101 80.4017 31.9644 78.5545 31.7284C76.7074 31.4925 75.5477 31.2802 75.0919 31.0932C74.1048 30.6862 73.6113 29.9547 73.6113 28.8998C73.6113 27.8658 74.0522 27.0958 74.9394 26.5909C75.375 26.3819 75.9195 26.2202 76.5735 26.1041C77.2275 25.9881 77.9845 25.9309 78.8451 25.9309C82.2887 25.9309 84.0105 27.0496 84.0105 29.2859H82.4273C82.4273 27.7129 81.2161 26.9209 78.7962 26.9209C77.5648 26.9209 76.6463 27.0859 76.0412 27.3994C75.4361 27.7129 75.1338 28.2079 75.1338 28.8679C75.1338 29.4839 75.5429 29.9294 76.3599 30.2044C76.8381 30.3474 77.9367 30.5124 79.6569 30.6994C81.1964 30.8424 82.2531 31.0459 82.8263 31.3044C83.9207 31.7444 84.4668 32.4924 84.4668 33.5467L84.4557 33.5638ZM90.9932 36.3649L90.3159 36.4639L89.8935 36.4969C88.8098 36.4969 88.0342 36.3347 87.5491 36.0091C87.0641 35.6835 86.8303 35.1142 86.8303 34.3041V27.2888H84.8615V26.2581H86.8203L86.8362 22.9471H88.3534V26.2581H90.9959V27.3053L88.3534 27.2888V34.1072C88.3534 34.6148 88.4836 34.9652 88.7439 35.1522C89.0042 35.3392 89.4685 35.4415 90.1379 35.4415C90.2335 35.4525 90.3398 35.4492 90.4567 35.4305C90.6338 35.3978 90.8093 35.3563 90.9826 35.3062L90.9985 36.3512L90.9932 36.3649ZM101.488 34.0384C101.074 34.3904 100.602 34.6588 100.071 34.8469C99.5405 35.035 98.9301 35.1219 98.2405 35.1219C95.0668 35.1219 93.4805 33.7651 93.4805 31.0519C93.4805 29.7886 93.8864 28.7997 94.6987 28.0852C95.511 27.3708 96.6537 27.0138 98.1295 27.0138C99.6154 27.0138 100.743 27.3741 101.513 28.0935C102.282 28.8129 102.667 29.7776 102.667 30.9865C102.667 32.3048 102.274 33.3212 101.489 34.0351M104.185 26.2609H102.667L102.652 27.9934C101.982 27.2894 101.504 26.8455 101.217 26.6585C100.367 26.1745 99.2685 25.9336 97.9197 25.9336C95.9445 25.9336 94.4357 26.4011 93.3955 27.335C92.4074 28.193 91.9144 29.4344 91.9144 31.0607C91.9144 31.8637 92.0393 32.5798 92.2889 33.2057C92.5386 33.8316 92.9031 34.3734 93.3817 34.8128C94.424 35.7137 95.8972 36.1647 97.8017 36.1647C100.088 36.1647 101.71 35.5174 102.668 34.2221V36.0151C102.668 37.1591 102.32 38.0435 101.625 38.6705C100.929 39.2975 99.7849 39.6055 98.1917 39.6055C96.6935 39.6055 95.6268 39.3855 94.9898 38.9653C94.5117 38.637 94.1823 38.0677 94.0017 37.2576H92.4398C92.6098 38.3889 93.0773 39.2073 93.8211 39.7122C94.6923 40.2941 96.1586 40.5851 98.2304 40.5851C102.194 40.5851 104.18 39.0599 104.18 36.0091V26.2653L104.185 26.2609ZM112.393 27.28C111.936 27.203 111.512 27.17 111.12 27.17C108.625 27.17 107.379 28.5863 107.379 31.4177V36.3424H105.877L105.861 26.2653L107.379 26.2807V28.0792H107.459C107.714 27.3708 108.118 26.8334 108.669 26.4677C109.274 26.1135 110.176 25.9364 111.375 25.9364H112.394V27.2894L112.393 27.28ZM113.804 30.6669C113.995 29.5218 114.426 28.6352 115.093 28.0071C115.529 27.6441 116.023 27.3708 116.574 27.1893C117.126 27.0078 117.743 26.9165 118.438 26.9165C119.786 26.9165 120.882 27.2993 121.743 28.0649C122.603 28.8305 123.024 29.6984 123.024 30.6664H113.804M123.172 27.5578C122.64 27.0061 121.982 26.5986 121.195 26.3335C120.409 26.0684 119.495 25.9364 118.433 25.9364C116.467 25.9364 114.942 26.4094 113.858 27.3554C112.773 28.3014 112.232 29.5884 112.232 31.2175C112.232 32.8466 112.753 34.1325 113.794 35.095C114.92 36.151 116.503 36.679 118.558 36.679C119.376 36.679 120.132 36.5827 120.828 36.3913C121.524 36.1999 122.132 35.9282 122.653 35.5773C123.566 34.8981 124.144 34.0593 124.39 33.0638H122.749C122.186 34.787 120.785 35.6488 118.545 35.6488C116.963 35.6488 115.747 35.2275 114.898 34.3849C114.165 33.6628 113.799 32.7272 113.799 31.5777H124.617C124.617 29.8683 124.139 28.528 123.167 27.5627L123.172 27.5578Z" fill="#3F4363"/>
<path d="M140.655 32.2269C140.655 35.2189 138.324 36.7149 133.663 36.7149C130.87 36.7149 128.831 36.1996 127.546 35.1749C126.495 34.3279 125.97 33.0365 125.97 31.2985H127.846C127.846 34.0914 129.785 35.4879 133.662 35.4879C135.522 35.4879 136.866 35.2019 137.7 34.631C138.401 34.1261 138.752 33.3346 138.752 32.2583C138.752 31.1924 138.273 30.4455 137.317 30.0165C136.775 29.7855 135.458 29.494 133.349 29.1431C130.703 28.7251 128.988 28.3082 128.202 27.8907C127.065 27.2747 126.502 26.2314 126.502 24.759C126.502 23.3857 126.98 22.3638 127.952 21.6933C128.994 20.9574 130.779 20.5889 133.306 20.5889C137.875 20.5889 140.159 22.1597 140.159 25.3013H138.267C138.267 22.9473 136.57 21.7714 133.178 21.7714C131.477 21.7714 130.232 22.0079 129.446 22.4864C128.701 22.9924 128.33 23.7349 128.33 24.7139C128.33 25.7369 128.808 26.4574 129.764 26.8754C130.274 27.1174 131.773 27.4529 134.259 27.8819C136.596 28.2449 138.174 28.6684 138.987 29.1469C140.103 29.7409 140.66 30.7694 140.66 32.2269H140.655ZM155.902 33.7537C155.201 34.3351 154.408 34.7712 153.526 35.0627C152.643 35.3542 151.654 35.4989 150.559 35.4989C148.326 35.4989 146.522 34.8757 145.144 33.63C143.766 32.3842 143.079 30.7238 143.079 28.6486C143.079 26.486 143.761 24.8008 145.128 23.593C146.494 22.3852 148.305 21.7819 150.559 21.7819C152.845 21.7819 154.642 22.4133 155.95 23.6755C156.64 24.2915 157.15 25.0098 157.481 25.8332C157.811 26.6565 157.975 27.5954 157.975 28.6492C157.975 30.8008 157.283 32.5025 155.901 33.7532M156.899 34.7718C157.876 34.0579 158.6 33.1933 159.068 32.1769C159.536 31.1605 159.77 29.9879 159.77 28.658C159.77 26.2737 159.005 24.368 157.475 22.9226C156.657 22.1317 155.669 21.5437 154.511 21.1593C153.352 20.7748 152.03 20.5818 150.542 20.5818C147.652 20.5818 145.389 21.3078 143.742 22.757C142.095 24.2063 141.272 26.1736 141.272 28.6569C141.272 31.0736 142.103 33.0239 143.765 34.5067C145.427 35.9895 147.698 36.7314 150.576 36.7314C151.702 36.7314 152.684 36.6528 153.522 36.4949C154.361 36.3371 155.074 36.0951 155.658 35.7689L158.43 37.7583L159.588 36.6572L156.904 34.7723L156.899 34.7718ZM173.819 36.3431H160.991V20.9651L162.754 20.9321V35.0545H173.829L173.814 36.3382L173.819 36.3431Z" fill="#3F4363"/>
<path d="M34.6264 33.7619C34.8049 32.4584 34.7513 32.267 35.8579 32.4782L36.1394 32.5002C36.9905 32.5343 38.1035 32.3803 38.7574 32.1135C40.1653 31.5404 40.9993 30.5834 39.6117 30.8348C36.4454 31.4079 36.2276 30.4663 36.2276 30.4663C39.5708 26.113 40.9685 20.5866 39.7626 19.2336C36.4662 15.5448 30.7765 17.2894 30.6755 17.335L30.6453 17.3405C30.0194 17.2267 29.3193 17.159 28.533 17.148C27.1002 17.1271 26.0133 17.478 25.1883 18.0264C25.1883 18.0264 15.0276 14.3524 15.5004 22.6464C15.6013 24.4108 18.3824 35.9965 21.699 32.4969C22.9113 31.217 24.0833 30.1352 24.0833 30.1352C24.6944 30.4895 25.394 30.6462 26.0919 30.5851L26.1482 30.5427C26.1307 30.7022 26.1376 30.8562 26.1711 31.041C25.3168 31.8787 25.5676 32.0255 23.8591 32.3346C22.1309 32.647 23.1461 33.2036 23.8091 33.3494C24.6129 33.5254 26.4723 33.7756 27.7287 32.2329L27.6788 32.4089C28.0134 32.6443 27.9911 34.1001 28.0389 35.1407C28.0868 36.1813 28.1664 37.1521 28.4076 37.7246C28.6488 38.2972 28.9346 39.7706 31.1797 39.3493C33.0561 38.9962 34.491 38.4886 34.6222 33.7641" fill="#3F4363"/>
<path d="M34.6264 33.7619C34.8049 32.4584 34.7513 32.267 35.8579 32.4782L36.1394 32.5002C36.9905 32.5343 38.1035 32.3803 38.7574 32.1135C40.1653 31.5404 40.9993 30.5834 39.6117 30.8348C36.4454 31.4079 36.2276 30.4663 36.2276 30.4663C39.5708 26.113 40.9685 20.5866 39.7626 19.2336C36.4662 15.5448 30.7765 17.2894 30.6755 17.335L30.6453 17.3405C30.0194 17.2267 29.3193 17.159 28.533 17.148C27.1002 17.1271 26.0133 17.478 25.1883 18.0264C25.1883 18.0264 15.0276 14.3524 15.5004 22.6464C15.6013 24.4108 18.3824 35.9965 21.699 32.4969C22.9113 31.217 24.0833 30.1352 24.0833 30.1352C24.6944 30.4895 25.394 30.6462 26.0919 30.5851L26.1482 30.5427C26.1307 30.7022 26.1376 30.8562 26.1711 31.041C25.3168 31.8787 25.5676 32.0255 23.8591 32.3346C22.1309 32.647 23.1461 33.2036 23.8091 33.3494C24.6129 33.5254 26.4723 33.7756 27.7287 32.2329L27.6788 32.4089C28.0134 32.6443 27.9911 34.1001 28.0389 35.1407C28.0868 36.1813 28.1664 37.1521 28.4076 37.7246C28.6488 38.2972 28.9346 39.7706 31.1797 39.3493C33.0561 38.9962 34.491 38.4886 34.6222 33.7641" stroke="#3F4363" stroke-width="1.97697"/>
<path d="M39.6103 30.8343C36.444 31.4074 36.2262 30.4658 36.2262 30.4658C39.5694 26.112 40.9671 20.5856 39.7611 19.2331C36.4706 15.5443 30.7756 17.2894 30.6746 17.3351L30.6438 17.3406C30.018 17.2267 29.3178 17.1591 28.531 17.1481C27.0983 17.1277 26.0113 17.4781 25.1868 18.0264C25.1868 18.0264 15.0256 14.3524 15.4984 22.6464C15.5994 24.4108 18.3799 35.9971 21.697 32.4969C22.9094 31.2171 24.0808 30.1352 24.0808 30.1352C24.6919 30.4895 25.3915 30.6462 26.0894 30.5851L26.1463 30.5428C26.1287 30.7023 26.1367 30.8563 26.1691 31.0411C25.3149 31.8787 25.5656 32.0256 23.8582 32.3347C22.1295 32.6471 23.1452 33.2037 23.8082 33.3494C24.612 33.5254 26.4714 33.7757 27.7278 32.2329L27.6779 32.4089C28.0125 32.6443 28.2479 33.9396 28.2091 35.1149C28.1703 36.2903 28.1432 37.0949 28.4073 37.7252C28.6713 38.3555 28.9343 39.7712 31.1804 39.3499C33.0568 38.9968 34.0295 38.0827 34.1644 36.557C34.26 35.4724 34.4779 35.633 34.4911 34.6634L34.6654 34.2047C34.8662 32.7345 34.6973 32.2604 35.8533 32.481L36.1348 32.503C36.9859 32.5371 38.0994 32.3831 38.7528 32.1163C40.1606 31.5432 40.9947 30.5862 39.6071 30.8376L39.6103 30.8343Z" fill="#3F4363"/>
<path d="M27.8679 31.6777C27.7808 34.4128 27.8891 37.1678 28.1946 37.8377C28.5001 38.5076 29.153 39.8094 31.3991 39.387C33.2755 39.0339 33.9581 38.3508 34.2541 36.8427C34.4666 35.7334 34.8931 32.6517 34.9468 32.0209M25.1755 17.964C25.1755 17.964 15.0021 14.3175 15.4802 22.6153C15.5865 24.3797 18.3617 35.966 21.6799 32.4603C22.8922 31.1805 23.9882 30.1767 23.9882 30.1767M30.674 17.2985C30.3217 17.3953 36.3302 15.3713 39.7445 19.1998C40.9505 20.5528 39.5533 26.0792 36.2096 30.433" stroke="white" stroke-width="0.658831" stroke-linecap="round" stroke-linejoin="round"/>
<path d="M36.205 30.4324C36.205 30.4324 36.4175 31.3729 39.5891 30.7998C40.9767 30.5484 40.1416 31.5054 38.7338 32.0791C37.5789 32.5493 34.9895 32.6698 34.9476 32.0202C34.8387 30.3427 36.3102 30.8526 36.204 30.4324C36.1084 30.054 35.4496 29.6827 35.014 28.7565C34.6341 27.948 29.8024 21.7484 36.3538 22.6691C36.5939 22.6251 34.6448 17.1999 28.5125 17.1119C22.3803 17.0239 22.5838 23.7284 22.5838 23.7284" stroke="white" stroke-width="0.658831" stroke-linecap="round" stroke-linejoin="bevel"/>
<path d="M26.1525 31.0062C25.2972 31.8438 25.549 31.9907 23.8405 32.2998C22.1118 32.6133 23.1276 33.1688 23.7906 33.3145C24.5943 33.4905 26.4537 33.7408 27.7101 32.1969C28.0926 31.7267 27.708 30.9759 27.1826 30.7856C26.9287 30.6932 26.5892 30.5777 26.152 31.0056L26.1525 31.0062Z" stroke="white" stroke-width="0.658831" stroke-linejoin="round"/>
<path d="M26.097 30.9918C26.0109 30.499 26.2813 29.9138 26.5714 29.2274C27.007 28.1989 28.0122 27.1693 27.2089 23.9051C26.6097 21.4724 22.5886 23.3991 22.587 23.7291C22.5854 24.0591 22.7687 25.4011 22.5196 26.9631C22.1944 29.0025 23.998 30.7267 26.0747 30.5507" stroke="white" stroke-width="0.658831" stroke-linecap="round" stroke-linejoin="round"/>
<path d="M25.1406 23.6782C25.1225 23.7909 25.3759 24.0907 25.7058 24.1314C26.0357 24.1721 26.3167 23.9367 26.3353 23.8245C26.3539 23.7123 26.1005 23.588 25.7701 23.5473C25.4397 23.5066 25.1581 23.566 25.1406 23.6782Z" fill="white" stroke="white" stroke-width="0.21945"/>
<path d="M35.1757 23.4489C35.1938 23.5616 34.9409 23.8614 34.6105 23.9021C34.28 23.9428 33.9985 23.7074 33.9804 23.5941C33.9623 23.4808 34.2157 23.3576 34.5457 23.3169C34.8756 23.2762 35.1566 23.335 35.1752 23.4478L35.1757 23.4489Z" fill="white" stroke="white" stroke-width="0.109725"/>
<path d="M36.3553 22.6687C36.4095 23.5526 36.1385 24.1537 36.104 25.0953C36.0535 26.4626 36.8467 28.0268 35.6514 29.5943" stroke="white" stroke-width="0.658831" stroke-linecap="round" stroke-linejoin="round"/>
</svg>
