<svg width="187" height="57" viewBox="0 0 187 57" fill="none" xmlns="http://www.w3.org/2000/svg">
<path d="M43.4427 5.1272L44.6994 7.49061C44.973 7.91693 45.2914 8.31271 45.6494 8.67116C46.7019 9.72374 47.7038 10.827 48.6007 12.0088C50.7313 14.8068 52.1689 17.9138 53.1961 21.2779C53.8118 23.3324 54.1461 25.4375 54.1715 27.5681C54.2752 33.9354 52.0917 39.4035 47.6761 43.9482C46.9607 44.6686 46.188 45.3298 45.3657 45.9254C44.9277 45.9254 44.7236 45.5795 44.5437 45.2832C44.1979 44.7068 44.0042 44.0762 43.9016 43.4352C43.7471 42.665 43.6445 41.8949 43.6964 41.0983V40.7386C43.671 40.6613 43.2859 5.3082 43.4393 5.12835L43.4427 5.1272Z" fill="#3F4363"/>
<path d="M43.4419 5.05103C43.39 4.94727 43.3381 5.02566 43.2874 5.07639C43.3128 5.58942 43.1329 6.05173 42.8493 6.48867C42.5415 6.92677 42.1299 7.2588 41.7195 7.6185C39.4345 9.59569 37.6383 11.9833 36.1995 14.6534C34.2995 18.2481 33.2988 22.0987 33.0175 26.1557C32.8907 27.6199 33.4787 32.7802 33.9421 34.2685C35.1988 38.2229 37.4584 41.534 40.3983 44.4093C41.1177 45.101 41.8878 45.7443 42.6833 46.36C42.9139 46.36 42.9404 46.1547 42.9911 46.0003C43.0923 45.6724 43.1693 45.3375 43.2217 44.9984C43.4523 43.7152 43.5814 42.4309 43.7347 41.1478L43.4523 5.05103H43.4419Z" fill="#0F143C" fill-opacity="0.6"/>
<path d="M44.7027 47.491C44.7546 46.9008 45.0486 46.4131 45.3449 45.9254C45.0371 45.7986 44.8053 45.5404 44.6255 45.2567C44.471 44.9996 44.343 44.6803 44.2404 44.4094C43.8807 43.3314 43.8023 42.2016 43.7009 41.0971V40.4285C43.5741 40.5322 43.5464 41.4038 43.5464 41.5329C43.4691 42.7135 43.3158 43.8698 43.0852 44.9985C43.008 45.4596 42.9584 45.9231 42.6748 46.3335C42.6748 46.3854 42.6748 46.4373 42.7002 46.5134C43.1613 47.8738 43.2904 49.2607 43.3688 50.673V51.186C43.3688 51.8017 43.3435 51.6737 43.8565 51.8777C44.0617 51.955 44.2946 51.9815 44.4987 52.1348C44.6532 52.1348 44.6785 52.008 44.6785 51.9043L44.6013 51.0569V48.6935C44.5759 48.2831 44.6532 47.8715 44.705 47.4864L44.7027 47.491Z" fill="#0F143C" fill-opacity="0.5"/>
<path d="M64.1981 36.7535V39.1986C64.1954 39.2954 64.2009 39.3923 64.2146 39.4882C64.2464 39.7778 64.4242 39.9544 64.6855 40.0356C64.9294 40.0998 65.1771 40.1482 65.4272 40.1804C65.572 40.1969 65.6202 40.2604 65.6367 40.4158C65.6532 40.9633 65.6049 41.028 65.074 40.995C63.8355 40.9303 62.5959 40.915 61.3575 40.995H61.2397C60.8536 41.0115 60.8218 40.9786 60.8218 40.5924C60.8218 40.5277 60.8383 40.4476 60.8383 40.3829C60.8383 40.2652 60.9184 40.2063 61.0314 40.2063C61.2904 40.1745 61.5305 40.1098 61.773 40.0615C62.1109 39.9814 62.3028 39.7719 62.3357 39.434C62.3828 39.0644 62.3828 38.6782 62.3828 38.3074L62.3993 33.9964C62.4046 33.8713 62.3742 33.7474 62.3117 33.639C62.2492 33.5306 62.157 33.4422 62.0461 33.3842C61.755 33.2225 61.4471 33.093 61.1279 32.9981C61.0314 32.9663 60.9348 32.951 60.8548 32.9015C60.6193 32.7885 60.6134 32.5802 60.8383 32.4507C60.9184 32.4036 61.0149 32.3706 61.1114 32.3541C62.0878 32.21 63.047 31.9675 63.9745 31.6301C64.1675 31.5654 64.2158 31.583 64.2334 31.7749C64.2499 31.8927 64.2334 32.0339 64.217 32.1446C64.1852 32.3541 64.1852 32.5625 64.1852 32.7567C64.1852 32.8368 64.2017 32.918 64.2817 32.9663C64.3618 33.0146 64.443 32.9663 64.5172 32.9192C64.855 32.6602 65.1929 32.4201 65.5625 32.2129C66.0923 31.9233 66.6574 31.6654 67.2695 31.5854C68.0112 31.4889 68.6528 31.6819 69.2167 32.1646C69.4498 32.3733 69.6552 32.6111 69.8277 32.8721C69.989 33.1076 70.0043 33.1134 70.2138 32.9522C70.826 32.5013 71.4687 32.0998 72.161 31.8102C72.885 31.5042 73.6254 31.4571 74.3647 31.7137C75.1205 31.9868 75.6362 32.5178 75.9422 33.2418C76.2012 33.821 76.3119 34.419 76.3119 35.0429V39.354C76.3119 39.6436 76.4296 39.8249 76.7145 39.9661C77.0206 40.0839 77.3585 40.1427 77.6798 40.2075C77.8894 40.2546 77.8894 40.2546 77.8894 40.4665C77.8576 40.9962 77.8093 41.0292 77.2937 40.9962C76.0025 40.9238 74.7083 40.9238 73.4171 40.9962C73.1581 41.0127 73.1581 41.0127 73.1439 40.7549V40.6748C73.1275 40.2393 73.1275 40.2393 73.5466 40.1451L73.9645 40.0321C74.1061 39.9987 74.2323 39.9187 74.3229 39.8049C74.4134 39.6911 74.463 39.55 74.4636 39.4046L74.5107 38.1979L74.4789 35.0453C74.4666 34.7638 74.4069 34.4864 74.3023 34.2248C73.8997 33.2429 73.0156 32.8898 72.1621 32.9863C71.5182 33.0511 70.9555 33.3077 70.4245 33.6785C70.3115 33.7586 70.2315 33.8551 70.2479 34.0164C70.3927 35.0465 70.295 36.0766 70.3127 37.1055V39.3422C70.3127 39.7448 70.474 39.9379 70.8601 40.0344L71.6018 40.1957C71.7148 40.2122 71.7784 40.2604 71.7784 40.3888V40.5065C71.7619 40.9574 71.7313 40.9774 71.2792 40.9727C69.9925 40.9079 68.7046 40.9256 67.4344 40.9727C66.9988 40.9892 66.9635 40.9409 66.9835 40.5018C67 40.2428 67.0306 40.2287 67.2731 40.1804L67.8028 40.0839C68.2737 39.9873 68.4468 39.8107 68.4786 39.3116L68.5257 38.2332L68.4939 34.9994C68.4621 34.5968 68.3761 34.2106 68.156 33.841C67.8346 33.2453 67.3319 32.9404 66.6433 32.9074C65.951 32.8603 65.3401 33.117 64.7597 33.4372C64.3571 33.6726 64.1805 33.9516 64.2123 34.419V36.7676L64.1981 36.7535ZM94.5084 36.8512V39.1197C94.511 39.281 94.5216 39.4421 94.5402 39.6024C94.5471 39.7092 94.5885 39.8109 94.6581 39.8922C94.7277 39.9735 94.8218 40.03 94.9263 40.0533C95.2039 40.1342 95.4899 40.1828 95.7787 40.1981C95.9399 40.2145 95.9717 40.2781 95.9882 40.4076V40.5206C95.9717 41.0833 95.9082 41.1481 95.3607 41.1163C94.1364 41.0362 92.9156 41.0515 91.6925 41.1163L91.2216 41.1328C91.125 41.1328 91.1039 41.0857 91.0768 41.0198C91.0298 40.797 91.0298 40.5668 91.0768 40.344C91.0933 40.2475 91.1568 40.2263 91.2534 40.1992C91.4888 40.1674 91.6889 40.1192 91.9126 40.0815C92.3152 39.985 92.46 39.8225 92.4753 39.4058L92.5224 38.0543V34.0964C92.5224 33.8068 92.4094 33.6303 92.1528 33.5008C91.8632 33.3395 91.5571 33.2276 91.2345 33.1146C91.138 33.0828 91.0415 33.0499 90.9614 33.0016C90.7519 32.8568 90.726 32.6484 90.9296 32.4872C91.021 32.4121 91.1331 32.3669 91.251 32.3577C92.2811 32.1964 93.2782 31.9715 94.2435 31.5854C94.3566 31.5383 94.4048 31.5689 94.4531 31.6654C94.5014 31.762 94.5178 31.875 94.5002 31.9868L94.4531 32.7426C94.4531 32.8392 94.406 32.9781 94.4849 33.0157C94.5814 33.0805 94.6462 32.9357 94.7262 32.898C95.2012 32.4995 95.726 32.1644 96.2872 31.9009C96.7864 31.6654 97.2997 31.5148 97.88 31.5477C98.9584 31.6125 99.7306 32.1599 100.229 33.1087C100.488 33.6079 100.598 34.1541 100.647 34.718L100.694 35.8953L100.71 39.4505C100.727 39.7236 100.823 39.9014 101.096 39.9979C101.379 40.0923 101.67 40.1624 101.965 40.2075C102.224 40.2393 102.238 40.2875 102.255 40.5289V40.6089C102.223 41.1563 102.19 41.1716 101.642 41.1387C100.442 41.0743 99.2393 41.0743 98.039 41.1387C97.8777 41.1551 97.7176 41.1387 97.5681 41.1551C97.4715 41.1551 97.4068 41.1387 97.3915 41.0421C97.3597 40.8326 97.3267 40.6242 97.375 40.3982C97.3915 40.3017 97.4397 40.2534 97.5516 40.2369L98.2932 40.1192C98.5522 40.0544 98.6959 39.8837 98.7288 39.6483L98.7606 39.1974L98.7441 35.8352C98.7441 35.4491 98.7276 35.0629 98.6476 34.6768C98.4545 33.8528 97.827 33.2641 96.9759 33.1817C96.2342 33.1017 95.5632 33.2947 94.9487 33.6962C94.6426 33.8892 94.5131 34.1624 94.5131 34.5002V36.93C94.5131 36.883 94.5131 36.883 94.5296 36.883L94.5084 36.8512Z" fill="#0F143C" fill-opacity="0.8"/>
<path d="M141.629 32.2976C141.452 31.1228 141.016 30.0774 140.261 29.1603C139.602 28.3502 138.75 27.7193 137.783 27.3262C136.77 26.9083 135.691 26.7788 134.597 26.747C134.146 26.7305 128.001 26.827 127.55 26.747C127.437 26.7305 127.357 26.7635 127.291 26.86C127.211 26.9777 127.13 27.1013 127.082 27.2296C126.888 27.6652 126.888 27.6323 127.355 27.6958C127.741 27.7606 128.11 27.7924 128.481 27.9054C128.819 28.0184 129.06 28.2115 129.141 28.5811C129.172 28.7577 129.205 34.4202 129.205 37.0596L129.141 38.9431C129.124 39.0879 129.109 39.2327 129.06 39.3611C128.996 39.5541 128.884 39.7142 128.691 39.7966C128.478 39.8966 128.249 39.9565 128.015 39.9732C127.58 40.0203 127.516 40.038 127.371 40.5206L127.324 40.6972C127.292 40.9068 127.308 40.9386 127.517 40.9386L132.327 40.9856L134.211 40.9539L135.514 40.7926C136.994 40.5195 138.314 39.9073 139.439 38.9267C140.082 38.3589 140.607 37.67 140.984 36.8995C141.434 35.9989 141.627 35.0159 141.676 34.0199C141.756 33.4572 141.723 32.878 141.629 32.2988V32.2976ZM139.295 34.5815C139.231 35.6116 139.022 36.6087 138.491 37.5093C137.816 38.6841 136.85 39.5047 135.515 39.7931C134.936 39.9108 134.357 39.9697 133.749 39.8896C133.314 39.8425 132.897 39.7931 132.494 39.6483C131.77 39.3893 131.513 38.942 131.497 38.2356L131.481 28.5352C131.481 27.956 131.74 27.8289 132.157 27.8112C132.784 27.7641 133.428 27.7794 134.055 27.843C134.723 27.9076 135.379 28.0661 136.003 28.3139C136.466 28.507 136.895 28.7733 137.274 29.1026C138.143 29.8443 138.722 30.7743 139.04 31.8691C139.299 32.7544 139.346 33.655 139.299 34.5556L139.295 34.5815ZM155 36.159C155 36.0624 155 35.9824 154.983 35.8859C154.838 35.0006 154.371 34.3248 153.648 33.8104C153.182 33.4725 152.651 33.2477 152.104 33.0864C152.007 33.0546 151.927 33.0216 151.831 33.0063C151.847 32.9263 151.895 32.9098 151.944 32.8933C152.265 32.732 152.571 32.5555 152.844 32.3141C153.343 31.8962 153.668 31.3806 153.841 30.7531C153.938 30.4152 153.938 30.0774 153.906 29.723C153.88 29.3085 153.761 28.9052 153.557 28.5431C153.354 28.1809 153.071 27.8692 152.731 27.6311C151.99 27.0837 151.122 26.8588 150.221 26.8423C148.484 26.8105 146.731 26.8423 144.994 26.8423C144.495 26.8423 143.997 26.8741 143.482 26.7952C143.385 26.7788 143.246 26.7482 143.176 26.86C143.058 27.0695 142.917 27.2779 142.869 27.5192C142.853 27.6323 142.886 27.6958 143.014 27.7123L144.124 27.8736C144.56 27.9383 144.866 28.1797 144.897 28.5658C144.928 28.8327 144.944 29.1011 144.944 29.3699L144.912 32.3777L144.895 38.3298C144.895 38.683 144.848 39.022 144.782 39.3752C144.767 39.4873 144.719 39.5925 144.645 39.6781C144.571 39.7637 144.473 39.8261 144.365 39.8579C144.043 39.9544 143.737 40.0509 143.399 40.0509C143.309 40.0424 143.218 40.0647 143.142 40.1143C143.067 40.164 143.01 40.2379 142.981 40.324C142.917 40.4688 142.864 40.6301 142.836 40.7749C142.805 40.968 142.853 41.0339 143.046 41.0104C143.191 40.9939 148.5 41.1234 149.497 41.0268C150.093 40.9621 150.675 40.882 151.267 40.7055C152.279 40.3841 153.214 39.9167 153.953 39.128C154.565 38.484 154.918 37.7118 154.95 36.8112C154.997 36.6016 154.997 36.3932 154.997 36.1672L155 36.159ZM147.197 29.5665L147.244 28.2797C147.244 28.0384 147.341 27.9266 147.582 27.8771C147.968 27.7971 148.354 27.83 148.74 27.8453C149.126 27.8771 149.496 27.9254 149.882 28.0384C150.589 28.248 151.137 28.6506 151.46 29.3251C151.606 29.6318 151.683 29.9671 151.685 30.3069C151.701 30.7578 151.668 31.1922 151.492 31.6254C151.218 32.2211 150.785 32.6073 150.157 32.7203C149.528 32.8333 147.743 32.785 147.47 32.785C147.229 32.785 147.211 32.7532 147.211 32.5119V30.9968C147.173 30.5257 147.168 30.0525 147.195 29.5806L147.197 29.5665ZM152.424 38.2215C152.151 38.9455 151.652 39.4458 150.944 39.7166C150.558 39.8614 150.172 39.952 149.767 39.9261C149.268 39.9097 148.77 39.9261 148.272 39.8296C147.596 39.6848 147.29 39.0408 147.242 38.5747C147.162 37.7541 147.21 36.9171 147.195 36.3061V34.1824C147.195 33.9234 147.226 33.8445 147.501 33.8445L149.013 33.861L150.044 33.9787C150.768 34.14 151.427 34.4143 151.942 34.9759C152.36 35.4267 152.586 35.973 152.635 36.5687C152.682 37.1314 152.651 37.6788 152.442 38.2097L152.424 38.2215Z" fill="#0F143C" fill-opacity="0.8"/>
<path d="M111.546 33.3748L111.964 33.4396C112.415 33.456 112.946 33.2948 113.106 32.6673C113.194 32.3676 113.194 32.0488 113.106 31.749C113.009 31.749 112.961 31.8291 112.913 31.8621C112.671 32.0551 112.398 32.1681 112.109 32.1999C111.529 32.2647 110.95 32.2317 110.387 32.0233L109.599 31.7502C109.049 31.5701 108.47 31.4942 107.892 31.5265C107.071 31.5913 106.299 31.8644 105.575 32.2505C104.803 32.6685 104.256 33.2959 103.997 34.1494C103.853 34.6486 103.836 35.1619 103.901 35.6775C104.062 36.8524 104.673 37.6729 105.767 38.1073C105.832 38.1238 105.88 38.1544 105.943 38.172C106.088 38.2521 106.105 38.3333 105.975 38.4452L105.573 38.7183L104.607 39.314C104.366 39.4588 104.334 39.573 104.414 39.8284C104.51 40.129 104.688 40.3965 104.929 40.6007C105.149 40.7901 105.399 40.9424 105.669 41.0516C105.846 41.1316 105.846 41.1693 105.686 41.3106L104.767 41.9698C104.461 42.2053 104.155 42.4407 103.899 42.7421C103.72 42.9331 103.591 43.1651 103.524 43.4177C103.457 43.6703 103.453 43.9356 103.512 44.1901C103.632 44.7485 103.924 45.2552 104.348 45.6381C104.767 46.0255 105.275 46.3019 105.828 46.4421C106.729 46.7011 107.662 46.7152 108.579 46.5387C109.898 46.2973 111.051 45.7146 111.958 44.721C112.585 44.0618 112.955 43.2895 112.988 42.3665C113.023 41.8328 112.868 41.3038 112.55 40.8738C112.231 40.4438 111.771 40.1405 111.25 40.018L110.382 39.8567L107.727 39.6212C107.437 39.6047 107.148 39.5565 106.906 39.4117C106.6 39.2186 106.52 38.849 106.713 38.6076C106.858 38.431 107.035 38.318 107.261 38.3015L107.775 38.2544C108.793 38.1509 109.748 37.7158 110.493 37.016C110.892 36.6475 111.176 36.1729 111.314 35.648C111.507 34.9558 111.507 34.2354 111.346 33.529C111.299 33.3524 111.314 33.336 111.539 33.3677L111.546 33.3748ZM107.602 41.3883C107.699 41.4047 107.795 41.3883 107.892 41.3883C108.567 41.42 109.26 41.4683 109.919 41.6472C110.134 41.7109 110.344 41.7916 110.546 41.8886C111.19 42.2418 111.432 42.8539 111.35 43.5132C111.254 44.2372 110.851 44.7516 110.224 45.0907C109.806 45.3261 109.339 45.4285 108.856 45.4768C108.679 45.4933 108.518 45.4768 108.341 45.4768C107.779 45.4933 107.231 45.4297 106.7 45.2037C106.331 45.0589 106.025 44.8505 105.752 44.5597C105.189 43.997 104.927 42.9669 105.768 42.1299C106.282 41.659 106.863 41.3259 107.602 41.3883ZM109.436 36.3685C109.098 37.2208 108.358 37.4787 107.619 37.3656C106.943 37.2691 106.444 36.8995 106.124 36.2873C105.706 35.4668 105.594 34.6156 105.834 33.7292C106.01 33.0699 106.413 32.5708 107.121 32.4577C108.021 32.2965 108.886 32.619 109.341 33.5196C109.576 33.9552 109.679 34.4849 109.679 35.2407C109.662 35.5468 109.599 35.9647 109.437 36.3673L109.436 36.3685ZM89.1666 35.2737C89.0218 34.4049 88.7004 33.6161 88.1047 32.9569C87.2195 31.9751 86.094 31.5442 84.8226 31.5407C83.7125 31.5242 82.6683 31.8468 81.7335 32.426C80.8146 32.9759 80.1411 33.8567 79.8511 34.8876C79.578 35.8211 79.5922 36.7711 79.8041 37.7188C80.3668 40.2616 82.3304 41.3541 84.6778 41.194C85.37 41.1469 86.0293 40.9209 86.6556 40.6148C87.5891 40.1792 88.2648 39.4882 88.731 38.5711C89.1007 37.8153 89.2608 37.0101 89.2455 36.093L89.1654 35.2725L89.1666 35.2737ZM86.8828 38.8454C86.7677 39.2074 86.5497 39.528 86.2553 39.768C85.9609 40.008 85.603 40.1571 85.2252 40.1969C84.5189 40.2934 83.8573 40.1168 83.2628 39.6977C82.8336 39.382 82.4861 38.9683 82.2492 38.4911C81.5899 37.1396 81.4769 35.7246 81.8136 34.2766C81.922 33.8284 82.1565 33.4207 82.4893 33.1017C83.085 32.5543 83.7761 32.426 84.5495 32.5872C85.2912 32.7485 85.8527 33.15 86.3153 33.7621C86.778 34.3743 86.9911 35.0806 87.1194 35.8223C87.1841 36.1919 87.1841 36.5781 87.1995 36.8194C87.1995 37.5917 87.1347 38.2321 86.8934 38.8466L86.8828 38.8454ZM124.319 35.4032C124.201 34.4696 123.853 33.6173 123.192 32.9098C122.323 31.9609 121.197 31.5583 119.943 31.5419C118.865 31.5254 117.868 31.8315 116.951 32.3624C115.92 32.9745 115.213 33.8422 114.94 35.0171C114.614 36.2988 114.75 37.6546 115.326 38.8454C115.856 39.972 116.757 40.696 117.949 41.0174C119.267 41.3706 120.523 41.2105 121.745 40.6148C122.807 40.1004 123.563 39.2963 123.997 38.2015C124.256 37.5575 124.351 36.8665 124.367 36.0613C124.384 35.9165 124.351 35.6586 124.32 35.402L124.319 35.4032ZM122.099 38.6371C121.84 39.5059 121.295 40.0686 120.377 40.1981C119.702 40.2946 119.059 40.1333 118.479 39.7472C117.979 39.4093 117.626 38.9584 117.368 38.4287C117.079 37.866 116.918 37.2703 116.854 36.6593C116.757 35.9035 116.757 35.1642 116.934 34.4072C116.968 34.258 117.016 34.1125 117.079 33.9728C117.53 32.8462 118.527 32.3318 119.702 32.5896C120.49 32.7662 121.085 33.2018 121.536 33.861C121.971 34.505 122.18 35.2125 122.278 35.98C122.325 36.2861 122.342 36.6075 122.325 36.8806C122.325 37.5081 122.278 38.0873 122.089 38.65L122.099 38.6371Z" fill="#0F143C" fill-opacity="0.8"/>
</svg>
