<svg width="270" height="352" viewBox="0 0 270 352" fill="none" xmlns="http://www.w3.org/2000/svg">
<rect width="270" height="352" rx="32" fill="#D4F7E9"/>
<path d="M66.592 312V269.504H60.768L45.472 277.888V285.312L59.424 277.696V312H66.592ZM86.209 303.808C83.713 303.808 81.793 305.728 81.793 308.224C81.793 310.72 83.713 312.64 86.209 312.64C88.769 312.64 90.625 310.72 90.625 308.224C90.625 305.728 88.769 303.808 86.209 303.808ZM130.679 305.536H110.391V305.408L115.255 301.888C127.031 293.312 130.679 288.448 130.679 281.664C130.679 273.408 124.919 268.864 114.487 268.864C109.623 268.864 104.695 270.336 101.239 272.896V280.576H101.623C104.951 277.248 109.687 275.328 114.615 275.328C120.311 275.328 123.447 277.696 123.447 282.048C123.447 286.208 120.439 289.664 110.199 297.664L100.663 305.216V312H130.679V305.536ZM176.024 281.344C170.712 281.344 167.384 283.136 165.528 286.72H165.4C163.608 283.2 160.28 281.344 156.056 281.344C151.576 281.344 148.44 283.072 146.648 286.336H146.52L146.328 281.984H140.696V312H147.48V296C147.48 290.432 149.848 287.424 154.328 287.424C158.424 287.424 160.6 290.048 160.6 294.976V312H167.384V296.512C167.384 290.432 169.752 287.424 174.296 287.424C178.328 287.424 180.504 290.048 180.504 294.976V312H187.288V294.272C187.288 286.016 183.256 281.344 176.024 281.344Z" fill="#0F143C"/>
<path d="M54.5 237.5C59.8848 237.5 64.25 233.135 64.25 227.75C64.25 222.365 59.8848 218 54.5 218C49.1152 218 44.75 222.365 44.75 227.75C44.75 233.135 49.1152 237.5 54.5 237.5Z" stroke="#4BDCA3" stroke-width="2" stroke-miterlimit="10"/>
<path d="M67.1367 218.356C67.9986 218.122 68.8874 218.003 69.7805 218C72.3663 218 74.8463 219.027 76.6748 220.856C78.5032 222.684 79.5305 225.164 79.5305 227.75C79.5305 230.336 78.5032 232.816 76.6748 234.644C74.8463 236.473 72.3663 237.5 69.7805 237.5" stroke="#4BDCA3" stroke-width="2" stroke-linecap="round" stroke-linejoin="round"/>
<path d="M41 244.512C42.5224 242.346 44.5438 240.578 46.8935 239.357C49.2432 238.136 51.8522 237.499 54.5 237.499C57.1478 237.499 59.7568 238.136 62.1065 239.357C64.4562 240.578 66.4776 242.346 68 244.512" stroke="#4BDCA3" stroke-width="2" stroke-linecap="round" stroke-linejoin="round"/>
<path d="M69.7812 237.5C72.4293 237.498 75.0388 238.135 77.3887 239.355C79.7387 240.576 81.7599 242.345 83.2812 244.513" stroke="#4BDCA3" stroke-width="2" stroke-linecap="round" stroke-linejoin="round"/>
<path d="M49.3 57V43.72H46.98V53.64H46.94L40.8 43.72H37.5V57H39.82V46.34H39.86L46.4 57H49.3ZM60.8447 57V47.62H58.7247V52.54C58.7247 54.26 57.8447 55.3 56.3447 55.3C54.9647 55.3 54.1647 54.4 54.1647 52.88V47.62H52.0447V53.12C52.0447 55.68 53.4447 57.2 55.8047 57.2C57.2847 57.2 58.3447 56.62 58.9447 55.58H58.9847L59.0647 57H60.8447ZM74.6184 47.42C72.9584 47.42 71.9184 47.98 71.3384 49.1H71.2984C70.7384 48 69.6984 47.42 68.3784 47.42C66.9784 47.42 65.9984 47.96 65.4384 48.98H65.3984L65.3384 47.62H63.5784V57H65.6984V52C65.6984 50.26 66.4384 49.32 67.8384 49.32C69.1184 49.32 69.7984 50.14 69.7984 51.68V57H71.9184V52.16C71.9184 50.26 72.6584 49.32 74.0784 49.32C75.3384 49.32 76.0184 50.14 76.0184 51.68V57H78.1384V51.46C78.1384 48.88 76.8784 47.42 74.6184 47.42ZM85.8734 47.42C84.5134 47.42 83.4734 47.86 82.7734 48.62H82.7334V43H80.6134V57H82.3934L82.4534 55.66H82.4934C83.1734 56.62 84.3334 57.2 85.8734 57.2C88.5534 57.2 90.5134 55.16 90.5134 52.32C90.5134 49.48 88.5534 47.42 85.8734 47.42ZM85.5334 55.3C83.8534 55.3 82.6734 54.06 82.6734 52.32C82.6734 50.54 83.8534 49.32 85.5334 49.32C87.1934 49.32 88.3734 50.54 88.3734 52.32C88.3734 54.06 87.1934 55.3 85.5334 55.3ZM101.69 52.96V51.92C101.69 49.18 99.8498 47.42 96.9498 47.42C94.0898 47.42 92.0698 49.44 92.0698 52.32C92.0698 55.24 94.2698 57.2 97.5498 57.2C99.0298 57.2 100.31 56.84 101.11 56.22V54.12H101.01C100.17 54.92 99.0098 55.34 97.6298 55.34C95.7698 55.34 94.4898 54.46 94.2298 52.96H101.69ZM97.0098 49.28C98.4698 49.28 99.5498 50.1 99.7298 51.38H94.2298C94.4898 50.12 95.6698 49.28 97.0098 49.28ZM108.587 47.42C107.187 47.42 106.227 47.98 105.687 49.06H105.647L105.567 47.62H103.787V57H105.907V52.84C105.907 50.56 106.727 49.44 108.407 49.44C108.987 49.44 109.487 49.6 109.887 49.88H109.987V47.78C109.687 47.58 109.187 47.42 108.587 47.42ZM120.658 47.42C117.738 47.42 115.678 49.44 115.678 52.32C115.678 55.18 117.738 57.2 120.658 57.2C123.578 57.2 125.658 55.18 125.658 52.32C125.658 49.44 123.578 47.42 120.658 47.42ZM120.658 49.32C122.358 49.32 123.518 50.54 123.518 52.32C123.518 54.06 122.358 55.3 120.658 55.3C118.978 55.3 117.818 54.06 117.818 52.32C117.818 50.54 118.978 49.32 120.658 49.32ZM131.629 42.8C129.469 42.8 128.289 44.06 128.289 46.28V47.62H126.629V49.46H128.289V57H130.409V49.46H133.269V47.62H130.409V46.38C130.409 45.3 130.949 44.7 131.949 44.7C132.469 44.7 133.029 44.84 133.429 45.12H133.529V43.14C133.089 42.92 132.449 42.8 131.629 42.8ZM142.872 47.42C140.612 47.42 139.112 48.62 139.112 50.46C139.112 52.24 140.012 53 142.452 53.2C143.972 53.32 144.392 53.6 144.392 54.22C144.392 54.9 143.712 55.34 142.612 55.34C141.172 55.34 140.032 54.9 139.252 54.06H139.152V56.28C139.932 56.88 141.152 57.2 142.712 57.2C145.052 57.2 146.472 56.06 146.472 54.22C146.472 52.32 145.492 51.4 142.992 51.26C141.612 51.18 141.192 50.94 141.192 50.4C141.192 49.74 141.912 49.28 142.932 49.28C144.152 49.28 145.132 49.62 145.772 50.28H145.872V48.1C145.192 47.66 144.092 47.42 142.872 47.42ZM152.883 47.42C149.963 47.42 147.903 49.44 147.903 52.32C147.903 55.18 149.963 57.2 152.883 57.2C155.803 57.2 157.883 55.18 157.883 52.32C157.883 49.44 155.803 47.42 152.883 47.42ZM152.883 49.32C154.583 49.32 155.743 50.54 155.743 52.32C155.743 54.06 154.583 55.3 152.883 55.3C151.203 55.3 150.043 54.06 150.043 52.32C150.043 50.54 151.203 49.32 152.883 49.32ZM163.855 42.8C161.695 42.8 160.515 44.06 160.515 46.28V47.62H158.855V49.46H160.515V57H162.635V49.46H165.495V47.62H162.635V46.38C162.635 45.3 163.175 44.7 164.175 44.7C164.695 44.7 165.255 44.84 165.655 45.12H165.755V43.14C165.315 42.92 164.675 42.8 163.855 42.8ZM171.614 54.76H171.514C171.134 55.18 170.674 55.32 170.174 55.32C169.254 55.32 168.714 54.72 168.714 53.7V49.46H171.574V47.62H168.714V45.04H166.954L166.654 47.62H164.934V49.46H166.594V53.78C166.594 56 167.734 57.2 169.854 57.2C170.594 57.2 171.174 57.08 171.614 56.86V54.76ZM184.371 57L187.591 47.62H185.431L183.371 54.28H183.331L181.011 47.62H179.311L176.991 54.28H176.951L174.891 47.62H172.631L175.871 57H177.911L180.091 50.68H180.131L182.291 57H184.371ZM198.251 57V47.62H196.491L196.411 48.96H196.371C195.691 48 194.531 47.42 193.011 47.42C190.331 47.42 188.371 49.48 188.371 52.32C188.371 55.16 190.331 57.2 193.011 57.2C194.531 57.2 195.711 56.62 196.391 55.66H196.431L196.491 57H198.251ZM193.351 55.3C191.671 55.3 190.511 54.06 190.511 52.32C190.511 50.54 191.671 49.32 193.351 49.32C195.031 49.32 196.191 50.54 196.191 52.32C196.191 54.06 195.031 55.3 193.351 55.3ZM205.728 47.42C204.328 47.42 203.368 47.98 202.828 49.06H202.788L202.708 47.62H200.928V57H203.048V52.84C203.048 50.56 203.868 49.44 205.548 49.44C206.128 49.44 206.628 49.6 207.028 49.88H207.128V47.78C206.828 47.58 206.328 47.42 205.728 47.42ZM217.688 52.96V51.92C217.688 49.18 215.848 47.42 212.948 47.42C210.088 47.42 208.068 49.44 208.068 52.32C208.068 55.24 210.268 57.2 213.548 57.2C215.028 57.2 216.308 56.84 217.108 56.22V54.12H217.008C216.168 54.92 215.008 55.34 213.628 55.34C211.768 55.34 210.488 54.46 210.228 52.96H217.688ZM213.008 49.28C214.468 49.28 215.548 50.1 215.728 51.38H210.228C210.488 50.12 211.668 49.28 213.008 49.28ZM46.3 79.96V78.92C46.3 76.18 44.46 74.42 41.56 74.42C38.7 74.42 36.68 76.44 36.68 79.32C36.68 82.24 38.88 84.2 42.16 84.2C43.64 84.2 44.92 83.84 45.72 83.22V81.12H45.62C44.78 81.92 43.62 82.34 42.24 82.34C40.38 82.34 39.1 81.46 38.84 79.96H46.3ZM41.62 76.28C43.08 76.28 44.16 77.1 44.34 78.38H38.84C39.1 77.12 40.28 76.28 41.62 76.28ZM53.457 74.42C51.977 74.42 50.897 75 50.297 76.06H50.257L50.177 74.62H48.397V84H50.517V79.08C50.517 77.34 51.417 76.32 52.917 76.32C54.277 76.32 55.097 77.2 55.097 78.74V84H57.217V78.5C57.217 75.94 55.797 74.42 53.457 74.42ZM69.0108 74.62H67.2508L67.1908 75.96H67.1508C66.4708 75 65.2908 74.42 63.7708 74.42C61.0908 74.42 59.1308 76.42 59.1308 79.26C59.1308 82.1 61.0908 84.08 63.7708 84.08C65.1108 84.08 66.1508 83.64 66.8508 82.9H66.8908V83.12C66.8908 85.02 65.7308 86.1 63.6308 86.1C62.1508 86.1 60.8708 85.56 60.1308 84.66H60.0308V86.86C60.8908 87.58 62.2708 88 63.8908 88C67.0908 88 69.0108 86.2 69.0108 83.24V74.62ZM64.1108 82.18C62.4308 82.18 61.2708 81.02 61.2708 79.26C61.2708 77.48 62.4308 76.32 64.1108 76.32C65.7908 76.32 66.9508 77.48 66.9508 79.26C66.9508 81.02 65.7908 82.18 64.1108 82.18ZM72.7477 70.34C71.9477 70.34 71.4077 70.9 71.4077 71.7C71.4077 72.5 71.9477 73.04 72.7477 73.04C73.5677 73.04 74.1077 72.5 74.1077 71.7C74.1077 70.9 73.5677 70.34 72.7477 70.34ZM71.6877 74.62V84H73.8077V74.62H71.6877ZM81.5766 74.42C80.0966 74.42 79.0166 75 78.4166 76.06H78.3766L78.2966 74.62H76.5166V84H78.6366V79.08C78.6366 77.34 79.5366 76.32 81.0366 76.32C82.3966 76.32 83.2166 77.2 83.2166 78.74V84H85.3366V78.5C85.3366 75.94 83.9166 74.42 81.5766 74.42ZM96.8703 79.96V78.92C96.8703 76.18 95.0303 74.42 92.1303 74.42C89.2703 74.42 87.2503 76.44 87.2503 79.32C87.2503 82.24 89.4503 84.2 92.7303 84.2C94.2103 84.2 95.4903 83.84 96.2903 83.22V81.12H96.1903C95.3503 81.92 94.1903 82.34 92.8103 82.34C90.9503 82.34 89.6703 81.46 89.4103 79.96H96.8703ZM92.1903 76.28C93.6503 76.28 94.7303 77.1 94.9103 78.38H89.4103C89.6703 77.12 90.8503 76.28 92.1903 76.28ZM108.027 79.96V78.92C108.027 76.18 106.187 74.42 103.287 74.42C100.427 74.42 98.4073 76.44 98.4073 79.32C98.4073 82.24 100.607 84.2 103.887 84.2C105.367 84.2 106.647 83.84 107.447 83.22V81.12H107.347C106.507 81.92 105.347 82.34 103.967 82.34C102.107 82.34 100.827 81.46 100.567 79.96H108.027ZM103.347 76.28C104.807 76.28 105.887 77.1 106.067 78.38H100.567C100.827 77.12 102.007 76.28 103.347 76.28ZM114.924 74.42C113.524 74.42 112.564 74.98 112.024 76.06H111.984L111.904 74.62H110.124V84H112.244V79.84C112.244 77.56 113.064 76.44 114.744 76.44C115.324 76.44 115.824 76.6 116.224 76.88H116.324V74.78C116.024 74.58 115.524 74.42 114.924 74.42ZM121.281 74.42C119.021 74.42 117.521 75.62 117.521 77.46C117.521 79.24 118.421 80 120.861 80.2C122.381 80.32 122.801 80.6 122.801 81.22C122.801 81.9 122.121 82.34 121.021 82.34C119.581 82.34 118.441 81.9 117.661 81.06H117.561V83.28C118.341 83.88 119.561 84.2 121.121 84.2C123.461 84.2 124.881 83.06 124.881 81.22C124.881 79.32 123.901 78.4 121.401 78.26C120.021 78.18 119.601 77.94 119.601 77.4C119.601 76.74 120.321 76.28 121.341 76.28C122.561 76.28 123.541 76.62 124.181 77.28H124.281V75.1C123.601 74.66 122.501 74.42 121.281 74.42ZM134.767 74.42C132.507 74.42 131.007 75.62 131.007 77.46C131.007 79.24 131.907 80 134.347 80.2C135.867 80.32 136.287 80.6 136.287 81.22C136.287 81.9 135.607 82.34 134.507 82.34C133.067 82.34 131.927 81.9 131.147 81.06H131.047V83.28C131.827 83.88 133.047 84.2 134.607 84.2C136.947 84.2 138.367 83.06 138.367 81.22C138.367 79.32 137.387 78.4 134.887 78.26C133.507 78.18 133.087 77.94 133.087 77.4C133.087 76.74 133.807 76.28 134.827 76.28C136.047 76.28 137.027 76.62 137.667 77.28H137.767V75.1C137.087 74.66 135.987 74.42 134.767 74.42ZM149.418 79.96V78.92C149.418 76.18 147.578 74.42 144.678 74.42C141.818 74.42 139.798 76.44 139.798 79.32C139.798 82.24 141.998 84.2 145.278 84.2C146.758 84.2 148.038 83.84 148.838 83.22V81.12H148.738C147.898 81.92 146.738 82.34 145.358 82.34C143.498 82.34 142.218 81.46 141.958 79.96H149.418ZM144.738 76.28C146.198 76.28 147.278 77.1 147.458 78.38H141.958C142.218 77.12 143.398 76.28 144.738 76.28ZM157.136 81.76H157.036C156.656 82.18 156.196 82.32 155.696 82.32C154.776 82.32 154.236 81.72 154.236 80.7V76.46H157.096V74.62H154.236V72.04H152.476L152.176 74.62H150.456V76.46H152.116V80.78C152.116 83 153.256 84.2 155.376 84.2C156.116 84.2 156.696 84.08 157.136 83.86V81.76ZM169.529 81.76H169.429C169.049 82.18 168.589 82.32 168.089 82.32C167.169 82.32 166.629 81.72 166.629 80.7V76.46H169.489V74.62H166.629V72.04H164.869L164.569 74.62H162.849V76.46H164.509V80.78C164.509 83 165.649 84.2 167.769 84.2C168.509 84.2 169.089 84.08 169.529 83.86V81.76ZM175.988 74.42C173.068 74.42 171.008 76.44 171.008 79.32C171.008 82.18 173.068 84.2 175.988 84.2C178.908 84.2 180.988 82.18 180.988 79.32C180.988 76.44 178.908 74.42 175.988 74.42ZM175.988 76.32C177.688 76.32 178.848 77.54 178.848 79.32C178.848 81.06 177.688 82.3 175.988 82.3C174.308 82.3 173.148 81.06 173.148 79.32C173.148 77.54 174.308 76.32 175.988 76.32ZM192.97 74.42C191.61 74.42 190.57 74.86 189.87 75.62H189.83V70H187.71V84H189.49L189.55 82.66H189.59C190.27 83.62 191.43 84.2 192.97 84.2C195.65 84.2 197.61 82.16 197.61 79.32C197.61 76.48 195.65 74.42 192.97 74.42ZM192.63 82.3C190.95 82.3 189.77 81.06 189.77 79.32C189.77 77.54 190.95 76.32 192.63 76.32C194.29 76.32 195.47 77.54 195.47 79.32C195.47 81.06 194.29 82.3 192.63 82.3ZM208.787 79.96V78.92C208.787 76.18 206.947 74.42 204.047 74.42C201.187 74.42 199.167 76.44 199.167 79.32C199.167 82.24 201.367 84.2 204.647 84.2C206.127 84.2 207.407 83.84 208.207 83.22V81.12H208.107C207.267 81.92 206.107 82.34 204.727 82.34C202.867 82.34 201.587 81.46 201.327 79.96H208.787ZM204.107 76.28C205.567 76.28 206.647 77.1 206.827 78.38H201.327C201.587 77.12 202.767 76.28 204.107 76.28ZM38.3 97.34C37.5 97.34 36.96 97.9 36.96 98.7C36.96 99.5 37.5 100.04 38.3 100.04C39.12 100.04 39.66 99.5 39.66 98.7C39.66 97.9 39.12 97.34 38.3 97.34ZM37.24 101.62V111H39.36V101.62H37.24ZM47.1289 101.42C45.6489 101.42 44.5689 102 43.9689 103.06H43.9289L43.8489 101.62H42.0689V111H44.1889V106.08C44.1889 104.34 45.0889 103.32 46.5889 103.32C47.9489 103.32 48.7689 104.2 48.7689 105.74V111H50.8889V105.5C50.8889 102.94 49.4689 101.42 47.1289 101.42ZM63.6372 108.76H63.5372C63.1572 109.18 62.6972 109.32 62.1972 109.32C61.2772 109.32 60.7372 108.72 60.7372 107.7V103.46H63.5972V101.62H60.7372V99.04H58.9772L58.6772 101.62H56.9572V103.46H58.6172V107.78C58.6172 110 59.7572 111.2 61.8772 111.2C62.6172 111.2 63.1972 111.08 63.6372 110.86V108.76ZM70.8148 101.42C69.5548 101.42 68.5548 101.86 67.9148 102.64H67.8748V97H65.7548V111H67.8748V106.08C67.8748 104.34 68.7748 103.32 70.2748 103.32C71.6348 103.32 72.4548 104.2 72.4548 105.74V111H74.5748V105.5C74.5748 102.94 73.1548 101.42 70.8148 101.42ZM86.1086 106.96V105.92C86.1086 103.18 84.2686 101.42 81.3686 101.42C78.5086 101.42 76.4886 103.44 76.4886 106.32C76.4886 109.24 78.6886 111.2 81.9686 111.2C83.4486 111.2 84.7286 110.84 85.5286 110.22V108.12H85.4286C84.5886 108.92 83.4286 109.34 82.0486 109.34C80.1886 109.34 78.9086 108.46 78.6486 106.96H86.1086ZM81.4286 103.28C82.8886 103.28 83.9686 104.1 84.1486 105.38H78.6486C78.9086 104.12 80.0886 103.28 81.4286 103.28ZM104.2 97.72H101.88V105.22C101.88 107.74 100.7 109.06 98.5202 109.06C96.3202 109.06 95.1602 107.74 95.1602 105.22V97.72H92.7602V105.38C92.7602 109.22 94.6802 111.2 98.4602 111.2C102.26 111.2 104.2 109.22 104.2 105.38V97.72ZM111.668 97.52C108.468 97.52 106.488 99.08 106.488 101.64C106.488 103.96 107.728 105.08 111.188 105.46C113.548 105.72 114.268 106.2 114.268 107.22C114.268 108.4 113.228 109.06 111.388 109.06C109.448 109.06 107.788 108.48 106.588 107.38H106.468V109.94C107.548 110.76 109.268 111.2 111.448 111.2C114.728 111.2 116.648 109.7 116.648 107.16C116.648 104.72 115.348 103.5 111.808 103.14C109.568 102.92 108.868 102.44 108.868 101.5C108.868 100.38 109.948 99.66 111.628 99.66C113.388 99.66 114.908 100.2 115.768 101.12H115.888V98.58C115.028 97.94 113.408 97.52 111.668 97.52ZM132.662 111V101.62H130.902L130.822 102.96H130.782C130.102 102 128.942 101.42 127.422 101.42C124.742 101.42 122.782 103.48 122.782 106.32C122.782 109.16 124.742 111.2 127.422 111.2C128.942 111.2 130.122 110.62 130.802 109.66H130.842L130.902 111H132.662ZM127.762 109.3C126.082 109.3 124.922 108.06 124.922 106.32C124.922 104.54 126.082 103.32 127.762 103.32C129.442 103.32 130.602 104.54 130.602 106.32C130.602 108.06 129.442 109.3 127.762 109.3ZM135.338 111H137.458V97H135.338V111ZM144.568 101.42C141.648 101.42 139.588 103.44 139.588 106.32C139.588 109.18 141.648 111.2 144.568 111.2C147.488 111.2 149.568 109.18 149.568 106.32C149.568 103.44 147.488 101.42 144.568 101.42ZM144.568 103.32C146.268 103.32 147.428 104.54 147.428 106.32C147.428 108.06 146.268 109.3 144.568 109.3C142.888 109.3 141.728 108.06 141.728 106.32C141.728 104.54 142.888 103.32 144.568 103.32ZM156.755 101.42C155.275 101.42 154.195 102 153.595 103.06H153.555L153.475 101.62H151.695V111H153.815V106.08C153.815 104.34 154.715 103.32 156.215 103.32C157.575 103.32 158.395 104.2 158.395 105.74V111H160.515V105.5C160.515 102.94 159.095 101.42 156.755 101.42ZM172.049 106.96V105.92C172.049 103.18 170.209 101.42 167.309 101.42C164.449 101.42 162.429 103.44 162.429 106.32C162.429 109.24 164.629 111.2 167.909 111.2C169.389 111.2 170.669 110.84 171.469 110.22V108.12H171.369C170.529 108.92 169.369 109.34 167.989 109.34C166.129 109.34 164.849 108.46 164.589 106.96H172.049ZM167.369 103.28C168.829 103.28 169.909 104.1 170.089 105.38H164.589C164.849 104.12 166.029 103.28 167.369 103.28ZM184.001 101.42C182.641 101.42 181.601 101.86 180.901 102.62H180.861V97H178.741V111H180.521L180.581 109.66H180.621C181.301 110.62 182.461 111.2 184.001 111.2C186.681 111.2 188.641 109.16 188.641 106.32C188.641 103.48 186.681 101.42 184.001 101.42ZM183.661 109.3C181.981 109.3 180.801 108.06 180.801 106.32C180.801 104.54 181.981 103.32 183.661 103.32C185.321 103.32 186.501 104.54 186.501 106.32C186.501 108.06 185.321 109.3 183.661 109.3ZM193.465 114.8L199.085 101.62H196.905L194.265 108.42H194.225L191.605 101.62H189.325L193.105 110.7L191.285 114.8H193.465ZM47.22 135.98H40.88V135.94L42.4 134.84C46.08 132.16 47.22 130.64 47.22 128.52C47.22 125.94 45.42 124.52 42.16 124.52C40.64 124.52 39.1 124.98 38.02 125.78V128.18H38.14C39.18 127.14 40.66 126.54 42.2 126.54C43.98 126.54 44.96 127.28 44.96 128.64C44.96 129.94 44.02 131.02 40.82 133.52L37.84 135.88V138H47.22V135.98ZM55.7078 124.52C52.2278 124.52 50.2278 127.02 50.2278 131.36C50.2278 135.7 52.2278 138.2 55.7078 138.2C59.1878 138.2 61.1878 135.7 61.1878 131.36C61.1878 127.02 59.1878 124.52 55.7078 124.52ZM55.7078 126.54C57.7678 126.54 58.9278 128.28 58.9278 131.36C58.9278 134.44 57.7678 136.18 55.7078 136.18C53.6478 136.18 52.4878 134.44 52.4878 131.36C52.4878 128.28 53.6478 126.54 55.7078 126.54ZM73.6356 135.98H67.2956V135.94L68.8156 134.84C72.4956 132.16 73.6356 130.64 73.6356 128.52C73.6356 125.94 71.8356 124.52 68.5756 124.52C67.0556 124.52 65.5156 124.98 64.4356 125.78V128.18H64.5556C65.5956 127.14 67.0756 126.54 68.6156 126.54C70.3956 126.54 71.3756 127.28 71.3756 128.64C71.3756 129.94 70.4356 131.02 67.2356 133.52L64.2556 135.88V138H73.6356V135.98ZM82.9634 129.32C81.3834 129.32 80.0834 129.8 79.2034 130.64H79.1634C79.3834 128.02 80.8034 126.54 83.1634 126.54C84.4834 126.54 85.6034 126.94 86.3834 127.7H86.5034V125.42C85.7234 124.84 84.4834 124.52 82.9434 124.52C79.1634 124.52 76.8634 127.24 76.8634 131.72C76.8634 135.84 78.9834 138.2 82.6034 138.2C85.5634 138.2 87.5434 136.38 87.5434 133.64C87.5434 131.06 85.7634 129.32 82.9634 129.32ZM82.5434 136.18C80.6434 136.18 79.4034 135 79.2234 133.02C79.9234 131.86 81.1834 131.26 82.6034 131.26C84.2234 131.26 85.2634 132.18 85.2634 133.68C85.2634 135.18 84.1834 136.18 82.5434 136.18Z" fill="#0F143C"/>
</svg>
