<svg width="270" height="352" viewBox="0 0 270 352" fill="none" xmlns="http://www.w3.org/2000/svg">
<path d="M0 32C0 14.3269 14.3269 0 32 0H238C255.673 0 270 14.3269 270 32V320C270 337.673 255.673 352 238 352H32C14.3269 352 0 337.673 0 320V32Z" fill="#F3E5FF"/>
<path opacity="0.25" d="M213 117C213 160.078 178.078 195 135 195C91.9218 195 57 160.078 57 117C57 73.9217 91.9218 38.9999 135 38.9999C178.078 38.9999 213 73.9217 213 117ZM66.2309 117C66.2309 154.98 97.0199 185.769 135 185.769C172.98 185.769 203.769 154.98 203.769 117C203.769 79.0198 172.98 48.2308 135 48.2308C97.0199 48.2308 66.2309 79.0198 66.2309 117Z" fill="#AF52FF"/>
<path d="M135 43.794C135 41.1463 137.148 38.9846 139.791 39.1472C154.984 40.082 169.611 45.4464 181.838 54.6288C195.347 64.7732 205.197 79.0289 209.907 95.2523C214.617 111.476 213.933 128.79 207.957 144.591C201.981 160.392 191.037 173.826 176.77 182.873C162.504 191.919 145.685 196.09 128.845 194.757C112.004 193.424 96.0513 186.659 83.3856 175.48C70.7198 164.302 62.0257 149.313 58.6105 132.768C55.5192 117.793 56.9044 102.275 62.5378 88.134C63.5177 85.6743 66.3893 84.6528 68.7841 85.7819C71.179 86.911 72.1881 89.7629 71.2295 92.231C66.4695 104.486 65.3293 117.889 68.0007 130.83C70.9961 145.341 78.6215 158.487 89.7303 168.292C100.839 178.096 114.831 184.029 129.601 185.198C144.372 186.368 159.123 182.71 171.636 174.775C184.149 166.841 193.748 155.058 198.989 141.199C204.23 127.341 204.83 112.155 200.699 97.9257C196.568 83.6965 187.929 71.1932 176.081 62.2958C165.514 54.3607 152.905 49.6764 139.79 48.756C137.149 48.5707 135 46.4417 135 43.794Z" fill="#AF52FF"/>
<path d="M111.465 116.06C114.793 114.656 116.457 112.108 116.457 108.572C116.457 102.54 111.465 98.9519 103.145 98.9519C94.8251 98.9519 89.8331 102.54 89.8331 108.572C89.8331 112.368 91.5491 115.124 94.8251 116.632V116.736C90.8731 118.088 88.7931 120.792 88.7931 124.692C88.7931 130.88 94.1491 134.52 103.145 134.52C112.141 134.52 117.497 130.88 117.497 124.692C117.497 120.532 115.469 117.62 111.465 116.164V116.06ZM103.145 104.204C107.877 104.204 110.581 105.92 110.581 109.144C110.581 112.472 108.189 113.98 103.145 113.98C98.1011 113.98 95.7091 112.472 95.7091 109.144C95.7091 105.92 98.4131 104.204 103.145 104.204ZM103.145 129.268C97.7891 129.268 94.7211 127.448 94.7211 124.12C94.7211 120.636 97.4251 119.076 103.145 119.076C108.865 119.076 111.569 120.636 111.569 124.12C111.569 127.448 108.501 129.268 103.145 129.268ZM148.237 128.748H131.753V128.644L135.705 125.784C145.273 118.816 148.237 114.864 148.237 109.352C148.237 102.644 143.557 98.9519 135.081 98.9519C131.129 98.9519 127.125 100.148 124.317 102.228V108.468H124.629C127.333 105.764 131.181 104.204 135.185 104.204C139.813 104.204 142.361 106.128 142.361 109.664C142.361 113.044 139.917 115.852 131.597 122.352L123.849 128.488V134H148.237V128.748ZM159.656 105.692C155.666 105.692 153.356 108.464 153.356 112.622C153.356 116.738 155.666 119.51 159.656 119.51C163.646 119.51 165.956 116.738 165.956 112.622C165.956 108.464 163.646 105.692 159.656 105.692ZM157.052 134H160.748L178.598 106.112H174.902L157.052 134ZM159.656 108.59C161.546 108.59 162.722 110.06 162.722 112.622C162.722 115.142 161.546 116.612 159.656 116.612C157.766 116.612 156.59 115.142 156.59 112.622C156.59 110.06 157.766 108.59 159.656 108.59ZM175.994 120.602C172.004 120.602 169.694 123.374 169.694 127.532C169.694 131.648 172.004 134.42 175.994 134.42C179.984 134.42 182.294 131.648 182.294 127.532C182.294 123.374 179.984 120.602 175.994 120.602ZM175.994 123.5C177.884 123.5 179.06 124.97 179.06 127.532C179.06 130.052 177.884 131.522 175.994 131.522C174.104 131.522 172.928 130.052 172.928 127.532C172.928 124.97 174.104 123.5 175.994 123.5Z" fill="#0F143C"/>
<path d="M38.5 252H40.9V238.72H38.5V252ZM54.9106 242.42C53.2506 242.42 52.2106 242.98 51.6306 244.1H51.5906C51.0306 243 49.9906 242.42 48.6706 242.42C47.2706 242.42 46.2906 242.96 45.7306 243.98H45.6906L45.6306 242.62H43.8706V252H45.9906V247C45.9906 245.26 46.7306 244.32 48.1306 244.32C49.4106 244.32 50.0906 245.14 50.0906 246.68V252H52.2106V247.16C52.2106 245.26 52.9506 244.32 54.3706 244.32C55.6306 244.32 56.3106 245.14 56.3106 246.68V252H58.4306V246.46C58.4306 243.88 57.1706 242.42 54.9106 242.42ZM66.1656 242.42C64.6256 242.42 63.4656 243 62.7856 243.96H62.7456L62.6856 242.62H60.9056V255.8H63.0256V251H63.0656C63.7656 251.76 64.8056 252.2 66.1656 252.2C68.8456 252.2 70.8056 250.16 70.8056 247.32C70.8056 244.48 68.8456 242.42 66.1656 242.42ZM65.8256 250.3C64.1456 250.3 62.9656 249.06 62.9656 247.32C62.9656 245.54 64.1456 244.32 65.8256 244.32C67.4856 244.32 68.6656 245.54 68.6656 247.32C68.6656 249.06 67.4856 250.3 65.8256 250.3ZM77.722 242.42C76.322 242.42 75.362 242.98 74.822 244.06H74.782L74.702 242.62H72.922V252H75.042V247.84C75.042 245.56 75.862 244.44 77.542 244.44C78.122 244.44 78.622 244.6 79.022 244.88H79.122V242.78C78.822 242.58 78.322 242.42 77.722 242.42ZM85.042 242.42C82.122 242.42 80.062 244.44 80.062 247.32C80.062 250.18 82.122 252.2 85.042 252.2C87.962 252.2 90.042 250.18 90.042 247.32C90.042 244.44 87.962 242.42 85.042 242.42ZM85.042 244.32C86.742 244.32 87.902 245.54 87.902 247.32C87.902 249.06 86.742 250.3 85.042 250.3C83.362 250.3 82.202 249.06 82.202 247.32C82.202 245.54 83.362 244.32 85.042 244.32ZM96.6977 252L100.498 242.62H98.3177L95.6777 249.7H95.6377L93.0177 242.62H90.7377L94.5377 252H96.6977ZM110.805 247.96V246.92C110.805 244.18 108.965 242.42 106.065 242.42C103.205 242.42 101.185 244.44 101.185 247.32C101.185 250.24 103.385 252.2 106.665 252.2C108.145 252.2 109.425 251.84 110.225 251.22V249.12H110.125C109.285 249.92 108.125 250.34 106.745 250.34C104.885 250.34 103.605 249.46 103.345 247.96H110.805ZM106.125 244.28C107.585 244.28 108.665 245.1 108.845 246.38H103.345C103.605 245.12 104.785 244.28 106.125 244.28ZM123.982 242.42C122.322 242.42 121.282 242.98 120.702 244.1H120.662C120.102 243 119.062 242.42 117.742 242.42C116.342 242.42 115.362 242.96 114.802 243.98H114.762L114.702 242.62H112.942V252H115.062V247C115.062 245.26 115.802 244.32 117.202 244.32C118.482 244.32 119.162 245.14 119.162 246.68V252H121.282V247.16C121.282 245.26 122.022 244.32 123.442 244.32C124.702 244.32 125.382 245.14 125.382 246.68V252H127.502V246.46C127.502 243.88 126.242 242.42 123.982 242.42ZM139.037 247.96V246.92C139.037 244.18 137.197 242.42 134.297 242.42C131.437 242.42 129.417 244.44 129.417 247.32C129.417 250.24 131.617 252.2 134.897 252.2C136.377 252.2 137.657 251.84 138.457 251.22V249.12H138.357C137.517 249.92 136.357 250.34 134.977 250.34C133.117 250.34 131.837 249.46 131.577 247.96H139.037ZM134.357 244.28C135.817 244.28 136.897 245.1 137.077 246.38H131.577C131.837 245.12 133.017 244.28 134.357 244.28ZM146.194 242.42C144.714 242.42 143.634 243 143.034 244.06H142.994L142.914 242.62H141.134V252H143.254V247.08C143.254 245.34 144.154 244.32 145.654 244.32C147.014 244.32 147.834 245.2 147.834 246.74V252H149.954V246.5C149.954 243.94 148.534 242.42 146.194 242.42ZM158.108 249.76H158.008C157.628 250.18 157.168 250.32 156.668 250.32C155.748 250.32 155.208 249.72 155.208 248.7V244.46H158.068V242.62H155.208V240.04H153.448L153.148 242.62H151.428V244.46H153.088V248.78C153.088 251 154.228 252.2 156.348 252.2C157.088 252.2 157.668 252.08 158.108 251.86V249.76ZM165.88 238.34C165.08 238.34 164.54 238.9 164.54 239.7C164.54 240.5 165.08 241.04 165.88 241.04C166.7 241.04 167.24 240.5 167.24 239.7C167.24 238.9 166.7 238.34 165.88 238.34ZM164.82 242.62V252H166.94V242.62H164.82ZM174.709 242.42C173.229 242.42 172.149 243 171.549 244.06H171.509L171.429 242.62H169.649V252H171.769V247.08C171.769 245.34 172.669 244.32 174.169 244.32C175.529 244.32 176.349 245.2 176.349 246.74V252H178.469V246.5C178.469 243.94 177.049 242.42 174.709 242.42ZM43.04 269.42C41.64 269.42 40.68 269.98 40.14 271.06H40.1L40.02 269.62H38.24V279H40.36V274.84C40.36 272.56 41.18 271.44 42.86 271.44C43.44 271.44 43.94 271.6 44.34 271.88H44.44V269.78C44.14 269.58 43.64 269.42 43.04 269.42ZM55 274.96V273.92C55 271.18 53.16 269.42 50.26 269.42C47.4 269.42 45.38 271.44 45.38 274.32C45.38 277.24 47.58 279.2 50.86 279.2C52.34 279.2 53.62 278.84 54.42 278.22V276.12H54.32C53.48 276.92 52.32 277.34 50.94 277.34C49.08 277.34 47.8 276.46 47.54 274.96H55ZM50.32 271.28C51.78 271.28 52.86 272.1 53.04 273.38H47.54C47.8 272.12 48.98 271.28 50.32 271.28ZM62.7184 276.76H62.6184C62.2384 277.18 61.7784 277.32 61.2784 277.32C60.3584 277.32 59.8184 276.72 59.8184 275.7V271.46H62.6784V269.62H59.8184V267.04H58.0584L57.7584 269.62H56.0384V271.46H57.6984V275.78C57.6984 278 58.8384 279.2 60.9584 279.2C61.6984 279.2 62.2784 279.08 62.7184 278.86V276.76ZM73.818 274.96V273.92C73.818 271.18 71.978 269.42 69.078 269.42C66.218 269.42 64.198 271.44 64.198 274.32C64.198 277.24 66.398 279.2 69.678 279.2C71.158 279.2 72.438 278.84 73.238 278.22V276.12H73.138C72.298 276.92 71.138 277.34 69.758 277.34C67.898 277.34 66.618 276.46 66.358 274.96H73.818ZM69.138 271.28C70.598 271.28 71.678 272.1 71.858 273.38H66.358C66.618 272.12 67.798 271.28 69.138 271.28ZM80.975 269.42C79.495 269.42 78.415 270 77.815 271.06H77.775L77.695 269.62H75.915V279H78.035V274.08C78.035 272.34 78.935 271.32 80.435 271.32C81.795 271.32 82.615 272.2 82.615 273.74V279H84.735V273.5C84.735 270.94 83.315 269.42 80.975 269.42ZM92.8888 276.76H92.7888C92.4088 277.18 91.9488 277.32 91.4488 277.32C90.5288 277.32 89.9888 276.72 89.9888 275.7V271.46H92.8488V269.62H89.9888V267.04H88.2288L87.9288 269.62H86.2088V271.46H87.8688V275.78C87.8688 278 89.0088 279.2 91.1288 279.2C91.8688 279.2 92.4488 279.08 92.8888 278.86V276.76ZM96.0664 265.34C95.2664 265.34 94.7264 265.9 94.7264 266.7C94.7264 267.5 95.2664 268.04 96.0664 268.04C96.8864 268.04 97.4264 267.5 97.4264 266.7C97.4264 265.9 96.8864 265.34 96.0664 265.34ZM95.0064 269.62V279H97.1264V269.62H95.0064ZM104.255 269.42C101.335 269.42 99.2753 271.44 99.2753 274.32C99.2753 277.18 101.335 279.2 104.255 279.2C107.175 279.2 109.255 277.18 109.255 274.32C109.255 271.44 107.175 269.42 104.255 269.42ZM104.255 271.32C105.955 271.32 107.115 272.54 107.115 274.32C107.115 276.06 105.955 277.3 104.255 277.3C102.575 277.3 101.415 276.06 101.415 274.32C101.415 272.54 102.575 271.32 104.255 271.32ZM116.443 269.42C114.963 269.42 113.883 270 113.283 271.06H113.243L113.163 269.62H111.383V279H113.503V274.08C113.503 272.34 114.403 271.32 115.903 271.32C117.263 271.32 118.083 272.2 118.083 273.74V279H120.203V273.5C120.203 270.94 118.783 269.42 116.443 269.42ZM132.531 269.42C131.171 269.42 130.131 269.86 129.431 270.62H129.391V265H127.271V279H129.051L129.111 277.66H129.151C129.831 278.62 130.991 279.2 132.531 279.2C135.211 279.2 137.171 277.16 137.171 274.32C137.171 271.48 135.211 269.42 132.531 269.42ZM132.191 277.3C130.511 277.3 129.331 276.06 129.331 274.32C129.331 272.54 130.511 271.32 132.191 271.32C133.851 271.32 135.031 272.54 135.031 274.32C135.031 276.06 133.851 277.3 132.191 277.3ZM141.996 282.8L147.616 269.62H145.436L142.796 276.42H142.756L140.136 269.62H137.856L141.636 278.7L139.816 282.8H141.996ZM162.389 279V269.62H160.269V274.54C160.269 276.26 159.389 277.3 157.889 277.3C156.509 277.3 155.709 276.4 155.709 274.88V269.62H153.589V275.12C153.589 277.68 154.989 279.2 157.349 279.2C158.829 279.2 159.889 278.62 160.489 277.58H160.529L160.609 279H162.389ZM168.383 269.42C166.123 269.42 164.623 270.62 164.623 272.46C164.623 274.24 165.523 275 167.963 275.2C169.483 275.32 169.903 275.6 169.903 276.22C169.903 276.9 169.223 277.34 168.123 277.34C166.683 277.34 165.543 276.9 164.763 276.06H164.663V278.28C165.443 278.88 166.663 279.2 168.223 279.2C170.563 279.2 171.983 278.06 171.983 276.22C171.983 274.32 171.003 273.4 168.503 273.26C167.123 273.18 166.703 272.94 166.703 272.4C166.703 271.74 167.423 271.28 168.443 271.28C169.663 271.28 170.643 271.62 171.283 272.28H171.383V270.1C170.703 269.66 169.603 269.42 168.383 269.42ZM175.034 265.34C174.234 265.34 173.694 265.9 173.694 266.7C173.694 267.5 174.234 268.04 175.034 268.04C175.854 268.04 176.394 267.5 176.394 266.7C176.394 265.9 175.854 265.34 175.034 265.34ZM173.974 269.62V279H176.094V269.62H173.974ZM183.863 269.42C182.383 269.42 181.303 270 180.703 271.06H180.663L180.583 269.62H178.803V279H180.923V274.08C180.923 272.34 181.823 271.32 183.323 271.32C184.683 271.32 185.503 272.2 185.503 273.74V279H187.623V273.5C187.623 270.94 186.203 269.42 183.863 269.42ZM199.417 269.62H197.657L197.597 270.96H197.557C196.877 270 195.697 269.42 194.177 269.42C191.497 269.42 189.537 271.42 189.537 274.26C189.537 277.1 191.497 279.08 194.177 279.08C195.517 279.08 196.557 278.64 197.257 277.9H197.297V278.12C197.297 280.02 196.137 281.1 194.037 281.1C192.557 281.1 191.277 280.56 190.537 279.66H190.437V281.86C191.297 282.58 192.677 283 194.297 283C197.497 283 199.417 281.2 199.417 278.24V269.62ZM194.517 277.18C192.837 277.18 191.677 276.02 191.677 274.26C191.677 272.48 192.837 271.32 194.517 271.32C196.197 271.32 197.357 272.48 197.357 274.26C197.357 276.02 196.197 277.18 194.517 277.18ZM41.54 296.42C39.28 296.42 37.78 297.62 37.78 299.46C37.78 301.24 38.68 302 41.12 302.2C42.64 302.32 43.06 302.6 43.06 303.22C43.06 303.9 42.38 304.34 41.28 304.34C39.84 304.34 38.7 303.9 37.92 303.06H37.82V305.28C38.6 305.88 39.82 306.2 41.38 306.2C43.72 306.2 45.14 305.06 45.14 303.22C45.14 301.32 44.16 300.4 41.66 300.26C40.28 300.18 39.86 299.94 39.86 299.4C39.86 298.74 40.58 298.28 41.6 298.28C42.82 298.28 43.8 298.62 44.44 299.28H44.54V297.1C43.86 296.66 42.76 296.42 41.54 296.42ZM52.6552 303.76H52.5552C52.1752 304.18 51.7152 304.32 51.2152 304.32C50.2952 304.32 49.7552 303.72 49.7552 302.7V298.46H52.6152V296.62H49.7552V294.04H47.9952L47.6952 296.62H45.9752V298.46H47.6352V302.78C47.6352 305 48.7752 306.2 50.8952 306.2C51.6352 306.2 52.2152 306.08 52.6552 305.86V303.76ZM59.5728 296.42C58.1728 296.42 57.2128 296.98 56.6728 298.06H56.6328L56.5528 296.62H54.7728V306H56.8928V301.84C56.8928 299.56 57.7128 298.44 59.3928 298.44C59.9728 298.44 60.4728 298.6 60.8728 298.88H60.9728V296.78C60.6728 296.58 60.1728 296.42 59.5728 296.42ZM71.7928 306V296.62H70.0328L69.9528 297.96H69.9128C69.2328 297 68.0728 296.42 66.5528 296.42C63.8728 296.42 61.9128 298.48 61.9128 301.32C61.9128 304.16 63.8728 306.2 66.5528 306.2C68.0728 306.2 69.2528 305.62 69.9328 304.66H69.9728L70.0328 306H71.7928ZM66.8928 304.3C65.2128 304.3 64.0528 303.06 64.0528 301.32C64.0528 299.54 65.2128 298.32 66.8928 298.32C68.5728 298.32 69.7328 299.54 69.7328 301.32C69.7328 303.06 68.5728 304.3 66.8928 304.3ZM80.1497 303.76H80.0497C79.6697 304.18 79.2097 304.32 78.7097 304.32C77.7897 304.32 77.2497 303.72 77.2497 302.7V298.46H80.1097V296.62H77.2497V294.04H75.4897L75.1897 296.62H73.4697V298.46H75.1297V302.78C75.1297 305 76.2697 306.2 78.3897 306.2C79.1297 306.2 79.7097 306.08 80.1497 305.86V303.76ZM91.2492 301.96V300.92C91.2492 298.18 89.4092 296.42 86.5092 296.42C83.6492 296.42 81.6292 298.44 81.6292 301.32C81.6292 304.24 83.8292 306.2 87.1092 306.2C88.5892 306.2 89.8692 305.84 90.6692 305.22V303.12H90.5692C89.7292 303.92 88.5692 304.34 87.1892 304.34C85.3292 304.34 84.0492 303.46 83.7892 301.96H91.2492ZM86.5692 298.28C88.0292 298.28 89.1092 299.1 89.2892 300.38H83.7892C84.0492 299.12 85.2292 298.28 86.5692 298.28ZM102.666 296.62H100.906L100.846 297.96H100.806C100.126 297 98.9463 296.42 97.4263 296.42C94.7463 296.42 92.7863 298.42 92.7863 301.26C92.7863 304.1 94.7463 306.08 97.4263 306.08C98.7663 306.08 99.8063 305.64 100.506 304.9H100.546V305.12C100.546 307.02 99.3863 308.1 97.2863 308.1C95.8063 308.1 94.5263 307.56 93.7863 306.66H93.6863V308.86C94.5463 309.58 95.9263 310 97.5463 310C100.746 310 102.666 308.2 102.666 305.24V296.62ZM97.7663 304.18C96.0863 304.18 94.9263 303.02 94.9263 301.26C94.9263 299.48 96.0863 298.32 97.7663 298.32C99.4463 298.32 100.606 299.48 100.606 301.26C100.606 303.02 99.4463 304.18 97.7663 304.18ZM106.403 292.34C105.603 292.34 105.063 292.9 105.063 293.7C105.063 294.5 105.603 295.04 106.403 295.04C107.223 295.04 107.763 294.5 107.763 293.7C107.763 292.9 107.223 292.34 106.403 292.34ZM105.343 296.62V306H107.463V296.62H105.343ZM114.692 296.42C111.632 296.42 109.612 298.44 109.612 301.32C109.612 304.18 111.632 306.2 114.692 306.2C115.992 306.2 116.992 305.94 117.692 305.4V303.06H117.592C116.952 303.88 116.052 304.3 114.892 304.3C112.952 304.3 111.752 303.08 111.752 301.32C111.752 299.52 112.952 298.32 114.892 298.32C116.032 298.32 116.932 298.7 117.592 299.54H117.692V297.24C116.952 296.7 115.992 296.42 114.692 296.42ZM129.035 296.42C126.115 296.42 124.055 298.44 124.055 301.32C124.055 304.18 126.115 306.2 129.035 306.2C131.955 306.2 134.035 304.18 134.035 301.32C134.035 298.44 131.955 296.42 129.035 296.42ZM129.035 298.32C130.735 298.32 131.895 299.54 131.895 301.32C131.895 303.06 130.735 304.3 129.035 304.3C127.355 304.3 126.195 303.06 126.195 301.32C126.195 299.54 127.355 298.32 129.035 298.32ZM141.223 296.42C139.743 296.42 138.663 297 138.063 298.06H138.023L137.943 296.62H136.163V306H138.283V301.08C138.283 299.34 139.183 298.32 140.683 298.32C142.043 298.32 142.863 299.2 142.863 300.74V306H144.983V300.5C144.983 297.94 143.563 296.42 141.223 296.42ZM152.716 296.42C151.356 296.42 150.316 296.86 149.616 297.62H149.576V292H147.456V306H149.236L149.296 304.66H149.336C150.016 305.62 151.176 306.2 152.716 306.2C155.396 306.2 157.356 304.16 157.356 301.32C157.356 298.48 155.396 296.42 152.716 296.42ZM152.376 304.3C150.696 304.3 149.516 303.06 149.516 301.32C149.516 299.54 150.696 298.32 152.376 298.32C154.036 298.32 155.216 299.54 155.216 301.32C155.216 303.06 154.036 304.3 152.376 304.3ZM163.893 296.42C160.973 296.42 158.913 298.44 158.913 301.32C158.913 304.18 160.973 306.2 163.893 306.2C166.813 306.2 168.893 304.18 168.893 301.32C168.893 298.44 166.813 296.42 163.893 296.42ZM163.893 298.32C165.593 298.32 166.753 299.54 166.753 301.32C166.753 303.06 165.593 304.3 163.893 304.3C162.213 304.3 161.053 303.06 161.053 301.32C161.053 299.54 162.213 298.32 163.893 298.32ZM180.34 306V296.62H178.58L178.5 297.96H178.46C177.78 297 176.62 296.42 175.1 296.42C172.42 296.42 170.46 298.48 170.46 301.32C170.46 304.16 172.42 306.2 175.1 306.2C176.62 306.2 177.8 305.62 178.48 304.66H178.52L178.58 306H180.34ZM175.44 304.3C173.76 304.3 172.6 303.06 172.6 301.32C172.6 299.54 173.76 298.32 175.44 298.32C177.12 298.32 178.28 299.54 178.28 301.32C178.28 303.06 177.12 304.3 175.44 304.3ZM187.817 296.42C186.417 296.42 185.457 296.98 184.917 298.06H184.877L184.797 296.62H183.017V306H185.137V301.84C185.137 299.56 185.957 298.44 187.637 298.44C188.217 298.44 188.717 298.6 189.117 298.88H189.217V296.78C188.917 296.58 188.417 296.42 187.817 296.42ZM200.037 306V292H197.917V297.6H197.877C197.177 296.86 196.137 296.42 194.797 296.42C192.117 296.42 190.157 298.48 190.157 301.32C190.157 304.16 192.117 306.2 194.797 306.2C196.317 306.2 197.497 305.62 198.177 304.66H198.217L198.277 306H200.037ZM195.137 304.3C193.457 304.3 192.297 303.06 192.297 301.32C192.297 299.54 193.457 298.32 195.137 298.32C196.817 298.32 197.977 299.54 197.977 301.32C197.977 303.06 196.817 304.3 195.137 304.3ZM203.774 292.34C202.974 292.34 202.434 292.9 202.434 293.7C202.434 294.5 202.974 295.04 203.774 295.04C204.594 295.04 205.134 294.5 205.134 293.7C205.134 292.9 204.594 292.34 203.774 292.34ZM202.714 296.62V306H204.834V296.62H202.714ZM212.603 296.42C211.123 296.42 210.043 297 209.443 298.06H209.403L209.323 296.62H207.543V306H209.663V301.08C209.663 299.34 210.563 298.32 212.063 298.32C213.423 298.32 214.243 299.2 214.243 300.74V306H216.363V300.5C216.363 297.94 214.943 296.42 212.603 296.42ZM228.157 296.62H226.397L226.337 297.96H226.297C225.617 297 224.437 296.42 222.917 296.42C220.237 296.42 218.277 298.42 218.277 301.26C218.277 304.1 220.237 306.08 222.917 306.08C224.257 306.08 225.297 305.64 225.997 304.9H226.037V305.12C226.037 307.02 224.877 308.1 222.777 308.1C221.297 308.1 220.017 307.56 219.277 306.66H219.177V308.86C220.037 309.58 221.417 310 223.037 310C226.237 310 228.157 308.2 228.157 305.24V296.62ZM223.257 304.18C221.577 304.18 220.417 303.02 220.417 301.26C220.417 299.48 221.577 298.32 223.257 298.32C224.937 298.32 226.097 299.48 226.097 301.26C226.097 303.02 224.937 304.18 223.257 304.18Z" fill="#0F143C"/>
</svg>
