<svg width="270" height="352" viewBox="0 0 270 352" fill="none" xmlns="http://www.w3.org/2000/svg">
<path d="M0 32C0 14.3269 14.3269 0 32 0H238C255.673 0 270 14.3269 270 32V320C270 337.673 255.673 352 238 352H32C14.3269 352 0 337.673 0 320V32Z" fill="#FFF2CC"/>
<path opacity="0.25" d="M213 117C213 160.078 178.078 195 135 195C91.9218 195 57 160.078 57 117C57 73.9218 91.9218 39 135 39C178.078 39 213 73.9218 213 117ZM66.2309 117C66.2309 154.98 97.0199 185.769 135 185.769C172.98 185.769 203.769 154.98 203.769 117C203.769 79.0199 172.98 48.2309 135 48.2309C97.0199 48.2309 66.2309 79.0199 66.2309 117Z" fill="#FFC310"/>
<path d="M135 43.7941C135 41.1464 137.148 38.9846 139.791 39.1472C154.984 40.082 169.611 45.4465 181.838 54.6289C195.347 64.7732 205.197 79.029 209.907 95.2524C214.617 111.476 213.933 128.79 207.957 144.591C201.981 160.392 191.037 173.826 176.77 182.873C162.504 191.92 145.685 196.09 128.845 194.757C112.004 193.424 96.0513 186.659 83.3856 175.48C70.7198 164.302 62.0257 149.313 58.6105 132.769C55.5192 117.793 56.9044 102.275 62.5378 88.1341C63.5177 85.6744 66.3893 84.6529 68.7841 85.782C71.179 86.9111 72.1881 89.763 71.2295 92.231C66.4695 104.486 65.3293 117.889 68.0007 130.83C70.9961 145.341 78.6215 158.487 89.7303 168.292C100.839 178.096 114.831 184.029 129.601 185.198C144.372 186.368 159.123 182.71 171.636 174.775C184.149 166.841 193.748 155.058 198.989 141.199C204.23 127.341 204.83 112.155 200.699 97.9257C196.568 83.6966 187.929 71.1932 176.081 62.2959C165.514 54.3608 152.905 49.6765 139.79 48.7561C137.149 48.5707 135 46.4418 135 43.7941Z" fill="#FFC310"/>
<path d="M103.665 111.744C101.325 111.744 98.9331 111.9 96.8531 112.524V104.724H114.169V99.472H91.6531V118.764H91.9651C94.5651 117.568 97.9971 116.84 101.273 116.84C107.513 116.84 110.529 118.868 110.529 122.976C110.529 126.98 107.565 129.268 102.313 129.268C97.4251 129.268 93.3171 127.864 90.8731 125.368H90.5611V131.348C93.0571 133.324 97.4771 134.52 102.573 134.52C111.257 134.52 116.457 130.204 116.457 122.924C116.457 115.904 111.673 111.744 103.665 111.744ZM135.965 98.952C126.917 98.952 121.717 105.452 121.717 116.736C121.717 128.02 126.917 134.52 135.965 134.52C145.013 134.52 150.213 128.02 150.213 116.736C150.213 105.452 145.013 98.952 135.965 98.952ZM135.965 104.204C141.321 104.204 144.337 108.728 144.337 116.736C144.337 124.744 141.321 129.268 135.965 129.268C130.609 129.268 127.593 124.744 127.593 116.736C127.593 108.728 130.609 104.204 135.965 104.204ZM159.656 105.692C155.666 105.692 153.356 108.464 153.356 112.622C153.356 116.738 155.666 119.51 159.656 119.51C163.646 119.51 165.956 116.738 165.956 112.622C165.956 108.464 163.646 105.692 159.656 105.692ZM157.052 134H160.748L178.598 106.112H174.902L157.052 134ZM159.656 108.59C161.546 108.59 162.722 110.06 162.722 112.622C162.722 115.142 161.546 116.612 159.656 116.612C157.766 116.612 156.59 115.142 156.59 112.622C156.59 110.06 157.766 108.59 159.656 108.59ZM175.994 120.602C172.004 120.602 169.694 123.374 169.694 127.532C169.694 131.648 172.004 134.42 175.994 134.42C179.984 134.42 182.294 131.648 182.294 127.532C182.294 123.374 179.984 120.602 175.994 120.602ZM175.994 123.5C177.884 123.5 179.06 124.97 179.06 127.532C179.06 130.052 177.884 131.522 175.994 131.522C174.104 131.522 172.928 130.052 172.928 127.532C172.928 124.97 174.104 123.5 175.994 123.5Z" fill="#0F143C"/>
<path d="M43.9 241V236.14H46.86L49.82 241H52.66L49.32 235.92C51.26 235.42 52.26 234.08 52.26 231.94C52.26 229.16 50.6 227.72 47.38 227.72H41.5V241H43.9ZM43.9 234V229.86H47.3C49.02 229.86 49.84 230.54 49.84 231.94C49.84 233.32 49.02 234 47.3 234H43.9ZM63.7422 236.96V235.92C63.7422 233.18 61.9022 231.42 59.0022 231.42C56.1422 231.42 54.1222 233.44 54.1222 236.32C54.1222 239.24 56.3222 241.2 59.6022 241.2C61.0822 241.2 62.3622 240.84 63.1622 240.22V238.12H63.0622C62.2222 238.92 61.0622 239.34 59.6822 239.34C57.8222 239.34 56.5422 238.46 56.2822 236.96H63.7422ZM59.0622 233.28C60.5222 233.28 61.6022 234.1 61.7822 235.38H56.2822C56.5422 234.12 57.7222 233.28 59.0622 233.28ZM69.1392 231.42C66.8792 231.42 65.3792 232.62 65.3792 234.46C65.3792 236.24 66.2792 237 68.7192 237.2C70.2392 237.32 70.6592 237.6 70.6592 238.22C70.6592 238.9 69.9792 239.34 68.8792 239.34C67.4392 239.34 66.2992 238.9 65.5192 238.06H65.4192V240.28C66.1992 240.88 67.4192 241.2 68.9792 241.2C71.3192 241.2 72.7392 240.06 72.7392 238.22C72.7392 236.32 71.7592 235.4 69.2592 235.26C67.8792 235.18 67.4592 234.94 67.4592 234.4C67.4592 233.74 68.1792 233.28 69.1992 233.28C70.4192 233.28 71.3992 233.62 72.0392 234.28H72.1392V232.1C71.4592 231.66 70.3592 231.42 69.1392 231.42ZM83.7906 236.96V235.92C83.7906 233.18 81.9506 231.42 79.0506 231.42C76.1906 231.42 74.1706 233.44 74.1706 236.32C74.1706 239.24 76.3706 241.2 79.6506 241.2C81.1306 241.2 82.4106 240.84 83.2106 240.22V238.12H83.1106C82.2706 238.92 81.1106 239.34 79.7306 239.34C77.8706 239.34 76.5906 238.46 76.3306 236.96H83.7906ZM79.1106 233.28C80.5706 233.28 81.6506 234.1 81.8306 235.38H76.3306C76.5906 234.12 77.7706 233.28 79.1106 233.28ZM95.2077 241V231.62H93.4477L93.3677 232.96H93.3277C92.6477 232 91.4877 231.42 89.9677 231.42C87.2877 231.42 85.3277 233.48 85.3277 236.32C85.3277 239.16 87.2877 241.2 89.9677 241.2C91.4877 241.2 92.6677 240.62 93.3477 239.66H93.3877L93.4477 241H95.2077ZM90.3077 239.3C88.6277 239.3 87.4677 238.06 87.4677 236.32C87.4677 234.54 88.6277 233.32 90.3077 233.32C91.9877 233.32 93.1477 234.54 93.1477 236.32C93.1477 238.06 91.9877 239.3 90.3077 239.3ZM102.685 231.42C101.285 231.42 100.325 231.98 99.7845 233.06H99.7445L99.6645 231.62H97.8845V241H100.005V236.84C100.005 234.56 100.825 233.44 102.505 233.44C103.085 233.44 103.585 233.6 103.985 233.88H104.085V231.78C103.785 231.58 103.285 231.42 102.685 231.42ZM110.105 231.42C107.045 231.42 105.025 233.44 105.025 236.32C105.025 239.18 107.045 241.2 110.105 241.2C111.405 241.2 112.405 240.94 113.105 240.4V238.06H113.005C112.365 238.88 111.465 239.3 110.305 239.3C108.365 239.3 107.165 238.08 107.165 236.32C107.165 234.52 108.365 233.32 110.305 233.32C111.445 233.32 112.345 233.7 113.005 234.54H113.105V232.24C112.365 231.7 111.405 231.42 110.105 231.42ZM120.493 231.42C119.233 231.42 118.233 231.86 117.593 232.64H117.553V227H115.433V241H117.553V236.08C117.553 234.34 118.453 233.32 119.953 233.32C121.313 233.32 122.133 234.2 122.133 235.74V241H124.253V235.5C124.253 232.94 122.833 231.42 120.493 231.42ZM134.621 231.42C132.361 231.42 130.861 232.62 130.861 234.46C130.861 236.24 131.761 237 134.201 237.2C135.721 237.32 136.141 237.6 136.141 238.22C136.141 238.9 135.461 239.34 134.361 239.34C132.921 239.34 131.781 238.9 131.001 238.06H130.901V240.28C131.681 240.88 132.901 241.2 134.461 241.2C136.801 241.2 138.221 240.06 138.221 238.22C138.221 236.32 137.241 235.4 134.741 235.26C133.361 235.18 132.941 234.94 132.941 234.4C132.941 233.74 133.661 233.28 134.681 233.28C135.901 233.28 136.881 233.62 137.521 234.28H137.621V232.1C136.941 231.66 135.841 231.42 134.621 231.42ZM148.813 241V231.62H146.693V236.54C146.693 238.26 145.813 239.3 144.313 239.3C142.933 239.3 142.133 238.4 142.133 236.88V231.62H140.013V237.12C140.013 239.68 141.413 241.2 143.773 241.2C145.253 241.2 146.313 240.62 146.913 239.58H146.953L147.033 241H148.813ZM160.826 231.62H159.066L159.006 232.96H158.966C158.286 232 157.106 231.42 155.586 231.42C152.906 231.42 150.946 233.42 150.946 236.26C150.946 239.1 152.906 241.08 155.586 241.08C156.926 241.08 157.966 240.64 158.666 239.9H158.706V240.12C158.706 242.02 157.546 243.1 155.446 243.1C153.966 243.1 152.686 242.56 151.946 241.66H151.846V243.86C152.706 244.58 154.086 245 155.706 245C158.906 245 160.826 243.2 160.826 240.24V231.62ZM155.926 239.18C154.246 239.18 153.086 238.02 153.086 236.26C153.086 234.48 154.246 233.32 155.926 233.32C157.606 233.32 158.766 234.48 158.766 236.26C158.766 238.02 157.606 239.18 155.926 239.18ZM172.823 231.62H171.063L171.003 232.96H170.963C170.283 232 169.103 231.42 167.583 231.42C164.903 231.42 162.943 233.42 162.943 236.26C162.943 239.1 164.903 241.08 167.583 241.08C168.923 241.08 169.963 240.64 170.663 239.9H170.703V240.12C170.703 242.02 169.543 243.1 167.443 243.1C165.963 243.1 164.683 242.56 163.943 241.66H163.843V243.86C164.703 244.58 166.083 245 167.703 245C170.903 245 172.823 243.2 172.823 240.24V231.62ZM167.923 239.18C166.243 239.18 165.083 238.02 165.083 236.26C165.083 234.48 166.243 233.32 167.923 233.32C169.603 233.32 170.763 234.48 170.763 236.26C170.763 238.02 169.603 239.18 167.923 239.18ZM184.56 236.96V235.92C184.56 233.18 182.72 231.42 179.82 231.42C176.96 231.42 174.94 233.44 174.94 236.32C174.94 239.24 177.14 241.2 180.42 241.2C181.9 241.2 183.18 240.84 183.98 240.22V238.12H183.88C183.04 238.92 181.88 239.34 180.5 239.34C178.64 239.34 177.36 238.46 177.1 236.96H184.56ZM179.88 233.28C181.34 233.28 182.42 234.1 182.6 235.38H177.1C177.36 234.12 178.54 233.28 179.88 233.28ZM189.957 231.42C187.697 231.42 186.197 232.62 186.197 234.46C186.197 236.24 187.097 237 189.537 237.2C191.057 237.32 191.477 237.6 191.477 238.22C191.477 238.9 190.797 239.34 189.697 239.34C188.257 239.34 187.117 238.9 186.337 238.06H186.237V240.28C187.017 240.88 188.237 241.2 189.797 241.2C192.137 241.2 193.557 240.06 193.557 238.22C193.557 236.32 192.577 235.4 190.077 235.26C188.697 235.18 188.277 234.94 188.277 234.4C188.277 233.74 188.997 233.28 190.017 233.28C191.237 233.28 192.217 233.62 192.857 234.28H192.957V232.1C192.277 231.66 191.177 231.42 189.957 231.42ZM201.072 238.76H200.972C200.592 239.18 200.132 239.32 199.632 239.32C198.712 239.32 198.172 238.72 198.172 237.7V233.46H201.032V231.62H198.172V229.04H196.412L196.112 231.62H194.392V233.46H196.052V237.78C196.052 240 197.192 241.2 199.312 241.2C200.052 241.2 200.632 241.08 201.072 240.86V238.76ZM206.431 231.42C204.171 231.42 202.671 232.62 202.671 234.46C202.671 236.24 203.571 237 206.011 237.2C207.531 237.32 207.951 237.6 207.951 238.22C207.951 238.9 207.271 239.34 206.171 239.34C204.731 239.34 203.591 238.9 202.811 238.06H202.711V240.28C203.491 240.88 204.711 241.2 206.271 241.2C208.611 241.2 210.031 240.06 210.031 238.22C210.031 236.32 209.051 235.4 206.551 235.26C205.171 235.18 204.751 234.94 204.751 234.4C204.751 233.74 205.471 233.28 206.491 233.28C207.711 233.28 208.691 233.62 209.331 234.28H209.431V232.1C208.751 231.66 207.651 231.42 206.431 231.42ZM217.677 227.34C216.877 227.34 216.337 227.9 216.337 228.7C216.337 229.5 216.877 230.04 217.677 230.04C218.497 230.04 219.037 229.5 219.037 228.7C219.037 227.9 218.497 227.34 217.677 227.34ZM216.617 231.62V241H218.737V231.62H216.617ZM227.126 238.76H227.026C226.646 239.18 226.186 239.32 225.686 239.32C224.766 239.32 224.226 238.72 224.226 237.7V233.46H227.086V231.62H224.226V229.04H222.466L222.166 231.62H220.446V233.46H222.106V237.78C222.106 240 223.246 241.2 225.366 241.2C226.106 241.2 226.686 241.08 227.126 240.86V238.76ZM45.76 258.42C42.7 258.42 40.68 260.44 40.68 263.32C40.68 266.18 42.7 268.2 45.76 268.2C47.06 268.2 48.06 267.94 48.76 267.4V265.06H48.66C48.02 265.88 47.12 266.3 45.96 266.3C44.02 266.3 42.82 265.08 42.82 263.32C42.82 261.52 44.02 260.32 45.96 260.32C47.1 260.32 48 260.7 48.66 261.54H48.76V259.24C48.02 258.7 47.06 258.42 45.76 258.42ZM60.4084 268V258.62H58.6484L58.5684 259.96H58.5284C57.8484 259 56.6884 258.42 55.1684 258.42C52.4884 258.42 50.5284 260.48 50.5284 263.32C50.5284 266.16 52.4884 268.2 55.1684 268.2C56.6884 268.2 57.8684 267.62 58.5484 266.66H58.5884L58.6484 268H60.4084ZM55.5084 266.3C53.8284 266.3 52.6684 265.06 52.6684 263.32C52.6684 261.54 53.8284 260.32 55.5084 260.32C57.1884 260.32 58.3484 261.54 58.3484 263.32C58.3484 265.06 57.1884 266.3 55.5084 266.3ZM68.1453 258.42C66.6653 258.42 65.5853 259 64.9853 260.06H64.9453L64.8653 258.62H63.0853V268H65.2053V263.08C65.2053 261.34 66.1053 260.32 67.6053 260.32C68.9653 260.32 69.7853 261.2 69.7853 262.74V268H71.9053V262.5C71.9053 259.94 70.4853 258.42 68.1453 258.42ZM84.6536 265.76H84.5536C84.1736 266.18 83.7136 266.32 83.2136 266.32C82.2936 266.32 81.7536 265.72 81.7536 264.7V260.46H84.6136V258.62H81.7536V256.04H79.9936L79.6936 258.62H77.9736V260.46H79.6336V264.78C79.6336 267 80.7736 268.2 82.8936 268.2C83.6336 268.2 84.2136 268.08 84.6536 267.86V265.76ZM96.0131 268V258.62H94.2531L94.1731 259.96H94.1331C93.4531 259 92.2931 258.42 90.7731 258.42C88.0931 258.42 86.1331 260.48 86.1331 263.32C86.1331 266.16 88.0931 268.2 90.7731 268.2C92.2931 268.2 93.4731 267.62 94.1531 266.66H94.1931L94.2531 268H96.0131ZM91.1131 266.3C89.4331 266.3 88.2731 265.06 88.2731 263.32C88.2731 261.54 89.4331 260.32 91.1131 260.32C92.7931 260.32 93.9531 261.54 93.9531 263.32C93.9531 265.06 92.7931 266.3 91.1131 266.3ZM100.81 263.9L104.67 268H107.47L102.81 263.2L107.27 258.62H104.61L100.81 262.64V254H98.69V268H100.81V263.9ZM117.462 263.96V262.92C117.462 260.18 115.622 258.42 112.722 258.42C109.862 258.42 107.842 260.44 107.842 263.32C107.842 266.24 110.042 268.2 113.322 268.2C114.802 268.2 116.082 267.84 116.882 267.22V265.12H116.782C115.942 265.92 114.782 266.34 113.402 266.34C111.542 266.34 110.262 265.46 110.002 263.96H117.462ZM112.782 260.28C114.242 260.28 115.322 261.1 115.502 262.38H110.002C110.262 261.12 111.442 260.28 112.782 260.28ZM129.613 259.44C128.713 259.44 127.793 259.5 126.993 259.74V256.74H133.653V254.72H124.993V262.14H125.113C126.113 261.68 127.433 261.4 128.693 261.4C131.093 261.4 132.253 262.18 132.253 263.76C132.253 265.3 131.113 266.18 129.093 266.18C127.213 266.18 125.633 265.64 124.693 264.68H124.573V266.98C125.533 267.74 127.233 268.2 129.193 268.2C132.533 268.2 134.533 266.54 134.533 263.74C134.533 261.04 132.693 259.44 129.613 259.44ZM142.621 254.52C139.141 254.52 137.141 257.02 137.141 261.36C137.141 265.7 139.141 268.2 142.621 268.2C146.101 268.2 148.101 265.7 148.101 261.36C148.101 257.02 146.101 254.52 142.621 254.52ZM142.621 256.54C144.681 256.54 145.841 258.28 145.841 261.36C145.841 264.44 144.681 266.18 142.621 266.18C140.561 266.18 139.401 264.44 139.401 261.36C139.401 258.28 140.561 256.54 142.621 256.54ZM153.029 254.52C151.129 254.52 150.029 255.84 150.029 257.82C150.029 259.78 151.129 261.1 153.029 261.1C154.929 261.1 156.029 259.78 156.029 257.82C156.029 255.84 154.929 254.52 153.029 254.52ZM151.789 268H153.549L162.049 254.72H160.289L151.789 268ZM153.029 255.9C153.929 255.9 154.489 256.6 154.489 257.82C154.489 259.02 153.929 259.72 153.029 259.72C152.129 259.72 151.569 259.02 151.569 257.82C151.569 256.6 152.129 255.9 153.029 255.9ZM160.809 261.62C158.909 261.62 157.809 262.94 157.809 264.92C157.809 266.88 158.909 268.2 160.809 268.2C162.709 268.2 163.809 266.88 163.809 264.92C163.809 262.94 162.709 261.62 160.809 261.62ZM160.809 263C161.709 263 162.269 263.7 162.269 264.92C162.269 266.12 161.709 266.82 160.809 266.82C159.909 266.82 159.349 266.12 159.349 264.92C159.349 263.7 159.909 263 160.809 263ZM170.539 268H172.659V254H170.539V268ZM179.769 258.42C176.849 258.42 174.789 260.44 174.789 263.32C174.789 266.18 176.849 268.2 179.769 268.2C182.689 268.2 184.769 266.18 184.769 263.32C184.769 260.44 182.689 258.42 179.769 258.42ZM179.769 260.32C181.469 260.32 182.629 261.54 182.629 263.32C182.629 265.06 181.469 266.3 179.769 266.3C178.089 266.3 176.929 265.06 176.929 263.32C176.929 261.54 178.089 260.32 179.769 260.32ZM191.956 258.42C190.476 258.42 189.396 259 188.796 260.06H188.756L188.676 258.62H186.896V268H189.016V263.08C189.016 261.34 189.916 260.32 191.416 260.32C192.776 260.32 193.596 261.2 193.596 262.74V268H195.716V262.5C195.716 259.94 194.296 258.42 191.956 258.42ZM207.51 258.62H205.75L205.69 259.96H205.65C204.97 259 203.79 258.42 202.27 258.42C199.59 258.42 197.63 260.42 197.63 263.26C197.63 266.1 199.59 268.08 202.27 268.08C203.61 268.08 204.65 267.64 205.35 266.9H205.39V267.12C205.39 269.02 204.23 270.1 202.13 270.1C200.65 270.1 199.37 269.56 198.63 268.66H198.53V270.86C199.39 271.58 200.77 272 202.39 272C205.59 272 207.51 270.2 207.51 267.24V258.62ZM202.61 266.18C200.93 266.18 199.77 265.02 199.77 263.26C199.77 261.48 200.93 260.32 202.61 260.32C204.29 260.32 205.45 261.48 205.45 263.26C205.45 265.02 204.29 266.18 202.61 266.18ZM219.247 263.96V262.92C219.247 260.18 217.407 258.42 214.507 258.42C211.647 258.42 209.627 260.44 209.627 263.32C209.627 266.24 211.827 268.2 215.107 268.2C216.587 268.2 217.867 267.84 218.667 267.22V265.12H218.567C217.727 265.92 216.567 266.34 215.187 266.34C213.327 266.34 212.047 265.46 211.787 263.96H219.247ZM214.567 260.28C216.027 260.28 217.107 261.1 217.287 262.38H211.787C212.047 261.12 213.227 260.28 214.567 260.28ZM226.144 258.42C224.744 258.42 223.784 258.98 223.244 260.06H223.204L223.124 258.62H221.344V268H223.464V263.84C223.464 261.56 224.284 260.44 225.964 260.44C226.544 260.44 227.044 260.6 227.444 260.88H227.544V258.78C227.244 258.58 226.744 258.42 226.144 258.42ZM46.92 292.76H46.82C46.44 293.18 45.98 293.32 45.48 293.32C44.56 293.32 44.02 292.72 44.02 291.7V287.46H46.88V285.62H44.02V283.04H42.26L41.96 285.62H40.24V287.46H41.9V291.78C41.9 294 43.04 295.2 45.16 295.2C45.9 295.2 46.48 295.08 46.92 294.86V292.76ZM53.3795 285.42C50.4595 285.42 48.3995 287.44 48.3995 290.32C48.3995 293.18 50.4595 295.2 53.3795 295.2C56.2995 295.2 58.3795 293.18 58.3795 290.32C58.3795 287.44 56.2995 285.42 53.3795 285.42ZM53.3795 287.32C55.0795 287.32 56.2395 288.54 56.2395 290.32C56.2395 292.06 55.0795 293.3 53.3795 293.3C51.6995 293.3 50.5395 292.06 50.5395 290.32C50.5395 288.54 51.6995 287.32 53.3795 287.32ZM70.1617 285.42C68.9017 285.42 67.9017 285.86 67.2617 286.64H67.2217V281H65.1017V295H67.2217V290.08C67.2217 288.34 68.1217 287.32 69.6217 287.32C70.9817 287.32 71.8017 288.2 71.8017 289.74V295H73.9217V289.5C73.9217 286.94 72.5017 285.42 70.1617 285.42ZM77.4555 281.34C76.6555 281.34 76.1155 281.9 76.1155 282.7C76.1155 283.5 76.6555 284.04 77.4555 284.04C78.2755 284.04 78.8155 283.5 78.8155 282.7C78.8155 281.9 78.2755 281.34 77.4555 281.34ZM76.3955 285.62V295H78.5155V285.62H76.3955ZM86.0244 285.42C84.6244 285.42 83.6644 285.98 83.1244 287.06H83.0844L83.0044 285.62H81.2244V295H83.3444V290.84C83.3444 288.56 84.1644 287.44 85.8444 287.44C86.4244 287.44 86.9244 287.6 87.3244 287.88H87.4244V285.78C87.1244 285.58 86.6244 285.42 86.0244 285.42ZM97.9844 290.96V289.92C97.9844 287.18 96.1444 285.42 93.2444 285.42C90.3844 285.42 88.3644 287.44 88.3644 290.32C88.3644 293.24 90.5644 295.2 93.8444 295.2C95.3244 295.2 96.6044 294.84 97.4044 294.22V292.12H97.3044C96.4644 292.92 95.3044 293.34 93.9244 293.34C92.0644 293.34 90.7844 292.46 90.5244 290.96H97.9844ZM93.3044 287.28C94.7644 287.28 95.8444 288.1 96.0244 289.38H90.5244C90.7844 288.12 91.9644 287.28 93.3044 287.28ZM108.676 280.8C106.516 280.8 105.336 282.06 105.336 284.28V285.62H103.676V287.46H105.336V295H107.456V287.46H110.316V285.62H107.456V284.38C107.456 283.3 107.996 282.7 108.996 282.7C109.516 282.7 110.076 282.84 110.476 283.12H110.576V281.14C110.136 280.92 109.496 280.8 108.676 280.8ZM116.054 285.42C113.134 285.42 111.074 287.44 111.074 290.32C111.074 293.18 113.134 295.2 116.054 295.2C118.974 295.2 121.054 293.18 121.054 290.32C121.054 287.44 118.974 285.42 116.054 285.42ZM116.054 287.32C117.754 287.32 118.914 288.54 118.914 290.32C118.914 292.06 117.754 293.3 116.054 293.3C114.374 293.3 113.214 292.06 113.214 290.32C113.214 288.54 114.374 287.32 116.054 287.32ZM127.981 285.42C126.581 285.42 125.621 285.98 125.081 287.06H125.041L124.961 285.62H123.181V295H125.301V290.84C125.301 288.56 126.121 287.44 127.801 287.44C128.381 287.44 128.881 287.6 129.281 287.88H129.381V285.78C129.081 285.58 128.581 285.42 127.981 285.42ZM141.312 292.76H141.212C140.832 293.18 140.372 293.32 139.872 293.32C138.952 293.32 138.412 292.72 138.412 291.7V287.46H141.272V285.62H138.412V283.04H136.652L136.352 285.62H134.632V287.46H136.292V291.78C136.292 294 137.432 295.2 139.552 295.2C140.292 295.2 140.872 295.08 141.312 294.86V292.76ZM152.412 290.96V289.92C152.412 287.18 150.572 285.42 147.672 285.42C144.812 285.42 142.792 287.44 142.792 290.32C142.792 293.24 144.992 295.2 148.272 295.2C149.752 295.2 151.032 294.84 151.832 294.22V292.12H151.732C150.892 292.92 149.732 293.34 148.352 293.34C146.492 293.34 145.212 292.46 144.952 290.96H152.412ZM147.732 287.28C149.192 287.28 150.272 288.1 150.452 289.38H144.952C145.212 288.12 146.392 287.28 147.732 287.28ZM159.029 285.42C155.969 285.42 153.949 287.44 153.949 290.32C153.949 293.18 155.969 295.2 159.029 295.2C160.329 295.2 161.329 294.94 162.029 294.4V292.06H161.929C161.289 292.88 160.389 293.3 159.229 293.3C157.289 293.3 156.089 292.08 156.089 290.32C156.089 288.52 157.289 287.32 159.229 287.32C160.369 287.32 161.269 287.7 161.929 288.54H162.029V286.24C161.289 285.7 160.329 285.42 159.029 285.42ZM169.417 285.42C168.157 285.42 167.157 285.86 166.517 286.64H166.477V281H164.357V295H166.477V290.08C166.477 288.34 167.377 287.32 168.877 287.32C170.237 287.32 171.057 288.2 171.057 289.74V295H173.177V289.5C173.177 286.94 171.757 285.42 169.417 285.42ZM185.045 285.42C183.645 285.42 182.685 285.98 182.145 287.06H182.105L182.025 285.62H180.245V295H182.365V290.84C182.365 288.56 183.185 287.44 184.865 287.44C185.445 287.44 185.945 287.6 186.345 287.88H186.445V285.78C186.145 285.58 185.645 285.42 185.045 285.42ZM192.365 285.42C189.445 285.42 187.385 287.44 187.385 290.32C187.385 293.18 189.445 295.2 192.365 295.2C195.285 295.2 197.365 293.18 197.365 290.32C197.365 287.44 195.285 285.42 192.365 285.42ZM192.365 287.32C194.065 287.32 195.225 288.54 195.225 290.32C195.225 292.06 194.065 293.3 192.365 293.3C190.685 293.3 189.525 292.06 189.525 290.32C189.525 288.54 190.685 287.32 192.365 287.32ZM199.493 295H201.613V281H199.493V295ZM213.363 290.96V289.92C213.363 287.18 211.523 285.42 208.623 285.42C205.763 285.42 203.743 287.44 203.743 290.32C203.743 293.24 205.943 295.2 209.223 295.2C210.703 295.2 211.983 294.84 212.783 294.22V292.12H212.683C211.843 292.92 210.683 293.34 209.303 293.34C207.443 293.34 206.163 292.46 205.903 290.96H213.363ZM208.683 287.28C210.143 287.28 211.223 288.1 211.403 289.38H205.903C206.163 288.12 207.343 287.28 208.683 287.28ZM218.76 285.42C216.5 285.42 215 286.62 215 288.46C215 290.24 215.9 291 218.34 291.2C219.86 291.32 220.28 291.6 220.28 292.22C220.28 292.9 219.6 293.34 218.5 293.34C217.06 293.34 215.92 292.9 215.14 292.06H215.04V294.28C215.82 294.88 217.04 295.2 218.6 295.2C220.94 295.2 222.36 294.06 222.36 292.22C222.36 290.32 221.38 289.4 218.88 289.26C217.5 289.18 217.08 288.94 217.08 288.4C217.08 287.74 217.8 287.28 218.82 287.28C220.04 287.28 221.02 287.62 221.66 288.28H221.76V286.1C221.08 285.66 219.98 285.42 218.76 285.42Z" fill="#0F143C"/>
</svg>
