<?xml version="1.0" encoding="utf-8"?>
<!-- Generator: Adobe Illustrator 24.3.0, SVG Export Plug-In . SVG Version: 6.00 Build 0)  -->
<svg version="1.1" id="Layer_1" xmlns="http://www.w3.org/2000/svg" xmlns:xlink="http://www.w3.org/1999/xlink" x="0px" y="0px"
	 width="146px" height="61px" viewBox="0 0 146 61" enable-background="new 0 0 146 61" xml:space="preserve">
<path fill="#FFF2CC" d="M4,37.6c-0.2,0.2-0.3-0.2-0.4-0.4c-0.2,1.9-0.8,3.3-1.7,4.4c0.4,2.4-0.4,3.8-1.2,5.1c0,0.9,0,1.6,0,2.3
	c0,2,0.9,3.6,2,3.6c1.5-0.1,3-0.1,4.5-0.2c1.4-0.1,2.7-0.2,4.1-0.4c3.3-0.4,6.6-1,9.9-1.4c2.1-0.2,4.1-0.2,6.2-0.4
	c2-0.2,4.1,0.6,6.1-0.7c1.1,0,2.2-0.1,3.3-0.1c2.9,0.1,5.7,0.2,8.5,0.3c1.5,0.1,2.9-0.1,4.4-0.1c2.6,0,5.2,0.3,7.8,0.5
	c0.3,0,0.6,0,0.8,0.2c1.3,0.7,2.6,0.9,3.9,0.4c0.4-0.1,0.7,0,1.1,0c0.6,0.1,1.2,0.1,1.8,0.2c2.6,0.4,5.3,0.2,7.9,1.4
	c0.3,0.1,0.6,0.1,0.8,0.1c0.9,0,1.8,0.2,2.7,0.2c2.1,0.2,4.3,0.4,6.4,0.6c1.1,0.1,2.3,0.1,3.4,1c0.3,0.3,0.7,0.5,1.1,0.3
	c0.9-0.5,1.7-0.2,2.6-0.1c0.9,0.2,1.8,0.3,2.7,0.4c0.5,0.1,0.9,0.1,1.4,0.2c0.2,0.1,0.5,0.2,0.6,0.5c0.4,1.6,1.2,1.8,2,1.9
	c3.2,0.6,6.4,1.1,9.6,1.6c2.3,0.4,4.6,0.7,6.9,1.1c5,0.8,10,1.3,15,0.1c0.6-0.1,1-0.3,1.1-1.5c0-0.3,0.3-0.6,0.5-0.9
	c0.2-0.2,0.5-0.2,0.6-0.5c0.3-0.7,0.7-0.9,1.1-1c1.4-0.4,2.7-0.9,4.1-1.2c0.6-0.1,1-0.5,1.6-1c0.8-0.7,1.3-2,2-3.1
	c-0.2-1-0.2-1.9,0.4-2.4c0.6-0.6,1.1-1.6,1.8-1.9c0.2-0.1,0.5-0.4,0.5-0.8c0.3-1.1,0.5-2.3,0.7-3.4c0.3-2.2,0.7-3.5,1.8-4.2
	c0.4-0.3,0.9-0.4,1.1-1.6c-0.2,0-0.4,0.1-0.6,0.1c-0.9,0.2-1.7,0.5-2.6,0.7c-0.3,0.1-0.5-0.3-0.4-1c0.4-0.5,1-0.8,1.3-1.5
	c0.3-0.8,0.7-1,1.2-1.3c0.5-0.3,1-0.6,1.4-0.9c0.1-0.1,0.1-0.2,0.2-0.4c-0.2-0.7-0.3-1.4-0.5-2.1c-0.5,0.3-1,0.5-1.4,0.8
	c-0.7,0.4-1.3,1-2,0.6c-0.1-0.1-0.3,0-0.4,0.1c-1.8,0.8-3.6,1.5-5.4,2.3c-0.6,0.3-1.3,0.4-1.9,0.5c-0.2,0-0.4-0.3-0.3-1.1
	c0.4-0.1,0.8-0.3,1.3-0.5c1.1-0.4,2.3-0.7,3.4-1.1l0.1-0.4c0,0.1-0.1,0.3-0.1,0.4c0.8-0.8,1.6-1.5,2.4-2.2c1-0.9,2.2-1.4,3-2.8
	c0.1-0.2,0.3-0.3,0.5-0.4c-0.4-0.2-0.6-0.5-0.7-1.3c-1,0.7-2.1,1.4-3.1,2.1c-0.2,0.1-0.4,0.3-0.5,0.2c-0.9-0.6-1.8,0.1-2.6,0.6
	c-0.4,0.2-0.7,0.4-1.1,0.5c-1.7,0.5-3.4,1-5.1,1.5c0.1,0.1,0.2,0.2,0.2,0.3c0,0.1,0,0.2,0,0.4c0-0.1-0.1-0.1-0.1-0.2
	c0-0.2,0-0.3-0.1-0.5c-0.5,0.1-0.9,0.2-1.4,0.2c-0.6,0.1-1.2,0.4-1.8,0.3c-0.9-0.3-1.7-0.1-2.6,0c-3.4,0.3-6.8,0.1-10.2-0.4
	c-2.1-0.3-4.2-0.7-6.3-1.1c-1.8-0.3-3.7-0.5-5.5-0.8c-2.9-0.5-5.8-1.1-8.6-1.5c-2.7-0.4-5.4-0.6-8.1-0.8c-2.2-0.1-4.4-0.9-6.6-0.6
	c-0.9-0.5-1.8-0.3-2.7-0.4c-0.4,0-0.7-0.1-1.1-0.2c-0.3-0.1-0.6-0.4-0.5-1.4c0.4,0,0.9,0,1.4,0.1c0.4,0,0.8,0.1,1.2,0.2
	c1.8,0.1,3.7,0.3,5.5,0.4c3.6,0.3,7.2,0.5,10.7,1.1c2,0.3,4,0.5,6,0.8c3.3,0.5,6.6,1.2,9.9,1.7c2.7,0.4,5.5,0.7,8.2,1
	c2,0.2,3.9,0.2,5.9,0.1c1.4-0.1,2.8-0.4,4.3-0.7c-0.1-0.5-0.1-0.9-0.1-1.4c0.4-0.6,1-0.6,1.5-0.7c0.9-0.1,1.8,0,2.6-0.9
	c0.1-0.1,0.2-0.1,0.3-0.1c0.8,1.1,1.5,0,2.2,0c0-1.1,0.3-2,0.1-3.1c-0.4,0-0.7,0.1-1,0.1c-0.8,0-1.6,0-2.3,0.1
	c-1.1,0.2-2.3,0.7-3.4,0.8c-1.2,0.1-2.4,0.7-3.6-0.3c-0.3-0.2-0.6-0.2-1-0.2c-0.9,0.1-1.8-0.3-2.7,0.6c-0.3,0.3-0.6,0.2-1,0.2
	c-1.1-0.1-2.2-0.2-3.3-0.3c-0.1,0-0.3,0-0.4-0.2c-0.8-1-1.7-0.9-2.5-1c-0.4,0-0.8,0.1-1.1-0.2c-1-0.8-2-0.6-3-0.7
	c-0.8-0.1-1.6,0-2.3-0.1c-3.1-0.5-6.1-1.2-9.2-1.6c-1.3-0.2-2.5-0.4-3.8-1c-0.3-0.2-0.7-0.3-0.9-0.1c-1.1,0.7-2.1-0.5-3.2-0.1
	c-1.1-0.9-2.3-0.6-3.5-0.7c-1.2-0.1-2.5-0.4-3.7-0.6c-0.1,0-0.2-0.1-0.3-0.2c-0.1-0.2-0.2-0.4-0.2-0.6c0-0.2,0.1-0.6,0.2-0.6
	c0.3-0.2,0.7-0.3,1.1-0.3c3,0.2,6,0.5,8.9,0.8c1.1,0.1,2.2,0.1,3.3,0.2c4,0.6,8,1.3,11.9,1.9c0.9,0.1,1.8,0.2,2.7,0.3
	c0.5,0.1,0.9,0.2,1.4,0.3c1.3,0.2,2.7,0.3,4,0.5c2.8,0.4,5.7,0.6,8.5,0.4c1-0.1,2-0.6,3-0.2c0.1,0,0.2-0.1,0.3-0.2
	c-0.2-0.8,0.1-1.3,0.5-1.6c0.4-0.2,0.9-0.3,1.3-0.5c0.9-0.3,1.7-0.2,2.6-1c-0.1-0.1-0.1-0.2-0.2-0.3c0,0,0-0.2,0-0.2
	c0.1,0,0.2,0,0.2,0.1c0,0.1,0,0.3,0,0.5c0.3-0.1,0.5-0.3,0.8-0.4h0c0.3-1.7,1.2-1.2,1.9-1.7c-0.1-1.2-0.2-1.5-0.5-1.3
	c-0.7,0.3-1.4,0.1-2,1c-0.4,0.5-0.8,0.4-1.1-0.3c-0.1-0.2-0.3-0.4-0.4-0.6c-0.5,0.3-1.1,0.4-1.5,0.9c-0.7,0.9-1.3,0.6-1.8-0.5
	c-0.3-0.6-0.6-1.1-1-1.1c-0.4,0-0.5-0.6-0.6-1.3h0c-1,0.5-2,1-2.9,1.5c-0.2-0.5-0.3-0.8-0.5-1.1c-0.2,0.5-0.5,0.9-0.7,1.3
	c0.1,0.4,0.4,0.5,0.2,1.1c-0.3-0.2-0.2-0.7-0.2-1.1c-0.3,0.3-0.7,0.6-1,0.9c-0.5-0.5-1-1.6-1.5-0.4c0.2,0.1,0.6-0.1,0.6,0.9
	c-0.2-0.4-0.4-0.7-0.5-1c0-0.4,0-0.8,0-1.3c-0.5,0.2-1,0.5-1.6,0.7c-0.1-0.8-0.4-1.1-0.7-1.1c-0.4,0-0.8-0.3-1.1,0.5
	c-0.3,0.7-0.7,0.7-1.1,0.4c0-0.4,0-0.7,0-1.1c-0.7,0-1.3-0.1-2-0.1c-0.6,1-1,0.3-1.4-0.4c0,0.1-0.1,0.2-0.1,0.4
	c0-0.1,0.1-0.3,0.1-0.4c-0.4,0-0.8,0-1.2,0c0,0.1-0.1,0.2-0.1,0.3c-0.3,1.1-0.4,1.1-0.7,0.2c-0.1-0.2-0.1-0.4-0.2-0.5
	c-1-0.3-2-0.6-2.9-0.7c-0.5-0.1-1-0.1-1.5,0.2c-0.5,0.3-1-0.4-1.6-0.6C103.4,9,102.7,9,102,8.9c-1.3-0.2-2.6-0.5-3.8-0.7
	c-0.1,0-0.3,0.4-0.4,0.6c-0.5-0.8-1.2-1.1-1.9-1c-0.4,0.1-0.8,0-1.2-0.2c-1.1-0.5-2.3-0.2-3.4-0.2c-0.3,0-0.5,0.3-0.8,0.4
	C90,8.1,90,7,89.6,7c-0.1,0-0.3,0-0.4,0C85.1,6.6,81,6.3,76.9,5.7c-2-0.2-3.9-0.1-5.9-0.5c-2-0.5-4.1-0.5-6.2-0.8
	c-2.3-0.3-4.7-0.6-7-0.8c-1.2-0.1-2.5-0.1-3.7-0.2C52,3.3,49.9,3,47.8,2.9c-1-0.1-2.1,0.1-3.1,0.1c0.1,0.1,0.2,0.3,0.3,0.4
	c0,0.1,0,0.3,0,0.4c-0.1,0-0.2-0.1-0.2-0.1c0-0.2,0-0.5-0.1-0.7c-0.4,0-0.9-0.1-1.4-0.1c-0.7-0.1-1.4-0.1-2.2-0.2
	c-0.3,0-0.5-0.2-0.6-1c0.2-0.5,0.4-1,0.6-1.6l0-0.1c-0.2,0.1-0.3,0.3-0.5,0.3c-1.6,0-3.3-0.1-4.9-0.1c-0.6,0-1.3-0.3-1.9,0.5
	c-0.1,0.2-0.4,0.1-0.5,0c-0.8-0.6-1.6-0.7-2.4-0.6c-0.5,0-0.9,0.1-1.4,0.1c-3.3,0-6.5-0.2-9.8,0c-3.6,0.2-7.2,0.7-10.8,1
	C8.7,1.2,8.3,1.3,8,1.1C7.5,0.5,7,0.6,6.4,0.6C5.7,0.5,5,0.4,4.2,0.5C3.5,0.5,2.7,0,1.9,0.6C1.8,1,1.7,1.4,1.6,1.8
	c0,0.2,0,0.3-0.1,0.5c0-0.2,0-0.3,0.1-0.5c-0.2,0-0.3,0-0.6,0.1c-0.1,1.5-0.3,3-0.4,4.5c-0.2,0-0.4,0-0.6,0c0.3,0.5,0.7,0.6,1,1.3
	c0.2,0.6,0.8,0.6,1.2,1C2.3,8.6,2.3,8.8,2.3,9c-0.2,1.1-0.9,0-1.2,0.9C1.7,11,2.6,9.8,3.1,11c-0.1,0.3-0.3,0.6-0.5,1.1
	c1,0.2,1.9,0.6,2.9,0.4c0.2,0,0.5-0.1,0.5,0.7c-0.3,0.3-0.6,0.7-1,0.7c-0.4,0-0.7-0.3-1.1-0.5C3.5,14.8,4,16,4.1,17.1
	c0,0.1,0.1,0.2,0.3,0.4c0.2-0.5,0.4-0.9,0.6-1.4c0.6,0.8,0.8,1.7,0.6,2.9c0,0.1,0,0.2-0.1,0.2c-0.4,1.1-0.2,2.2,0.2,3.2
	c0.4,1,0.8,2.1,1.3,3.2c-0.3,0.4-0.5,0.7-0.7,1c0.7,0.8-0.3,1.2,0,2.1c2.2-0.2,4.4-0.5,6.7-0.6c0.7-0.1,1.4,0.2,2,0.3
	c0.4-0.4,0.9-0.5,1.3-0.1c0.7-0.8,1.5-0.5,2.2-0.6c0.4-0.2,0.7-0.5,1.1-0.1c0.1,0.5-0.1,0.7-0.3,0.6c-0.3-0.1-0.6-0.4-0.9-0.6
	c-0.1,0.2-0.2,0.7-0.3,0.7c-0.6,0.3-1.3,0.4-1.9-0.1c-0.4,0.3-0.9,0.9-1.3,0.1c-0.2,0.2-0.4,0.5-0.6,0.5c-1.6,0.3-3.2,0.5-4.8,0.9
	c-1.4,0.3-2.7,0.1-4.1,0.1c-1,0-2,0.3-3,1c0.1,0,0.2,0.1,0.2,0.1c0,0-0.1,0-0.1,0c0,0-0.1-0.1-0.1-0.2c0.1,0.4,0.2,0.9,0.1,1.3
	c0,0.4-0.2,0.7-0.3,1.1c0.3,0.3,0.5,0.7,0.7,0.8c0.4,0.2,0.6,0.7,0.8,1.4c0.2,0.7,0.1,1.4-0.1,2C3.7,37.4,3.9,37.2,4,37.6L4,37.6z
	 M4.9,37.8c0.1-0.1,0.1-0.1,0.2-0.2c0-0.2,0-0.3,0-0.5c0,0.1,0,0.1,0,0.2c0,0.1,0,0.2,0,0.2C5.1,37.7,5,37.7,4.9,37.8z M9.2,13.2
	c-0.7,0.5-1.4,0.7-2.1,0.1c-0.1-0.6,0.1-0.7,0.3-0.7c0.7,0,1.4,0.1,2,0.1c0.2,0,0.4-0.1,0.5-0.1c0.1,0,0.1,0.2,0.2,0.3
	c-0.1,0.1-0.2,0.3-0.3,0.3c-0.2-0.1-0.3-0.3-0.5-0.5C9.3,12.8,9.3,13.1,9.2,13.2L9.2,13.2z M119.2,35.6c-2.1-0.6-4.3-0.3-6.4-1.2
	c0-0.2,0-0.3,0.1-0.3c0.2-0.1,0.3-0.2,0.5-0.2c2.1,0.3,4.2,0.5,6.3,0.8c0.1,0,0.2,0.2,0.6,0.7C119.7,35.5,119.4,35.7,119.2,35.6
	L119.2,35.6z M112.7,14.5c-0.2-0.5-0.3-0.9-0.5-1.6c0.6-0.3,1-0.3,1.7,0.3C113.3,13.8,113,14.1,112.7,14.5z M124.2,45.8
	c0.9-1,1.7-0.9,2.5,0.2C125.9,46.4,125.1,46.8,124.2,45.8z M7.6,26.9c0,0.1-0.1,0.1-0.1,0.2c0-0.1,0-0.2,0-0.2
	c0-0.1,0.1-0.1,0.1-0.1C7.6,26.8,7.6,26.8,7.6,26.9L7.6,26.9z M135.1,23.4c0,0-0.1-0.1-0.1-0.1c0-0.1,0-0.1,0.1-0.2
	c0,0.1,0.1,0.1,0.1,0.1C135.2,23.3,135.1,23.4,135.1,23.4z M110.5,33.5c0,0.1,0.1,0.3,0.1,0.4c0,0.1-0.1,0.1-0.2,0.2
	c0-0.1,0-0.3-0.1-0.4C110.4,33.6,110.5,33.6,110.5,33.5z M20.7,27.6c-0.1,0.1-0.1,0.1-0.2,0.2c0,0-0.1-0.1-0.1-0.2
	c0.1-0.1,0.1-0.2,0.2-0.3C20.6,27.4,20.6,27.5,20.7,27.6z M31.9,2.8c0,0,0,0.1-0.1,0.2c0-0.1,0-0.2,0-0.3
	C31.9,2.7,31.9,2.7,31.9,2.8z M59.8,32.3l0.1-0.1l0,0.2L59.8,32.3L59.8,32.3z M124,41.9c0,0,0-0.1,0.1-0.1c0,0.1,0,0.2,0,0.3
	C124.1,42,124,42,124,41.9L124,41.9z M145.1,20.3c-0.4,0.4-0.7,0.7-1.1,1.1c-0.3,0.3-0.6,0.5-0.9,0.7c-0.5,0.2-0.9,0-1-0.4
	c-0.2-0.7,0.1-2.1,0.6-2.5c0.7-0.6,1.4-1,2-1.5c0.4,0.4,0.3,0.8,0.2,1.3C144.8,19.5,144.9,20,145.1,20.3L145.1,20.3L145.1,20.3z
	 M137.3,21.4c-0.1,1,0.3,2,0,3c-0.1,0-0.2,0.1-0.2,0c-0.1-0.7-0.2-1.3-0.3-2C137,22.1,137.1,21.7,137.3,21.4L137.3,21.4z M144,25.4
	c0.5-0.2,1-1,1.7-0.7c-0.4,0.6-0.8,1.3-1,2C144.5,26.2,144.3,25.8,144,25.4z M137.6,13.2c-0.2,0.8-0.5,1.3-1,1.3
	C136.8,13.7,137.5,14.3,137.6,13.2z M140.4,12.1c-0.2,0.4-0.3,1.2-0.7,0.8C139.9,12.7,140.2,12.4,140.4,12.1z M138,23.3
	c-0.2-0.7-0.5-1.3-0.7-2c0.2,0.4,0.4,0.4,0.6-0.2l0,0C137.9,22,137.9,22.7,138,23.3L138,23.3L138,23.3z M138.5,9.2
	c0,0,0.1,0.1,0.1,0.1c0,0.1-0.1,0.2-0.1,0.1c0,0-0.1-0.1-0.1-0.2C138.4,9.2,138.4,9.2,138.5,9.2L138.5,9.2z M137.9,23.4
	c0.3,0.2,0.6,0.4,0.8,0.5l0-0.1C138.4,24,138.1,24.4,137.9,23.4L137.9,23.4z M88.5,56.5c-0.1-0.1-0.2-0.2-0.3-0.2c0,0,0-0.1,0-0.1
	c0.1,0.1,0.2,0.1,0.3,0.2C88.5,56.4,88.5,56.4,88.5,56.5L88.5,56.5z M3.9,20L3.9,20l0,0.1L3.9,20z M134.6,11.2c0,0,0-0.1,0.1-0.1
	c0,0,0.1,0.1,0.1,0.1c0,0.1,0,0.1-0.1,0.1S134.6,11.2,134.6,11.2L134.6,11.2z M42.8,0.4c0,0,0.1,0.1,0.1,0.1c0,0-0.1,0.1-0.1,0.1
	c0,0,0-0.1-0.1-0.2C42.8,0.4,42.8,0.4,42.8,0.4z M141.3,12.6c0-0.1,0.1-0.2,0.1-0.4c0-0.1,0-0.2,0-0.2c0,0.1,0,0.1-0.1,0.2
	C141.4,12.4,141.4,12.5,141.3,12.6L141.3,12.6L141.3,12.6z M140.5,22l-0.1-0.1l0.1-0.1L140.5,22z M74.7,54.9l0.1,0.1h-0.1V54.9z
	 M89.8,56.1c0,0.1-0.1,0.3-0.1,0.4c0,0.1-0.1,0.1-0.1,0.1s-0.1-0.1-0.1-0.1c0.1-0.1,0.1-0.1,0.2-0.1C89.7,56.2,89.7,56.1,89.8,56.1
	L89.8,56.1L89.8,56.1z M121.6,11.8c0,0,0-0.1,0.1-0.2c0,0.1,0.1,0.1,0.1,0.2c0,0.1,0,0.1-0.1,0.2C121.6,11.9,121.6,11.9,121.6,11.8
	L121.6,11.8z M129.2,11.9c0,0,0.1,0.1,0.1,0.1c0,0.1,0,0.1,0,0.2c0-0.1-0.1-0.1-0.1-0.2C129.1,11.9,129.1,11.9,129.2,11.9
	L129.2,11.9z M41.1,0c0,0.1,0.1,0.2,0.1,0.2c0-0.1,0-0.2,0-0.2C41.2,0,41.2,0.1,41.1,0L41.1,0L41.1,0z M61.8,53.5l-0.1-0.1l0.1,0
	L61.8,53.5z M77.1,55.2l0.1,0.1h-0.1L77.1,55.2z M89.8,56c0.1,0.1,0.1,0.2,0.2,0.3C89.9,56.2,89.9,56.1,89.8,56L89.8,56L89.8,56z
	 M126.8,10.7c0.1,0.1,0.2,0.1,0.2,0.2C126.9,10.9,126.9,10.8,126.8,10.7L126.8,10.7z M132.6,27.3C132.6,27.3,132.5,27.3,132.6,27.3
	C132.5,27.3,132.6,27.3,132.6,27.3L132.6,27.3z M133.8,15.5C133.9,15.5,134.1,15.5,133.8,15.5C134.1,15.6,134,15.6,133.8,15.5
	L133.8,15.5L133.8,15.5z M132.6,27.2c0.1,0.1,0.1,0.1,0.2,0.2c0-0.1,0-0.1-0.1-0.2C132.7,27.3,132.6,27.3,132.6,27.2L132.6,27.2z
	 M138.3,13.2c-0.2,0.4-0.5,0.2-0.7,0C137.9,13.3,138.1,13.3,138.3,13.2L138.3,13.2z M138.4,13.3c0.1,0,0.2,0,0.2,0
	C138.5,13.3,138.4,13.3,138.4,13.3L138.4,13.3z M137.8,21.2c0,0.1,0.1,0.2,0.2,0.3C137.9,21.4,137.9,21.3,137.8,21.2L137.8,21.2
	L137.8,21.2z M138,25.4c0,0-0.1,0-0.1,0.1c0,0.1,0,0.1,0,0.2C138,25.5,138,25.4,138,25.4L138,25.4L138,25.4z M138.1,25.3l0.1,0.2
	C138.2,25.5,138.2,25.4,138.1,25.3C138.1,25.4,138.1,25.4,138.1,25.3L138.1,25.3L138.1,25.3z M138.8,23.9
	C138.8,23.9,138.8,23.9,138.8,23.9C138.8,23.9,138.8,23.9,138.8,23.9L138.8,23.9L138.8,23.9z M140.4,12.1c0.3,0.2,0.6,0.3,0.9,0.5v0
	C141,12.5,140.7,12.3,140.4,12.1z M145.1,20.4c0.1-0.1,0.1-0.1,0.2-0.2C145.2,20.2,145.2,20.2,145.1,20.4L145.1,20.4L145.1,20.4z
	 M1.5,1.8c0,0.2,0,0.3-0.1,0.5C1.5,2.1,1.5,1.9,1.5,1.8L1.5,1.8z M112.1,10.4c0,0.1-0.1,0.2-0.1,0.4C112,10.6,112.1,10.5,112.1,10.4
	L112.1,10.4z"/>
</svg>
