<svg width="375" height="241" viewBox="0 0 375 241" fill="none" xmlns="http://www.w3.org/2000/svg">
<mask id="mask0_1218_15176" style="mask-type:alpha" maskUnits="userSpaceOnUse" x="0" y="0" width="375" height="241">
<rect width="375" height="241" fill="#D9D9D9"/>
</mask>
<g mask="url(#mask0_1218_15176)">
<circle cx="11.5" cy="14.5" r="1.5" fill="#D9D9D9"/>
<circle cx="27.5" cy="14.5" r="1.5" fill="#D9D9D9"/>
<circle cx="43.5" cy="14.5" r="1.5" fill="#D9D9D9"/>
<circle cx="59.5" cy="14.5" r="1.5" fill="#D9D9D9"/>
<circle cx="75.5" cy="14.5" r="1.5" fill="#D9D9D9"/>
<circle cx="91.5" cy="14.5" r="1.5" fill="#D9D9D9"/>
<circle cx="107.5" cy="14.5" r="1.5" fill="#D9D9D9"/>
<circle cx="123.5" cy="14.5" r="1.5" fill="#D9D9D9"/>
<circle cx="139.5" cy="14.5" r="1.5" fill="#D9D9D9"/>
<circle cx="155.5" cy="14.5" r="1.5" fill="#D9D9D9"/>
<circle cx="171.5" cy="14.5" r="1.5" fill="#D9D9D9"/>
<circle cx="187.5" cy="14.5" r="1.5" fill="#D9D9D9"/>
<circle cx="203.5" cy="14.5" r="1.5" fill="#D9D9D9"/>
<circle cx="219.5" cy="14.5" r="1.5" fill="#D9D9D9"/>
<circle cx="235.5" cy="14.5" r="1.5" fill="#D9D9D9"/>
<circle cx="251.5" cy="14.5" r="1.5" fill="#D9D9D9"/>
<circle cx="267.5" cy="14.5" r="1.5" fill="#D9D9D9"/>
<circle cx="283.5" cy="14.5" r="1.5" fill="#D9D9D9"/>
<circle cx="299.5" cy="14.5" r="1.5" fill="#D9D9D9"/>
<circle cx="315.5" cy="14.5" r="1.5" fill="#D9D9D9"/>
<circle cx="331.5" cy="14.5" r="1.5" fill="#D9D9D9"/>
<circle cx="347.5" cy="14.5" r="1.5" fill="#D9D9D9"/>
<circle cx="363.5" cy="14.5" r="1.5" fill="#D9D9D9"/>
<circle cx="11.5" cy="30.5" r="1.5" fill="#D9D9D9"/>
<circle cx="27.5" cy="30.5" r="1.5" fill="#D9D9D9"/>
<circle cx="43.5" cy="30.5" r="1.5" fill="#D9D9D9"/>
<circle cx="59.5" cy="30.5" r="1.5" fill="#D9D9D9"/>
<circle cx="75.5" cy="30.5" r="1.5" fill="#D9D9D9"/>
<circle cx="91.5" cy="30.5" r="1.5" fill="#D9D9D9"/>
<circle cx="107.5" cy="30.5" r="1.5" fill="#D9D9D9"/>
<circle cx="123.5" cy="30.5" r="1.5" fill="#D9D9D9"/>
<circle cx="139.5" cy="30.5" r="1.5" fill="#D9D9D9"/>
<circle cx="155.5" cy="30.5" r="1.5" fill="#D9D9D9"/>
<circle cx="171.5" cy="30.5" r="1.5" fill="#D9D9D9"/>
<circle cx="187.5" cy="30.5" r="1.5" fill="#D9D9D9"/>
<circle cx="203.5" cy="30.5" r="1.5" fill="#D9D9D9"/>
<circle cx="219.5" cy="30.5" r="1.5" fill="#D9D9D9"/>
<circle cx="235.5" cy="30.5" r="1.5" fill="#D9D9D9"/>
<circle cx="251.5" cy="30.5" r="1.5" fill="#D9D9D9"/>
<circle cx="267.5" cy="30.5" r="1.5" fill="#D9D9D9"/>
<circle cx="283.5" cy="30.5" r="1.5" fill="#D9D9D9"/>
<circle cx="299.5" cy="30.5" r="1.5" fill="#D9D9D9"/>
<circle cx="315.5" cy="30.5" r="1.5" fill="#D9D9D9"/>
<circle cx="331.5" cy="30.5" r="1.5" fill="#D9D9D9"/>
<circle cx="347.5" cy="30.5" r="1.5" fill="#D9D9D9"/>
<circle cx="363.5" cy="30.5" r="1.5" fill="#D9D9D9"/>
<circle cx="11.5" cy="46.5" r="1.5" fill="#D9D9D9"/>
<circle cx="27.5" cy="46.5" r="1.5" fill="#D9D9D9"/>
<circle cx="43.5" cy="46.5" r="1.5" fill="#D9D9D9"/>
<circle cx="59.5" cy="46.5" r="1.5" fill="#D9D9D9"/>
<circle cx="75.5" cy="46.5" r="1.5" fill="#D9D9D9"/>
<circle cx="91.5" cy="46.5" r="1.5" fill="#D9D9D9"/>
<circle cx="107.5" cy="46.5" r="1.5" fill="#D9D9D9"/>
<circle cx="123.5" cy="46.5" r="1.5" fill="#D9D9D9"/>
<circle cx="139.5" cy="46.5" r="1.5" fill="#D9D9D9"/>
<circle cx="155.5" cy="46.5" r="1.5" fill="#D9D9D9"/>
<circle cx="171.5" cy="46.5" r="1.5" fill="#D9D9D9"/>
<circle cx="187.5" cy="46.5" r="1.5" fill="#D9D9D9"/>
<circle cx="203.5" cy="46.5" r="1.5" fill="#D9D9D9"/>
<circle cx="219.5" cy="46.5" r="1.5" fill="#D9D9D9"/>
<circle cx="235.5" cy="46.5" r="1.5" fill="#D9D9D9"/>
<circle cx="251.5" cy="46.5" r="1.5" fill="#D9D9D9"/>
<circle cx="267.5" cy="46.5" r="1.5" fill="#D9D9D9"/>
<circle cx="283.5" cy="46.5" r="1.5" fill="#D9D9D9"/>
<circle cx="299.5" cy="46.5" r="1.5" fill="#D9D9D9"/>
<circle cx="315.5" cy="46.5" r="1.5" fill="#D9D9D9"/>
<circle cx="331.5" cy="46.5" r="1.5" fill="#D9D9D9"/>
<circle cx="347.5" cy="46.5" r="1.5" fill="#D9D9D9"/>
<circle cx="363.5" cy="46.5" r="1.5" fill="#D9D9D9"/>
<circle cx="11.5" cy="62.5" r="1.5" fill="#D9D9D9"/>
<circle cx="27.5" cy="62.5" r="1.5" fill="#D9D9D9"/>
<circle cx="43.5" cy="62.5" r="1.5" fill="#D9D9D9"/>
<circle cx="59.5" cy="62.5" r="1.5" fill="#D9D9D9"/>
<circle cx="75.5" cy="62.5" r="1.5" fill="#D9D9D9"/>
<circle cx="91.5" cy="62.5" r="1.5" fill="#D9D9D9"/>
<circle cx="107.5" cy="62.5" r="1.5" fill="#D9D9D9"/>
<circle cx="123.5" cy="62.5" r="1.5" fill="#D9D9D9"/>
<circle cx="139.5" cy="62.5" r="1.5" fill="#D9D9D9"/>
<circle cx="155.5" cy="62.5" r="1.5" fill="#D9D9D9"/>
<circle cx="171.5" cy="62.5" r="1.5" fill="#D9D9D9"/>
<circle cx="187.5" cy="62.5" r="1.5" fill="#D9D9D9"/>
<circle cx="203.5" cy="62.5" r="1.5" fill="#D9D9D9"/>
<circle cx="219.5" cy="62.5" r="1.5" fill="#D9D9D9"/>
<circle cx="235.5" cy="62.5" r="1.5" fill="#D9D9D9"/>
<circle cx="251.5" cy="62.5" r="1.5" fill="#D9D9D9"/>
<circle cx="267.5" cy="62.5" r="1.5" fill="#D9D9D9"/>
<circle cx="283.5" cy="62.5" r="1.5" fill="#D9D9D9"/>
<circle cx="299.5" cy="62.5" r="1.5" fill="#D9D9D9"/>
<circle cx="315.5" cy="62.5" r="1.5" fill="#D9D9D9"/>
<circle cx="331.5" cy="62.5" r="1.5" fill="#D9D9D9"/>
<circle cx="347.5" cy="62.5" r="1.5" fill="#D9D9D9"/>
<circle cx="363.5" cy="62.5" r="1.5" fill="#D9D9D9"/>
<circle cx="11.5" cy="78.5" r="1.5" fill="#D9D9D9"/>
<circle cx="27.5" cy="78.5" r="1.5" fill="#D9D9D9"/>
<circle cx="43.5" cy="78.5" r="1.5" fill="#D9D9D9"/>
<circle cx="59.5" cy="78.5" r="1.5" fill="#D9D9D9"/>
<circle cx="75.5" cy="78.5" r="1.5" fill="#D9D9D9"/>
<circle cx="91.5" cy="78.5" r="1.5" fill="#D9D9D9"/>
<circle cx="107.5" cy="78.5" r="1.5" fill="#D9D9D9"/>
<circle cx="123.5" cy="78.5" r="1.5" fill="#D9D9D9"/>
<circle cx="139.5" cy="78.5" r="1.5" fill="#D9D9D9"/>
<circle cx="155.5" cy="78.5" r="1.5" fill="#D9D9D9"/>
<circle cx="171.5" cy="78.5" r="1.5" fill="#D9D9D9"/>
<circle cx="187.5" cy="78.5" r="1.5" fill="#D9D9D9"/>
<circle cx="203.5" cy="78.5" r="1.5" fill="#D9D9D9"/>
<circle cx="219.5" cy="78.5" r="1.5" fill="#D9D9D9"/>
<circle cx="235.5" cy="78.5" r="1.5" fill="#D9D9D9"/>
<circle cx="251.5" cy="78.5" r="1.5" fill="#D9D9D9"/>
<circle cx="267.5" cy="78.5" r="1.5" fill="#D9D9D9"/>
<circle cx="283.5" cy="78.5" r="1.5" fill="#D9D9D9"/>
<circle cx="299.5" cy="78.5" r="1.5" fill="#D9D9D9"/>
<circle cx="315.5" cy="78.5" r="1.5" fill="#D9D9D9"/>
<circle cx="331.5" cy="78.5" r="1.5" fill="#D9D9D9"/>
<circle cx="347.5" cy="78.5" r="1.5" fill="#D9D9D9"/>
<circle cx="363.5" cy="78.5" r="1.5" fill="#D9D9D9"/>
<circle cx="11.5" cy="94.5" r="1.5" fill="#D9D9D9"/>
<circle cx="27.5" cy="94.5" r="1.5" fill="#D9D9D9"/>
<circle cx="43.5" cy="94.5" r="1.5" fill="#D9D9D9"/>
<circle cx="59.5" cy="94.5" r="1.5" fill="#D9D9D9"/>
<circle cx="75.5" cy="94.5" r="1.5" fill="#D9D9D9"/>
<circle cx="91.5" cy="94.5" r="1.5" fill="#D9D9D9"/>
<circle cx="107.5" cy="94.5" r="1.5" fill="#D9D9D9"/>
<circle cx="123.5" cy="94.5" r="1.5" fill="#D9D9D9"/>
<circle cx="139.5" cy="94.5" r="1.5" fill="#D9D9D9"/>
<circle cx="155.5" cy="94.5" r="1.5" fill="#D9D9D9"/>
<circle cx="171.5" cy="94.5" r="1.5" fill="#D9D9D9"/>
<circle cx="187.5" cy="94.5" r="1.5" fill="#D9D9D9"/>
<circle cx="203.5" cy="94.5" r="1.5" fill="#D9D9D9"/>
<circle cx="219.5" cy="94.5" r="1.5" fill="#D9D9D9"/>
<circle cx="235.5" cy="94.5" r="1.5" fill="#D9D9D9"/>
<circle cx="251.5" cy="94.5" r="1.5" fill="#D9D9D9"/>
<circle cx="267.5" cy="94.5" r="1.5" fill="#D9D9D9"/>
<circle cx="283.5" cy="94.5" r="1.5" fill="#D9D9D9"/>
<circle cx="299.5" cy="94.5" r="1.5" fill="#D9D9D9"/>
<circle cx="315.5" cy="94.5" r="1.5" fill="#D9D9D9"/>
<circle cx="331.5" cy="94.5" r="1.5" fill="#D9D9D9"/>
<circle cx="347.5" cy="94.5" r="1.5" fill="#D9D9D9"/>
<circle cx="363.5" cy="94.5" r="1.5" fill="#D9D9D9"/>
<circle cx="11.5" cy="110.5" r="1.5" fill="#D9D9D9"/>
<circle cx="27.5" cy="110.5" r="1.5" fill="#D9D9D9"/>
<circle cx="43.5" cy="110.5" r="1.5" fill="#D9D9D9"/>
<circle cx="59.5" cy="110.5" r="1.5" fill="#D9D9D9"/>
<circle cx="75.5" cy="110.5" r="1.5" fill="#D9D9D9"/>
<circle cx="91.5" cy="110.5" r="1.5" fill="#D9D9D9"/>
<circle cx="107.5" cy="110.5" r="1.5" fill="#D9D9D9"/>
<circle cx="123.5" cy="110.5" r="1.5" fill="#D9D9D9"/>
<circle cx="139.5" cy="110.5" r="1.5" fill="#D9D9D9"/>
<circle cx="155.5" cy="110.5" r="1.5" fill="#D9D9D9"/>
<circle cx="171.5" cy="110.5" r="1.5" fill="#D9D9D9"/>
<circle cx="187.5" cy="110.5" r="1.5" fill="#D9D9D9"/>
<circle cx="203.5" cy="110.5" r="1.5" fill="#D9D9D9"/>
<circle cx="219.5" cy="110.5" r="1.5" fill="#D9D9D9"/>
<circle cx="235.5" cy="110.5" r="1.5" fill="#D9D9D9"/>
<circle cx="251.5" cy="110.5" r="1.5" fill="#D9D9D9"/>
<circle cx="267.5" cy="110.5" r="1.5" fill="#D9D9D9"/>
<circle cx="283.5" cy="110.5" r="1.5" fill="#D9D9D9"/>
<circle cx="299.5" cy="110.5" r="1.5" fill="#D9D9D9"/>
<circle cx="315.5" cy="110.5" r="1.5" fill="#D9D9D9"/>
<circle cx="331.5" cy="110.5" r="1.5" fill="#D9D9D9"/>
<circle cx="347.5" cy="110.5" r="1.5" fill="#D9D9D9"/>
<circle cx="363.5" cy="110.5" r="1.5" fill="#D9D9D9"/>
<circle cx="11.5" cy="126.5" r="1.5" fill="#D9D9D9"/>
<circle cx="27.5" cy="126.5" r="1.5" fill="#D9D9D9"/>
<circle cx="43.5" cy="126.5" r="1.5" fill="#D9D9D9"/>
<circle cx="59.5" cy="126.5" r="1.5" fill="#D9D9D9"/>
<circle cx="75.5" cy="126.5" r="1.5" fill="#D9D9D9"/>
<circle cx="91.5" cy="126.5" r="1.5" fill="#D9D9D9"/>
<circle cx="107.5" cy="126.5" r="1.5" fill="#D9D9D9"/>
<circle cx="123.5" cy="126.5" r="1.5" fill="#D9D9D9"/>
<circle cx="139.5" cy="126.5" r="1.5" fill="#D9D9D9"/>
<circle cx="155.5" cy="126.5" r="1.5" fill="#D9D9D9"/>
<circle cx="171.5" cy="126.5" r="1.5" fill="#D9D9D9"/>
<circle cx="187.5" cy="126.5" r="1.5" fill="#D9D9D9"/>
<circle cx="203.5" cy="126.5" r="1.5" fill="#D9D9D9"/>
<circle cx="219.5" cy="126.5" r="1.5" fill="#D9D9D9"/>
<circle cx="235.5" cy="126.5" r="1.5" fill="#D9D9D9"/>
<circle cx="251.5" cy="126.5" r="1.5" fill="#D9D9D9"/>
<circle cx="267.5" cy="126.5" r="1.5" fill="#D9D9D9"/>
<circle cx="283.5" cy="126.5" r="1.5" fill="#D9D9D9"/>
<circle cx="299.5" cy="126.5" r="1.5" fill="#D9D9D9"/>
<circle cx="315.5" cy="126.5" r="1.5" fill="#D9D9D9"/>
<circle cx="331.5" cy="126.5" r="1.5" fill="#D9D9D9"/>
<circle cx="347.5" cy="126.5" r="1.5" fill="#D9D9D9"/>
<circle cx="363.5" cy="126.5" r="1.5" fill="#D9D9D9"/>
<circle cx="11.5" cy="142.5" r="1.5" fill="#D9D9D9"/>
<circle cx="27.5" cy="142.5" r="1.5" fill="#D9D9D9"/>
<circle cx="43.5" cy="142.5" r="1.5" fill="#D9D9D9"/>
<circle cx="59.5" cy="142.5" r="1.5" fill="#D9D9D9"/>
<circle cx="75.5" cy="142.5" r="1.5" fill="#D9D9D9"/>
<circle cx="91.5" cy="142.5" r="1.5" fill="#D9D9D9"/>
<circle cx="107.5" cy="142.5" r="1.5" fill="#D9D9D9"/>
<circle cx="123.5" cy="142.5" r="1.5" fill="#D9D9D9"/>
<circle cx="139.5" cy="142.5" r="1.5" fill="#D9D9D9"/>
<circle cx="155.5" cy="142.5" r="1.5" fill="#D9D9D9"/>
<circle cx="171.5" cy="142.5" r="1.5" fill="#D9D9D9"/>
<circle cx="187.5" cy="142.5" r="1.5" fill="#D9D9D9"/>
<circle cx="203.5" cy="142.5" r="1.5" fill="#D9D9D9"/>
<circle cx="219.5" cy="142.5" r="1.5" fill="#D9D9D9"/>
<circle cx="235.5" cy="142.5" r="1.5" fill="#D9D9D9"/>
<circle cx="251.5" cy="142.5" r="1.5" fill="#D9D9D9"/>
<circle cx="267.5" cy="142.5" r="1.5" fill="#D9D9D9"/>
<circle cx="283.5" cy="142.5" r="1.5" fill="#D9D9D9"/>
<circle cx="299.5" cy="142.5" r="1.5" fill="#D9D9D9"/>
<circle cx="315.5" cy="142.5" r="1.5" fill="#D9D9D9"/>
<circle cx="331.5" cy="142.5" r="1.5" fill="#D9D9D9"/>
<circle cx="347.5" cy="142.5" r="1.5" fill="#D9D9D9"/>
<circle cx="363.5" cy="142.5" r="1.5" fill="#D9D9D9"/>
<circle cx="11.5" cy="158.5" r="1.5" fill="#D9D9D9"/>
<circle cx="27.5" cy="158.5" r="1.5" fill="#D9D9D9"/>
<circle cx="43.5" cy="158.5" r="1.5" fill="#D9D9D9"/>
<circle cx="59.5" cy="158.5" r="1.5" fill="#D9D9D9"/>
<circle cx="75.5" cy="158.5" r="1.5" fill="#D9D9D9"/>
<circle cx="91.5" cy="158.5" r="1.5" fill="#D9D9D9"/>
<circle cx="107.5" cy="158.5" r="1.5" fill="#D9D9D9"/>
<circle cx="123.5" cy="158.5" r="1.5" fill="#D9D9D9"/>
<circle cx="139.5" cy="158.5" r="1.5" fill="#D9D9D9"/>
<circle cx="155.5" cy="158.5" r="1.5" fill="#D9D9D9"/>
<circle cx="171.5" cy="158.5" r="1.5" fill="#D9D9D9"/>
<circle cx="187.5" cy="158.5" r="1.5" fill="#D9D9D9"/>
<circle cx="203.5" cy="158.5" r="1.5" fill="#D9D9D9"/>
<circle cx="219.5" cy="158.5" r="1.5" fill="#D9D9D9"/>
<circle cx="235.5" cy="158.5" r="1.5" fill="#D9D9D9"/>
<circle cx="251.5" cy="158.5" r="1.5" fill="#D9D9D9"/>
<circle cx="267.5" cy="158.5" r="1.5" fill="#D9D9D9"/>
<circle cx="283.5" cy="158.5" r="1.5" fill="#D9D9D9"/>
<circle cx="299.5" cy="158.5" r="1.5" fill="#D9D9D9"/>
<circle cx="315.5" cy="158.5" r="1.5" fill="#D9D9D9"/>
<circle cx="331.5" cy="158.5" r="1.5" fill="#D9D9D9"/>
<circle cx="347.5" cy="158.5" r="1.5" fill="#D9D9D9"/>
<circle cx="363.5" cy="158.5" r="1.5" fill="#D9D9D9"/>
<circle cx="11.5" cy="174.5" r="1.5" fill="#D9D9D9"/>
<circle cx="27.5" cy="174.5" r="1.5" fill="#D9D9D9"/>
<circle cx="43.5" cy="174.5" r="1.5" fill="#D9D9D9"/>
<circle cx="59.5" cy="174.5" r="1.5" fill="#D9D9D9"/>
<circle cx="75.5" cy="174.5" r="1.5" fill="#D9D9D9"/>
<circle cx="91.5" cy="174.5" r="1.5" fill="#D9D9D9"/>
<circle cx="107.5" cy="174.5" r="1.5" fill="#D9D9D9"/>
<circle cx="123.5" cy="174.5" r="1.5" fill="#D9D9D9"/>
<circle cx="139.5" cy="174.5" r="1.5" fill="#D9D9D9"/>
<circle cx="155.5" cy="174.5" r="1.5" fill="#D9D9D9"/>
<circle cx="171.5" cy="174.5" r="1.5" fill="#D9D9D9"/>
<circle cx="187.5" cy="174.5" r="1.5" fill="#D9D9D9"/>
<circle cx="203.5" cy="174.5" r="1.5" fill="#D9D9D9"/>
<circle cx="219.5" cy="174.5" r="1.5" fill="#D9D9D9"/>
<circle cx="235.5" cy="174.5" r="1.5" fill="#D9D9D9"/>
<circle cx="251.5" cy="174.5" r="1.5" fill="#D9D9D9"/>
<circle cx="267.5" cy="174.5" r="1.5" fill="#D9D9D9"/>
<circle cx="283.5" cy="174.5" r="1.5" fill="#D9D9D9"/>
<circle cx="299.5" cy="174.5" r="1.5" fill="#D9D9D9"/>
<circle cx="315.5" cy="174.5" r="1.5" fill="#D9D9D9"/>
<circle cx="331.5" cy="174.5" r="1.5" fill="#D9D9D9"/>
<circle cx="347.5" cy="174.5" r="1.5" fill="#D9D9D9"/>
<circle cx="363.5" cy="174.5" r="1.5" fill="#D9D9D9"/>
<circle cx="11.5" cy="190.5" r="1.5" fill="#D9D9D9"/>
<circle cx="27.5" cy="190.5" r="1.5" fill="#D9D9D9"/>
<circle cx="43.5" cy="190.5" r="1.5" fill="#D9D9D9"/>
<circle cx="59.5" cy="190.5" r="1.5" fill="#D9D9D9"/>
<circle cx="75.5" cy="190.5" r="1.5" fill="#D9D9D9"/>
<circle cx="91.5" cy="190.5" r="1.5" fill="#D9D9D9"/>
<circle cx="107.5" cy="190.5" r="1.5" fill="#D9D9D9"/>
<circle cx="123.5" cy="190.5" r="1.5" fill="#D9D9D9"/>
<circle cx="139.5" cy="190.5" r="1.5" fill="#D9D9D9"/>
<circle cx="155.5" cy="190.5" r="1.5" fill="#D9D9D9"/>
<circle cx="171.5" cy="190.5" r="1.5" fill="#D9D9D9"/>
<circle cx="187.5" cy="190.5" r="1.5" fill="#D9D9D9"/>
<circle cx="203.5" cy="190.5" r="1.5" fill="#D9D9D9"/>
<circle cx="219.5" cy="190.5" r="1.5" fill="#D9D9D9"/>
<circle cx="235.5" cy="190.5" r="1.5" fill="#D9D9D9"/>
<circle cx="251.5" cy="190.5" r="1.5" fill="#D9D9D9"/>
<circle cx="267.5" cy="190.5" r="1.5" fill="#D9D9D9"/>
<circle cx="283.5" cy="190.5" r="1.5" fill="#D9D9D9"/>
<circle cx="299.5" cy="190.5" r="1.5" fill="#D9D9D9"/>
<circle cx="315.5" cy="190.5" r="1.5" fill="#D9D9D9"/>
<circle cx="331.5" cy="190.5" r="1.5" fill="#D9D9D9"/>
<circle cx="347.5" cy="190.5" r="1.5" fill="#D9D9D9"/>
<circle cx="363.5" cy="190.5" r="1.5" fill="#D9D9D9"/>
<circle cx="11.5" cy="206.5" r="1.5" fill="#D9D9D9"/>
<circle cx="27.5" cy="206.5" r="1.5" fill="#D9D9D9"/>
<circle cx="43.5" cy="206.5" r="1.5" fill="#D9D9D9"/>
<circle cx="59.5" cy="206.5" r="1.5" fill="#D9D9D9"/>
<circle cx="75.5" cy="206.5" r="1.5" fill="#D9D9D9"/>
<circle cx="91.5" cy="206.5" r="1.5" fill="#D9D9D9"/>
<circle cx="107.5" cy="206.5" r="1.5" fill="#D9D9D9"/>
<circle cx="123.5" cy="206.5" r="1.5" fill="#D9D9D9"/>
<circle cx="139.5" cy="206.5" r="1.5" fill="#D9D9D9"/>
<circle cx="155.5" cy="206.5" r="1.5" fill="#D9D9D9"/>
<circle cx="171.5" cy="206.5" r="1.5" fill="#D9D9D9"/>
<circle cx="187.5" cy="206.5" r="1.5" fill="#D9D9D9"/>
<circle cx="203.5" cy="206.5" r="1.5" fill="#D9D9D9"/>
<circle cx="219.5" cy="206.5" r="1.5" fill="#D9D9D9"/>
<circle cx="235.5" cy="206.5" r="1.5" fill="#D9D9D9"/>
<circle cx="251.5" cy="206.5" r="1.5" fill="#D9D9D9"/>
<circle cx="267.5" cy="206.5" r="1.5" fill="#D9D9D9"/>
<circle cx="283.5" cy="206.5" r="1.5" fill="#D9D9D9"/>
<circle cx="299.5" cy="206.5" r="1.5" fill="#D9D9D9"/>
<circle cx="315.5" cy="206.5" r="1.5" fill="#D9D9D9"/>
<circle cx="331.5" cy="206.5" r="1.5" fill="#D9D9D9"/>
<circle cx="347.5" cy="206.5" r="1.5" fill="#D9D9D9"/>
<circle cx="363.5" cy="206.5" r="1.5" fill="#D9D9D9"/>
<circle cx="11.5" cy="222.5" r="1.5" fill="#D9D9D9"/>
<circle cx="27.5" cy="222.5" r="1.5" fill="#D9D9D9"/>
<circle cx="43.5" cy="222.5" r="1.5" fill="#D9D9D9"/>
<circle cx="59.5" cy="222.5" r="1.5" fill="#D9D9D9"/>
<circle cx="75.5" cy="222.5" r="1.5" fill="#D9D9D9"/>
<circle cx="91.5" cy="222.5" r="1.5" fill="#D9D9D9"/>
<circle cx="107.5" cy="222.5" r="1.5" fill="#D9D9D9"/>
<circle cx="123.5" cy="222.5" r="1.5" fill="#D9D9D9"/>
<circle cx="139.5" cy="222.5" r="1.5" fill="#D9D9D9"/>
<circle cx="155.5" cy="222.5" r="1.5" fill="#D9D9D9"/>
<circle cx="171.5" cy="222.5" r="1.5" fill="#D9D9D9"/>
<circle cx="187.5" cy="222.5" r="1.5" fill="#D9D9D9"/>
<circle cx="203.5" cy="222.5" r="1.5" fill="#D9D9D9"/>
<circle cx="219.5" cy="222.5" r="1.5" fill="#D9D9D9"/>
<circle cx="235.5" cy="222.5" r="1.5" fill="#D9D9D9"/>
<circle cx="251.5" cy="222.5" r="1.5" fill="#D9D9D9"/>
<circle cx="267.5" cy="222.5" r="1.5" fill="#D9D9D9"/>
<circle cx="283.5" cy="222.5" r="1.5" fill="#D9D9D9"/>
<circle cx="299.5" cy="222.5" r="1.5" fill="#D9D9D9"/>
<circle cx="315.5" cy="222.5" r="1.5" fill="#D9D9D9"/>
<circle cx="331.5" cy="222.5" r="1.5" fill="#D9D9D9"/>
<circle cx="347.5" cy="222.5" r="1.5" fill="#D9D9D9"/>
<circle cx="363.5" cy="222.5" r="1.5" fill="#D9D9D9"/>
</g>
</svg>
