<svg width="161" height="54" viewBox="0 0 161 54" fill="none" xmlns="http://www.w3.org/2000/svg">
<g clip-path="url(#clip0_1540_5083)">
<path d="M58.1903 17.7524V21.8015H57.9954C57.2148 21.262 56.2403 20.9537 55.1089 20.9537C51.8327 20.9537 50.2336 23.1127 50.2336 27.5086V35.5288H46.0999V17.4442H49.571L49.7269 20.2197H49.8048C50.8573 18.1378 52.7302 17.0579 55.4598 17.0579C56.6301 17.0579 57.6046 17.3661 58.1903 17.7515" fill="#0F143C"/>
<path d="M63.3821 24.6927H74.1073C73.7565 22.2245 71.6506 20.6445 68.8032 20.6445C66.1896 20.6445 63.8889 22.264 63.3821 24.6927ZM63.3821 27.7389C63.8889 30.631 66.3855 32.3275 70.0125 32.3275C72.704 32.3275 74.9658 31.5173 76.6039 29.9758H76.7988V34.024C75.2387 35.2195 72.742 35.9132 69.8566 35.9132C63.4601 35.9132 59.1704 32.1348 59.1704 26.5048C59.1704 20.8748 63.1093 17.0579 68.6862 17.0579C74.2632 17.0579 77.9302 20.4509 77.9302 25.7331V27.7379H63.3821V27.7389Z" fill="#0F143C"/>
<path d="M109.009 24.8466V35.5276H104.876V25.2714C104.876 22.3023 103.549 20.7214 101.092 20.7214C98.3223 20.7214 96.8791 22.5335 96.8791 26.1963V35.5276H92.7454V25.2714C92.7454 22.3023 91.4191 20.7214 88.9234 20.7214C86.193 20.7214 84.7507 22.5335 84.7507 25.888V35.5276H80.6169V17.444H84.0491L84.166 20.0663H84.244C85.3364 18.1 87.2473 17.0586 89.9769 17.0586C92.5514 17.0586 94.5793 18.1771 95.6717 20.2975H95.7497C96.881 18.1385 98.9089 17.0586 102.146 17.0586C106.554 17.0586 109.01 19.8736 109.01 24.8475" fill="#0F143C"/>
<path d="M115.758 26.5048C115.758 29.8593 118.019 32.2504 121.296 32.2504C124.572 32.2504 126.873 29.8602 126.873 26.5048C126.873 23.1494 124.611 20.7216 121.296 20.7216C117.98 20.7216 115.758 23.0732 115.758 26.5048ZM131.046 26.5048C131.046 32.0192 126.99 35.9132 121.296 35.9132C115.602 35.9132 111.584 32.0192 111.584 26.5048C111.584 20.9904 115.601 17.0579 121.296 17.0579C126.991 17.0579 131.046 20.9519 131.046 26.5048Z" fill="#0F143C"/>
<path d="M149.143 26.5046C149.143 23.0731 146.843 20.7214 143.605 20.7214C140.368 20.7214 138.029 23.0731 138.029 26.5046C138.029 29.9362 140.329 32.2502 143.605 32.2502C146.882 32.2502 149.143 29.8601 149.143 26.5046ZM153.316 26.5046C153.316 31.9796 149.494 35.913 144.268 35.913C141.265 35.913 139.002 34.7946 137.677 32.9439H137.599L137.482 35.5277H134.011V9.19263H138.145V19.3727H138.223C139.589 17.9074 141.617 17.0586 144.269 17.0586C149.495 17.0586 153.317 21.0297 153.317 26.5056" fill="#0F143C"/>
<path d="M160.415 35.5277H156.281V17.444H160.415V35.5277ZM161 11.8149C161 13.3573 159.947 14.3987 158.348 14.3987C156.75 14.3987 155.735 13.3573 155.735 11.8149C155.735 10.2726 156.787 9.19263 158.348 9.19263C159.91 9.19263 161 10.2726 161 11.8149Z" fill="#0F143C"/>
<path d="M28.0036 5.93879C32.2857 6.13993 34.557 7.95863 35.7083 9.44837C37.6307 11.9363 37.9644 15.4478 36.6495 19.338C35.5505 22.5882 33.4237 25.7556 30.5487 28.4842C30.5487 28.4842 30.5496 28.4851 30.5506 28.4851C30.5249 28.5095 30.4973 28.534 30.4717 28.5584C30.3091 28.7116 30.1437 28.8629 29.9763 29.0133C29.9203 29.0641 29.8642 29.1139 29.8081 29.1637C29.6274 29.3235 29.4439 29.4814 29.2576 29.6374C29.2348 29.6562 29.2139 29.676 29.191 29.6948C29.191 29.6948 29.191 29.6948 29.1901 29.6948C28.8203 30.004 28.4428 30.3085 28.053 30.6036C24.3975 33.3641 20.2998 35.1283 16.4104 35.6782C16.2707 36.1819 16.1261 36.6763 15.9797 37.1651C16.0957 37.2703 16.2165 37.3747 16.3334 37.4799C20.6278 36.9386 25.1476 35.0353 29.1454 32.0172C29.6607 31.6281 30.1579 31.2249 30.6409 30.8114C30.6409 30.8114 30.64 30.8114 30.639 30.8104C31.103 30.4128 31.5479 30.0049 31.9776 29.5895C31.9776 29.5895 31.9786 29.5904 31.9795 29.5914C34.9696 26.7031 37.1905 23.3532 38.3561 19.9038C39.8658 15.4374 39.4332 11.3413 37.1382 8.37125C35.1835 5.84198 31.97 4.34754 28.0892 4.1652C25.0002 4.01951 21.6755 4.6859 18.4279 6.04312C18.5752 6.59484 18.7055 7.18322 18.8196 7.80731C21.9151 6.46607 25.082 5.80438 28.0036 5.94161" fill="#AF52FF"/>
<path d="M5.21961 20.5496C5.21486 20.559 5.21105 20.5693 5.2063 20.5787C5.21105 20.5693 5.21486 20.559 5.21961 20.5496Z" fill="#AF52FF"/>
<path d="M6.68657 17.9054C8.2876 15.4457 10.4543 13.1448 13.0498 11.1852C14.3637 10.1936 15.7365 9.33355 17.1341 8.60889C17.0257 7.93686 16.9021 7.33345 16.769 6.79395C15.1167 7.61354 13.4976 8.60889 11.9574 9.77249C9.49217 11.6344 7.38726 13.7924 5.74345 16.1093C5.49911 16.8471 5.26238 17.6037 5.03516 18.3754C5.50006 18.1432 6.05148 17.9863 6.68562 17.9064" fill="#AF52FF"/>
<path d="M11.9268 35.743C8.39577 35.2965 6.43442 33.6856 5.39338 32.3387C3.82943 30.3141 3.31699 27.6119 3.88838 24.5798C3.79425 24.3364 3.70869 24.0976 3.63453 23.8655C3.47006 24.6165 3.31414 25.374 3.16868 26.141C2.88441 27.6382 2.64578 29.1214 2.44897 30.5801C2.79884 31.6074 3.30178 32.5605 3.96348 33.4186C5.91818 35.9479 9.13164 37.4423 13.0125 37.6247C13.2939 37.6378 13.5782 37.6416 13.8634 37.6416C13.1931 37.01 12.5476 36.3774 11.9258 35.7439" fill="#AF52FF"/>
<path d="M13.932 37.7045C14.1307 37.0767 14.3247 36.4366 14.511 35.7862C11.8119 33.1836 9.53302 30.5603 7.84548 28.0846C6.51921 26.1409 5.61697 24.3579 5.23478 22.9293C4.92104 21.7572 4.96002 20.8436 5.34316 20.3558C5.76339 19.821 6.77116 19.5626 8.17918 19.6293C13.1477 19.8633 21.3268 23.7921 29.1912 29.6947C29.6609 29.3018 30.1153 28.8986 30.5508 28.485C22.3308 22.2657 13.6297 18.1057 8.2638 17.8529C6.19502 17.7561 4.73375 18.2307 3.92183 19.2646C2.45105 21.1369 3.31431 24.6211 6.35284 29.0781C8.24669 31.8555 10.846 34.804 13.932 37.7036" fill="#FFC310"/>
<path d="M44.6822 42.625C41.8129 38.4161 37.3255 33.8181 31.9767 29.5876C31.547 30.0031 31.1021 30.4101 30.6381 30.8086C35.9422 34.9752 40.3812 39.4998 43.1906 43.6194C44.5159 45.5631 45.4191 47.3461 45.8013 48.7748C46.115 49.9468 46.076 50.8604 45.6929 51.3482C45.2726 51.883 44.2649 52.1415 42.8568 52.0747C37.7343 51.8332 29.1996 47.6657 21.1137 41.4558C19.2969 40.06 17.577 38.6191 15.9788 37.1632C15.7877 37.8005 15.5909 38.4246 15.3884 39.0355C16.8449 40.3335 18.3899 41.6155 20.0099 42.86C28.3678 49.2795 37.3017 53.5936 42.7703 53.8512C44.8391 53.9489 46.3004 53.4733 47.1123 52.4394C48.5831 50.5671 47.7198 47.0829 44.6813 42.6259" fill="#FFC310"/>
<path d="M16.2205 28.5609C14.9493 35.2586 12.9547 41.4375 10.6026 45.9603C8.3741 50.2463 6.24827 52.112 5.13022 52.0593C5.08838 52.0575 5.0494 52.0528 5.00852 52.0452C4.21657 51.8986 2.70586 50.1974 2.06887 44.7563C1.46992 39.6442 1.86066 33.033 3.16887 26.1407C3.31433 25.3737 3.47025 24.6152 3.63472 23.8633C3.00534 21.8933 3.09091 20.3218 3.92184 19.2644C4.21086 18.8959 4.5845 18.6008 5.03609 18.3743C6.10756 14.735 7.38344 11.4416 8.78767 8.74125C11.0162 4.45531 13.142 2.58961 14.261 2.64224C14.3019 2.64412 14.3418 2.64882 14.3817 2.65634C15.1737 2.80297 16.6844 4.50418 17.3214 9.94526C17.6789 13.0018 17.6808 16.5969 17.3471 20.4646C17.9146 20.7203 18.4917 20.9928 19.0774 21.2833C20.1327 10.1661 18.4708 1.60553 14.7126 0.908129C14.5909 0.885571 14.4692 0.871473 14.3456 0.865833C9.81825 0.653416 4.09868 11.5967 1.40146 25.8127C-1.36991 40.4159 0.097065 52.9438 4.67767 53.7925C4.79936 53.8151 4.92201 53.8292 5.04465 53.8348C9.57202 54.0472 15.2916 43.104 17.9888 28.888C18.3586 26.9368 18.6534 25.0231 18.8749 23.1687C18.2959 22.8717 17.7255 22.5935 17.1626 22.3303C16.9364 24.3567 16.6226 26.4452 16.2205 28.56" fill="#4BDCA3"/>
</g>
<defs>
<clipPath id="clip0_1540_5083">
<rect width="161" height="53" fill="white" transform="translate(0 0.863281)"/>
</clipPath>
</defs>
</svg>
